<?xml version="1.0" standalone="no"?>
<!DOCTYPE svg PUBLIC "-//W3C//DTD SVG 20010904//EN"
 "http://www.w3.org/TR/2001/REC-SVG-20010904/DTD/svg10.dtd">
<svg version="1.0" xmlns="http://www.w3.org/2000/svg"
 width="600.000000pt" height="587.000000pt" viewBox="0 0 600.000000 587.000000"
 preserveAspectRatio="xMidYMid meet">
<g transform="translate(0.000000,587.000000) scale(0.100000,-0.100000)"
fill="#fe2607" stroke="none">
<path d="M3043 5560 c-101 -99 -183 -183 -183 -185 0 -3 32 -5 70 -5 l70 0 0
-770 0 -770 -586 0 -586 0 7 -215 8 -215 -327 -2 -326 -3 -3 -662 -2 -662 198
-3 c125 -2 201 1 205 7 4 6 7 218 7 473 0 400 2 464 15 472 9 6 142 10 313 10
l297 0 0 188 c0 147 3 192 14 208 16 21 220 23 901 8 l300 -6 -3 971 -2 971
64 0 c36 0 68 5 71 10 4 6 -71 89 -167 185 l-173 175 -182 -180z"/>
<path d="M2548 4872 c-22 -37 -58 -216 -58 -287 0 -55 9 -60 93 -58 103 3 147
49 147 153 0 79 -43 92 -87 27 -35 -51 -31 -97 7 -97 39 0 39 -16 -1 -24 -79
-16 -119 -5 -119 33 0 32 34 196 49 233 15 40 -10 57 -31 20z m142 -192 c0
-13 -28 -25 -38 -16 -3 4 0 11 8 16 20 13 30 12 30 0z"/>
<path d="M2725 4850 c-3 -5 -19 -7 -34 -4 -22 5 -32 2 -40 -14 -15 -29 8 -58
36 -44 14 8 23 8 31 0 13 -13 52 16 52 38 0 18 -37 37 -45 24z"/>
<path d="M2371 4776 c-15 -17 -6 -56 13 -56 23 0 48 26 44 46 -4 24 -40 30
-57 10z"/>
<path d="M1981 4734 c-22 -16 -27 -40 -12 -63 16 -26 61 2 61 38 0 35 -20 45
-49 25z"/>
<path d="M2055 4660 c-4 -12 -4 -42 0 -66 7 -51 -5 -78 -45 -99 -32 -16 -97
-20 -119 -6 -17 11 -7 73 14 91 8 7 15 21 15 31 0 61 -71 -40 -77 -109 -5 -63
5 -74 69 -79 107 -8 183 69 183 185 0 70 -24 101 -40 52z"/>
<path d="M2380 4654 c-8 -14 -15 -36 -15 -47 0 -18 -7 -23 -37 -25 -33 -3 -38
0 -38 18 0 35 -18 59 -40 53 -41 -11 -83 -123 -46 -123 28 0 26 -19 -3 -49
-31 -32 -83 -47 -132 -37 -43 8 -22 -28 26 -44 60 -20 106 5 154 84 13 20 28
36 34 37 98 7 127 35 127 120 0 45 -11 50 -30 13z m-130 -64 c0 -5 -4 -10 -10
-10 -5 0 -10 5 -10 10 0 6 5 10 10 10 6 0 10 -4 10 -10z"/>
<path d="M2589 3024 c-20 -6 -29 -480 -29 -1486 l0 -658 -322 -1 c-428 -1
-1041 -9 -1045 -13 -2 -2 -4 -79 -4 -170 l0 -167 887 1 c488 0 890 3 895 6 5
2 9 161 9 351 0 191 1 347 3 349 1 1 391 4 867 7 l865 6 5 883 c3 486 3 885 2
888 -5 7 -1143 0 -1215 -8 l-62 -7 -6 -435 c-3 -239 -7 -555 -8 -702 l-1 -268
-225 0 -225 0 -2 488 c-1 268 -2 588 -2 712 l-1 225 -185 2 c-102 1 -192 -1
-201 -3z m1716 -906 c-4 -277 -8 -504 -9 -504 0 -1 -103 -4 -228 -7 l-228 -6
0 510 0 509 236 0 236 0 -7 -502z m-1434 -676 c6 -16 4 -32 -6 -52 -27 -52
-35 -45 -35 31 0 75 17 84 41 21z"/>
<path d="M1864 2611 c-21 -9 -21 -17 -26 -273 -3 -144 -5 -264 -4 -265 1 -1
87 -3 191 -3 l190 -2 0 261 c0 200 -3 263 -13 273 -16 16 -305 23 -338 9z"/>
<path d="M1190 1467 c0 -135 -3 -253 -6 -262 -6 -15 10 -16 192 -13 110 2 205
7 212 11 20 13 17 470 -4 488 -11 9 -70 14 -205 17 l-189 5 0 -246z"/>
<path d="M1835 1450 l0 -260 193 0 192 0 0 260 0 260 -192 0 -193 0 0 -260z"/>
</g>
</svg>
