<?xml version="1.0" standalone="no"?>
<!DOCTYPE svg PUBLIC "-//W3C//DTD SVG 20010904//EN"
 "http://www.w3.org/TR/2001/REC-SVG-20010904/DTD/svg10.dtd">
<svg version="1.0" xmlns="http://www.w3.org/2000/svg"
 width="319.000000pt" height="441.000000pt" viewBox="0 0 319.000000 441.000000"
 preserveAspectRatio="xMidYMid meet">
<g transform="translate(0.000000,441.000000) scale(0.100000,-0.100000)"
fill="currentColor" stroke="none">
<path d="M2134 4363 c-75 -97 -110 -164 -169 -321 -43 -116 -91 -299 -116
-442 -20 -113 -17 -679 3 -785 l16 -80 -32 -33 c-49 -53 -273 -245 -387 -333
-57 -44 -119 -92 -137 -106 -18 -14 -38 -35 -44 -47 -11 -20 -10 -20 8 -7 10
8 29 25 42 38 13 13 29 20 35 17 7 -4 9 -4 5 1 -8 9 61 61 75 57 5 -1 5 3 1 9
-5 9 -2 10 10 6 9 -4 15 -3 12 2 -8 12 31 44 43 36 7 -4 8 1 4 12 -3 10 -3 15
1 11 4 -3 16 2 27 13 11 11 25 17 31 13 6 -4 8 -3 5 3 -3 5 14 26 38 46 45 38
61 46 49 25 -4 -8 -3 -10 2 -5 5 5 9 12 9 16 0 8 35 42 164 161 55 50 68 67
59 78 -15 18 -19 99 -24 500 -3 238 -1 342 7 342 7 0 8 11 4 31 -4 17 -3 29 1
26 5 -3 10 7 10 21 2 37 33 182 45 207 5 11 8 29 8 40 -2 25 32 119 73 202 24
48 34 61 49 58 11 -2 17 0 14 6 -4 5 -11 6 -17 3 -8 -5 -9 -1 -5 10 4 10 7 22
7 27 0 6 5 7 12 3 8 -5 9 -2 5 9 -3 10 -3 17 2 17 5 0 11 10 15 23 5 17 8 19
15 8 5 -8 11 -9 15 -3 3 6 1 12 -5 14 -8 3 -8 10 2 26 8 12 17 22 21 22 12 0
21 -44 9 -48 -6 -2 -11 -8 -11 -13 0 -6 4 -8 9 -4 6 3 10 -3 9 -12 0 -34 12
-168 22 -233 13 -89 17 -131 12 -126 -2 3 -20 -11 -39 -31 -26 -25 -41 -33
-57 -29 -19 5 -20 4 -3 -8 17 -13 25 -32 8 -22 -5 3 -14 -8 -21 -24 -7 -17
-17 -27 -24 -23 -6 3 -8 3 -4 -2 4 -4 -3 -28 -16 -54 -12 -25 -29 -66 -36 -91
-7 -25 -17 -50 -21 -55 -5 -6 -8 -20 -7 -30 1 -11 -7 -60 -17 -110 -9 -49 -17
-119 -18 -155 0 -48 -2 -58 -8 -40 -7 20 -8 18 -4 -10 2 -19 5 -117 7 -217 1
-100 4 -180 6 -178 2 1 5 112 7 246 2 163 8 274 19 335 40 231 118 391 230
470 l29 21 -27 249 c-15 137 -29 250 -30 252 -2 1 -16 -14 -32 -35z m-267
-1495 c-3 -8 -6 -5 -6 6 -1 11 2 17 5 13 3 -3 4 -12 1 -19z"/>
<path d="M2035 4109 c-4 -6 -5 -12 -2 -15 2 -3 7 2 10 11 7 17 1 20 -8 4z"/>
<path d="M1895 3689 c-4 -6 -5 -12 -2 -15 2 -3 7 2 10 11 7 17 1 20 -8 4z"/>
<path d="M2425 3684 c-11 -2 -50 -6 -86 -9 -63 -6 -66 -7 -67 -33 l-1 -27 84
4 84 3 -10 -36 c-55 -200 -191 -436 -384 -665 -52 -63 -93 -117 -90 -120 4 -3
11 2 16 12 6 9 16 14 22 11 7 -4 9 -4 5 1 -10 11 62 96 75 88 6 -3 7 -1 3 5
-7 12 38 65 47 56 2 -2 10 4 18 13 13 16 12 17 -3 4 -10 -7 -18 -10 -18 -6 0
13 53 70 62 67 5 -1 6 2 3 8 -4 6 0 19 9 28 26 27 65 85 77 115 9 21 14 25 24
17 16 -13 28 1 19 23 -3 9 8 43 24 76 24 48 32 58 43 48 11 -10 11 -9 0 5 -10
14 -9 23 7 55 11 21 30 71 42 111 27 92 21 101 -60 99 -32 -1 -56 1 -54 5 2 3
1 8 -3 11 -5 2 -3 3 3 1 6 -1 29 1 52 6 29 5 42 4 42 -4 0 -7 3 -8 8 -1 12 17
37 11 34 -8 -2 -9 2 -17 8 -17 6 0 8 5 4 12 -5 7 -3 8 5 4 7 -5 10 -15 7 -23
-3 -8 -1 -11 4 -8 9 6 15 -22 11 -54 -2 -7 2 -10 7 -7 8 5 7 -127 -1 -174 -10
-53 -116 -293 -117 -265 0 6 -5 2 -11 -8 -5 -9 -7 -22 -4 -27 3 -6 -1 -7 -10
-4 -11 5 -14 2 -8 -12 4 -12 3 -15 -5 -10 -7 4 -10 2 -7 -6 4 -12 -7 -31 -95
-164 -58 -86 -74 -108 -91 -124 -9 -8 -21 -25 -28 -38 -7 -12 -16 -20 -21 -17
-6 3 -7 0 -4 -8 3 -8 -1 -21 -8 -28 -7 -8 -38 -43 -68 -79 -117 -139 -242
-270 -253 -263 -5 3 -7 2 -4 -4 6 -9 -69 -91 -78 -85 -3 1 -5 -1 -6 -5 -1 -12
-31 -43 -41 -43 -5 0 -6 5 -2 12 4 7 3 8 -4 4 -6 -4 -8 -14 -5 -23 4 -11 3
-14 -6 -9 -6 4 -10 3 -9 -2 2 -5 -13 -22 -32 -38 -19 -16 -41 -37 -49 -47 -8
-11 -20 -16 -29 -12 -9 3 -13 3 -10 -1 11 -11 -62 -76 -78 -70 -9 3 -12 1 -9
-4 3 -6 2 -10 -4 -10 -5 0 -12 6 -15 13 -3 6 -3 0 -1 -14 3 -22 -4 -31 -38
-53 -47 -30 -127 -99 -127 -110 0 -10 48 24 162 116 211 170 472 422 613 593
28 33 52 62 55 65 61 60 262 352 346 502 102 182 147 360 119 471 -11 45 -52
118 -63 116 -4 -1 -16 -3 -27 -5z m-117 -459 c-3 -3 -9 2 -12 12 -6 14 -5 15
5 6 7 -7 10 -15 7 -18z"/>
<path d="M2557 3349 c-23 -75 -110 -250 -187 -379 -147 -244 -334 -475 -589
-730 -97 -96 -196 -192 -221 -214 -36 -30 -40 -37 -20 -31 14 4 30 11 36 16
16 13 51 -17 64 -57 9 -27 15 -33 23 -25 8 8 8 14 2 19 -10 7 -35 48 -35 57 0
3 9 1 19 -5 34 -18 37 -11 5 9 -18 11 -34 24 -38 29 -5 9 46 65 58 63 3 -1 6
2 5 5 -2 11 54 63 63 58 5 -3 7 0 6 8 -2 7 4 12 12 10 8 -2 12 -1 8 3 -8 8 63
81 75 77 5 -1 6 1 3 6 -6 10 47 65 61 63 4 -1 9 4 9 9 1 6 2 13 3 16 0 4 9 0
19 -7 14 -11 15 -11 5 0 -9 11 -1 27 44 80 31 36 64 72 75 79 10 7 18 19 18
25 1 19 49 69 60 62 5 -3 7 0 5 8 -6 14 49 69 59 59 4 -3 14 -7 22 -8 9 -1 13
1 9 4 -4 4 -10 7 -13 7 -27 1 -37 35 -11 35 6 0 8 -4 5 -8 -3 -5 1 -9 9 -9 19
0 19 2 1 20 -13 13 -12 17 10 37 13 13 24 18 24 11 0 -7 5 -9 11 -5 8 5 8 9
-1 14 -17 11 10 52 30 45 11 -5 12 -3 3 6 -12 12 -10 17 33 63 11 13 18 29 16
37 -3 9 4 7 19 -6 l24 -20 -17 21 c-20 22 -24 39 -8 29 6 -4 7 1 3 11 -4 10
-2 15 3 11 6 -3 23 19 38 49 15 30 32 51 38 48 6 -4 8 1 3 15 -3 11 -2 21 3
21 6 0 13 11 16 25 4 14 11 23 16 20 5 -3 8 0 5 7 -6 16 30 90 39 80 4 -3 4 2
0 12 -5 13 -4 17 4 12 8 -4 10 -2 6 8 -3 8 -1 23 4 33 9 15 11 12 17 -19 4
-20 4 -45 1 -55 -3 -10 -8 -36 -12 -58 -13 -85 -76 -280 -87 -269 -3 3 -3 -4
0 -17 4 -13 2 -20 -4 -16 -5 3 -15 -14 -21 -39 -7 -24 -16 -44 -22 -44 -5 0
-10 -12 -10 -26 0 -15 -4 -23 -10 -19 -6 4 -10 3 -9 -2 4 -12 -23 -63 -33 -63
-4 0 -7 -3 -6 -7 3 -15 -39 -93 -46 -85 -4 4 -6 0 -4 -8 2 -8 -2 -14 -9 -13
-8 2 -10 -4 -6 -14 4 -10 2 -14 -4 -10 -6 4 -10 -1 -9 -11 0 -9 -5 -16 -12
-14 -7 1 -12 -3 -10 -10 4 -18 -63 -99 -75 -91 -6 3 -7 1 -4 -4 11 -18 -12
-55 -105 -171 -21 -26 -38 -50 -38 -55 0 -4 -5 -5 -12 -1 -6 4 -8 3 -5 -2 3
-6 -16 -33 -42 -62 -26 -29 -46 -52 -45 -52 2 0 -18 -21 -44 -47 -26 -27 -80
-83 -119 -127 -42 -46 -77 -76 -85 -73 -8 4 -7 6 5 6 10 1 15 5 12 11 -7 11
-45 -9 -45 -23 0 -4 5 -5 11 -1 7 4 10 1 7 -7 -3 -8 -11 -13 -17 -11 -7 1 -10
-2 -6 -8 11 -19 -6 -32 -23 -18 -15 12 -16 11 -3 -4 11 -15 11 -19 -3 -24 -9
-3 -13 -10 -10 -15 3 -5 1 -9 -5 -9 -6 0 -35 -24 -66 -53 -30 -30 -57 -52 -60
-50 -3 1 -3 0 0 -3 10 -15 -45 -44 -83 -44 -36 0 -59 -10 -47 -21 2 -2 25 -3
50 -1 44 4 53 10 171 124 68 66 121 125 117 131 -3 5 -2 7 4 4 15 -9 187 168
178 183 -5 8 -4 11 3 6 18 -11 251 271 378 459 235 348 360 690 335 915 l-6
55 -18 -56z m-930 -1336 c-8 -7 -37 9 -31 19 3 5 12 4 20 -3 8 -6 13 -14 11
-16z"/>
<path d="M1500 3183 c-48 -8 -206 -93 -292 -158 -168 -127 -250 -266 -250
-425 0 -87 16 -152 56 -227 l33 -62 -25 -23 c-14 -13 -58 -62 -98 -110 -194
-232 -311 -487 -349 -763 -38 -265 0 -515 107 -716 l41 -77 -24 -33 c-64 -92
-150 -175 -227 -218 -8 -5 -12 -13 -8 -19 5 -8 26 -4 70 12 78 28 140 64 211
122 l55 44 83 -71 c137 -119 263 -196 427 -263 154 -63 538 -151 830 -190 105
-14 -59 50 -357 139 -418 127 -710 266 -868 416 l-53 50 29 63 c48 102 80 304
47 291 -9 -4 -14 -30 -15 -77 -1 -39 -7 -76 -13 -82 -13 -13 -13 -29 0 -21 6
4 -1 -20 -16 -52 -14 -32 -29 -66 -31 -76 -4 -13 -12 -17 -27 -13 -18 4 -19 3
-5 -7 20 -15 18 -51 -6 -77 -17 -18 -42 -19 -30 0 3 5 1 11 -4 15 -6 3 -8 -4
-6 -16 3 -15 0 -19 -11 -15 -8 3 -13 2 -10 -2 5 -9 -22 -48 -32 -44 -4 1 -20
-10 -36 -25 -17 -16 -26 -21 -21 -13 4 8 -6 2 -23 -13 -16 -16 -33 -29 -36
-28 -19 3 -26 0 -21 -9 3 -6 -5 -10 -19 -10 -13 0 -27 -6 -29 -12 -4 -9 -6
-10 -6 -1 -1 6 17 22 39 34 22 12 37 25 35 28 -3 2 9 19 26 37 25 26 36 31 50
24 12 -7 20 -6 25 2 4 6 3 8 -3 5 -6 -4 -17 1 -24 10 -8 9 -9 14 -2 10 7 -5
16 6 23 28 6 19 16 35 21 35 6 0 8 8 5 18 -4 10 3 44 13 75 l20 57 -24 70
c-34 99 -47 240 -35 370 16 181 27 232 70 338 102 252 212 413 516 756 296
334 374 488 361 716 -6 114 -23 155 -72 176 -35 14 -40 15 -85 7z m65 -33 c-3
-5 0 -7 8 -4 21 8 60 -50 52 -77 -5 -14 -2 -25 6 -30 10 -6 11 -9 2 -9 -7 0
-13 -5 -13 -11 0 -5 5 -7 10 -4 7 4 9 -7 6 -32 -2 -21 -5 -53 -5 -71 -1 -24
-5 -31 -13 -26 -10 6 -10 4 0 -7 15 -17 16 -43 0 -33 -7 4 -8 3 -4 -5 12 -19
-25 -133 -41 -127 -11 5 -11 1 -2 -17 12 -21 11 -21 -6 -7 -17 14 -17 14 -7
-6 9 -17 9 -24 -2 -33 -7 -6 -16 -8 -20 -4 -4 4 -4 -1 0 -11 5 -13 4 -17 -4
-12 -8 4 -10 2 -6 -7 3 -8 -6 -23 -20 -34 -14 -11 -22 -23 -19 -27 12 -12 -13
-6 -27 7 -8 6 -6 1 5 -12 l20 -24 -25 13 c-25 13 -25 13 -7 -8 14 -15 15 -22
6 -28 -8 -5 -10 -3 -4 6 6 9 4 11 -4 6 -7 -5 -10 -15 -7 -23 3 -8 2 -12 -3 -9
-4 3 -18 -8 -30 -25 -12 -16 -26 -27 -31 -24 -5 3 -7 -4 -5 -15 4 -18 -6 -25
-29 -21 -5 1 -4 -4 2 -12 10 -11 9 -17 -3 -27 -8 -7 -15 -9 -15 -5 0 4 -10 -5
-22 -21 -13 -16 -22 -32 -20 -37 1 -5 -2 -6 -8 -2 -5 3 -10 1 -10 -5 0 -6 -5
-8 -12 -4 -7 4 -8 3 -4 -4 13 -21 -5 -34 -20 -15 -13 17 -14 17 -8 0 4 -11 -7
-33 -32 -65 -42 -53 -60 -73 -51 -56 3 6 0 11 -8 11 -10 0 -11 -5 -6 -16 6
-10 2 -20 -15 -34 -13 -10 -21 -24 -17 -30 3 -7 3 -9 -2 -5 -11 11 -36 -12
-28 -25 3 -5 1 -7 -5 -3 -6 3 -14 -4 -18 -16 -8 -27 -35 -49 -49 -40 -5 3 -3
-3 5 -13 14 -17 13 -18 -7 -13 -16 4 -20 2 -16 -10 5 -11 3 -13 -8 -7 -12 8
-12 6 0 -8 11 -14 11 -18 -3 -23 -9 -3 -14 -10 -11 -14 3 -5 -11 -26 -32 -47
-21 -20 -32 -34 -25 -29 6 4 3 -9 -9 -28 -13 -22 -26 -33 -32 -29 -7 4 -5 -2
3 -12 12 -15 12 -17 1 -10 -11 6 -13 4 -8 -8 4 -11 1 -17 -8 -17 -8 0 -15 6
-15 13 0 6 -5 4 -11 -6 -5 -9 -7 -22 -4 -27 9 -15 -26 -101 -37 -94 -6 4 -5
-4 2 -16 10 -18 9 -21 -1 -15 -9 6 -10 3 -6 -9 5 -13 3 -17 -6 -13 -9 3 -12
-5 -12 -29 1 -18 -2 -31 -5 -29 -8 5 -35 -102 -45 -177 -3 -27 -10 -48 -14
-48 -6 0 -9 -37 -14 -242 -1 -36 1 -64 4 -62 12 7 16 -55 5 -67 -8 -9 -6 -10
7 -6 10 4 16 3 13 -1 -6 -10 16 -99 33 -130 8 -14 8 -22 1 -22 -5 0 -10 -5
-10 -11 0 -5 4 -8 9 -5 5 4 7 -3 4 -14 -5 -17 -8 -18 -21 -8 -8 7 -18 13 -21
13 -3 0 -5 4 -3 9 1 4 -2 14 -9 22 -6 8 -8 25 -4 41 6 26 5 27 -8 9 -13 -17
-15 -15 -28 30 -8 27 -14 54 -14 59 0 6 -6 16 -13 23 -7 8 -12 26 -12 40 -1
50 -5 80 -11 76 -12 -7 -9 89 3 104 9 11 9 14 1 9 -17 -10 -23 19 -17 83 6 65
15 206 16 237 0 13 4 21 8 18 13 -8 18 18 8 38 -6 11 -5 17 2 17 6 0 9 4 5 10
-8 13 36 161 46 154 5 -3 9 9 9 25 0 17 8 39 18 49 9 9 17 26 17 37 -1 11 7
27 17 36 10 9 18 21 18 27 0 6 7 18 16 26 9 9 11 16 4 16 -6 0 -8 5 -5 10 5 8
12 7 23 -2 13 -12 14 -10 4 9 -8 14 -9 24 -2 28 6 4 8 11 5 16 -4 5 -2 9 4 9
5 0 20 18 32 40 13 22 27 40 32 40 6 0 2 -10 -9 -22 l-19 -23 21 18 c14 12 20
25 17 38 -7 24 35 72 55 64 8 -3 12 0 9 7 -2 7 10 21 27 31 17 10 22 16 12 12
-19 -6 -19 -5 -3 13 9 10 14 22 10 27 -5 4 -3 5 3 2 7 -4 19 4 28 18 9 14 24
25 34 25 15 0 15 2 2 10 -8 5 -10 10 -4 10 24 0 22 30 -7 84 -17 31 -27 60
-24 65 3 5 -2 17 -11 25 -8 9 -12 16 -8 16 3 0 2 6 -4 13 -6 7 -8 50 -6 102 5
121 9 148 22 153 6 2 8 10 5 19 -5 12 -3 14 7 8 9 -5 11 -4 6 3 -4 7 4 24 18
39 14 15 23 29 22 32 -2 3 5 15 16 26 19 20 19 20 13 0 -5 -16 -5 -17 3 -5 6
8 9 17 6 22 -5 8 74 88 88 88 5 0 6 5 2 12 -4 7 -3 8 4 4 6 -4 20 1 31 11 54
50 74 67 68 56 -5 -7 0 -9 13 -6 11 3 20 9 20 14 0 20 148 82 207 87 21 1 32
-2 28 -8z m-725 -1451 c0 -6 -4 -7 -10 -4 -5 3 -10 11 -10 16 0 6 5 7 10 4 6
-3 10 -11 10 -16z m39 -1138 c14 -12 20 -25 15 -32 -5 -9 -2 -10 10 -6 9 4 14
3 11 -2 -3 -5 3 -12 13 -15 10 -4 28 -20 41 -36 12 -17 27 -28 32 -24 17 10
61 -18 54 -34 -4 -12 -3 -13 10 -2 12 10 15 10 15 -4 0 -9 6 -16 13 -14 13 2
59 -20 68 -34 3 -5 15 -10 26 -12 12 -3 41 -17 64 -32 24 -15 45 -27 47 -26
10 8 35 -2 53 -21 12 -12 18 -16 14 -9 -6 12 -3 12 16 1 13 -7 26 -14 29 -14
23 -4 50 -18 50 -26 0 -6 5 -7 10 -4 6 3 10 1 10 -5 0 -6 5 -8 10 -5 6 4 18 1
27 -7 14 -11 16 -11 8 2 -7 12 -6 13 6 4 8 -6 28 -15 44 -19 17 -5 33 -9 38
-10 4 -2 13 -3 20 -4 8 -1 8 -4 -3 -12 -11 -8 -8 -9 13 -4 19 4 26 2 22 -4 -4
-7 5 -9 24 -7 17 2 32 0 33 -5 2 -5 21 -11 43 -14 50 -7 95 -25 95 -36 0 -9
-12 -8 -75 7 -45 10 -77 14 -110 15 -24 0 -27 2 -15 10 12 8 10 9 -10 8 -29
-2 -80 10 -96 23 -6 4 -20 5 -29 1 -14 -5 -16 -3 -10 7 5 9 4 11 -4 6 -7 -5
-24 -3 -39 3 -15 6 -39 13 -54 15 -29 5 -70 25 -53 26 6 0 3 4 -5 10 -9 6 -20
5 -29 -3 -12 -10 -14 -9 -7 8 5 15 4 17 -5 8 -13 -13 -54 -2 -103 28 -16 10
-34 15 -39 12 -6 -3 -7 -1 -3 6 4 6 12 9 17 6 5 -3 6 1 3 9 -5 14 -8 14 -21 1
-19 -19 -24 -19 -17 0 5 11 2 13 -12 8 -13 -5 -15 -3 -9 7 6 10 4 12 -9 7 -10
-4 -15 -3 -11 3 3 6 1 10 -6 10 -17 0 -147 87 -175 116 -16 17 -19 25 -10 34
8 9 4 9 -14 0 -22 -12 -24 -12 -12 2 10 13 10 18 1 24 -8 4 -9 3 -5 -4 4 -7 1
-12 -6 -12 -20 1 -45 24 -41 38 3 6 0 12 -7 12 -8 0 -8 6 0 20 13 24 12 24 39
1z m121 -103 c0 -6 -6 -5 -15 2 -8 7 -15 14 -15 16 0 2 7 1 15 -2 8 -4 15 -11
15 -16z m894 -378 c-22 -9 -29 -6 -20 9 4 6 14 7 23 4 15 -6 14 -7 -3 -13z
m77 -15 c33 -16 33 -16 4 -9 -16 4 -39 6 -50 6 -16 -1 -17 1 -5 8 18 12 12 13
51 -5z"/>
<path d="M1465 2991 c-33 -16 -64 -27 -69 -24 -5 4 -6 1 -2 -6 4 -6 0 -14 -11
-18 -10 -4 -28 -17 -40 -30 -13 -13 -23 -19 -23 -12 0 7 -8 3 -17 -8 -10 -11
-26 -22 -36 -26 -9 -4 -16 -12 -15 -19 2 -7 -4 -12 -12 -13 -8 0 -14 -7 -12
-14 1 -7 -2 -10 -8 -6 -5 3 -10 2 -10 -2 0 -5 -16 -26 -35 -46 -19 -20 -35
-44 -35 -53 0 -9 -5 -12 -12 -8 -7 4 -8 3 -4 -4 4 -7 0 -22 -8 -34 -9 -12 -16
-31 -16 -41 0 -11 -4 -15 -12 -11 -8 5 -9 -7 -4 -47 4 -30 8 -59 8 -66 1 -7 5
-10 9 -7 4 2 10 -5 14 -16 3 -11 11 -20 16 -20 6 0 7 -5 3 -12 -4 -6 -3 -8 4
-4 6 3 13 2 17 -4 6 -10 40 -9 51 3 4 4 14 7 23 7 13 0 13 -2 3 -9 -11 -7 -11
-9 1 -14 16 -6 17 9 4 31 -5 8 -2 12 8 12 10 0 13 5 9 12 -4 6 -3 8 3 5 6 -4
19 4 29 18 10 13 21 22 26 19 4 -3 8 0 8 6 0 6 5 8 10 5 6 -4 9 -1 8 7 -2 7 3
12 11 10 12 -3 12 -1 1 13 -7 9 -9 15 -4 14 19 -3 34 1 34 12 0 5 -5 7 -12 3
-7 -5 -8 -3 -3 6 6 10 13 7 28 -11 l19 -24 -16 28 c-16 27 -16 27 9 37 15 6
23 14 20 20 -3 5 8 25 24 42 17 18 34 41 37 51 3 9 9 15 14 12 4 -3 11 2 14
11 3 9 2 12 -5 8 -6 -3 -5 3 3 15 7 12 18 21 25 21 6 0 15 4 18 10 4 6 -1 7
-12 3 -16 -6 -16 -5 -5 10 8 8 21 13 30 10 15 -4 15 -3 2 6 -13 10 -13 12 0
21 12 8 12 10 1 10 -10 0 -12 10 -8 40 4 34 1 45 -18 64 -13 13 -21 27 -18 30
10 10 0 6 -62 -23z m73 -57 c2 -29 -5 -55 -27 -96 -84 -160 -301 -399 -346
-381 -25 9 -55 69 -55 109 1 89 81 202 220 308 114 87 147 106 180 103 22 -2
25 -8 28 -43z"/>
<path d="M1235 3000 c-4 -6 -1 -9 7 -8 7 2 12 -3 10 -10 -1 -8 2 -11 8 -7 8 5
7 11 -1 21 -14 17 -16 17 -24 4z"/>
<path d="M1315 2950 c-3 -6 1 -7 9 -4 18 7 21 14 7 14 -6 0 -13 -4 -16 -10z"/>
<path d="M1066 2822 c-3 -5 1 -9 9 -9 8 0 12 4 9 9 -3 4 -7 8 -9 8 -2 0 -6 -4
-9 -8z"/>
<path d="M1174 2794 c-18 -14 -18 -15 4 -4 12 6 22 13 22 15 0 8 -5 6 -26 -11z"/>
<path d="M1031 2744 c0 -11 3 -14 6 -6 3 7 2 16 -1 19 -3 4 -6 -2 -5 -13z"/>
<path d="M1420 2591 c0 -6 4 -13 10 -16 6 -3 7 1 4 9 -7 18 -14 21 -14 7z"/>
<path d="M1316 2499 c4 -8 30 -6 38 2 3 3 -5 5 -19 5 -13 0 -22 -3 -19 -7z"/>
<path d="M1374 2476 c1 -8 5 -18 8 -22 4 -3 5 1 4 10 -1 8 -5 18 -8 22 -4 3
-5 -1 -4 -10z"/>
<path d="M1321 2383 c-1 -17 16 -25 25 -12 4 7 3 9 -4 5 -5 -3 -13 0 -15 6 -4
9 -6 10 -6 1z"/>
<path d="M1290 2340 c-6 -11 -8 -20 -6 -20 3 0 10 9 16 20 6 11 8 20 6 20 -3
0 -10 -9 -16 -20z"/>
<path d="M1100 2260 c-9 -6 -10 -10 -3 -10 6 0 15 5 18 10 8 12 4 12 -15 0z"/>
<path d="M1009 2213 c-12 -16 -12 -17 2 -6 9 7 20 9 24 5 5 -4 5 -1 1 6 -9 16
-11 15 -27 -5z"/>
<path d="M1009 2183 c-13 -16 -12 -17 4 -4 9 7 17 15 17 17 0 8 -8 3 -21 -13z"/>
<path d="M910 2111 c0 -7 -4 -9 -10 -6 -5 3 -10 1 -10 -4 0 -6 4 -11 9 -11 13
0 25 20 17 27 -3 4 -6 1 -6 -6z"/>
<path d="M780 1881 c0 -6 4 -13 10 -16 6 -3 7 1 4 9 -7 18 -14 21 -14 7z"/>
<path d="M890 1870 c0 -11 2 -20 4 -20 2 0 6 9 9 20 3 11 1 20 -4 20 -5 0 -9
-9 -9 -20z"/>
<path d="M621 934 c0 -11 3 -14 6 -6 3 7 2 16 -1 19 -3 4 -6 -2 -5 -13z"/>
<path d="M860 521 c0 -6 4 -13 10 -16 6 -3 7 1 4 9 -7 18 -14 21 -14 7z"/>
<path d="M1009 438 c0 -2 -2 -11 -4 -21 -3 -15 -1 -16 11 -6 16 13 19 29 4 29
-5 0 -10 -1 -11 -2z"/>
<path d="M1289 288 c-7 -23 -5 -39 6 -48 10 -9 13 -7 10 7 -2 10 -4 20 -5 23
-1 3 -2 8 -1 13 1 6 -8 11 -10 5z"/>
<path d="M1315 270 c3 -5 11 -10 16 -10 6 0 7 5 4 10 -3 6 -11 10 -16 10 -6 0
-7 -4 -4 -10z"/>
<path d="M1798 103 c7 -3 16 -2 19 1 4 3 -2 6 -13 5 -11 0 -14 -3 -6 -6z"/>
<path d="M2632 3090 c-25 -109 -66 -217 -136 -355 -167 -328 -455 -695 -868
-1102 l-145 -143 87 0 c48 0 154 3 236 6 l150 7 44 66 c267 397 496 854 591
1178 34 118 61 286 57 352 l-3 46 -13 -55z m-22 -189 c-5 -11 -10 -33 -10 -50
0 -16 -5 -33 -10 -36 -6 -4 -8 -10 -6 -14 8 -12 -88 -300 -102 -311 -4 -3 -14
-24 -22 -47 -7 -24 -17 -43 -23 -43 -5 0 -7 -7 -3 -15 3 -8 -2 -21 -10 -29 -8
-9 -14 -18 -13 -21 2 -10 -100 -213 -111 -220 -5 -3 -10 -14 -10 -24 0 -10 -9
-26 -20 -36 -11 -10 -20 -24 -20 -31 0 -18 -47 -97 -52 -87 -3 4 -3 2 -1 -5 2
-8 -6 -25 -17 -39 -11 -14 -18 -29 -15 -33 3 -4 -3 -14 -12 -21 -9 -8 -14 -9
-10 -3 3 6 0 11 -8 11 -10 0 -11 -5 -4 -19 6 -11 6 -18 0 -18 -5 0 -13 -9 -16
-20 -4 -11 -11 -18 -16 -15 -5 3 -6 -1 -3 -10 4 -9 -5 -30 -20 -49 -14 -19
-26 -37 -26 -41 0 -3 -4 -11 -10 -18 -5 -7 -29 -41 -53 -77 l-43 -65 -209 -2
-209 -2 39 32 c59 49 327 326 383 396 19 22 38 39 43 35 5 -3 6 1 3 9 -3 8 8
25 26 41 17 14 29 26 25 26 -3 0 6 12 20 27 14 15 25 32 25 36 0 5 7 7 14 4
11 -4 13 -1 9 10 -5 13 -2 15 11 10 10 -4 15 -3 11 3 -8 13 25 61 36 54 5 -3
9 -2 7 3 -4 16 44 83 55 76 6 -4 8 0 4 10 -3 10 -3 17 2 17 4 0 14 11 21 25 7
14 17 25 22 25 5 0 6 -5 2 -12 -4 -6 -3 -8 4 -5 5 4 8 17 4 29 -3 13 -1 19 5
15 6 -4 14 0 17 9 4 10 2 13 -7 8 -6 -4 -3 2 7 14 13 15 23 19 31 12 9 -7 11
-2 10 20 -1 16 2 27 6 25 4 -3 10 6 13 19 3 14 12 31 19 38 6 7 21 30 31 50
11 20 24 34 30 31 5 -4 7 1 3 10 -3 10 -3 17 2 17 5 0 20 26 35 58 15 31 31
64 35 72 27 47 65 137 62 149 -1 8 2 10 9 6 9 -5 10 -1 6 16 -6 20 -5 21 4 7
8 -13 8 -24 0 -37z"/>
<path d="M2541 2694 c0 -11 3 -14 6 -6 3 7 2 16 -1 19 -3 4 -6 -2 -5 -13z"/>
<path d="M2144 2119 c-3 -6 -2 -15 3 -20 5 -5 9 -1 9 11 0 23 -2 24 -12 9z"/>
<path d="M2006 1682 c-3 -5 1 -9 9 -9 8 0 12 4 9 9 -3 4 -7 8 -9 8 -2 0 -6 -4
-9 -8z"/>
<path d="M1583 2425 c0 -8 4 -12 9 -9 5 3 6 10 3 15 -9 13 -12 11 -12 -6z"/>
<path d="M2100 2309 c-7 -11 -10 -23 -7 -25 2 -2 9 7 15 21 14 30 7 33 -8 4z"/>
<path d="M1874 2288 l-19 -23 23 19 c21 18 27 26 19 26 -2 0 -12 -10 -23 -22z"/>
<path d="M1714 2128 l-19 -23 23 19 c21 18 27 26 19 26 -2 0 -12 -10 -23 -22z"/>
<path d="M1170 2106 c0 -2 8 -10 18 -17 15 -13 16 -12 3 4 -13 16 -21 21 -21
13z"/>
<path d="M1073 1897 c-197 -249 -248 -315 -266 -346 -27 -46 -6 -37 23 9 14
22 33 43 42 46 10 3 17 9 15 14 -4 16 38 70 50 66 8 -3 10 1 6 11 -4 11 -2 14
5 9 7 -4 10 -2 7 6 -3 7 13 28 35 47 21 18 44 49 51 68 7 22 16 33 24 29 9 -3
12 0 8 10 -7 20 7 18 24 -3 13 -16 13 -16 3 4 -8 18 -7 28 6 48 9 14 20 22 25
19 5 -3 6 2 3 10 -8 21 5 20 23 -1 13 -16 13 -15 3 6 -10 19 -9 27 7 42 18 19
19 19 19 -1 0 -11 -4 -20 -9 -20 -4 0 -6 -4 -2 -9 3 -6 7 -44 9 -86 3 -42 10
-83 16 -90 7 -8 10 -22 6 -30 -3 -9 -2 -13 4 -10 6 3 10 -3 10 -14 0 -12 3
-21 8 -21 12 0 52 -103 55 -142 1 -9 5 -14 9 -12 8 5 12 -17 10 -48 -1 -10 3
-18 9 -18 5 0 7 -5 3 -11 -3 -6 -2 -14 3 -18 5 -3 20 -28 33 -56 21 -46 28
-77 30 -145 0 -19 2 -22 10 -10 6 10 9 -9 8 -58 0 -39 -4 -69 -9 -66 -5 3 -6
-2 -3 -10 3 -8 -12 -32 -38 -60 -35 -36 -48 -44 -67 -39 -15 4 -22 2 -18 -4 4
-6 -49 -11 -149 -12 -149 -2 -184 -6 -184 -20 0 -10 322 -2 358 10 45 15 102
66 118 106 17 39 18 143 3 198 -6 22 -48 135 -94 250 -117 295 -117 297 -114
392 2 46 -1 87 -7 93 -6 6 -49 -40 -121 -133z m-53 -97 c-6 -11 -13 -20 -16
-20 -2 0 0 9 6 20 6 11 13 20 16 20 2 0 0 -9 -6 -20z"/>
<path d="M1261 2024 c0 -11 3 -14 6 -6 3 7 2 16 -1 19 -3 4 -6 -2 -5 -13z"/>
<path d="M1086 1988 c3 -5 10 -6 15 -3 13 9 11 12 -6 12 -8 0 -12 -4 -9 -9z"/>
<path d="M1540 1979 c-19 -5 -54 -17 -78 -25 -47 -18 -47 -12 -10 -111 11 -29
23 -55 27 -57 8 -5 157 31 178 43 16 9 -46 155 -67 158 -8 1 -31 -3 -50 -8z
m74 -70 c20 -56 18 -61 -36 -78 -66 -22 -88 -23 -88 -6 0 10 -5 13 -12 9 -7
-4 -10 -4 -6 1 4 4 3 14 -4 22 -17 20 -17 71 -1 77 8 3 12 2 9 -3 -3 -5 11 0
31 10 21 11 49 19 63 19 22 0 29 -8 44 -51z"/>
<path d="M1492 1870 c0 -14 2 -19 5 -12 2 6 2 18 0 25 -3 6 -5 1 -5 -13z"/>
<path d="M1666 1911 c-7 -10 19 -77 32 -85 21 -13 19 9 -2 38 -13 17 -21 37
-19 44 5 14 -3 16 -11 3z"/>
<path d="M1328 1829 c-72 -61 -89 -79 -70 -79 5 0 12 6 15 14 3 8 16 13 31 12
14 -2 24 0 23 3 -4 13 53 72 63 66 6 -3 7 0 4 9 -12 32 6 15 23 -21 9 -21 22
-41 27 -45 6 -4 7 -8 2 -8 -5 0 -1 -9 9 -20 10 -11 25 -20 34 -20 10 0 6 7
-12 19 -16 10 -28 21 -27 25 2 12 -35 106 -41 106 -4 0 -40 -28 -81 -61z m22
-2 c0 -2 -10 -12 -22 -23 l-23 -19 19 23 c18 21 26 27 26 19z"/>
<path d="M600 1803 c-171 -100 -509 -279 -580 -307 -14 -5 141 1 225 9 22 2
85 6 140 10 140 8 186 15 179 26 -3 5 -20 7 -37 4 -18 -2 -99 -9 -182 -15 -82
-5 -167 -13 -188 -16 -24 -4 -37 -3 -37 4 0 7 7 9 17 5 10 -4 14 -2 10 4 -4 6
6 16 23 22 17 5 38 17 46 26 9 8 20 12 26 9 5 -3 20 4 32 15 13 12 36 24 51
27 37 7 47 13 39 25 -3 6 0 9 7 7 8 -1 27 6 43 17 16 11 34 20 40 20 6 0 12 4
13 9 2 9 81 54 148 85 32 15 101 72 84 71 -2 -1 -47 -26 -99 -57z"/>
<path d="M939 1795 c-1 -3 -2 -8 -3 -12 -1 -5 -5 -15 -10 -23 -7 -12 -6 -13 4
-3 13 12 23 43 14 43 -2 0 -5 -2 -5 -5z"/>
<path d="M1542 1776 c-24 -6 -40 -14 -37 -18 4 -4 18 -3 31 3 14 5 38 10 54
11 16 1 26 6 24 10 -6 10 -18 9 -72 -6z"/>
<path d="M2136 1703 c-6 -14 -5 -15 5 -6 7 7 10 15 7 18 -3 3 -9 -2 -12 -12z"/>
<path d="M591 1674 c0 -11 3 -14 6 -6 3 7 2 16 -1 19 -3 4 -6 -2 -5 -13z"/>
<path d="M1246 1627 c3 -10 9 -15 12 -12 3 3 0 11 -7 18 -10 9 -11 8 -5 -6z"/>
<path d="M836 1543 c-6 -14 -5 -15 5 -6 7 7 10 15 7 18 -3 3 -9 -2 -12 -12z"/>
<path d="M1035 1530 c-4 -6 -14 -9 -23 -5 -9 3 -13 3 -9 -1 4 -4 -3 -18 -14
-30 -30 -32 -38 -117 -14 -144 9 -10 14 -23 11 -29 -6 -9 8 -22 29 -28 54 -14
67 -14 91 2 15 9 23 11 19 4 -5 -8 -4 -10 4 -5 6 4 10 15 9 24 -2 9 2 16 9 15
7 -2 10 3 7 11 -3 8 0 17 7 22 8 5 10 3 4 -6 -5 -9 -4 -11 4 -6 6 4 9 11 7 15
-3 4 -6 28 -7 54 -2 26 -6 47 -10 47 -4 0 -11 13 -17 28 -5 16 -16 29 -23 30
-8 1 -28 4 -45 8 -20 4 -34 1 -39 -6z m86 -44 c37 -44 32 -123 -9 -159 -14
-12 -99 -31 -87 -19 2 3 -7 18 -20 34 -31 36 -33 90 -6 135 29 47 87 52 122 9z"/>
<path d="M974 1522 c3 -5 0 -13 -6 -15 -9 -4 -10 -6 -1 -6 17 -1 25 16 12 25
-7 4 -9 3 -5 -4z"/>
<path d="M1166 1497 c3 -10 9 -15 12 -12 3 3 0 11 -7 18 -10 9 -11 8 -5 -6z"/>
<path d="M1161 1312 c-7 -13 -6 -19 2 -19 7 0 13 9 13 19 0 10 -1 18 -3 18 -1
0 -7 -8 -12 -18z"/>
<path d="M1581 1317 c-9 -11 -8 -17 5 -28 35 -29 91 -7 64 26 -17 20 -34 19
-26 -2 6 -16 6 -16 -12 0 -16 15 -21 15 -31 4z"/>
<path d="M2381 1316 c-6 -7 -4 -19 6 -31 11 -14 17 -16 20 -7 4 9 9 10 18 2 9
-7 16 -6 24 4 9 10 8 16 -5 27 -20 16 -52 19 -63 5z"/>
<path d="M2893 1277 c-15 -19 -18 -40 -17 -110 1 -47 4 -89 7 -94 3 -5 46 -8
95 -7 65 1 96 6 115 19 15 10 34 14 46 10 15 -5 24 1 36 24 15 30 15 31 -6 31
-12 0 -43 12 -70 26 -51 28 -71 27 -89 -5 -9 -17 -8 -21 5 -21 9 0 26 -5 38
-12 31 -17 59 -18 53 -1 -3 7 -1 13 5 13 6 0 9 -8 7 -17 -3 -16 -14 -18 -98
-15 -52 2 -97 6 -100 9 -3 3 -5 43 -5 89 1 46 0 84 -1 84 -2 0 -11 -10 -21
-23z m197 -127 c0 -5 -5 -10 -11 -10 -5 0 -7 5 -4 10 3 6 8 10 11 10 2 0 4 -4
4 -10z m-175 -40 c3 -5 1 -10 -4 -10 -6 0 -11 5 -11 10 0 6 2 10 4 10 3 0 8
-4 11 -10z m155 -15 c0 -2 -6 -5 -13 -8 -8 -3 -14 1 -14 8 0 7 6 11 14 8 7 -3
13 -6 13 -8z m-52 -2 c-10 -2 -26 -2 -35 0 -10 3 -2 5 17 5 19 0 27 -2 18 -5z"/>
<path d="M730 1248 c0 -24 9 -97 20 -163 11 -66 22 -167 25 -224 2 -57 7 -106
11 -110 4 -3 4 2 1 12 -4 9 -3 17 2 17 4 0 6 46 4 103 -3 56 -5 121 -6 144 -1
26 -5 37 -10 30 -5 -7 -6 11 -3 43 4 37 2 50 -4 40 -7 -11 -10 -4 -11 28 -2
46 -2 49 -13 75 -5 9 -6 24 -2 32 3 8 1 15 -4 15 -6 0 -10 -19 -10 -42z"/>
<path d="M1923 1255 c0 -8 4 -12 9 -9 5 3 6 10 3 15 -9 13 -12 11 -12 -6z"/>
<path d="M1991 1257 c-8 -11 -7 -18 8 -31 15 -14 20 -14 30 -3 8 11 7 18 -8
31 -15 14 -20 14 -30 3z"/>
<path d="M1620 1216 c-7 -14 -16 -26 -19 -26 -18 0 -60 -49 -66 -76 -6 -31 -5
-32 34 -36 23 -2 41 0 41 4 0 18 -6 23 -25 21 l-20 -3 20 9 c11 5 23 7 27 5 4
-3 9 0 13 6 9 14 25 3 25 -17 0 -12 -3 -13 -14 -4 -11 9 -12 7 -9 -11 4 -21
10 -23 74 -23 l69 0 10 35 c11 41 12 62 4 84 -8 21 -17 20 -32 -4 -9 -15 -10
-26 -2 -40 10 -19 7 -20 -39 -20 -50 0 -50 0 -56 38 -4 20 -10 48 -14 60 l-7
24 -14 -26z m0 -75 c0 -5 -11 -11 -25 -13 -29 -6 -30 -5 -9 16 15 16 34 14 34
-3z"/>
<path d="M2405 1208 c-16 -19 -37 -38 -47 -44 -9 -5 -19 -25 -23 -45 -7 -36
-7 -37 32 -41 21 -3 41 0 45 6 5 7 8 6 8 -4 0 -13 14 -15 78 -14 43 0 84 4 90
8 7 4 12 4 12 -1 0 -14 129 -10 135 5 3 10 14 8 44 -8 22 -11 42 -20 44 -20
13 0 29 65 24 96 -13 76 -44 83 -89 19 -30 -43 -34 -45 -80 -45 -26 0 -48 2
-48 4 0 2 6 16 14 32 16 29 8 57 -17 67 -28 11 -68 -6 -82 -34 -14 -25 -13
-28 4 -34 11 -3 22 -12 25 -20 4 -12 -7 -15 -58 -15 l-63 0 -9 61 -9 61 -30
-34z m215 -18 c10 -6 11 -10 3 -10 -7 0 -13 -5 -13 -11 0 -5 5 -7 10 -4 13 8
13 -1 0 -25 -13 -24 0 -32 60 -41 43 -7 42 -7 -15 -6 -72 1 -83 8 -79 48 2 18
0 28 -6 24 -14 -9 -12 9 2 23 14 14 19 15 38 2z m-210 -45 c0 -9 -9 -15 -22
-15 -22 1 -23 1 -4 15 25 19 26 19 26 0z m408 -16 c3 -19 1 -22 -9 -11 -18 17
-40 15 -33 -3 4 -8 16 -16 28 -16 19 -1 19 -2 2 -6 -12 -3 -25 2 -33 13 -11
15 -10 21 4 36 21 23 37 18 41 -13z m-358 -22 c13 4 13 3 1 -6 -10 -6 -21 -6
-33 0 -10 6 -24 7 -31 4 -6 -4 -3 1 8 10 17 13 21 13 30 2 5 -8 17 -12 25 -10z
m-83 -3 c-3 -3 -12 -4 -19 -1 -8 3 -5 6 6 6 11 1 17 -2 13 -5z m197 -2 c3 -5
-18 -9 -47 -9 l-52 -1 45 8 c25 4 46 8 47 8 1 1 4 -2 7 -6z"/>
<path d="M1830 1178 c-13 -21 -19 -46 -18 -68 3 -31 7 -36 37 -40 l33 -5 -21
-19 c-12 -11 -29 -16 -41 -13 -25 6 -25 -4 -1 -34 16 -20 23 -22 38 -13 31 19
50 61 36 81 -6 10 -16 17 -23 15 -7 -1 -10 3 -7 10 2 7 12 12 22 10 11 -2 14
1 10 8 -5 9 -2 9 11 2 11 -5 26 -11 34 -14 10 -3 8 -6 -8 -10 -12 -4 -20 -2
-16 3 3 5 1 9 -5 9 -17 0 -23 -20 -8 -25 7 -3 57 -7 111 -9 73 -2 99 1 103 11
4 9 14 8 44 -8 22 -11 44 -17 49 -14 5 3 15 23 21 44 9 32 8 44 -6 75 -23 49
-47 46 -82 -9 -25 -39 -32 -44 -66 -45 -34 0 -38 3 -44 30 -5 29 -7 30 -24 14
-10 -9 -15 -22 -12 -30 4 -11 -5 -14 -41 -14 -36 0 -48 4 -52 18 -10 33 -29
65 -41 69 -7 3 -22 -10 -33 -29z m40 -44 c0 -8 -7 -14 -15 -14 -15 0 -21 21
-9 33 10 9 24 -2 24 -19z m331 -2 c10 -25 2 -27 -25 -7 -10 7 -15 19 -11 25
10 16 27 8 36 -18z m-153 -28 c39 -19 40 -22 3 -16 -16 2 -32 10 -35 18 -7 17
-6 17 32 -2z m117 7 c3 -5 0 -13 -6 -17 -8 -5 -9 -3 -4 6 6 10 4 12 -9 7 -10
-4 -15 -3 -11 3 8 13 22 13 30 1z m-158 -17 c-3 -3 -12 -4 -19 -1 -8 3 -5 6 6
6 11 1 17 -2 13 -5z"/>
<path d="M1743 1020 c-10 -14 -9 -21 3 -31 12 -10 18 -9 30 3 13 13 13 16 -4
31 -16 15 -19 15 -29 -3z"/>
<path d="M3071 1027 c-8 -11 -6 -18 8 -31 16 -15 20 -15 31 -2 10 13 9 18 -3
31 -19 18 -22 19 -36 2z"/>
<path d="M2216 882 c-3 -5 1 -9 9 -9 8 0 12 4 9 9 -3 4 -7 8 -9 8 -2 0 -6 -4
-9 -8z"/>
<path d="M2883 855 c-3 -9 -3 -19 1 -22 7 -7 36 16 36 28 0 15 -30 10 -37 -6z"/>
<path d="M1850 797 c0 -75 16 -97 72 -97 48 0 59 17 61 94 2 56 -1 66 -15 66
-14 0 -18 -11 -20 -62 -3 -60 -4 -63 -30 -66 l-28 -3 0 65 c0 59 -2 66 -20 66
-18 0 -20 -7 -20 -63z"/>
<path d="M2152 848 c7 -19 38 -22 38 -4 0 10 -9 16 -21 16 -12 0 -19 -5 -17
-12z"/>
<path d="M2690 845 c0 -8 9 -15 20 -15 11 0 20 7 20 15 0 8 -9 15 -20 15 -11
0 -20 -7 -20 -15z"/>
<path d="M2758 833 c-2 -10 -2 -43 1 -73 6 -51 8 -55 34 -58 15 -2 27 1 27 7
0 6 -4 11 -10 11 -15 0 -12 77 3 84 10 5 10 7 0 12 -7 3 -13 12 -13 20 0 20
-37 17 -42 -3z"/>
<path d="M2532 821 c-7 -4 -23 -6 -35 -4 -21 4 -22 1 -22 -56 0 -51 3 -61 18
-61 13 0 17 9 17 41 0 32 4 42 20 46 11 3 20 14 20 24 0 22 0 22 -18 10z"/>
<path d="M2592 819 c-48 -18 -37 -62 18 -73 17 -3 30 -10 30 -16 0 -14 -26
-13 -50 2 -24 15 -37 4 -20 -17 9 -11 26 -15 54 -13 38 3 41 5 41 32 0 25 -5
31 -32 38 -18 5 -33 13 -33 18 0 13 16 12 40 -2 23 -15 38 -4 21 16 -16 19
-42 25 -69 15z"/>
<path d="M2014 759 c0 -51 2 -59 18 -59 15 0 18 8 18 43 0 48 5 58 26 50 9 -3
14 -21 14 -49 0 -37 3 -44 20 -44 17 0 20 7 20 49 0 58 -11 69 -70 69 l-45 0
-1 -59z"/>
<path d="M2155 760 c0 -50 3 -60 18 -60 14 0 17 10 17 60 0 50 -3 60 -17 60
-15 0 -18 -10 -18 -60z"/>
<path d="M2210 815 c0 -2 9 -29 21 -60 26 -70 50 -74 72 -12 8 23 18 50 22 60
5 13 2 17 -13 17 -16 0 -23 -8 -28 -35 -9 -50 -20 -51 -28 -5 -5 31 -11 40
-26 40 -11 0 -20 -2 -20 -5z"/>
<path d="M2352 808 c-7 -7 -12 -28 -12 -48 0 -20 5 -41 12 -48 19 -19 73 -14
93 8 18 19 17 20 -1 20 -11 0 -25 -5 -32 -12 -9 -9 -16 -8 -29 5 -16 16 -15
17 31 17 44 0 47 1 40 23 -3 12 -11 28 -16 35 -13 15 -70 16 -86 0z m66 -26
c2 -7 -7 -12 -22 -12 -27 0 -35 15 -13 23 17 7 30 3 35 -11z"/>
<path d="M2695 760 c0 -50 3 -60 18 -60 14 0 17 10 17 60 0 50 -3 60 -17 60
-15 0 -18 -10 -18 -60z"/>
<path d="M2841 806 c-16 -20 -17 -72 -1 -91 16 -19 74 -19 90 0 18 22 4 31
-24 16 -24 -13 -46 -8 -46 10 0 5 21 9 46 9 42 0 45 1 38 23 -3 12 -11 28 -16
35 -14 17 -73 15 -87 -2z m67 -23 c2 -8 -6 -13 -22 -13 -25 0 -33 10 -19 24
10 10 36 3 41 -11z"/>
<path d="M746 635 c-3 -8 -1 -15 4 -15 6 0 10 7 10 15 0 8 -2 15 -4 15 -2 0
-6 -7 -10 -15z"/>
<path d="M814 616 c1 -8 5 -18 8 -22 4 -3 5 1 4 10 -1 8 -5 18 -8 22 -4 3 -5
-1 -4 -10z"/>
<path d="M983 555 c0 -8 4 -12 9 -9 5 3 6 10 3 15 -9 13 -12 11 -12 -6z"/>
<path d="M1576 558 c3 -5 10 -6 15 -3 13 9 11 12 -6 12 -8 0 -12 -4 -9 -9z"/>
<path d="M2989 553 c-13 -16 -12 -17 4 -4 16 13 21 21 13 21 -2 0 -10 -8 -17
-17z"/>
<path d="M1520 556 c0 -2 8 -10 18 -17 15 -13 16 -12 3 4 -13 16 -21 21 -21
13z"/>
<path d="M1650 535 c0 -22 -3 -25 -24 -19 -50 12 -84 -56 -51 -103 12 -17 24
-21 60 -20 l45 2 0 83 c0 66 -3 82 -15 82 -9 0 -15 -9 -15 -25z m-12 -57 c17
-17 15 -48 -4 -55 -24 -9 -46 24 -33 48 11 22 20 24 37 7z"/>
<path d="M1906 478 c1 -68 5 -84 18 -86 14 -3 16 9 16 82 0 75 -2 86 -17 86
-16 0 -18 -10 -17 -82z"/>
<path d="M2160 475 c0 -78 2 -85 20 -85 18 0 20 7 21 63 l1 62 12 -60 c9 -50
14 -60 31 -60 16 0 22 10 30 52 14 73 24 75 18 4 -5 -57 -4 -61 16 -61 20 0
21 5 21 84 l0 85 -27 -2 c-24 -2 -29 -8 -42 -62 l-15 -60 -15 63 c-14 58 -16
62 -43 62 l-28 0 0 -85z"/>
<path d="M2606 543 c-6 -14 -5 -15 5 -6 7 7 10 15 7 18 -3 3 -9 -2 -12 -12z"/>
<path d="M2909 558 c0 -2 -1 -40 -2 -85 l-2 -82 50 2 c43 2 51 6 63 29 17 35
6 77 -24 90 -17 8 -27 8 -39 -2 -13 -11 -15 -8 -15 19 0 21 -5 31 -15 31 -8 0
-15 -1 -16 -2z m79 -101 c2 -18 -2 -29 -13 -33 -24 -9 -39 10 -31 41 9 35 40
30 44 -8z"/>
<path d="M1720 500 c-39 -39 -15 -110 37 -110 12 0 31 9 44 20 l24 20 -44 -3
c-30 -1 -45 2 -49 12 -3 10 6 12 42 10 39 -4 46 -1 46 13 0 24 -35 58 -60 58
-11 0 -29 -9 -40 -20z m60 -20 c0 -5 -9 -10 -20 -10 -11 0 -20 5 -20 10 0 6 9
10 20 10 11 0 20 -4 20 -10z"/>
<path d="M1976 504 c-9 -8 -16 -20 -16 -25 0 -12 24 -11 37 2 6 6 19 9 29 6
21 -4 19 -6 -39 -27 -23 -8 -28 -15 -25 -38 3 -26 6 -27 59 -29 l56 -1 -5 51
c-2 31 -11 57 -20 65 -22 17 -57 15 -76 -4z m62 -66 c-5 -16 -48 -24 -48 -10
0 11 17 20 38 21 8 1 12 -5 10 -11z"/>
<path d="M2368 509 c-10 -5 -18 -17 -18 -24 0 -17 26 -20 35 -5 8 12 35 13 35
1 0 -4 -15 -12 -32 -17 -28 -8 -33 -15 -33 -39 0 -29 1 -30 53 -30 l52 0 0 47
c0 68 -40 98 -92 67z m52 -74 c0 -8 -9 -15 -20 -15 -20 0 -26 11 -13 23 12 13
33 7 33 -8z"/>
<path d="M2480 454 c0 -57 2 -64 19 -64 17 0 20 8 23 48 2 34 7 47 18 47 11 0
16 -13 18 -47 3 -40 6 -48 23 -48 16 0 19 7 19 48 0 65 -9 75 -69 78 l-51 2 0
-64z"/>
<path d="M2642 504 c-47 -33 -18 -114 41 -114 35 0 57 25 57 65 0 55 -52 81
-98 49z m58 -29 c16 -19 3 -55 -20 -55 -23 0 -36 36 -20 55 7 8 16 15 20 15 4
0 13 -7 20 -15z"/>
<path d="M2767 513 c-2 -5 -1 -33 2 -63 l6 -55 53 -1 52 -2 0 65 c0 55 -2 64
-17 61 -13 -2 -17 -14 -18 -48 0 -39 -3 -45 -22 -48 -21 -3 -23 0 -23 47 0 38
-4 51 -14 51 -8 0 -17 -3 -19 -7z"/>
<path d="M3056 504 c-9 -8 -16 -20 -16 -25 0 -12 27 -12 35 1 7 12 45 13 45 2
0 -5 -17 -13 -37 -18 -33 -8 -38 -13 -38 -39 0 -29 1 -30 53 -31 l52 -2 0 54
c0 42 -4 55 -19 64 -28 14 -57 12 -75 -6z m62 -66 c-5 -16 -48 -24 -48 -10 0
11 17 20 38 21 8 1 12 -5 10 -11z"/>
<path d="M623 445 c0 -8 4 -12 9 -9 5 3 6 10 3 15 -9 13 -12 11 -12 -6z"/>
</g>
</svg>
