<?xml version="1.0" standalone="no"?>
<!DOCTYPE svg PUBLIC "-//W3C//DTD SVG 20010904//EN"
 "http://www.w3.org/TR/2001/REC-SVG-20010904/DTD/svg10.dtd">
<svg version="1.0" xmlns="http://www.w3.org/2000/svg"
 width="600.000000pt" height="839.000000pt" viewBox="0 0 600.000000 839.000000"
 preserveAspectRatio="xMidYMid meet">
<g transform="translate(0.000000,839.000000) scale(0.100000,-0.100000)"
fill="currentColor" stroke="none">
<path d="M2780 7530 c0 -5 7 -10 16 -10 34 0 138 -66 195 -124 164 -165 194
-422 88 -768 -66 -215 -195 -481 -354 -728 -258 -402 -368 -646 -415 -924 -12
-70 -20 -131 -18 -136 2 -5 26 19 54 53 92 112 376 408 592 617 200 194 214
210 273 312 l61 107 -49 66 c-26 37 -55 76 -63 88 -12 17 -15 58 -15 216 0
108 5 239 12 291 12 107 -9 80 191 247 101 85 102 87 96 122 -54 330 -211 522
-463 567 -90 16 -201 18 -201 4z m153 -33 c-5 -9 -3 -9 8 0 16 13 69 5 128
-20 32 -13 30 -34 -2 -21 -8 3 -17 1 -21 -4 -6 -10 40 -8 68 3 15 6 17 5 11
-5 -5 -9 -4 -11 3 -6 13 8 28 -2 86 -59 22 -22 36 -33 31 -25 -5 8 6 0 23 -19
34 -35 40 -46 20 -36 -7 4 -2 -3 11 -14 13 -12 19 -21 15 -21 -5 0 -4 -4 2 -8
17 -12 56 -103 50 -119 -4 -9 -2 -11 6 -7 7 5 9 0 6 -14 -4 -12 -3 -20 1 -17
11 6 35 -100 26 -115 -5 -9 -4 -11 3 -6 8 5 12 -1 12 -16 0 -27 -21 -70 -35
-72 -5 0 -23 -13 -39 -28 -17 -16 -34 -28 -37 -28 -11 0 -67 -58 -62 -64 3 -2
-6 -3 -20 -2 -20 2 -25 -1 -22 -15 2 -11 0 -19 -5 -19 -24 0 -59 -77 -64 -140
-3 -36 -9 -99 -13 -140 -11 -113 -4 -392 10 -383 4 2 7 0 7 -4 0 -5 19 -29 42
-53 24 -24 36 -41 28 -36 -8 4 -6 -1 5 -11 26 -24 28 -51 4 -81 -10 -14 -19
-30 -19 -37 0 -7 -7 -18 -15 -25 -9 -7 -14 -19 -11 -27 3 -8 1 -11 -4 -8 -6 3
-10 0 -10 -7 0 -8 -7 -23 -16 -34 -8 -10 -12 -13 -8 -5 5 9 3 12 -5 7 -6 -4
-9 -12 -5 -17 8 -13 -296 -310 -309 -302 -6 3 -7 1 -4 -5 4 -5 -6 -22 -23 -35
-16 -14 -30 -30 -30 -35 0 -5 -7 -15 -15 -22 -13 -11 -15 -10 -10 6 5 16 4 16
-7 -2 -25 -39 -53 -70 -70 -77 -10 -3 -18 -11 -18 -17 0 -16 -62 -70 -73 -63
-6 3 -7 1 -3 -5 4 -7 2 -12 -3 -12 -6 0 -10 -6 -9 -12 2 -8 -6 -12 -22 -10
-19 1 -22 0 -10 -8 13 -8 11 -13 -9 -32 -20 -18 -22 -19 -10 -3 13 18 13 19
-3 7 -10 -8 -16 -17 -15 -20 5 -15 -57 -83 -70 -78 -8 3 -11 1 -8 -4 4 -6 -7
-23 -23 -40 -16 -16 -27 -32 -24 -35 3 -3 0 -5 -7 -5 -7 0 -9 -5 -5 -12 4 -6
3 -8 -4 -4 -7 4 -9 26 -5 59 3 28 5 60 5 69 -1 10 3 20 8 23 5 3 12 27 16 53
3 26 12 58 20 72 15 30 28 80 25 99 -1 7 2 10 8 6 7 -4 11 5 11 22 0 22 2 25
10 13 7 -11 10 -7 10 18 0 23 4 31 12 26 7 -4 8 -3 4 5 -7 10 68 179 85 191 4
3 14 23 23 45 9 22 27 50 38 62 12 13 18 23 14 23 -4 0 -2 6 3 13 46 56 61 76
61 86 0 6 5 11 12 11 6 0 9 3 6 6 -4 3 5 22 18 41 13 20 24 41 24 47 0 6 5 4
10 -4 8 -12 10 -11 10 8 0 12 5 22 12 22 6 0 8 3 5 6 -4 4 3 20 14 35 11 16
18 29 14 29 -3 0 4 10 15 22 11 12 18 28 15 36 -3 8 0 10 7 6 8 -5 9 -2 5 10
-4 9 -3 15 2 12 5 -3 19 18 31 46 12 29 29 57 36 63 8 5 16 20 18 32 3 11 11
34 20 51 8 16 12 33 8 38 -4 5 -3 6 2 2 10 -8 41 54 72 142 10 30 22 57 25 60
3 3 9 23 13 45 4 21 15 45 24 53 9 7 11 11 5 7 -7 -3 -13 -1 -13 4 0 6 5 11
11 11 6 0 9 7 5 15 -3 8 1 33 9 56 8 23 22 94 30 157 20 152 9 276 -35 381
-25 61 -28 77 -18 90 11 14 11 14 -3 4 -13 -11 -21 -8 -47 21 -23 26 -28 36
-19 45 9 9 8 11 -5 6 -11 -5 -18 -2 -18 6 0 7 -3 10 -6 6 -3 -3 -19 8 -35 24
-16 17 -34 27 -41 23 -7 -4 -8 -3 -4 4 4 7 1 12 -8 12 -23 0 -19 15 4 17 13 1
18 -2 13 -10z"/>
<path d="M3380 6909 c0 -5 5 -7 10 -4 6 3 10 8 10 11 0 2 -4 4 -10 4 -5 0 -10
-5 -10 -11z"/>
<path d="M3130 6689 c0 -5 5 -7 10 -4 6 3 10 8 10 11 0 2 -4 4 -10 4 -5 0 -10
-5 -10 -11z"/>
<path d="M3126 6017 c3 -10 9 -15 12 -12 3 3 0 11 -7 18 -10 9 -11 8 -5 -6z"/>
<path d="M2844 6010 c2 -16 20 -14 24 2 3 10 2 10 -6 -1 -7 -9 -11 -10 -15 -2
-4 7 -5 8 -3 1z"/>
<path d="M2605 5650 c3 -5 8 -10 11 -10 2 0 4 5 4 10 0 6 -5 10 -11 10 -5 0
-7 -4 -4 -10z"/>
<path d="M2586 5625 c-9 -26 -7 -32 5 -12 6 10 9 21 6 23 -2 3 -7 -2 -11 -11z"/>
<path d="M3995 7205 c-160 -43 -366 -165 -604 -359 -97 -78 -184 -157 -196
-177 -13 -20 -34 -261 -34 -379 0 -168 4 -179 98 -303 45 -60 81 -112 79 -117
-2 -4 -127 -127 -278 -272 -381 -367 -696 -701 -864 -917 -399 -514 -512 -881
-401 -1312 39 -153 43 -156 43 -43 2 307 165 653 506 1077 168 210 321 372
822 877 478 482 559 567 684 722 135 167 222 306 268 430 27 73 27 74 27 343
0 308 -10 392 -53 425 -29 23 -30 23 -97 5z m94 -49 c7 -16 14 -46 15 -67 0
-20 3 -36 7 -34 3 2 5 -32 4 -76 0 -44 2 -72 6 -62 4 10 7 -70 7 -177 0 -107
-3 -199 -6 -205 -4 -5 -8 -14 -9 -20 -17 -69 -35 -120 -44 -131 -7 -8 -9 -17
-6 -21 13 -12 -14 -45 -31 -38 -13 5 -14 3 -6 -5 8 -8 2 -26 -25 -66 -29 -44
-38 -52 -46 -40 -17 22 -39 -17 -25 -44 7 -13 7 -21 -1 -25 -5 -4 -14 -18 -19
-31 -6 -14 -19 -28 -29 -32 -11 -4 -20 -11 -19 -15 0 -5 -14 -26 -31 -47 -21
-26 -37 -38 -50 -35 -15 3 -19 -1 -16 -17 6 -28 -45 -89 -67 -82 -10 3 -18 0
-18 -6 0 -6 5 -8 10 -5 23 14 7 -15 -31 -56 -22 -24 -40 -45 -40 -46 1 -2 -2
-3 -6 -2 -3 0 -10 -6 -15 -15 -5 -9 -13 -14 -19 -11 -5 3 -6 -1 -3 -9 4 -11 0
-14 -15 -13 -12 1 -20 6 -17 12 2 7 -1 12 -8 12 -6 0 -12 -8 -12 -18 0 -11 7
-16 19 -13 14 2 9 -7 -19 -39 -44 -50 -64 -69 -44 -43 14 18 14 18 -7 6 -18
-12 -20 -17 -10 -30 6 -8 8 -12 4 -9 -4 3 -36 -23 -71 -58 -58 -57 -66 -62
-76 -46 -9 16 -10 15 -5 -5 7 -25 -11 -55 -28 -45 -5 3 -7 1 -4 -4 4 -6 -1
-17 -10 -24 -14 -12 -16 -12 -8 1 8 13 7 13 -8 1 -10 -8 -15 -16 -12 -19 8 -9
-17 -32 -28 -25 -5 3 -7 1 -4 -4 8 -13 -17 -36 -28 -25 -5 4 -5 1 -1 -6 5 -8
-1 -16 -16 -21 -13 -6 -19 -10 -14 -10 5 -1 3 -8 -4 -16 -7 -8 -16 -12 -21 -9
-5 3 -8 0 -7 -8 2 -7 -3 -12 -9 -10 -7 1 -13 -3 -13 -9 0 -18 -78 -91 -90 -84
-5 3 -10 0 -10 -7 -1 -8 -5 -7 -14 5 -9 12 -16 14 -21 8 -3 -6 -1 -11 5 -11 7
0 10 -7 7 -14 -4 -11 -1 -13 11 -9 9 4 3 -8 -15 -27 -28 -30 -33 -32 -50 -19
-17 13 -17 13 -3 -5 13 -16 12 -20 -3 -31 -9 -6 -14 -15 -10 -19 4 -4 -1 -4
-11 0 -13 5 -17 4 -13 -3 4 -6 -1 -17 -10 -24 -14 -12 -16 -12 -8 1 8 13 6 13
-8 1 -9 -7 -15 -17 -12 -21 10 -15 -50 -59 -77 -56 -15 2 -25 -1 -22 -6 3 -5
12 -7 20 -4 8 3 14 1 14 -4 0 -6 -7 -10 -16 -10 -11 0 -14 -5 -10 -17 4 -10 4
-14 0 -10 -4 4 -14 -2 -21 -13 -8 -11 -19 -18 -24 -14 -5 3 -8 0 -7 -8 2 -7
-5 -12 -14 -12 -9 1 -14 -4 -12 -10 3 -7 -7 -23 -20 -35 -14 -13 -22 -29 -19
-35 4 -6 -4 -2 -17 9 -14 12 -20 14 -15 5 16 -26 15 -42 -2 -36 -11 5 -14 2
-9 -11 4 -10 4 -15 1 -11 -9 9 -75 -63 -68 -75 3 -6 1 -7 -5 -3 -7 4 -12 4
-12 -1 0 -12 -149 -178 -160 -179 -6 -1 -15 -2 -21 -3 -5 0 -7 -6 -3 -12 4 -8
9 -7 15 2 5 8 9 9 9 4 0 -15 -70 -76 -80 -70 -5 3 -12 0 -16 -6 -4 -8 -3 -9 4
-5 7 4 12 3 12 -3 0 -5 -5 -13 -11 -16 -6 -4 -8 -13 -5 -20 2 -7 -6 -17 -20
-24 -13 -6 -24 -17 -24 -26 0 -8 -7 -15 -16 -15 -10 0 -14 6 -11 15 7 16 -8
31 -17 17 -3 -5 1 -17 8 -27 10 -13 10 -24 2 -41 -6 -13 -14 -24 -18 -24 -5 0
-8 -5 -8 -12 0 -13 -79 -133 -110 -166 -12 -12 -18 -26 -15 -31 3 -5 -2 -16
-11 -25 -8 -9 -12 -21 -8 -27 4 -7 3 -9 -4 -5 -6 3 -13 -6 -17 -23 -3 -16 -12
-32 -20 -35 -8 -3 -20 -24 -27 -48 -7 -24 -18 -54 -25 -67 -6 -14 -10 -28 -7
-33 3 -4 0 -8 -5 -8 -6 0 -11 -7 -11 -15 0 -8 -4 -15 -10 -15 -5 0 -10 -10
-10 -21 0 -19 -2 -20 -17 -8 -15 11 -16 11 -6 0 6 -7 9 -21 6 -30 -4 -14 -3
-14 6 -1 15 21 14 4 -3 -28 -8 -15 -19 -62 -26 -105 -7 -43 -15 -75 -18 -73
-2 3 -8 22 -12 43 -5 21 -12 49 -16 62 -5 17 -4 22 4 17 8 -5 8 1 1 23 -11 33
-8 174 5 206 6 16 6 17 -3 5 -13 -18 -14 -9 -2 23 5 13 10 41 12 63 1 21 9 46
16 55 8 9 13 20 11 25 -4 17 24 114 34 114 6 0 8 9 5 20 -3 13 -1 18 6 13 7
-4 8 0 4 11 -4 10 -3 15 3 11 6 -4 10 6 10 21 0 23 2 25 17 13 15 -13 15 -12
6 6 -8 15 -6 27 8 50 10 17 26 47 35 68 9 20 21 37 27 37 6 0 7 3 4 6 -4 4 18
42 48 85 30 43 55 83 55 88 0 5 14 24 32 42 18 19 40 48 49 64 10 17 22 29 28
28 6 -2 8 4 4 14 -4 11 -3 14 5 9 7 -4 12 -2 12 6 1 15 72 98 84 98 5 0 5 -7
2 -16 -3 -8 -2 -12 4 -9 6 3 8 16 4 29 -3 15 1 27 12 37 14 11 16 11 10 0 -6
-8 0 -7 18 4 14 10 26 22 26 29 0 6 -4 4 -10 -4 -5 -8 -12 -11 -17 -7 -9 10
54 70 66 63 5 -4 8 5 7 19 -3 22 -1 23 18 13 17 -8 19 -8 9 2 -14 15 11 60 33
60 8 0 14 7 14 15 0 14 40 42 40 28 0 -4 8 7 17 25 15 31 70 92 83 92 4 0 12
12 19 27 9 19 15 23 20 14 6 -10 10 -9 15 4 3 9 10 13 16 10 6 -3 7 0 4 9 -6
15 49 81 67 81 4 0 11 4 16 9 5 5 2 6 -7 1 -8 -4 -1 5 16 21 16 16 42 35 57
43 14 8 24 18 21 22 -3 5 9 24 27 41 17 18 28 27 24 19 -6 -9 -4 -12 3 -7 7 4
12 12 12 18 0 15 59 67 65 57 3 -4 17 -3 30 3 14 6 23 13 21 15 -2 3 -14 0
-25 -7 -26 -13 -28 -3 -3 17 9 8 11 11 3 7 -10 -5 -12 -3 -7 5 5 7 15 10 23 7
8 -3 11 -1 8 4 -3 6 2 10 12 10 15 0 16 2 3 11 -12 9 -11 10 7 6 12 -3 22 -2
21 2 0 3 1 9 2 14 1 4 3 13 4 20 1 6 9 11 18 11 10 -1 17 1 16 5 0 3 0 13 2
21 1 11 4 9 10 -5 8 -19 9 -19 9 2 1 12 6 25 13 29 7 5 8 3 3 -6 -5 -9 -4 -11
4 -6 7 5 17 19 22 33 6 16 15 23 23 20 8 -3 20 1 26 9 7 8 9 14 4 14 -4 0 1 7
12 16 10 8 12 12 4 8 -8 -4 -4 4 9 19 14 15 29 23 39 20 10 -4 13 -2 8 5 -4 7
-1 15 7 18 15 6 19 96 4 110 -4 5 -5 1 -2 -8 4 -9 1 -19 -5 -23 -6 -3 -10 -3
-9 2 4 21 -2 34 -13 27 -6 -4 -8 -3 -5 3 4 6 -5 23 -18 37 -14 15 -22 32 -19
38 4 7 2 8 -4 4 -7 -4 -17 3 -24 18 -6 14 -14 26 -17 26 -17 0 -39 62 -42 120
-8 172 13 450 35 450 6 0 4 5 -4 10 -13 9 -12 13 9 30 13 11 29 20 37 20 8 0
14 7 14 16 0 9 5 12 12 8 18 -11 48 -12 42 -2 -4 5 -12 7 -20 4 -11 -4 -12 -2
-1 14 13 22 29 27 25 9 -2 -6 2 -13 9 -16 7 -2 11 4 10 16 0 11 -4 18 -8 15
-4 -2 -10 0 -14 6 -3 5 -2 10 3 10 5 0 25 13 43 30 36 31 49 37 49 19 0 -5 -5
-7 -12 -3 -7 4 -8 3 -4 -5 11 -17 28 -2 21 20 -4 13 -2 19 8 19 8 0 18 7 21
16 3 8 10 13 15 9 6 -3 15 4 21 15 6 11 14 19 18 17 8 -2 78 48 102 74 20 21
80 50 91 44 4 -3 11 0 15 6 5 8 2 10 -7 5 -8 -4 -6 -1 5 6 62 43 85 56 91 50
3 -4 10 0 15 8 5 8 15 15 22 16 35 3 39 5 32 17 -4 6 -4 9 1 5 4 -4 21 0 37 8
16 8 33 12 38 9 5 -3 11 -1 15 5 4 6 10 8 14 6 4 -3 13 0 21 5 27 17 64 6 79
-25z m-136 -979 c-3 -5 -10 -4 -15 1 -6 6 -7 16 -3 22 6 9 9 9 16 -1 4 -7 5
-17 2 -22z m-159 -205 c3 -5 -1 -9 -9 -9 -8 0 -12 4 -9 9 3 4 7 8 9 8 2 0 6
-4 9 -8z"/>
<path d="M3915 7141 c-3 -5 0 -13 6 -17 7 -4 9 -3 5 4 -3 5 0 13 6 15 9 4 10
6 1 6 -6 1 -14 -3 -18 -8z"/>
<path d="M4091 6994 c0 -11 3 -14 6 -6 3 7 2 16 -1 19 -3 4 -6 -2 -5 -13z"/>
<path d="M3619 6963 c-13 -16 -12 -17 4 -4 9 7 17 15 17 17 0 8 -8 3 -21 -13z"/>
<path d="M3646 6962 c-2 -4 4 -8 14 -8 10 0 16 4 14 8 -3 4 -9 8 -14 8 -5 0
-11 -4 -14 -8z"/>
<path d="M3996 6870 c-16 -5 -34 -6 -39 -3 -6 3 -7 1 -3 -5 9 -15 -6 -16 -21
-1 -8 8 -13 7 -18 -2 -6 -8 -4 -10 5 -4 9 5 11 4 6 -4 -5 -7 -16 -9 -28 -5
-13 4 -18 2 -14 -4 3 -5 -3 -12 -14 -15 -11 -3 -20 -1 -20 4 0 5 -5 9 -11 9
-5 0 -8 -4 -5 -8 2 -4 -4 -13 -15 -20 -15 -9 -19 -9 -19 0 0 6 -7 3 -15 -8 -9
-12 -14 -14 -15 -6 0 10 -4 10 -16 -2 -10 -10 -28 -14 -52 -12 -20 2 -31 2
-24 -1 27 -11 12 -30 -23 -27 -27 2 -38 -2 -46 -18 -8 -15 -8 -19 0 -14 6 4
11 4 11 1 0 -3 -13 -11 -30 -16 -16 -6 -28 -15 -25 -19 3 -4 -4 -6 -15 -3 -11
3 -17 10 -13 17 4 6 -1 5 -10 -3 -18 -14 -13 -36 5 -25 7 5 8 2 3 -5 -4 -7
-15 -11 -25 -8 -13 3 -17 0 -13 -9 3 -8 0 -14 -6 -14 -6 0 -11 6 -12 13 0 6
-5 1 -10 -12 -6 -16 -14 -21 -26 -17 -10 4 -14 4 -10 0 4 -5 -3 -14 -15 -22
-19 -11 -19 -12 -3 -7 19 6 19 5 3 -12 -17 -16 -19 -16 -33 2 -15 19 -16 19
-4 -4 10 -21 9 -23 -4 -18 -12 4 -14 2 -10 -10 4 -11 2 -14 -5 -9 -7 4 -12 3
-12 -2 0 -6 -7 -9 -16 -8 -9 0 -19 -6 -21 -14 -4 -12 -3 -12 5 -1 6 8 12 9 16
3 3 -6 -2 -13 -12 -16 -10 -4 -30 -18 -43 -33 -13 -14 -18 -23 -10 -18 9 5 12
4 7 -3 -4 -6 -13 -9 -21 -6 -8 4 -12 11 -8 17 4 6 1 7 -6 2 -9 -5 -10 -10 -2
-18 14 -14 14 -30 1 -22 -5 3 -10 -1 -10 -9 0 -8 -9 -18 -21 -21 -16 -5 -18
-10 -9 -20 7 -8 8 -20 4 -26 -5 -8 -3 -9 6 -4 10 6 12 4 7 -8 -4 -10 -2 -16 6
-14 7 1 11 -4 9 -11 -1 -8 1 -11 6 -8 5 3 18 -10 28 -29 10 -19 22 -35 26 -35
5 0 8 -5 8 -11 0 -5 -3 -8 -7 -6 -5 3 -9 -7 -10 -21 -1 -27 -1 -27 11 -4 7 12
15 20 19 16 3 -4 1 -16 -5 -28 -10 -19 -9 -20 5 -8 14 12 18 9 34 -20 46 -85
55 -131 31 -157 -9 -10 -9 -12 -1 -7 13 7 12 -31 -1 -52 -4 -7 -2 -12 6 -12
11 0 10 -2 0 -9 -20 -12 26 -23 48 -11 10 5 21 6 25 2 5 -4 5 -1 1 6 -9 15 6
16 21 1 15 -15 37 -1 25 14 -5 7 -9 20 -9 29 0 15 3 15 16 5 12 -10 13 -9 7 1
-10 17 13 44 33 37 8 -3 12 -3 9 1 -10 10 11 46 23 39 5 -4 8 -3 7 2 -2 4 5
19 15 33 15 22 22 21 18 -2 -2 -13 6 -9 20 9 8 9 9 14 3 10 -7 -4 -14 -1 -17
7 -3 8 5 19 19 27 14 7 23 18 20 25 -3 7 7 17 22 23 15 5 21 10 14 10 -10 1
-10 5 0 21 9 14 14 16 20 7 5 -8 8 -7 8 6 0 9 5 17 11 17 5 0 7 5 4 10 -3 6
-2 10 2 10 5 0 17 14 27 30 9 17 21 28 26 25 5 -3 14 4 20 15 6 11 8 20 5 20
-3 0 2 11 10 24 11 16 23 23 36 21 11 -2 17 0 14 6 -4 5 -11 7 -16 4 -5 -3 -6
1 -3 9 3 9 10 13 15 10 5 -3 6 2 3 10 -3 9 -1 16 5 16 6 0 11 7 11 16 0 9 5
12 12 8 6 -4 8 -3 5 3 -3 5 3 29 15 52 16 32 23 39 30 29 7 -9 8 -8 4 5 -4 11
3 32 16 50 13 18 22 34 21 37 -5 11 21 69 29 64 5 -3 7 -2 6 3 -5 19 26 112
34 101 5 -10 8 -8 8 4 0 9 -5 20 -10 23 -6 4 -7 12 -4 18 4 7 3 9 -1 5 -5 -5
-29 -59 -55 -122 -76 -183 -199 -379 -348 -555 -61 -72 -249 -271 -256 -271
-2 0 0 17 5 38 12 51 1 138 -24 181 -12 20 -52 78 -89 129 -37 50 -68 97 -68
103 0 20 175 183 263 246 142 100 280 161 526 232 26 8 42 32 19 30 -7 0 -26
-5 -42 -9z m-351 -130 c3 -5 2 -10 -4 -10 -5 0 -13 5 -16 10 -3 6 -2 10 4 10
5 0 13 -4 16 -10z m168 -405 c-3 -9 -8 -14 -10 -11 -3 3 -2 9 2 15 9 16 15 13
8 -4z m-319 -414 c-7 -7 -34 21 -28 31 3 5 12 1 19 -9 7 -10 12 -20 9 -22z"/>
<path d="M3605 6770 c-3 -6 1 -7 9 -4 18 7 21 14 7 14 -6 0 -13 -4 -16 -10z"/>
<path d="M4066 6765 c-9 -26 -7 -32 5 -12 6 10 9 21 6 23 -2 3 -7 -2 -11 -11z"/>
<path d="M4111 6694 c0 -11 3 -14 6 -6 3 7 2 16 -1 19 -3 4 -6 -2 -5 -13z"/>
<path d="M4092 6660 c0 -19 2 -27 5 -17 2 9 2 25 0 35 -3 9 -5 1 -5 -18z"/>
<path d="M4112 6605 c0 -16 2 -22 5 -12 2 9 2 23 0 30 -3 6 -5 -1 -5 -18z"/>
<path d="M3425 6538 c-27 -23 -78 -70 -112 -105 l-62 -64 57 -79 c31 -43 59
-79 63 -79 7 -1 49 178 49 212 0 23 -2 26 -14 15 -8 -7 -12 -16 -10 -20 7 -12
-28 -148 -38 -148 -5 0 -7 4 -4 9 3 5 -4 11 -15 14 -12 3 -18 10 -14 16 3 6 1
11 -5 11 -6 0 -15 11 -21 24 -9 19 -8 27 6 44 10 11 25 18 34 15 12 -4 13 -3
3 4 -10 7 -3 20 28 53 22 24 39 37 37 29 -2 -8 -2 -11 0 -7 2 4 10 6 16 4 7
-1 9 -1 5 1 -5 3 -8 9 -8 14 0 6 5 7 12 3 6 -4 8 -3 5 3 -7 12 34 43 56 43 8
0 20 -7 27 -15 7 -9 18 -14 24 -12 5 2 19 -6 31 -18 11 -12 30 -27 43 -34 12
-7 20 -16 17 -22 -7 -10 29 -62 37 -54 3 3 15 -7 29 -22 13 -14 19 -23 13 -20
-7 4 -10 -5 -9 -24 1 -22 -2 -28 -12 -25 -8 3 -11 1 -8 -4 3 -6 1 -10 -4 -10
-6 0 -11 -6 -11 -12 0 -22 -98 -124 -103 -108 -2 8 -14 50 -26 93 -12 43 -32
95 -46 116 -13 22 -21 42 -17 46 4 4 2 5 -4 3 -6 -1 -21 8 -33 22 -13 15 -4
-10 23 -60 47 -90 75 -185 76 -260 l1 -45 50 55 c27 30 75 88 106 127 l55 73
-30 47 c-17 27 -48 65 -69 85 -39 37 -148 108 -167 108 -6 0 -33 -19 -61 -42z
m251 -126 c-6 -5 -36 23 -36 34 0 4 9 -1 20 -11 11 -10 18 -20 16 -23z"/>
<path d="M3614 6411 c0 -11 5 -17 13 -14 10 4 11 9 2 19 -15 18 -15 18 -15 -5z"/>
<path d="M4043 6368 c3 -9 1 -18 -6 -21 -8 -2 -8 -5 0 -10 15 -9 23 17 11 34
-8 11 -9 11 -5 -3z"/>
<path d="M4005 6349 c-4 -6 -5 -12 -2 -15 2 -3 7 2 10 11 7 17 1 20 -8 4z"/>
<path d="M3255 6250 c-3 -5 -1 -10 4 -10 6 0 11 5 11 10 0 6 -2 10 -4 10 -3 0
-8 -4 -11 -10z"/>
<path d="M3656 6082 c-3 -5 1 -9 9 -9 8 0 12 4 9 9 -3 4 -7 8 -9 8 -2 0 -6 -4
-9 -8z"/>
<path d="M3579 6013 c-13 -16 -12 -17 4 -4 16 13 21 21 13 21 -2 0 -10 -8 -17
-17z"/>
<path d="M3346 5976 c3 -8 13 -17 22 -21 13 -5 13 -2 -3 15 -21 24 -26 25 -19
6z"/>
<path d="M3639 5813 c-13 -16 -12 -17 4 -4 9 7 17 15 17 17 0 8 -8 3 -21 -13z"/>
<path d="M3301 5796 c-9 -10 -8 -15 2 -19 8 -3 13 3 13 14 0 23 0 23 -15 5z"/>
<path d="M3350 5771 c0 -7 -5 -9 -12 -5 -7 5 -8 3 -3 -5 5 -9 10 -10 18 -2 6
6 8 14 4 18 -4 3 -7 1 -7 -6z"/>
<path d="M3172 5606 c7 -8 15 -12 17 -11 5 6 -10 25 -20 25 -5 0 -4 -6 3 -14z"/>
<path d="M3366 5582 c-3 -5 1 -9 9 -9 8 0 12 4 9 9 -3 4 -7 8 -9 8 -2 0 -6 -4
-9 -8z"/>
<path d="M3399 5563 c-13 -16 -12 -17 4 -4 9 7 17 15 17 17 0 8 -8 3 -21 -13z"/>
<path d="M3286 5501 c-3 -5 2 -15 12 -22 15 -12 16 -12 5 2 -7 9 -10 19 -6 22
3 4 4 7 0 7 -3 0 -8 -4 -11 -9z"/>
<path d="M2996 5483 c-6 -14 -5 -15 5 -6 7 7 10 15 7 18 -3 3 -9 -2 -12 -12z"/>
<path d="M3206 5421 c-4 -5 -2 -12 3 -15 5 -4 12 -2 15 3 4 5 2 12 -3 15 -5 4
-12 2 -15 -3z"/>
<path d="M3126 5341 c-4 -5 -2 -12 3 -15 5 -4 12 -2 15 3 4 5 2 12 -3 15 -5 4
-12 2 -15 -3z"/>
<path d="M2685 5140 c-3 -5 -1 -10 4 -10 6 0 11 5 11 10 0 6 -2 10 -4 10 -3 0
-8 -4 -11 -10z"/>
<path d="M2806 5021 c-4 -5 -2 -12 3 -15 5 -4 12 -2 15 3 4 5 2 12 -3 15 -5 4
-12 2 -15 -3z"/>
<path d="M2443 4885 c0 -8 4 -12 9 -9 5 3 6 10 3 15 -9 13 -12 11 -12 -6z"/>
<path d="M2567 4763 c3 -7 6 -13 8 -13 2 0 5 6 8 13 3 8 -1 14 -8 14 -7 0 -11
-6 -8 -14z"/>
<path d="M2485 4700 c-3 -5 -1 -11 4 -14 5 -4 12 -2 16 4 3 5 11 10 17 10 6 0
1 -12 -13 -27 l-24 -27 31 25 c17 13 30 26 28 28 -7 8 -54 9 -59 1z"/>
<path d="M2445 4590 c-3 -5 -1 -10 4 -10 6 0 11 5 11 10 0 6 -2 10 -4 10 -3 0
-8 -4 -11 -10z"/>
<path d="M2116 4174 c-9 -24 -2 -26 12 -4 7 11 8 20 3 20 -5 0 -12 -7 -15 -16z"/>
<path d="M2086 4125 c-9 -26 -7 -32 5 -12 6 10 9 21 6 23 -2 3 -7 -2 -11 -11z"/>
<path d="M2006 4047 c3 -10 9 -15 12 -12 3 3 0 11 -7 18 -10 9 -11 8 -5 -6z"/>
<path d="M1821 3894 c0 -11 3 -14 6 -6 3 7 2 16 -1 19 -3 4 -6 -2 -5 -13z"/>
<path d="M1811 3854 c0 -11 3 -14 6 -6 3 7 2 16 -1 19 -3 4 -6 -2 -5 -13z"/>
<path d="M3605 7071 c-3 -5 -2 -12 3 -15 5 -3 9 1 9 9 0 17 -3 19 -12 6z"/>
<path d="M4071 6164 c0 -11 3 -14 6 -6 3 7 2 16 -1 19 -3 4 -6 -2 -5 -13z"/>
<path d="M4068 5963 c-83 -218 -205 -368 -359 -441 -93 -44 -141 -58 -240 -68
l-67 -7 -6 -36 c-20 -125 4 -324 52 -417 l19 -37 -76 -70 c-42 -39 -247 -213
-456 -388 -480 -400 -626 -535 -793 -734 -254 -302 -334 -575 -240 -815 38
-99 122 -212 235 -319 113 -107 148 -127 67 -38 -27 29 -64 81 -81 114 -110
205 -76 413 109 672 93 130 367 396 703 681 357 304 561 487 670 601 274 287
423 553 486 868 22 113 34 344 22 454 l-8 77 -37 -97z m21 -170 c1 -59 -6
-152 -15 -207 -9 -56 -17 -106 -18 -113 -1 -7 -5 -16 -9 -19 -4 -4 -7 -17 -7
-30 0 -12 -9 -44 -20 -70 -11 -26 -18 -49 -16 -52 3 -2 -2 -11 -10 -20 -9 -8
-13 -23 -11 -33 3 -10 -2 -24 -11 -31 -9 -7 -13 -8 -9 -2 3 6 0 11 -8 11 -10
0 -11 -6 -4 -24 6 -18 3 -31 -17 -60 -14 -21 -30 -37 -36 -35 -5 1 -7 -2 -4
-7 4 -5 2 -21 -4 -36 -7 -19 -15 -25 -27 -21 -13 5 -14 4 -3 -9 12 -14 7 -20
-14 -16 -5 1 -6 -4 -3 -12 3 -8 -5 -25 -16 -38 -12 -13 -28 -36 -34 -51 -7
-16 -17 -28 -23 -28 -5 0 -10 -7 -10 -16 0 -8 -4 -12 -10 -9 -5 3 -10 0 -10
-7 0 -23 -127 -161 -141 -153 -4 3 -6 -4 -4 -15 2 -12 0 -18 -6 -14 -12 7 -40
-27 -32 -40 4 -5 1 -6 -5 -2 -6 3 -13 2 -17 -4 -4 -6 -10 -8 -15 -5 -4 3 -15
-7 -24 -20 -16 -25 -16 -25 3 -13 11 6 17 16 14 22 -4 5 -1 6 6 1 7 -4 9 -10
4 -14 -64 -53 -104 -81 -115 -81 -10 0 -10 -2 1 -9 11 -7 9 -12 -10 -22 -13
-7 -27 -12 -31 -11 -5 1 -8 -2 -8 -7 0 -13 -29 -41 -41 -41 -6 0 -7 5 -3 12 4
7 3 8 -5 4 -9 -6 -9 -11 1 -24 12 -13 10 -14 -9 -3 -18 9 -22 9 -17 -2 5 -14
-121 -134 -137 -129 -5 1 -9 -3 -9 -9 0 -5 -5 -7 -12 -3 -6 4 -8 3 -4 -4 3 -6
-5 -19 -19 -30 -13 -11 -21 -23 -17 -27 4 -5 -1 -5 -10 -2 -13 5 -15 2 -11
-11 6 -15 5 -15 -10 -3 -15 12 -17 12 -12 -1 4 -9 -4 -19 -20 -26 -14 -6 -25
-16 -25 -22 0 -5 -6 -10 -14 -10 -8 0 -25 -14 -37 -31 -21 -30 -23 -31 -37
-13 -14 18 -15 18 -8 0 3 -10 1 -25 -5 -32 -12 -15 -34 -20 -25 -6 2 4 -4 8
-14 8 -18 0 -21 -19 -5 -33 4 -4 5 -2 1 5 -4 6 -2 12 3 12 6 0 11 -4 11 -10 0
-14 -39 -32 -52 -24 -7 4 -8 3 -4 -4 4 -7 -8 -27 -29 -47 -32 -33 -40 -35 -36
-12 1 5 -3 6 -8 2 -6 -3 -7 -13 -4 -22 4 -11 3 -14 -5 -9 -8 5 -10 1 -5 -10 5
-14 2 -16 -15 -12 -13 4 -20 2 -16 -4 3 -5 -3 -18 -15 -29 -12 -11 -21 -17
-21 -14 0 8 -18 -8 -90 -78 -36 -34 -65 -55 -72 -51 -6 4 -8 3 -4 -4 7 -11
-43 -66 -62 -68 -34 -3 -36 -4 -25 -15 7 -7 0 -20 -23 -45 -19 -19 -38 -34
-44 -34 -6 0 -9 -4 -5 -9 3 -5 -6 -18 -20 -29 -13 -11 -21 -23 -17 -28 4 -5
-1 -2 -11 5 -23 18 -45 0 -23 -18 12 -10 10 -17 -17 -45 -26 -27 -34 -30 -42
-19 -9 12 -14 10 -30 -9 -18 -21 -18 -22 0 -6 17 16 19 16 30 1 10 -14 8 -21
-12 -42 -13 -14 -36 -45 -50 -69 -19 -33 -28 -40 -38 -32 -9 8 -15 8 -20 0 -4
-6 -1 -9 6 -8 8 2 14 -8 14 -24 1 -15 -3 -26 -8 -25 -5 1 -11 -8 -13 -21 -2
-13 -11 -36 -19 -53 -9 -16 -13 -34 -10 -38 3 -5 0 -11 -7 -13 -7 -3 -12 -37
-14 -101 -1 -53 -6 -101 -10 -108 -4 -7 -3 -9 3 -6 13 8 24 -17 17 -37 -3 -8
-1 -17 5 -21 15 -9 14 -28 -1 -20 -7 4 -6 1 3 -7 9 -7 21 -24 28 -38 11 -22
10 -23 -2 -8 -8 10 -16 17 -18 15 -2 -1 -3 0 -2 2 2 2 -6 10 -17 18 -11 8 -20
24 -21 36 0 12 -3 16 -6 9 -3 -9 -9 -6 -17 10 -43 81 -54 97 -61 90 -4 -4 -2
4 5 17 7 14 8 21 1 17 -12 -8 -33 61 -35 111 -1 18 -4 33 -7 33 -15 0 -17 29
-3 54 10 20 11 32 3 45 -8 12 -8 33 2 76 7 33 13 66 12 73 0 6 3 12 8 12 5 0
8 3 8 8 -4 22 3 41 23 61 20 23 22 23 35 5 7 -10 13 -13 13 -7 0 12 -25 35
-31 28 -3 -2 -5 4 -5 15 0 15 3 17 15 7 12 -10 13 -8 6 12 -5 16 -4 21 4 17 7
-5 11 2 11 18 0 13 16 45 35 70 19 26 35 49 35 52 0 4 12 21 28 38 15 18 36
44 46 58 11 15 24 24 30 21 5 -4 7 0 4 9 -4 8 0 15 7 15 8 0 13 -5 12 -10 -1
-5 9 -11 22 -12 22 -2 22 -1 6 11 -9 7 -14 17 -10 23 4 7 -1 8 -12 4 -11 -4
-7 4 12 24 17 17 39 41 48 54 14 18 17 20 12 5 -5 -16 -3 -17 10 -6 8 7 13 16
10 20 -3 4 20 33 51 64 48 48 59 54 72 44 13 -11 14 -11 8 0 -10 16 22 54 37
45 5 -3 7 -1 4 4 -4 6 2 18 13 28 17 15 22 16 37 4 17 -13 17 -12 4 4 -13 16
-13 20 -1 27 8 5 17 7 21 4 4 -2 11 1 15 7 4 8 3 9 -4 5 -7 -4 -12 -2 -12 3 0
6 3 11 8 11 4 0 32 23 62 51 30 28 78 69 105 91 28 21 69 56 93 76 23 20 47
37 52 37 6 0 9 3 8 6 -5 11 34 49 49 49 17 0 37 18 46 42 4 11 12 15 22 12 10
-4 15 -2 13 7 -2 8 5 14 17 14 11 0 20 7 20 15 0 8 8 14 18 14 9 -1 14 2 11 7
-3 5 0 9 6 9 6 0 9 3 7 8 -3 6 28 43 36 41 10 -2 36 15 32 21 -3 5 0 12 6 16
8 4 9 3 5 -4 -4 -7 -5 -12 -2 -12 2 0 11 -3 20 -6 9 -3 16 -1 16 6 0 6 -4 8
-10 5 -5 -3 -10 0 -10 7 0 14 48 56 88 77 12 7 20 17 16 23 -4 6 -3 9 2 6 5
-3 29 12 54 35 25 22 36 34 25 26 -19 -13 -19 -13 -6 4 8 10 20 16 28 13 8 -3
12 -2 9 3 -7 11 18 32 35 29 7 -2 13 2 14 7 0 6 12 24 28 40 15 16 27 35 27
41 0 6 -12 37 -26 69 -15 32 -27 75 -28 96 0 22 -4 33 -8 26 -5 -7 -8 3 -7 23
1 19 -2 51 -6 70 -5 28 -4 32 5 20 10 -13 11 -12 6 4 -4 11 -9 35 -12 54 -5
29 -3 34 10 29 13 -5 14 -3 4 12 -6 10 -8 30 -4 44 5 23 12 27 44 27 21 0 64
7 95 15 32 8 61 14 65 13 4 -1 31 10 60 25 30 15 60 27 68 27 8 0 14 4 14 9 0
9 33 24 54 26 5 0 11 7 13 15 4 13 3 13 -6 0 -6 -8 -11 -10 -11 -4 0 16 48 46
60 39 6 -4 7 1 3 11 -5 14 -3 15 14 6 15 -9 20 -8 20 3 0 8 -5 11 -11 8 -5 -4
3 12 20 35 16 23 33 42 37 42 5 0 6 -4 3 -9 -3 -5 1 -11 9 -14 12 -5 12 -2 3
19 -13 27 -2 46 13 24 8 -11 9 -10 4 8 -4 12 -2 22 4 22 6 0 8 7 5 15 -4 9 0
15 9 15 9 0 19 5 23 12 5 7 2 9 -8 5 -14 -5 -14 -2 -1 24 8 16 19 29 24 29 5
0 9 11 9 25 0 15 6 25 14 25 12 0 15 -21 15 -107z m-1809 -2303 c0 -5 -2 -10
-4 -10 -3 0 -8 5 -11 10 -3 6 -1 10 4 10 6 0 11 -4 11 -10z"/>
<path d="M3795 5520 c-2 -3 5 -6 15 -7 11 -1 22 2 24 5 3 4 -4 8 -15 8 -11 0
-22 -3 -24 -6z"/>
<path d="M3590 5440 c-9 -6 -10 -10 -3 -10 6 0 15 5 18 10 8 12 4 12 -15 0z"/>
<path d="M4016 5422 c-2 -4 -1 -14 4 -22 7 -11 9 -9 7 8 -1 24 -3 26 -11 14z"/>
<path d="M3933 5175 c0 -8 4 -12 9 -9 5 3 6 10 3 15 -9 13 -12 11 -12 -6z"/>
<path d="M3769 4937 c5 -5 7 -17 4 -26 -4 -9 -3 -13 1 -10 14 13 14 46 0 46
-9 0 -11 -4 -5 -10z"/>
<path d="M3684 4851 c0 -10 5 -18 11 -18 7 0 12 6 12 13 0 7 -5 15 -12 17 -6
3 -11 -3 -11 -12z"/>
<path d="M3630 4745 c-7 -9 -8 -15 -2 -15 5 0 12 7 16 15 3 8 4 15 2 15 -2 0
-9 -7 -16 -15z"/>
<path d="M3526 4689 c3 -5 10 -7 15 -4 13 9 11 -9 -3 -25 -11 -12 -10 -12 5
-1 21 16 18 33 -6 37 -9 1 -15 -2 -11 -7z"/>
<path d="M3100 4570 c-6 -11 -8 -20 -6 -20 3 0 10 9 16 20 6 11 8 20 6 20 -3
0 -10 -9 -16 -20z"/>
<path d="M3021 4496 c-9 -11 -9 -16 1 -22 7 -4 10 -4 6 1 -4 4 -3 14 3 22 6 7
9 13 6 13 -2 0 -10 -6 -16 -14z"/>
<path d="M2970 4496 c0 -2 8 -10 18 -17 15 -13 16 -12 3 4 -13 16 -21 21 -21
13z"/>
<path d="M3283 4455 c0 -8 4 -12 9 -9 5 3 6 10 3 15 -9 13 -12 11 -12 -6z"/>
<path d="M3216 4363 c-6 -14 -5 -15 5 -6 7 7 10 15 7 18 -3 3 -9 -2 -12 -12z"/>
<path d="M2690 4246 c0 -2 7 -7 16 -10 8 -3 12 -2 9 4 -6 10 -25 14 -25 6z"/>
<path d="M2930 4140 c0 -5 5 -10 11 -10 5 0 7 5 4 10 -3 6 -8 10 -11 10 -2 0
-4 -4 -4 -10z"/>
<path d="M2443 4015 c0 -8 4 -12 9 -9 5 3 6 10 3 15 -9 13 -12 11 -12 -6z"/>
<path d="M2760 3980 c-12 -7 -10 -9 7 -7 12 0 19 5 17 9 -6 10 -6 10 -24 -2z"/>
<path d="M2340 3935 c0 -8 2 -15 4 -15 2 0 6 7 10 15 3 8 1 15 -4 15 -6 0 -10
-7 -10 -15z"/>
<path d="M2646 3892 c-3 -5 1 -9 9 -9 8 0 12 4 9 9 -3 4 -7 8 -9 8 -2 0 -6 -4
-9 -8z"/>
<path d="M2260 3840 c8 -5 20 -10 25 -10 6 0 3 5 -5 10 -8 5 -19 10 -25 10 -5
0 -3 -5 5 -10z"/>
<path d="M2139 3708 c-7 -23 -4 -35 7 -35 9 0 11 4 4 12 -5 7 -7 15 -3 18 3 4
3 7 0 7 -4 0 -7 -1 -8 -2z"/>
<path d="M2166 3372 c-3 -5 1 -9 9 -9 8 0 12 4 9 9 -3 4 -7 8 -9 8 -2 0 -6 -4
-9 -8z"/>
<path d="M1995 2940 c-3 -5 -1 -10 4 -10 6 0 11 5 11 10 0 6 -2 10 -4 10 -3 0
-8 -4 -11 -10z"/>
<path d="M1965 2909 c-4 -6 -5 -12 -2 -15 2 -3 7 2 10 11 7 17 1 20 -8 4z"/>
<path d="M3809 5918 c-65 -78 -170 -192 -298 -322 l-126 -128 69 7 c152 16
282 69 379 155 60 54 69 70 39 70 -17 0 -18 9 -14 130 3 76 1 130 -5 130 -5 0
-25 -19 -44 -42z m16 -18 c-3 -5 -3 -10 2 -10 4 0 7 -41 5 -91 -2 -56 1 -94 7
-98 16 -10 2 -44 -27 -66 -22 -16 -24 -16 -13 -2 11 14 12 20 2 30 -10 9 -11
9 -6 -4 6 -15 -38 -69 -57 -69 -5 0 -6 -6 -2 -12 4 -7 4 -10 -1 -6 -4 4 -33
-6 -63 -23 -30 -16 -57 -28 -59 -25 -2 2 -19 0 -36 -5 -49 -14 -135 -22 -117
-10 8 5 18 7 24 4 5 -3 6 -1 2 5 -4 7 13 31 40 58 32 32 48 43 54 35 5 -9 9
-8 13 4 4 9 3 13 -3 10 -21 -13 -8 13 20 40 16 15 26 33 23 39 -4 6 3 3 14 -7
16 -14 23 -15 29 -6 4 7 3 10 -4 5 -6 -3 -13 -2 -17 4 -3 5 -1 10 5 10 7 0 9
7 6 16 -3 8 -2 13 3 10 4 -3 18 8 30 25 19 26 25 28 39 17 15 -11 15 -11 5 2
-9 12 -6 21 17 47 16 17 31 29 35 25 3 -4 3 2 -1 13 -6 15 -4 17 10 12 10 -4
15 -3 11 3 -6 10 1 30 11 30 3 0 2 -4 -1 -10z"/>
<path d="M3684 5574 c-18 -14 -18 -15 4 -4 12 6 22 13 22 15 0 8 -5 6 -26 -11z"/>
<path d="M4106 5498 c-10 -66 -54 -204 -92 -290 -20 -48 -39 -115 -49 -175
-44 -274 -175 -580 -401 -939 -307 -485 -403 -720 -435 -1052 -20 -210 24
-496 109 -710 l29 -73 17 128 c59 444 168 736 400 1078 371 547 400 594 470
768 89 223 131 449 131 712 -1 188 -8 251 -42 360 -26 84 -106 235 -124 235
-4 0 -9 -19 -13 -42z m34 -28 c1 12 3 11 11 -3 6 -10 8 -25 5 -33 -3 -8 -2
-12 3 -9 5 3 12 -4 16 -15 3 -11 11 -20 16 -20 6 0 5 -9 -2 -21 -7 -14 -7 -19
0 -15 22 14 49 -83 65 -237 3 -26 8 -57 12 -69 4 -13 2 -18 -4 -14 -7 4 -8 -4
-1 -26 11 -36 3 -277 -11 -312 -4 -11 -13 -63 -20 -114 -8 -58 -16 -88 -21
-80 -7 10 -9 9 -9 -4 0 -9 -3 -25 -6 -35 -5 -15 -4 -16 6 -3 17 22 2 -28 -17
-59 -8 -13 -11 -21 -5 -17 6 4 8 -2 5 -14 -3 -11 -10 -17 -16 -13 -5 3 -7 1
-4 -4 7 -11 -34 -137 -61 -187 -9 -17 -16 -34 -17 -37 0 -3 -18 -34 -40 -69
-22 -35 -39 -68 -37 -72 1 -5 -7 -18 -18 -30 -11 -12 -20 -28 -20 -36 0 -9 -6
-12 -16 -8 -14 5 -15 4 -4 -9 12 -14 7 -19 -13 -16 -5 1 -6 -3 -3 -8 4 -5 -1
-16 -9 -24 -8 -9 -15 -22 -15 -29 0 -7 -11 -25 -25 -40 -14 -15 -25 -31 -25
-35 0 -5 -11 -20 -25 -35 -14 -15 -25 -32 -25 -39 0 -6 -6 -9 -13 -6 -7 3 -13
-3 -14 -14 -1 -10 -11 -29 -23 -41 -12 -13 -26 -33 -31 -46 -5 -13 -13 -21
-18 -18 -4 3 -13 -6 -20 -20 -9 -20 -9 -24 1 -18 7 4 4 -3 -7 -16 -11 -13 -24
-30 -30 -37 -5 -8 -16 -20 -22 -28 -7 -7 -13 -17 -13 -21 0 -4 -11 -21 -24
-38 -13 -17 -37 -59 -54 -93 -18 -34 -36 -64 -41 -68 -6 -3 -8 -12 -4 -20 3
-8 1 -15 -3 -15 -25 0 -162 -369 -147 -394 4 -5 1 -6 -4 -3 -7 4 -13 -9 -16
-36 -2 -23 -14 -89 -26 -147 -12 -58 -24 -123 -27 -145 -3 -22 -7 -51 -10 -64
-5 -23 -6 -23 -18 -5 -7 10 -15 28 -19 39 -3 11 -15 52 -26 91 -11 39 -23 86
-26 105 -3 19 -9 57 -14 84 -5 28 -9 59 -9 70 0 11 -2 56 -3 101 -1 44 0 85 3
90 3 5 4 44 4 86 -1 43 2 72 6 65 4 -7 8 8 8 33 0 25 5 63 12 85 6 22 12 47
12 55 2 30 49 169 56 165 4 -3 8 5 8 18 0 12 10 45 23 72 12 28 23 52 24 55
15 46 27 61 43 56 15 -5 15 -4 1 6 -14 10 -12 17 18 62 18 28 33 59 33 69 0
10 4 16 9 12 5 -3 13 5 17 17 4 13 19 42 35 64 16 23 25 44 22 48 -4 3 2 6 11
6 10 0 16 6 14 12 -3 7 3 19 12 28 13 12 13 13 0 5 -9 -6 -8 -2 4 13 15 17 22
19 28 10 6 -8 7 -5 3 10 -4 13 -2 22 4 22 6 0 11 7 11 16 0 9 5 12 12 8 8 -5
9 0 6 14 -4 12 -2 20 3 16 5 -3 9 0 9 6 0 7 9 24 20 40 11 15 16 31 12 36 -4
5 3 1 15 -9 14 -12 23 -15 28 -7 3 6 1 9 -6 8 -6 -2 -14 3 -17 11 -3 9 0 11 8
6 9 -5 11 -4 6 4 -8 12 34 102 61 133 8 9 12 22 7 29 -4 7 -3 10 3 6 6 -4 14
0 17 9 3 9 2 12 -4 9 -6 -4 1 10 15 31 14 20 25 41 25 46 0 5 5 6 11 3 6 -4 9
-1 8 6 -2 16 2 28 42 117 16 35 29 68 29 73 0 6 8 24 17 42 10 18 18 39 20 47
5 37 29 111 34 106 4 -5 25 95 36 174 1 14 5 43 8 65 3 22 14 56 24 75 10 19
21 48 25 63 3 15 10 25 15 22 5 -2 11 2 15 10 3 8 1 17 -4 20 -6 4 -10 12 -10
18 0 9 2 9 8 -1 5 -7 13 13 21 54 9 44 16 62 22 53 9 -15 13 10 10 61 -2 20 0
22 8 10 10 -13 11 -13 11 0z"/>
<path d="M4211 5284 c0 -11 3 -14 6 -6 3 7 2 16 -1 19 -3 4 -6 -2 -5 -13z"/>
<path d="M3961 4804 c0 -11 3 -14 6 -6 3 7 2 16 -1 19 -3 4 -6 -2 -5 -13z"/>
<path d="M3887 3823 c-4 -3 -7 -11 -7 -17 0 -6 5 -5 12 2 6 6 9 14 7 17 -3 3
-9 2 -12 -2z"/>
<path d="M3330 3641 c0 -5 7 -12 16 -15 14 -5 15 -4 4 9 -14 17 -20 19 -20 6z"/>
<path d="M3181 3184 c0 -11 3 -14 6 -6 3 7 2 16 -1 19 -3 4 -6 -2 -5 -13z"/>
<path d="M3361 5407 c-36 -89 -148 -288 -284 -505 -104 -165 -257 -443 -257
-466 0 -3 65 49 145 116 79 66 142 126 138 131 -3 6 -1 7 6 3 7 -4 69 43 157
121 81 70 153 133 160 139 12 10 11 19 -7 60 -11 27 -27 78 -36 114 -17 74
-20 248 -4 299 17 55 6 47 -18 -12z m-13 -175 c1 -42 7 -94 13 -115 5 -20 7
-41 5 -46 -3 -5 1 -11 9 -15 8 -3 15 -10 15 -16 0 -6 -6 -8 -12 -5 -7 4 -6 1
3 -7 9 -7 14 -19 12 -25 -3 -7 0 -13 6 -13 6 0 7 -7 4 -17 -5 -12 -3 -14 8 -8
8 4 -2 -6 -21 -22 -19 -17 -56 -50 -81 -75 -25 -24 -75 -67 -110 -96 -35 -29
-70 -57 -76 -62 -7 -6 -13 -8 -13 -5 0 3 -6 0 -14 -7 -8 -7 -13 -15 -13 -18 1
-3 -2 -5 -8 -5 -5 0 -9 4 -7 8 1 5 -2 6 -7 2 -6 -3 -8 -12 -5 -19 3 -9 -3 -17
-15 -21 -12 -3 -19 -10 -17 -14 3 -4 -8 -15 -25 -25 -16 -9 -29 -22 -29 -28 0
-6 -9 -8 -19 -5 -13 3 -18 0 -15 -7 3 -7 -7 -18 -21 -24 -16 -7 -23 -17 -19
-24 4 -7 3 -8 -5 -4 -8 6 -9 12 -2 20 6 7 8 16 4 20 -4 4 1 4 12 0 17 -7 18
-6 7 8 -8 10 -9 19 -3 22 5 4 20 27 32 51 13 25 31 54 40 64 10 10 15 22 11
26 -4 4 0 12 9 18 16 12 33 46 31 60 -1 4 2 7 6 7 5 0 14 12 20 26 7 14 16 23
22 19 5 -3 13 10 18 29 5 18 36 73 68 121 33 48 66 98 75 112 12 18 18 21 23
11 3 -7 4 -4 1 7 -4 18 29 97 65 153 8 12 15 22 15 22 0 0 1 -35 3 -78z"/>
<path d="M3147 4967 c-3 -8 3 -14 16 -15 12 0 17 2 12 6 -6 4 -13 11 -16 15
-4 4 -9 2 -12 -6z"/>
<path d="M2963 4613 c0 -9 4 -10 14 -2 7 6 13 12 13 14 0 1 -6 2 -13 2 -8 0
-14 -6 -14 -14z"/>
<path d="M3710 4720 c-9 -6 -10 -10 -3 -10 6 0 15 5 18 10 8 12 4 12 -15 0z"/>
<path d="M2470 4523 c-25 -30 -62 -74 -82 -97 -21 -22 -41 -50 -44 -62 -10
-36 78 -296 90 -264 2 8 10 56 16 105 14 112 57 331 71 356 19 37 -7 17 -51
-38z m-1 -55 c-6 -12 -14 -47 -16 -77 -6 -87 -7 -90 -15 -85 -4 3 -8 -22 -8
-55 0 -33 -4 -62 -9 -65 -4 -3 -16 20 -25 52 -10 31 -21 64 -26 73 -11 21 -1
69 16 76 8 3 14 10 14 17 0 6 14 24 30 40 17 16 30 33 30 38 0 4 5 8 10 8 7 0
7 -8 -1 -22z"/>
<path d="M3119 4194 c-13 -15 -89 -82 -169 -149 -80 -67 -171 -144 -202 -171
l-57 -49 0 -66 c-1 -102 36 -300 84 -446 54 -162 64 -184 65 -128 0 45 31 244
53 347 8 37 12 70 9 73 -3 3 -1 5 5 5 16 0 102 -98 124 -142 22 -44 31 -42 58
10 26 50 95 118 155 152 l49 28 -34 17 c-47 25 -133 109 -170 166 l-31 49 -59
-86 c-32 -47 -64 -104 -71 -127 -6 -23 -20 -52 -31 -64 -11 -13 -18 -26 -14
-29 3 -4 2 -15 -3 -25 -9 -16 -21 -80 -23 -121 -1 -9 -4 -15 -8 -13 -3 3 -6
-8 -7 -23 0 -47 -18 -151 -27 -159 -4 -5 -5 -1 -3 7 3 8 -1 27 -9 42 -7 15
-13 29 -12 30 3 5 -12 52 -27 86 -8 18 -12 36 -9 42 9 15 -6 61 -18 53 -5 -3
-7 -2 -4 4 4 6 2 37 -3 69 -18 106 -20 227 -5 248 8 10 19 15 26 10 8 -4 10
-3 5 4 -4 7 -2 12 4 12 6 0 9 4 5 9 -3 5 0 13 6 17 8 4 9 3 5 -4 -13 -22 2
-12 38 24 19 19 40 33 46 29 5 -3 7 0 4 8 -3 8 6 22 23 32 15 10 34 26 43 35
12 13 13 13 5 0 -5 -8 10 4 32 28 23 23 48 42 54 42 7 0 9 3 6 6 -7 7 35 44
50 44 4 0 3 -4 -2 -8 -18 -12 -76 -143 -69 -155 3 -7 -2 -3 -12 8 -15 18 -16
18 -10 2 3 -11 -7 -59 -24 -108 -30 -89 -38 -132 -22 -113 5 5 28 61 52 124
41 111 122 281 156 328 23 31 3 28 -27 -4z m-63 -370 c-3 -8 -2 -13 3 -9 12 7
53 -44 45 -56 -3 -5 -2 -8 3 -7 5 2 26 -14 47 -34 21 -21 47 -40 57 -43 17 -6
18 -8 3 -31 -9 -13 -25 -24 -36 -24 -12 0 -17 -4 -12 -12 4 -6 3 -8 -3 -5 -6
4 -16 0 -23 -8 -7 -8 -9 -15 -4 -15 4 0 -1 -8 -12 -19 -10 -10 -27 -28 -37
-40 -10 -13 -23 -19 -30 -15 -9 6 -9 4 0 -7 10 -13 10 -16 -2 -16 -8 0 -12 4
-10 7 3 4 -4 19 -15 33 -11 14 -20 28 -20 31 0 3 -16 21 -36 40 -33 32 -35 38
-23 53 9 11 10 14 2 9 -7 -4 -13 -3 -13 3 0 5 5 13 11 17 6 3 9 15 6 25 -3 10
0 17 5 16 6 -1 18 12 28 28 10 17 22 29 28 28 6 -2 9 4 6 12 -4 8 -1 15 6 15
7 0 10 6 7 14 -5 12 3 21 22 25 2 1 0 -6 -3 -15z"/>
<path d="M3080 3771 c0 -7 -5 -9 -12 -5 -7 5 -8 3 -3 -5 5 -9 10 -10 18 -2 6
6 8 14 4 18 -4 3 -7 1 -7 -6z"/>
<path d="M3142 3684 c10 -10 20 -16 22 -13 3 3 -5 11 -17 18 -21 13 -21 12 -5
-5z"/>
<path d="M3025 3579 c-4 -6 -5 -12 -2 -15 2 -3 7 2 10 11 7 17 1 20 -8 4z"/>
<path d="M3085 3550 c-3 -5 -1 -10 4 -10 6 0 11 5 11 10 0 6 -2 10 -4 10 -3 0
-8 -4 -11 -10z"/>
<path d="M3386 3883 c-6 -14 -5 -15 5 -6 7 7 10 15 7 18 -3 3 -9 -2 -12 -12z"/>
<path d="M1692 3680 c0 -19 2 -27 5 -17 2 9 2 25 0 35 -3 9 -5 1 -5 -18z"/>
<path d="M1070 2850 c187 -122 329 -239 485 -401 136 -140 236 -269 395 -509
164 -247 227 -322 350 -418 38 -29 137 -77 210 -100 100 -32 172 -43 330 -49
342 -13 589 65 781 249 80 76 163 190 285 389 162 264 183 297 254 394 136
185 304 354 444 445 33 22 56 40 49 40 -6 0 -57 -16 -114 -36 -256 -89 -450
-206 -634 -383 -130 -125 -193 -202 -422 -511 -169 -228 -260 -313 -393 -366
-129 -53 -292 -48 -416 11 -105 51 -177 126 -354 375 -194 272 -337 423 -540
571 -157 114 -442 249 -683 323 -48 15 -95 29 -105 33 -9 3 26 -23 78 -57z
m87 -16 c13 -4 20 -10 17 -16 -3 -5 5 -6 20 -2 16 4 26 2 26 -5 0 -6 12 -11
28 -11 15 0 41 -8 57 -18 17 -10 43 -22 59 -26 17 -4 35 -14 40 -21 6 -8 20
-16 31 -18 28 -4 150 -62 188 -89 18 -13 47 -31 66 -41 19 -10 41 -25 48 -33
8 -8 22 -14 30 -14 9 0 13 -3 10 -6 -4 -4 13 -19 36 -34 57 -37 102 -77 102
-92 1 -7 6 -12 12 -11 6 1 43 -29 83 -67 39 -39 68 -70 64 -70 -5 0 2 -7 14
-16 12 -8 22 -25 23 -37 0 -12 3 -16 6 -9 3 8 16 -1 34 -25 17 -21 36 -46 44
-56 8 -9 15 -20 15 -23 0 -6 19 -30 49 -60 13 -13 22 -27 18 -30 -3 -3 10 -22
29 -41 19 -20 33 -42 30 -49 -3 -8 -2 -13 2 -11 4 1 8 -3 10 -8 2 -6 10 -14
18 -18 11 -7 12 -12 4 -22 -9 -11 -7 -12 11 -8 15 4 20 3 15 -5 -4 -7 -3 -12
1 -12 5 0 14 -9 21 -21 11 -17 11 -24 0 -37 -12 -15 -11 -16 5 -3 16 12 22 8
18 -13 -1 -5 4 -6 12 -3 16 6 41 -29 31 -45 -4 -7 -3 -8 5 -4 7 5 26 -6 47
-28 19 -20 39 -36 43 -36 12 0 42 -36 35 -43 -3 -3 4 -3 17 0 17 5 20 3 14 -7
-5 -9 -4 -11 3 -6 6 4 22 0 34 -8 33 -21 194 -48 242 -41 30 5 37 3 26 -4 -22
-16 -3 -13 30 4 16 8 46 18 67 21 21 3 60 16 87 29 28 13 53 22 58 19 4 -3 5
2 2 10 -4 9 -1 16 6 16 7 0 35 20 63 45 33 31 53 42 57 34 5 -7 10 -8 14 -1 3
6 0 12 -6 15 -10 3 -10 7 1 20 7 9 18 14 24 10 5 -3 7 -2 4 4 -4 5 5 20 18 31
14 12 25 27 25 33 0 6 7 9 14 6 9 -4 13 -1 10 6 -2 7 7 24 21 37 14 13 25 30
25 37 0 8 5 11 10 8 6 -3 10 3 10 14 0 12 4 21 9 21 4 0 21 20 37 45 15 25 33
44 39 41 6 -2 11 6 11 18 -1 12 4 20 12 18 8 -1 11 2 6 9 -4 7 0 17 8 23 8 6
20 22 27 35 9 16 15 20 21 12 5 -9 9 -8 13 4 4 9 3 13 -3 10 -6 -3 -10 -3 -10
2 1 13 72 88 81 86 5 -2 5 5 2 14 -4 11 -3 14 5 9 7 -4 12 -1 12 9 0 8 11 20
24 25 13 5 28 15 32 22 5 9 2 8 -11 -2 -11 -8 -7 1 9 20 16 19 38 40 50 47 11
7 17 12 12 13 -5 0 -3 7 4 15 7 9 19 14 27 11 8 -3 11 -1 8 4 -7 12 44 62 56
55 4 -3 11 0 15 6 5 8 3 9 -7 4 -16 -9 26 33 54 54 14 11 20 11 35 0 15 -13
16 -12 4 3 -12 14 -10 19 15 35 15 10 34 24 42 31 27 26 60 44 71 37 6 -4 9
-1 8 6 -3 14 38 39 65 39 11 0 15 4 11 12 -5 8 0 9 14 6 12 -4 25 -1 29 4 3 7
1 8 -5 4 -7 -4 -12 -5 -12 -2 0 10 70 35 84 30 8 -3 17 0 22 7 4 8 3 10 -4 5
-7 -4 -12 -2 -12 4 0 7 7 10 15 6 20 -7 46 4 39 16 -4 6 2 7 16 3 17 -5 21 -4
15 5 -5 9 -4 11 4 6 6 -4 20 -2 29 5 35 25 -85 -83 -165 -150 -13 -10 -23 -21
-23 -25 0 -11 -62 -71 -72 -68 -5 1 -8 -6 -6 -15 2 -10 -2 -17 -10 -15 -6 1
-11 -2 -10 -6 4 -13 -49 -72 -57 -64 -5 4 -5 2 -2 -4 8 -13 -62 -106 -73 -99
-5 3 -6 -5 -2 -17 3 -14 1 -19 -6 -14 -6 3 -13 -6 -17 -23 -3 -16 -14 -36 -25
-46 -17 -15 -19 -15 -29 2 -6 10 -11 13 -11 8 0 -6 5 -16 11 -22 14 -14 -57
-127 -74 -116 -5 3 -7 1 -3 -5 6 -9 -11 -60 -24 -72 -3 -3 -14 -22 -25 -42
-10 -21 -21 -35 -23 -33 -2 2 -19 -24 -37 -58 -18 -34 -38 -61 -45 -59 -6 1
-9 -2 -5 -8 7 -12 -8 -38 -49 -85 -14 -16 -26 -34 -26 -39 0 -4 -7 -6 -14 -3
-9 4 -13 1 -10 -6 9 -24 -201 -217 -235 -217 -6 0 -11 -4 -11 -9 0 -13 -57
-34 -71 -25 -7 4 -10 3 -6 -3 7 -12 -15 -23 -41 -22 -14 0 -13 2 3 10 l20 9
-20 -3 c-13 -2 -19 -9 -17 -20 2 -9 -2 -17 -8 -17 -5 0 -10 6 -10 13 0 8 -3 8
-8 1 -8 -12 -38 -25 -69 -29 -12 -2 -39 -9 -59 -15 -20 -7 -54 -10 -75 -7 -22
3 -37 2 -35 -1 7 -11 -232 -12 -308 -1 -39 5 -85 12 -103 14 -78 10 -184 45
-176 58 3 5 -4 6 -17 2 -15 -5 -20 -4 -16 4 4 6 2 9 -6 6 -18 -7 -159 86 -151
99 4 5 -1 7 -10 3 -19 -7 -42 17 -31 34 5 8 3 9 -5 5 -8 -5 -14 0 -18 14 -3
13 -11 19 -20 16 -8 -3 -11 -1 -8 4 3 6 1 10 -4 10 -6 0 -11 6 -11 14 0 8 -7
17 -16 20 -9 4 -14 13 -10 22 3 8 2 13 -3 10 -5 -3 -21 11 -37 32 -15 20 -33
40 -38 44 -6 4 -7 8 -3 8 5 0 1 7 -7 16 -9 8 -14 20 -11 25 4 5 -1 9 -9 9 -14
0 -20 12 -17 33 0 4 -4 7 -10 7 -6 0 -9 7 -6 14 4 10 1 13 -7 10 -7 -3 -18 7
-24 21 -7 14 -30 50 -52 80 -22 30 -40 58 -40 64 0 5 -4 11 -8 13 -4 2 -21 20
-36 41 -25 32 -27 39 -15 55 13 15 12 16 -3 3 -10 -7 -18 -11 -18 -7 0 3 0 8
0 11 0 2 -12 16 -27 31 -21 21 -23 28 -12 36 11 8 10 9 -3 4 -12 -3 -26 5 -43
28 -14 18 -25 38 -25 44 0 6 -5 14 -12 18 -7 5 -9 2 -4 -7 4 -8 -2 -3 -14 11
-31 36 -112 120 -146 152 -16 16 -33 32 -39 38 -5 5 -46 40 -90 77 -44 38 -81
71 -83 75 -2 4 -11 16 -20 26 -9 10 -13 12 -8 5 11 -16 -6 -17 -22 -1 -9 9 -9
15 1 27 11 14 10 14 -6 2 -15 -12 -20 -12 -33 5 -9 10 -12 12 -8 4 5 -10 -1
-8 -17 5 -13 11 -26 23 -29 26 -3 3 -12 9 -20 12 -20 7 0 8 27 1z"/>
<path d="M4245 2619 c-4 -6 -5 -12 -2 -15 2 -3 7 2 10 11 7 17 1 20 -8 4z"/>
<path d="M1665 2580 c-3 -5 -1 -10 4 -10 6 0 11 5 11 10 0 6 -2 10 -4 10 -3 0
-8 -4 -11 -10z"/>
<path d="M1685 2560 c-3 -6 1 -7 9 -4 18 7 21 14 7 14 -6 0 -13 -4 -16 -10z"/>
<path d="M1635 2430 c3 -5 8 -10 11 -10 2 0 4 5 4 10 0 6 -5 10 -11 10 -5 0
-7 -4 -4 -10z"/>
<path d="M1840 2421 c0 -10 19 -25 25 -20 1 2 -3 10 -11 17 -8 7 -14 8 -14 3z"/>
<path d="M4028 2292 c4 -10 7 -12 10 -4 2 7 9 9 15 5 7 -3 8 -2 4 2 -14 16
-36 14 -29 -3z"/>
<path d="M2219 1653 c-13 -16 -12 -17 4 -4 9 7 17 15 17 17 0 8 -8 3 -21 -13z"/>
<path d="M3545 1630 c-3 -6 1 -7 9 -4 18 7 21 14 7 14 -6 0 -13 -4 -16 -10z"/>
<path d="M2768 1533 c6 -2 18 -2 25 0 6 3 1 5 -13 5 -14 0 -19 -2 -12 -5z"/>
<path d="M3231 2244 c0 -11 3 -14 6 -6 3 7 2 16 -1 19 -3 4 -6 -2 -5 -13z"/>
<path d="M4740 1814 c-30 -20 -59 -40 -63 -44 -5 -4 23 -53 61 -108 49 -72 72
-98 82 -92 10 6 6 18 -18 54 l-31 46 22 15 c29 20 56 19 113 -5 40 -18 50 -19
61 -7 12 12 7 16 -31 31 -24 9 -54 18 -65 19 -25 2 -27 10 -6 27 22 18 18 48
-10 75 -32 33 -50 32 -115 -11z m94 -10 c9 -8 16 -17 16 -19 0 -17 -19 -40
-54 -64 l-42 -29 -23 36 c-13 20 -20 37 -14 39 5 2 25 14 44 28 41 29 52 30
73 9z"/>
<path d="M856 1797 c-84 -146 -86 -174 -16 -221 35 -23 82 -20 107 7 35 38
105 161 94 165 -6 2 -13 4 -17 5 -3 1 -27 -34 -53 -78 -40 -69 -51 -80 -76
-83 -33 -3 -75 27 -75 55 0 9 20 53 45 99 34 64 41 83 30 88 -10 3 -23 -9 -39
-37z"/>
<path d="M4611 1730 c-11 -6 -1 -29 49 -107 75 -117 66 -107 84 -100 13 5 11
13 -12 49 -15 24 -46 71 -68 105 -29 46 -43 60 -53 53z"/>
<path d="M1029 1610 c-43 -86 -52 -111 -41 -115 8 -3 16 -4 17 -3 1 2 19 40
41 85 21 46 43 83 47 83 4 0 7 -6 6 -12 -2 -7 1 -53 5 -103 8 -90 18 -125 36
-125 8 0 70 113 118 211 1 4 -4 9 -13 12 -11 5 -26 -15 -59 -80 l-43 -86 -6
49 c-3 27 -9 78 -13 114 -6 57 -16 79 -34 80 -3 0 -30 -49 -61 -110z"/>
<path d="M4483 1652 c-56 -33 -79 -52 -74 -61 6 -9 16 -7 44 9 l36 21 52 -90
c29 -50 58 -91 64 -91 20 0 25 13 12 29 -25 30 -97 163 -92 171 2 4 18 13 34
20 19 7 28 17 24 26 -7 20 -8 19 -100 -34z"/>
<path d="M1253 1499 c-42 -89 -49 -111 -37 -116 8 -3 16 -4 17 -2 1 2 25 52
54 111 43 87 49 107 37 112 -9 3 -16 6 -18 6 -1 0 -25 -50 -53 -111z"/>
<path d="M1359 1573 c0 -5 -4 -63 -7 -130 -6 -102 -5 -124 7 -128 21 -8 205
176 188 187 -8 5 -40 -21 -95 -77 l-83 -85 5 42 c3 24 8 78 12 121 5 66 3 77
-10 77 -9 0 -16 -3 -17 -7z"/>
<path d="M4298 1554 c-49 -26 -63 -78 -29 -108 16 -14 34 -17 98 -14 73 3 78
2 81 -18 2 -14 -7 -29 -24 -43 -30 -24 -65 -27 -94 -9 -27 17 -37 2 -14 -23
15 -17 27 -20 62 -16 88 10 132 94 72 139 -22 16 -31 17 -82 7 -31 -6 -64 -9
-72 -6 -23 9 -19 43 6 61 26 18 75 21 80 5 2 -5 11 -7 21 -3 17 6 17 8 1 25
-20 23 -68 24 -106 3z"/>
<path d="M1540 1382 c-23 -59 -42 -111 -43 -115 -2 -9 136 -65 161 -66 6 -1
12 5 12 12 0 7 -31 23 -69 36 l-68 23 15 39 c8 22 18 39 23 39 4 0 28 -9 54
-20 52 -22 79 -26 73 -9 -2 6 -31 23 -65 36 -61 24 -62 25 -51 51 19 43 21 43
88 16 50 -20 65 -23 71 -12 5 8 2 15 -9 19 -9 4 -47 18 -84 32 l-67 26 -41
-107z"/>
<path d="M4111 1461 c-10 -7 -13 -31 -12 -97 2 -129 10 -174 28 -167 11 4 13
16 9 47 l-6 41 49 21 49 22 30 -30 c22 -23 34 -28 46 -21 14 8 12 13 -16 37
-18 16 -62 57 -98 92 -47 45 -69 61 -79 55z m60 -132 c-20 -9 -37 -16 -37 -15
-1 1 -4 28 -7 62 l-5 60 43 -45 43 -45 -37 -17z"/>
<path d="M2327 1449 c7 -7 15 -10 18 -7 3 3 -2 9 -12 12 -14 6 -15 5 -6 -5z"/>
<path d="M1746 1299 c-41 -127 -41 -129 -22 -129 8 0 21 21 31 50 18 54 21 56
60 38 18 -8 29 -25 40 -61 8 -28 15 -56 15 -63 0 -6 9 -14 21 -17 18 -5 20 -2
14 26 -4 18 -14 48 -24 68 l-17 36 29 0 c52 0 78 71 39 106 -16 15 -122 57
-143 57 -4 0 -23 -50 -43 -111z m119 59 c40 -15 55 -27 55 -48 0 -34 -27 -45
-78 -31 -26 7 -50 15 -54 19 -4 4 -2 24 4 45 9 28 16 36 27 31 9 -3 30 -11 46
-16z"/>
<path d="M3970 1404 c0 -10 49 -143 60 -165 11 -20 -3 -28 -15 -9 -13 20 -168
131 -179 127 -16 -6 -12 -32 25 -139 27 -76 38 -98 53 -98 13 0 16 5 11 18
-38 97 -62 171 -52 165 7 -4 49 -36 94 -70 52 -41 87 -61 97 -57 20 8 21 -1
-9 80 -14 38 -32 88 -41 112 -9 23 -22 42 -30 42 -8 0 -14 -3 -14 -6z"/>
<path d="M2017 1319 c-25 -15 -36 -50 -25 -75 5 -11 32 -34 59 -50 53 -31 68
-56 48 -80 -27 -33 -119 5 -119 48 0 10 -7 18 -15 18 -19 0 -19 -38 -1 -62 15
-20 76 -48 104 -48 33 0 72 38 72 70 0 30 -28 59 -89 92 -24 13 -32 24 -29 40
6 47 108 25 108 -22 0 -12 7 -20 16 -20 24 0 13 50 -16 72 -32 23 -89 32 -113
17z"/>
<path d="M3661 1307 c-109 -56 -69 -239 52 -239 70 0 117 47 117 118 0 96 -91
161 -169 121z m104 -41 c50 -51 42 -135 -17 -164 -60 -28 -118 23 -118 105 0
33 5 46 26 62 36 28 79 27 109 -3z"/>
<path d="M2201 1188 c-12 -57 -24 -114 -28 -127 -5 -18 -2 -22 12 -20 15 3 23
27 42 114 13 60 21 115 19 122 -12 31 -24 6 -45 -89z"/>
<path d="M3524 1272 c-18 -3 -22 -14 -32 -80 -7 -42 -12 -92 -12 -109 0 -38
-15 -43 -27 -10 -4 12 -26 55 -48 95 -31 57 -44 72 -62 72 -28 0 -28 0 -3
-135 11 -60 20 -110 20 -112 0 -2 7 -3 15 -3 19 0 18 5 -5 115 -10 49 -17 91
-15 93 1 2 25 -39 52 -90 28 -51 57 -94 65 -96 12 -2 19 21 34 110 l18 113 17
-100 c10 -55 18 -101 18 -102 1 -2 8 -3 16 -3 17 0 18 -8 -13 155 -15 81 -19
90 -38 87z"/>
<path d="M2280 1257 c0 -9 14 -17 39 -21 l38 -6 -18 -102 c-13 -71 -16 -105
-9 -112 15 -15 26 7 35 68 12 93 26 145 38 141 48 -14 67 -15 67 -1 0 14 -42
27 -142 41 -39 6 -48 4 -48 -8z"/>
<path d="M2481 1127 c-6 -62 -11 -118 -11 -124 0 -6 31 -14 73 -18 39 -3 80
-9 90 -11 11 -4 17 0 17 10 0 15 -10 18 -104 30 -21 3 -40 6 -41 8 -1 2 0 20
3 41 l4 39 69 -7 c60 -6 69 -5 69 9 0 11 -9 16 -32 16 -18 0 -49 3 -68 6 -34
6 -35 7 -32 43 l4 37 51 -7 c79 -11 97 -10 97 5 0 10 -20 16 -72 21 -40 3 -80
8 -89 11 -14 4 -18 -13 -28 -109z"/>
<path d="M3067 1213 l-47 -4 5 -72 c13 -161 16 -179 32 -173 8 3 48 6 89 6 66
0 74 2 74 19 0 19 -5 19 -122 7 -17 -1 -28 2 -28 9 0 7 -3 27 -6 44 -6 31 -6
31 34 31 58 0 102 11 102 25 0 9 -18 11 -69 7 l-69 -5 -4 36 c-3 32 -1 36 25
41 16 3 49 6 73 6 32 0 44 4 44 15 0 15 -19 17 -133 8z"/>
<path d="M2790 1084 l0 -126 71 4 c65 3 74 6 100 36 24 27 29 41 29 83 0 60
-22 106 -56 119 -14 6 -52 10 -85 10 l-59 0 0 -126z m150 69 c18 -23 21 -37
17 -77 -6 -63 -31 -86 -93 -86 l-44 0 0 95 0 95 49 0 c42 0 53 -4 71 -27z"/>
</g>
</svg>
