<?xml version="1.0" standalone="no"?> <!DOCTYPE svg PUBLIC "-//W3C//DTD SVG 20010904//EN" "http://www.w3.org/TR/2001/REC-SVG-20010904/DTD/svg10.dtd"> <svg version="1.0" xmlns="http://www.w3.org/2000/svg" width="600.000000pt" height="626.000000pt" viewBox="0 0 600.000000 626.000000" preserveAspectRatio="xMidYMid meet"> <g transform="translate(0.000000,626.000000) scale(0.100000,-0.100000)" fill="currentColor" stroke="none"> <path d="M3265 6215 c-281 -147 -515 -379 -626 -622 -78 -172 -103 -305 -96 -518 10 -319 82 -509 469 -1245 293 -558 329 -638 375 -830 25 -100 26 -123 32 -498 l6 -392 -445 0 -445 0 6 682 c6 757 5 745 76 977 48 157 47 151 35 151 -13 0 -125 -119 -183 -195 -178 -231 -295 -496 -350 -790 -18 -94 -22 -162 -26 -479 -5 -400 -1 -449 45 -546 37 -77 122 -159 207 -201 l70 -34 565 0 565 0 68 32 c127 61 221 185 248 328 17 95 6 774 -15 895 -66 380 -216 742 -473 1149 -171 270 -257 427 -338 615 -126 296 -178 533 -157 707 37 297 178 556 417 762 44 38 80 74 80 80 0 23 -26 16 -110 -28z m-32 -64 c-6 -3 -16 -16 -22 -29 -7 -13 -18 -22 -24 -19 -7 2 -19 -3 -27 -11 -13 -14 -12 -15 4 -9 16 6 17 5 6 -8 -10 -12 -15 -13 -28 -3 -13 12 -14 10 -3 -11 8 -13 8 -21 2 -17 -5 4 -17 -6 -25 -21 -7 -16 -23 -37 -35 -47 -11 -10 -18 -23 -14 -29 4 -6 0 -8 -10 -4 -10 4 -14 2 -11 -6 2 -7 -13 -35 -34 -62 -21 -28 -36 -57 -34 -64 3 -8 0 -11 -7 -7 -7 4 -11 0 -11 -13 0 -11 -6 -26 -13 -33 -8 -7 -12 -19 -9 -27 3 -9 0 -11 -8 -6 -10 6 -12 4 -7 -7 6 -18 -16 -91 -26 -82 -3 3 -6 -2 -6 -12 1 -11 -6 -46 -15 -79 -8 -33 -15 -75 -16 -93 0 -18 -4 -31 -9 -28 -9 6 -8 -214 1 -229 3 -6 9 -27 12 -47 3 -21 11 -59 17 -85 6 -27 12 -55 13 -63 1 -8 8 -28 15 -44 6 -16 9 -36 7 -43 -3 -8 -2 -12 2 -9 11 6 64 -153 56 -166 -5 -7 -2 -8 6 -3 9 6 12 4 8 -6 -6 -16 16 -41 27 -31 4 4 2 -4 -5 -17 -6 -13 -8 -21 -2 -17 11 6 46 -70 38 -83 -8 -12 24 -52 35 -46 5 4 9 -1 9 -10 0 -9 13 -40 29 -68 16 -29 41 -74 56 -102 16 -27 34 -57 40 -65 7 -8 11 -25 10 -37 -1 -13 3 -19 8 -16 6 4 8 0 4 -10 -4 -11 -2 -14 8 -11 7 3 16 -3 20 -15 3 -12 11 -21 17 -21 5 0 7 -7 4 -16 -3 -8 -2 -12 4 -9 6 3 10 2 10 -3 0 -5 24 -45 53 -88 28 -44 63 -102 77 -129 14 -28 28 -52 33 -53 4 -2 24 -38 44 -80 20 -43 39 -79 42 -82 3 -3 15 -21 25 -40 17 -30 17 -33 3 -21 -26 21 -20 5 8 -24 14 -14 23 -25 18 -25 -4 0 -2 -5 5 -12 15 -15 16 -32 1 -22 -8 5 -8 1 0 -14 6 -11 18 -22 26 -26 9 -3 13 -11 10 -17 -4 -5 -1 -18 7 -27 8 -9 20 -37 27 -62 7 -25 26 -76 42 -114 32 -76 33 -80 19 -71 -6 4 -2 -8 9 -26 11 -17 17 -37 14 -44 -2 -7 3 -27 11 -44 19 -36 20 -45 4 -35 -8 5 -7 0 2 -10 8 -10 15 -30 15 -45 0 -14 4 -31 7 -36 7 -11 11 -36 29 -187 6 -50 9 -238 7 -445 -3 -320 -5 -364 -22 -410 -11 -29 -23 -50 -29 -46 -6 3 -7 1 -3 -5 9 -15 -55 -103 -71 -97 -7 2 -12 1 -11 -3 4 -11 -35 -52 -49 -52 -7 0 -13 -5 -13 -12 0 -6 -3 -9 -6 -5 -4 3 -21 -1 -38 -10 -17 -9 -47 -20 -66 -24 -42 -10 -1052 -13 -1104 -4 -20 4 -34 11 -31 15 3 4 -1 7 -8 7 -24 -1 -77 28 -73 40 3 7 -2 10 -12 8 -10 -1 -30 8 -45 21 -16 13 -26 24 -23 24 2 0 -10 15 -27 34 -18 19 -44 67 -60 109 l-28 75 5 394 c4 358 9 444 31 503 6 17 5 18 -5 5 -10 -13 -11 -12 -5 5 4 11 8 27 10 35 2 8 8 35 15 60 7 25 14 56 16 69 1 14 10 28 18 33 9 5 16 14 16 21 0 7 -4 6 -10 -3 -15 -22 -12 -3 4 28 7 15 12 35 11 45 -2 9 1 17 5 17 5 0 11 14 15 30 4 18 11 27 17 24 7 -5 8 -2 4 5 -5 7 4 30 19 52 14 23 24 43 21 47 -3 3 -6 -1 -6 -8 0 -7 -2 -11 -5 -8 -9 8 6 38 16 32 5 -3 9 4 9 15 0 12 11 31 24 42 14 12 22 28 19 35 -3 8 -1 14 5 14 6 0 13 -6 15 -12 4 -10 6 -10 6 -1 1 6 -3 14 -8 18 -11 6 22 65 60 104 14 15 23 33 21 40 -3 8 0 11 7 7 6 -4 11 -3 11 1 0 5 6 18 14 28 14 19 15 19 38 0 l23 -20 -18 22 c-19 22 -15 49 5 37 7 -5 8 -2 4 5 -5 7 3 24 20 41 30 30 56 42 34 15 -6 -8 -9 -19 -6 -24 4 -5 2 -12 -3 -16 -6 -3 -7 -13 -4 -22 4 -9 2 -14 -3 -10 -5 3 -10 -2 -11 -11 0 -9 -6 -39 -12 -67 -14 -60 -50 -298 -52 -340 -1 -16 -3 -292 -5 -612 -3 -401 0 -583 7 -583 5 0 7 -5 4 -10 -4 -6 -1 -17 5 -25 19 -23 902 -22 920 0 10 12 11 102 7 402 -3 214 -9 404 -13 423 -4 19 -7 47 -7 62 0 15 -3 25 -8 22 -5 -3 -9 8 -9 25 0 16 -4 31 -10 33 -5 2 -11 20 -12 40 -2 21 -6 38 -10 38 -3 0 -10 15 -13 33 -4 17 -13 43 -21 57 -27 52 -64 132 -64 140 0 4 -16 37 -36 71 -19 35 -36 72 -37 81 -1 10 -5 18 -10 18 -4 0 -5 5 -2 10 3 6 2 10 -4 10 -6 0 -7 7 -4 17 4 10 2 14 -4 10 -6 -4 -14 0 -17 9 -4 10 -2 13 7 8 6 -5 -3 9 -20 29 -30 35 -39 55 -33 82 1 5 -2 7 -6 3 -10 -11 -35 12 -28 24 4 6 2 13 -3 17 -5 3 -22 33 -38 66 -17 33 -33 62 -37 65 -3 3 -8 14 -10 25 -1 11 -5 22 -9 25 -12 11 -69 121 -60 115 7 -3 8 0 5 9 -3 9 -11 13 -17 9 -6 -4 -8 0 -4 10 3 10 2 17 -2 17 -10 0 -56 78 -67 113 -3 12 -22 48 -40 80 -19 32 -34 62 -34 67 0 5 -16 42 -35 82 -24 48 -32 75 -25 82 5 5 10 15 10 20 0 6 -4 5 -9 -3 -5 -7 -14 -10 -20 -7 -6 4 -9 11 -6 16 3 5 -2 21 -11 35 -9 14 -14 28 -10 32 3 3 1 12 -5 19 -17 20 -45 107 -44 136 1 15 -3 24 -9 21 -5 -4 -7 1 -3 9 3 9 -2 28 -10 44 -12 23 -17 76 -21 242 -4 194 -3 214 13 232 10 11 13 20 7 20 -5 0 -8 9 -5 20 3 11 10 17 17 13 8 -4 8 -3 0 6 -12 13 -7 54 6 46 4 -2 5 7 2 22 -3 18 -1 24 6 19 8 -5 10 -2 6 8 -3 9 -2 16 3 16 5 0 9 8 10 18 1 9 9 39 18 65 12 33 22 46 32 43 8 -3 12 -2 9 3 -7 11 23 72 43 89 9 8 10 11 4 7 -20 -10 -15 -1 13 26 25 22 26 23 15 2 -9 -17 -8 -21 4 -19 8 1 18 6 22 11 5 4 2 5 -6 0 -11 -6 -13 -4 -8 7 3 9 1 20 -4 25 -7 7 -1 18 17 32 15 11 23 21 19 21 -5 0 0 9 10 20 10 12 25 18 32 15 8 -2 11 0 8 5 -4 6 20 36 52 68 32 31 49 50 38 42 -19 -14 -19 -14 -6 3 8 10 20 16 27 13 8 -3 13 0 11 7 -1 7 4 11 11 10 6 -2 12 3 12 11 0 8 4 18 10 21 5 3 7 0 4 -8 -3 -8 0 -18 7 -23 7 -4 10 -3 6 4 -9 14 3 43 14 36 5 -3 9 1 9 9 0 12 4 13 24 4 13 -7 22 -16 19 -21 -4 -5 -1 -6 6 -2 6 4 8 12 5 18 -4 7 -2 8 4 4 8 -5 10 -1 6 9 -5 12 -10 13 -17 6 -6 -6 -15 -11 -20 -11 -10 0 14 26 26 28 5 0 17 12 28 26 11 15 26 26 32 26 7 0 6 -4 -3 -10 -12 -7 -10 -9 7 -8 12 1 19 7 16 14 -2 7 5 15 16 19 12 3 21 12 22 18 0 7 3 7 6 -2 3 -7 1 -16 -4 -20z m-163 -1586 c7 -9 8 -15 2 -15 -5 0 -12 7 -16 15 -3 8 -4 15 -2 15 2 0 9 -7 16 -15z"/> <path d="M2963 5855 c0 -8 4 -12 9 -9 5 3 6 10 3 15 -9 13 -12 11 -12 -6z"/> <path d="M2786 4387 c3 -10 9 -15 12 -12 3 3 0 11 -7 18 -10 9 -11 8 -5 -6z"/> <path d="M3617 3515 c-4 -8 -3 -16 1 -19 4 -3 9 4 9 15 2 23 -3 25 -10 4z"/> <path d="M3256 3452 c-3 -5 1 -9 9 -9 8 0 12 4 9 9 -3 4 -7 8 -9 8 -2 0 -6 -4 -9 -8z"/> <path d="M3325 3301 c-3 -5 -2 -12 3 -15 5 -3 9 1 9 9 0 17 -3 19 -12 6z"/> <path d="M3690 1856 c0 -2 8 -10 18 -17 15 -13 16 -12 3 4 -13 16 -21 21 -21 13z"/> <path d="M2360 1760 c-9 -6 -10 -10 -3 -10 6 0 15 5 18 10 8 12 4 12 -15 0z"/> <path d="M4049 5820 c-8 -91 -12 -174 -8 -185 7 -17 8 -17 8 -2 1 29 16 19 18 -13 1 -17 6 -38 11 -47 9 -16 7 95 -7 307 l-6 105 -16 -165z"/> <path d="M4409 5913 c-13 -16 -12 -17 4 -4 16 13 21 21 13 21 -2 0 -10 -8 -17 -17z"/> <path d="M4300 5759 c-225 -193 -208 -176 -186 -192 14 -10 16 -16 7 -21 -21 -13 8 -36 48 -37 31 -1 33 -2 11 -8 -46 -13 4 -21 118 -20 121 2 279 15 202 17 -25 1 -119 9 -210 18 l-165 16 79 82 c179 183 284 297 275 296 -2 -1 -83 -68 -179 -151z m-107 -120 c-22 -14 -30 -26 -27 -37 5 -15 4 -15 -5 -2 -9 12 -11 11 -11 -7 0 -14 -6 -23 -15 -23 -8 0 -15 3 -15 7 0 11 81 83 93 83 7 0 -2 -10 -20 -21z"/> <path d="M3579 5850 c133 -81 228 -156 357 -285 232 -231 399 -493 494 -778 13 -37 25 -66 27 -63 10 9 -30 186 -62 280 -48 138 -141 308 -220 401 -25 30 -25 30 -16 4 5 -15 7 -30 3 -35 -4 -4 -2 -4 5 0 15 8 37 -30 27 -47 -4 -6 -4 -9 1 -5 4 4 14 3 21 -3 16 -13 0 -54 -17 -43 -6 4 -6 11 2 20 7 9 8 14 3 13 -24 -4 -34 3 -31 23 1 12 -3 23 -9 23 -5 0 -24 16 -42 36 -24 27 -28 39 -20 47 9 9 9 12 0 12 -7 0 -12 -5 -12 -11 0 -5 -5 -7 -10 -4 -6 4 -10 12 -9 18 3 28 -2 38 -18 35 -11 -2 -18 3 -17 13 1 9 -6 16 -15 15 -9 0 -15 5 -13 12 1 8 -2 11 -9 6 -9 -5 -10 -2 -6 9 4 11 2 14 -9 10 -20 -7 -18 7 4 24 15 13 15 13 -5 4 -29 -15 -36 -14 -29 4 3 8 2 14 -2 13 -14 -4 -52 23 -46 33 3 5 0 17 -8 26 -11 14 -11 15 2 11 8 -3 15 -15 14 -27 0 -11 3 -21 8 -21 4 0 8 5 8 11 0 6 7 3 16 -5 14 -15 22 -18 42 -15 4 1 6 6 4 11 -2 6 6 8 17 5 18 -4 13 9 -30 95 -28 54 -53 98 -54 96 -4 -4 42 -149 55 -170 17 -30 -6 -28 -35 2 -69 72 -377 250 -434 250 -8 0 23 -23 68 -50z m235 -131 c-3 -5 0 -10 5 -10 20 -3 26 -5 49 -18 13 -7 21 -15 18 -18 -3 -4 -1 -12 5 -20 20 -23 -5 -14 -31 12 -45 44 -83 75 -92 75 -5 0 -6 4 -3 10 4 6 15 4 30 -6 14 -9 22 -20 19 -25z m436 -460 c0 -14 4 -18 13 -13 7 5 6 0 -3 -11 -8 -10 -10 -16 -4 -12 16 9 26 -6 54 -80 16 -40 27 -58 32 -50 5 7 6 -1 2 -17 -5 -19 -3 -27 3 -23 9 6 26 -43 18 -51 -1 -2 -17 26 -35 62 -17 36 -35 68 -40 71 -4 3 -6 15 -3 28 4 18 3 19 -6 7 -10 -13 -11 -13 -12 0 -1 8 -1 21 0 29 2 7 -2 10 -7 7 -5 -3 -15 8 -22 24 -7 16 -16 27 -21 24 -13 -8 -11 10 3 24 15 15 28 6 28 -19z"/> <path d="M4243 5765 c0 -8 4 -12 9 -9 5 3 6 10 3 15 -9 13 -12 11 -12 -6z"/> <path d="M4077 5529 c7 -7 15 -10 18 -7 3 3 -2 9 -12 12 -14 6 -15 5 -6 -5z"/> <path d="M4160 5464 c0 -18 23 -43 47 -52 16 -5 58 -21 96 -35 37 -15 67 -24 67 -22 0 5 -194 115 -203 115 -4 0 -7 -3 -7 -6z m40 -26 c0 -6 -6 -5 -15 2 -8 7 -15 14 -15 16 0 2 7 1 15 -2 8 -4 15 -11 15 -16z"/> <path d="M1984 5393 c-81 -102 -211 -305 -272 -425 -148 -288 -244 -615 -272 -928 -8 -83 -10 -356 -8 -815 3 -688 3 -690 25 -745 46 -111 143 -209 253 -252 42 -16 83 -23 173 -26 l117 -4 0 221 0 221 -65 0 -65 0 0 958 c0 563 4 1006 10 1077 21 243 80 505 159 703 25 63 26 72 6 72 -8 0 -35 -26 -61 -57z m9 -68 c-3 -8 -9 -15 -13 -15 -4 0 -6 -10 -6 -22 1 -13 -2 -31 -7 -42 -7 -15 -11 -16 -18 -5 -6 9 -9 10 -9 2 0 -6 5 -15 10 -18 7 -5 8 -11 1 -19 -5 -6 -8 -24 -7 -39 2 -20 0 -25 -8 -18 -9 7 -12 0 -12 -27 0 -44 -24 -134 -39 -144 -6 -5 -6 -8 2 -8 9 0 10 -7 2 -27 -5 -14 -8 -32 -5 -39 3 -8 1 -16 -3 -18 -5 -3 -12 -38 -16 -78 -4 -40 -10 -86 -13 -103 -2 -16 -7 -487 -9 -1046 l-4 -1016 34 -17 c19 -9 50 -16 69 -16 l33 0 0 -190 0 -190 -40 -1 c-92 -4 -153 1 -180 12 -17 7 -36 11 -42 10 -7 -1 -13 3 -13 9 0 5 -7 10 -15 10 -8 0 -15 5 -15 11 0 5 -4 8 -9 5 -4 -3 -17 4 -27 16 -19 21 -19 21 4 9 12 -6 22 -10 23 -9 7 29 6 38 -5 29 -6 -5 -21 -8 -31 -6 -11 2 -24 4 -29 4 -4 1 -6 7 -3 15 4 10 0 12 -14 9 -20 -6 -27 15 -9 33 6 6 2 14 -13 23 -20 13 -21 13 -8 -3 12 -14 12 -19 0 -29 -7 -7 -11 -8 -7 -3 4 5 -4 23 -18 41 -15 20 -22 39 -18 51 4 14 3 15 -4 6 -7 -11 -10 -10 -16 3 -3 9 -3 22 1 27 3 7 1 8 -5 4 -7 -4 -12 -3 -12 3 0 5 -3 17 -7 27 -5 13 -3 15 8 9 11 -6 12 -5 2 6 -10 10 -13 176 -13 758 0 641 2 755 16 811 8 36 16 81 16 100 0 19 4 38 10 41 5 3 12 35 15 70 3 35 11 76 19 92 8 15 12 32 9 37 -3 5 0 22 8 37 8 15 12 34 9 42 -3 9 0 11 8 6 10 -6 11 -2 6 18 -3 14 -2 28 3 31 5 3 14 28 21 56 7 30 16 47 23 43 5 -3 7 -1 3 5 -5 9 10 50 46 116 6 11 6 16 0 12 -6 -3 3 19 20 49 16 30 33 57 38 60 5 3 7 12 3 20 -3 8 0 15 6 15 6 0 11 5 11 10 0 23 51 91 63 83 9 -5 9 -4 0 8 -10 12 -8 22 8 48 11 19 24 29 31 25 6 -4 8 -3 5 3 -4 6 2 21 13 33 11 12 18 26 15 30 -2 4 7 17 20 30 13 13 22 27 18 33 -3 6 -1 7 5 3 7 -4 12 -1 12 8 0 8 10 22 22 30 12 9 19 16 15 16 -5 0 -5 5 -2 10 9 15 25 2 18 -15z"/> <path d="M1901 5214 c0 -11 3 -14 6 -6 3 7 2 16 -1 19 -3 4 -6 -2 -5 -13z"/> <path d="M1821 5102 c-7 -13 -6 -19 2 -19 7 0 13 9 13 19 0 10 -1 18 -3 18 -1 0 -7 -8 -12 -18z"/> <path d="M3900 5444 c0 -4 20 -64 44 -133 54 -154 91 -303 119 -475 20 -126 21 -168 24 -1163 l4 -1033 -68 0 -68 0 3 -220 3 -220 92 0 c113 0 192 19 268 65 95 59 162 147 194 257 14 51 16 135 12 805 -3 720 -4 753 -25 872 -56 310 -146 572 -284 826 -98 179 -273 425 -303 425 -8 0 -15 -3 -15 -6z m80 -111 c0 -9 3 -13 6 -10 4 3 15 -4 25 -17 21 -26 25 -41 9 -31 -6 3 -7 -1 -4 -10 5 -13 9 -13 22 -3 13 11 14 10 10 -2 -2 -8 8 -28 24 -45 25 -27 33 -44 29 -67 0 -4 8 -10 19 -13 10 -3 22 -16 26 -28 3 -12 13 -30 21 -39 8 -9 12 -22 8 -27 -3 -6 -1 -11 4 -11 6 0 11 -9 11 -20 0 -10 6 -23 14 -27 16 -10 47 -69 45 -86 -3 -25 1 -38 11 -32 6 3 10 -2 10 -12 0 -11 4 -23 10 -29 16 -16 58 -104 46 -97 -6 4 -4 -4 5 -17 21 -34 31 -63 19 -55 -6 3 -7 -1 -4 -9 3 -9 11 -13 17 -9 6 4 8 0 4 -10 -3 -10 -2 -17 4 -17 5 0 9 -6 8 -12 -1 -7 4 -26 11 -43 7 -16 12 -40 11 -52 0 -13 4 -23 10 -23 5 0 7 -5 4 -10 -4 -6 -1 -17 5 -25 6 -8 9 -18 6 -23 -3 -6 1 -25 8 -44 8 -19 17 -53 20 -76 3 -23 7 -45 9 -50 7 -10 28 -185 33 -277 7 -127 10 -1394 2 -1389 -3 2 -4 -5 -1 -16 3 -11 2 -28 -3 -37 -4 -10 -8 -20 -8 -23 -5 -29 -43 -100 -54 -100 -7 0 -10 -4 -7 -10 8 -12 -76 -91 -89 -83 -5 3 -6 1 -2 -5 11 -19 -150 -87 -179 -75 -8 3 -15 1 -15 -4 0 -12 -150 -10 -150 2 -5 102 -3 355 3 355 5 0 5 5 2 10 -4 6 11 10 39 10 37 0 48 5 66 27 l21 27 -2 961 c-1 926 -5 1043 -34 1222 -7 45 -12 93 -11 107 2 14 0 24 -4 21 -9 -5 -30 86 -30 131 0 19 -4 34 -8 34 -14 0 -30 78 -18 90 8 8 7 11 -3 8 -10 -2 -17 11 -23 40 -5 23 -13 42 -19 42 -5 0 -9 9 -9 21 0 11 5 17 10 14 6 -3 10 -13 10 -22z"/> <path d="M4164 5000 c0 -13 4 -16 10 -10 7 7 7 13 0 20 -6 6 -10 3 -10 -10z"/> <path d="M4121 4644 c0 -11 3 -14 6 -6 3 7 2 16 -1 19 -3 4 -6 -2 -5 -13z"/> <path d="M4115 2610 c3 -5 14 -10 23 -10 15 0 15 2 2 10 -20 13 -33 13 -25 0z"/> <path d="M4414 2455 c-3 -8 -4 -20 -2 -27 3 -7 7 -1 10 15 6 29 1 36 -8 12z"/> <path d="M4135 5400 c3 -5 8 -10 11 -10 2 0 4 5 4 10 0 6 -5 10 -11 10 -5 0 -7 -4 -4 -10z"/> <path d="M2568 3933 c6 -2 9 -10 6 -15 -4 -7 -2 -8 5 -4 13 9 5 26 -12 25 -9 0 -8 -2 1 -6z"/> <path d="M2426 3762 c-3 -5 1 -9 9 -9 8 0 12 4 9 9 -3 4 -7 8 -9 8 -2 0 -6 -4 -9 -8z"/> <path d="M3736 3452 c-3 -5 1 -9 9 -9 8 0 12 4 9 9 -3 4 -7 8 -9 8 -2 0 -6 -4 -9 -8z"/> <path d="M2621 2420 l0 -220 359 0 359 0 0 220 -1 220 -358 0 -359 0 0 -220z m679 188 c0 -7 3 -78 6 -158 6 -150 0 -230 -17 -230 -6 0 -8 3 -6 8 3 4 -138 6 -313 4 l-319 -3 0 191 0 191 319 -3 c175 -2 316 0 313 5 -2 4 1 7 6 7 6 0 11 -6 11 -12z"/> <path d="M3143 1258 c-65 -35 -73 -42 -73 -68 0 -17 3 -30 8 -30 4 0 39 14 79 32 71 32 72 34 73 71 0 20 -3 36 -7 36 -5 -1 -41 -19 -80 -41z m22 -28 c-3 -5 -11 -10 -16 -10 -6 0 -7 5 -4 10 3 6 11 10 16 10 6 0 7 -4 4 -10z m-48 -25 c0 -8 -4 -12 -9 -9 -5 3 -6 10 -3 15 9 13 12 11 12 -6z"/> <path d="M915 1260 c-35 -39 7 -99 61 -86 14 4 30 17 36 31 25 56 -54 102 -97 55z m66 -23 c-1 -4 -1 -13 -1 -20 0 -17 -42 -15 -48 1 -2 7 1 12 7 12 6 0 8 7 5 15 -5 12 -2 13 16 7 12 -4 21 -11 21 -15z"/> <path d="M2556 1264 c-34 -33 -5 -94 45 -94 38 0 65 70 37 98 -17 17 -64 15 -82 -4z m61 -29 c5 -18 -13 -36 -31 -29 -14 5 -14 9 -4 22 11 13 10 15 -5 9 -11 -4 -16 -3 -12 4 8 12 47 8 52 -6z"/> <path d="M5093 1269 c-40 -12 -69 -49 -78 -99 -5 -30 -11 -40 -26 -40 -16 0 -19 -7 -19 -40 0 -35 3 -40 23 -40 22 0 22 0 19 -145 l-3 -145 50 0 51 0 0 145 0 145 33 0 c31 0 32 2 32 40 0 38 -1 40 -32 40 -28 0 -33 4 -33 23 0 28 17 47 42 47 14 0 18 8 18 40 0 44 -11 48 -77 29z m27 -32 c0 7 7 10 14 7 11 -4 6 -15 -20 -41 -27 -27 -34 -41 -29 -57 3 -11 7 -26 7 -33 1 -7 5 -10 10 -7 4 3 15 -2 24 -10 16 -16 9 -21 -23 -17 -8 1 -10 -5 -7 -14 3 -8 2 -15 -3 -15 -5 0 -11 -53 -12 -117 -1 -78 -6 -120 -14 -125 -9 -6 -9 -8 1 -8 6 0 12 -4 12 -8 0 -4 -9 -8 -20 -8 -19 0 -20 7 -20 101 0 63 4 105 12 113 8 8 8 15 -1 26 -7 8 -9 21 -5 27 4 7 3 9 -3 6 -6 -4 -16 6 -22 21 -11 23 -10 29 6 42 11 9 17 27 17 45 -1 17 5 38 14 48 17 20 37 23 26 5 -4 -8 -3 -10 2 -5 5 5 10 13 10 18 3 22 5 23 14 9 6 -9 10 -11 10 -3z"/> <path d="M3839 1165 c2 -57 -1 -85 -8 -85 -6 0 -11 4 -11 10 0 22 -63 42 -120 38 -98 -7 -154 -74 -154 -183 0 -164 161 -254 273 -152 l24 22 -5 -27 c-5 -27 -4 -28 43 -28 l49 0 0 245 0 245 -47 0 -48 0 4 -85z m61 -155 c0 -219 0 -220 -22 -220 -12 0 -18 3 -15 7 11 10 -27 32 -38 23 -6 -5 -17 -5 -24 -1 -9 6 -10 11 -2 15 6 4 11 1 11 -6 0 -7 11 5 25 27 30 50 32 111 5 165 -11 22 -24 39 -28 38 -4 -1 -20 4 -35 10 -42 18 -68 15 -95 -10 -22 -20 -24 -21 -18 -4 6 16 4 17 -9 6 -9 -7 -14 -19 -11 -26 2 -6 -3 -20 -13 -30 -11 -13 -17 -36 -17 -71 0 -28 3 -50 7 -47 4 2 10 -4 14 -15 3 -11 12 -22 20 -25 9 -3 12 -12 9 -23 -5 -15 -4 -15 4 -3 9 12 14 12 31 -4 11 -10 25 -15 31 -11 6 4 18 1 27 -7 14 -11 16 -11 11 3 -5 13 -2 16 13 12 19 -5 19 -6 2 -18 -21 -15 -123 -17 -123 -3 0 6 -6 8 -13 5 -6 -2 -18 2 -25 9 -7 8 -9 14 -5 14 4 0 4 4 -2 8 -16 12 -41 47 -28 38 9 -5 11 -2 7 8 -3 9 -11 13 -18 9 -6 -4 -4 2 4 12 10 13 11 16 2 11 -10 -6 -12 -1 -7 26 3 18 7 47 9 63 4 39 29 78 61 95 34 18 114 17 126 -1 5 -8 9 -9 9 -4 0 6 4 4 9 -4 5 -8 17 -16 27 -17 34 -5 44 16 44 86 0 69 4 80 27 80 10 0 13 -43 13 -220z m-95 10 c21 -22 28 -39 29 -73 2 -107 -103 -153 -170 -74 -23 27 -26 38 -21 81 6 63 39 96 96 96 28 0 44 -7 66 -30z"/> <path d="M3636 1075 c-11 -8 -15 -15 -9 -15 6 0 16 7 23 15 16 19 11 19 -14 0z"/> <path d="M3613 1034 c4 -4 1 -14 -6 -23 -11 -14 -10 -15 8 -1 11 8 21 15 23 16 2 1 -5 5 -15 8 -9 4 -14 4 -10 0z"/> <path d="M38 1223 c-47 -5 -50 -21 -5 -25 l32 -3 2 -149 c1 -82 5 -156 9 -165 4 -9 8 -20 8 -26 1 -5 8 -10 16 -10 8 -1 14 -7 12 -14 -1 -7 2 -10 8 -6 6 4 17 2 24 -4 14 -12 96 -10 96 2 0 5 5 5 10 2 6 -3 10 -2 10 4 0 5 15 24 33 42 17 18 26 29 18 24 -11 -6 -13 -4 -7 11 5 10 7 78 7 150 -2 110 1 132 14 137 13 6 15 -9 17 -106 4 -203 3 -207 -9 -212 -7 -2 -13 -10 -13 -17 0 -9 3 -8 10 2 5 8 10 10 10 4 0 -16 -25 -35 -35 -26 -5 4 -5 2 -1 -5 12 -22 -42 -47 -109 -49 -49 -1 -71 3 -99 20 -19 11 -35 23 -36 26 -4 30 -14 50 -20 40 -5 -8 -9 -4 -13 9 -3 13 -1 19 5 15 5 -4 4 4 -4 17 -13 23 -13 23 -16 -15 -4 -45 16 -78 67 -113 99 -67 260 -17 290 92 6 22 11 110 11 195 l0 155 -50 1 -50 1 0 -169 c0 -166 0 -169 -25 -193 -33 -34 -93 -34 -132 -1 l-28 24 -2 169 c-2 92 -6 168 -10 169 -5 0 -25 -1 -45 -3z"/> <path d="M4665 1216 c-62 -27 -92 -91 -75 -157 13 -46 43 -69 131 -98 36 -12 73 -27 82 -34 44 -35 15 -97 -47 -97 -32 0 -66 24 -66 48 0 8 -20 12 -56 12 -53 0 -55 -1 -49 -22 27 -95 149 -144 248 -100 56 25 87 70 87 129 0 63 -33 96 -129 128 -104 34 -135 70 -95 109 28 29 114 14 114 -19 0 -11 13 -15 56 -15 53 0 55 1 49 23 -11 36 -38 69 -75 88 -41 22 -130 25 -175 5z m105 -16 c29 5 43 3 51 -6 6 -8 14 -12 18 -9 4 2 15 -9 24 -24 16 -28 16 -29 -8 -33 -13 -3 -22 -2 -20 2 2 4 -16 17 -40 29 -43 21 -87 21 -101 0 -3 -5 -10 -9 -15 -9 -6 0 -7 5 -3 12 4 7 3 8 -4 4 -6 -4 -9 -13 -5 -21 3 -8 0 -15 -6 -15 -6 0 -8 -12 -4 -32 5 -25 3 -30 -8 -23 -8 5 -11 5 -7 1 3 -4 8 -6 10 -5 6 6 47 -35 42 -43 -3 -4 2 -5 10 -2 11 4 16 0 17 -12 0 -11 3 -14 6 -6 8 19 26 14 18 -5 -5 -15 -4 -16 6 -5 16 15 33 16 23 1 -4 -8 0 -9 15 -4 20 6 27 -3 22 -29 -1 -5 5 -4 13 3 19 16 60 -4 52 -25 -3 -8 -1 -14 5 -14 6 0 7 -4 4 -10 -3 -5 -1 -10 6 -10 16 0 4 -54 -18 -79 -10 -12 -23 -21 -31 -21 -7 0 -10 -4 -7 -10 4 -6 -1 -7 -11 -3 -10 4 -15 2 -11 -4 4 -6 -19 -9 -61 -8 -78 2 -99 10 -81 31 14 17 -2 19 -19 2 -8 -8 -12 -9 -12 -1 0 6 -7 18 -15 26 -13 13 -11 16 11 21 28 7 39 2 39 -17 0 -6 11 -17 25 -24 22 -11 15 -19 -13 -14 -5 1 -6 -3 -3 -8 3 -5 12 -8 19 -7 6 2 33 6 60 11 26 4 47 12 47 17 0 6 9 8 20 5 11 -3 23 0 27 5 3 6 1 8 -4 5 -6 -4 -10 7 -9 27 0 19 5 32 9 29 5 -3 6 -12 2 -21 -3 -9 -2 -13 2 -8 12 11 11 57 -1 53 -6 -2 -24 10 -41 27 -17 17 -36 31 -43 32 -35 3 -42 5 -57 21 -14 14 -18 14 -26 2 -6 -10 -9 -10 -9 -1 0 6 -6 12 -14 12 -8 0 -24 15 -35 33 -23 37 -21 95 4 113 8 6 11 15 7 19 -4 5 -1 5 6 1 6 -4 12 -2 12 5 0 6 8 9 18 7 10 -3 24 2 32 10 8 9 15 11 17 5 2 -6 19 -7 43 -3z"/> <path d="M4797 1185 c-4 -8 -3 -16 1 -19 4 -3 9 4 9 15 2 23 -3 25 -10 4z"/> <path d="M4630 1121 c0 -6 4 -13 10 -16 6 -3 7 1 4 9 -7 18 -14 21 -14 7z"/> <path d="M4646 848 c3 -5 10 -6 15 -3 13 9 11 12 -6 12 -8 0 -12 -4 -9 -9z"/> <path d="M2750 1171 c0 -45 -2 -48 -23 -44 -20 4 -22 0 -23 -36 -1 -36 1 -41 21 -41 23 0 23 -3 27 -120 4 -149 12 -162 113 -168 l65 -4 0 41 0 41 -39 0 c-48 0 -51 6 -51 121 l0 89 45 0 45 0 0 40 0 40 -46 0 -46 0 4 45 3 45 -47 0 -48 0 0 -49z m69 -8 c-1 -33 -17 -76 -19 -53 -2 8 -2 19 -1 23 1 5 -3 6 -9 2 -7 -4 -7 -12 0 -26 12 -22 30 -17 30 8 0 15 2 14 18 0 10 -10 22 -14 25 -10 4 3 7 1 7 -6 0 -7 4 -10 9 -6 5 3 13 0 17 -6 4 -8 3 -9 -4 -5 -7 4 -12 1 -12 -6 0 -9 -3 -9 -10 2 -9 13 -12 12 -26 -5 -8 -11 -18 -19 -22 -18 -4 1 -7 -50 -7 -112 0 -62 4 -111 8 -108 5 3 17 -4 28 -16 10 -11 26 -18 34 -15 9 4 15 0 15 -9 0 -11 -9 -15 -32 -14 -18 1 -33 7 -33 14 0 6 -4 15 -9 20 -5 4 -6 3 -3 -3 4 -7 0 -15 -9 -18 -8 -3 -12 -2 -9 4 3 6 2 10 -3 10 -6 0 -15 14 -21 31 -14 40 -14 42 0 33 8 -5 8 -1 0 14 -14 26 -15 105 -1 97 6 -4 5 4 -2 19 -9 21 -8 29 5 44 14 15 15 19 2 19 -8 0 -12 -4 -9 -9 3 -4 -1 -5 -9 -2 -9 3 -13 14 -10 27 5 22 5 22 -10 2 -9 -11 -17 -15 -17 -9 0 6 9 19 20 29 12 11 20 31 20 52 0 29 3 33 25 33 21 0 25 -5 24 -27z"/> <path d="M2086 1130 c-16 -5 -42 -22 -59 -37 l-29 -28 7 33 7 32 -51 0 -51 0 0 -185 0 -185 50 0 50 0 0 114 c0 134 11 158 73 158 l37 0 0 54 c0 30 -1 54 -2 53 -2 0 -16 -5 -32 -9z m-106 -43 c0 -7 9 -20 20 -30 17 -14 21 -15 26 -3 8 20 31 27 31 10 0 -7 -3 -11 -7 -9 -9 5 -55 -44 -63 -67 -3 -9 -7 -58 -8 -107 -1 -82 -4 -91 -20 -91 -18 0 -19 10 -19 155 0 148 1 155 20 155 11 0 20 -6 20 -13z m110 -1 c0 -8 -4 -18 -10 -21 -5 -3 -10 3 -10 14 0 12 5 21 10 21 6 0 10 -6 10 -14z"/> <path d="M470 945 l0 -185 44 0 44 0 4 124 c4 147 13 166 83 166 70 0 79 -19 83 -166 l4 -124 44 0 44 0 0 131 c0 148 -12 188 -64 220 -48 29 -126 26 -165 -7 l-31 -26 0 26 c0 24 -3 26 -45 26 l-45 0 0 -185z m236 155 c6 -6 21 -12 34 -15 12 -2 23 -6 24 -7 0 -2 7 -13 13 -25 7 -12 10 -30 6 -39 -3 -10 -2 -15 3 -12 5 4 10 -41 11 -106 1 -104 0 -112 -18 -112 -10 0 -19 3 -20 6 -6 49 -2 179 6 189 7 11 7 13 -1 8 -6 -3 -16 8 -22 26 -17 44 -54 68 -105 69 -30 0 -36 3 -22 8 11 4 23 6 28 3 4 -2 7 1 7 6 0 14 43 14 56 1z m-172 -6 c9 -3 13 -10 10 -15 -3 -5 2 -9 10 -9 20 0 20 0 -1 -41 -12 -23 -19 -67 -23 -139 -4 -85 -8 -105 -20 -105 -13 0 -15 25 -17 158 -2 164 -2 167 41 151z"/> <path d="M746 1067 c3 -10 9 -15 12 -12 3 3 0 11 -7 18 -10 9 -11 8 -5 -6z"/> <path d="M910 945 l0 -185 50 0 51 0 -1 185 -2 185 -49 0 -49 0 0 -185z m70 139 c0 -8 -4 -13 -9 -9 -5 3 -13 1 -16 -5 -4 -6 -1 -9 7 -8 10 2 14 -26 16 -129 2 -103 0 -133 -10 -133 -9 0 -8 -3 2 -10 8 -5 10 -10 4 -10 -28 0 -34 27 -34 156 0 73 3 139 6 148 8 21 34 21 34 0z"/> <path d="M1063 1118 c2 -7 33 -91 67 -186 l64 -173 59 3 58 3 68 183 68 182 -51 0 -51 0 -46 -145 -46 -145 -47 145 -47 145 -51 0 c-36 0 -49 -4 -45 -12z m110 -115 c15 -48 27 -94 27 -101 0 -7 4 -10 10 -7 5 3 7 0 4 -9 -3 -9 5 -26 21 -42 l27 -27 16 34 c8 19 21 47 28 63 8 16 11 33 7 39 -4 6 -1 7 6 3 8 -5 12 -3 10 5 -3 29 1 50 11 44 5 -3 7 0 5 8 -3 7 1 29 10 49 10 26 21 36 35 35 22 -1 25 -8 12 -23 -5 -5 -14 -28 -22 -51 -7 -23 -17 -40 -21 -37 -5 3 -6 -2 -3 -10 3 -9 2 -16 -3 -16 -5 0 -9 -8 -10 -17 -2 -37 -13 -67 -38 -104 -20 -30 -21 -37 -8 -32 15 6 15 5 4 -8 -9 -9 -27 -13 -52 -11 -33 4 -40 8 -49 38 -6 18 -8 39 -4 45 4 7 3 9 -3 6 -11 -7 -26 22 -50 93 -8 25 -21 59 -29 77 -17 38 -18 46 -2 37 8 -5 9 -2 5 10 -5 13 -3 15 11 7 10 -5 28 -45 45 -98z"/> <path d="M1161 954 c0 -11 3 -14 6 -6 3 7 2 16 -1 19 -3 4 -6 -2 -5 -13z"/> <path d="M1315 911 c-3 -5 -2 -12 3 -15 5 -3 9 1 9 9 0 17 -3 19 -12 6z"/> <path d="M1296 863 c-6 -14 -5 -15 5 -6 7 7 10 15 7 18 -3 3 -9 -2 -12 -12z"/> <path d="M1574 1116 c-85 -38 -125 -182 -77 -271 49 -90 184 -121 269 -63 30 21 64 65 64 85 0 15 -94 1 -119 -18 -27 -22 -59 -24 -94 -8 -22 10 -47 46 -47 67 0 4 61 6 135 4 l135 -4 0 55 c0 60 -23 104 -73 141 -35 26 -147 33 -193 12z m60 -17 c-5 -8 -1 -8 14 0 14 7 29 8 46 1 14 -5 26 -7 26 -5 0 3 10 -1 23 -10 13 -8 27 -12 31 -8 4 4 4 0 0 -10 -3 -9 -1 -17 5 -17 15 0 33 -38 36 -77 2 -30 -1 -33 -26 -33 -15 0 -30 3 -33 8 -7 11 20 43 29 34 5 -4 -1 9 -13 29 -12 20 -18 40 -14 44 4 5 1 5 -7 0 -9 -5 -19 -2 -27 9 -8 11 -26 18 -46 18 -41 0 -108 -27 -108 -43 0 -8 -5 -7 -17 2 -12 10 -15 11 -9 1 4 -7 2 -20 -5 -29 -11 -13 -10 -17 4 -28 9 -6 14 -15 10 -18 -3 -4 -1 -7 5 -7 16 0 15 -17 0 -34 -11 -11 -15 -11 -26 3 -7 9 -4 -3 8 -27 28 -59 55 -83 103 -94 35 -8 45 -6 70 13 17 12 27 17 23 10 -5 -7 -1 -9 8 -5 9 3 13 10 10 15 -3 5 4 9 15 9 12 0 21 -3 21 -8 0 -9 -42 -37 -52 -34 -5 1 -8 -3 -8 -9 0 -6 -7 -8 -16 -5 -8 3 -12 2 -9 -4 12 -20 -82 -14 -115 8 -14 8 -26 14 -26 11 -1 -2 -11 4 -23 15 -11 10 -18 23 -15 27 3 5 0 9 -7 9 -8 0 -7 5 2 17 8 9 9 14 3 10 -8 -5 -14 8 -17 41 -3 36 1 59 21 101 17 38 27 49 33 40 7 -11 9 -10 9 3 0 9 12 21 28 26 37 14 44 14 36 1z m94 -75 c12 -14 22 -29 22 -34 0 -5 -41 -10 -90 -12 -95 -3 -102 0 -74 40 34 48 102 51 142 6z m-176 -26 c-7 -7 -12 -8 -12 -2 0 14 12 26 19 19 2 -3 -1 -11 -7 -17z m111 -55 c-13 -2 -33 -2 -45 0 -13 2 -3 4 22 4 25 0 35 -2 23 -4z"/> <path d="M2232 1113 c-36 -18 -62 -58 -62 -97 0 -43 39 -75 125 -104 64 -22 81 -31 83 -48 7 -46 -97 -51 -116 -7 -5 14 -19 18 -55 19 -43 0 -47 -2 -41 -20 18 -61 63 -93 144 -103 118 -14 205 94 138 172 -15 16 -49 33 -97 48 -80 24 -104 45 -82 71 22 26 78 20 97 -9 13 -20 24 -25 60 -25 24 0 44 2 44 5 0 25 -35 78 -62 95 -41 25 -129 27 -176 3z m124 -16 c4 -4 18 -7 30 -7 22 0 37 -13 40 -37 3 -18 -37 -9 -52 12 -17 23 -74 29 -110 10 -16 -8 -23 -15 -16 -15 7 0 10 -5 7 -10 -4 -6 -11 -7 -17 -4 -8 5 -9 1 -3 -12 4 -10 8 -27 9 -36 0 -9 3 -16 6 -16 20 2 30 -4 24 -14 -5 -8 -2 -9 9 -5 10 4 17 2 17 -4 0 -6 7 -8 16 -5 9 3 12 2 9 -5 -4 -6 3 -7 21 -3 19 5 25 4 20 -5 -7 -10 14 -16 39 -11 15 3 34 -30 28 -48 -4 -8 -2 -13 3 -9 5 3 10 -3 10 -13 0 -10 -4 -16 -9 -13 -5 3 -6 -4 -2 -17 5 -16 3 -21 -6 -18 -7 2 -21 -4 -31 -14 -10 -10 -32 -18 -49 -18 -37 0 -30 16 11 25 23 5 32 14 38 38 9 35 -11 82 -32 74 -7 -3 -20 1 -30 9 -11 7 -23 11 -27 8 -5 -3 -9 0 -9 5 0 6 -8 11 -18 11 -10 0 -24 6 -31 13 -11 10 -12 9 -6 -1 6 -11 3 -11 -13 -1 -12 7 -18 17 -16 21 3 4 1 8 -5 8 -12 0 -11 59 1 66 4 3 5 10 2 16 -4 7 -2 8 4 4 7 -4 12 -2 12 3 0 6 9 11 21 11 11 0 18 3 16 8 -6 9 79 9 89 -1z m-98 -268 c12 -9 19 -19 15 -22 -3 -4 3 -7 15 -7 12 0 22 -4 22 -10 0 -14 -11 -13 -56 6 -39 16 -56 32 -48 45 6 10 26 6 52 -12z"/> <path d="M2411 844 c0 -11 3 -14 6 -6 3 7 2 16 -1 19 -3 4 -6 -2 -5 -13z"/> <path d="M2550 945 l0 -185 45 0 45 0 0 185 0 185 -45 0 -45 0 0 -185z m58 -2 c-2 -97 -7 -158 -13 -158 -6 0 -11 61 -13 158 -2 136 0 157 13 157 13 0 15 -21 13 -157z"/> <path d="M3057 1108 c-55 -33 -92 -111 -84 -182 3 -30 13 -68 21 -85 41 -78 162 -112 246 -69 38 19 90 76 90 97 0 15 -103 -2 -121 -20 -41 -41 -139 -7 -139 48 0 17 11 18 135 15 l135 -4 0 44 c0 62 -36 128 -85 155 -55 31 -145 31 -198 1z m48 -8 c-3 -5 -1 -10 4 -10 6 0 11 3 11 8 0 11 85 5 111 -9 45 -23 79 -63 73 -83 -3 -10 -2 -16 3 -13 5 3 7 -7 5 -24 -4 -26 -8 -30 -26 -25 -11 3 -28 6 -36 6 -12 1 -11 3 3 11 9 6 14 15 11 21 -4 6 -2 8 4 4 6 -3 14 -2 17 4 4 6 1 9 -7 8 -7 -2 -12 3 -10 10 1 7 -13 26 -30 42 -25 22 -43 29 -73 30 -23 0 -47 -6 -54 -12 -11 -11 -12 -10 -6 2 6 10 1 9 -13 -4 -13 -11 -28 -16 -39 -12 -16 5 -15 4 1 -9 13 -10 15 -15 6 -15 -7 0 -10 -3 -7 -6 3 -4 2 -14 -3 -23 -11 -21 -1 -37 30 -50 l25 -10 -25 -2 c-14 -1 -27 -1 -30 -1 -10 1 -7 -73 3 -79 16 -11 0 -39 -18 -33 -21 8 -30 46 -30 126 0 74 17 108 71 139 35 21 37 22 29 9z m94 -54 c15 -8 32 -26 39 -40 l11 -25 -90 -3 c-78 -3 -89 -1 -89 14 0 21 56 68 81 68 11 0 32 -6 48 -14z m-6 -103 c-13 -2 -35 -2 -50 0 -16 2 -5 4 22 4 28 0 40 -2 28 -4z m87 -100 c-1 -17 -26 -39 -39 -35 -8 3 -11 0 -7 -6 9 -14 -18 -22 -80 -22 -31 0 -54 4 -54 11 0 5 5 7 12 3 7 -4 8 -3 4 5 -6 9 -11 9 -22 0 -11 -9 -14 -9 -14 0 0 7 -4 9 -10 6 -5 -3 -10 1 -10 9 0 19 17 30 22 14 8 -24 138 -29 138 -5 0 5 7 6 15 3 9 -3 18 1 21 9 6 15 24 21 24 8z"/> <path d="M3017 995 c-4 -8 -3 -16 1 -19 4 -3 9 4 9 15 2 23 -3 25 -10 4z"/> <path d="M3024 869 c-3 -6 -2 -15 3 -20 5 -5 9 -1 9 11 0 23 -2 24 -12 9z"/> <path d="M4110 1123 c-94 -35 -138 -166 -91 -269 45 -98 171 -133 268 -73 29 18 73 71 73 89 0 3 -24 3 -54 2 -38 -3 -60 -10 -72 -23 -36 -40 -122 -11 -138 46 -6 19 -2 20 134 17 l140 -4 0 39 c0 58 -42 135 -89 161 -38 22 -132 30 -171 15z m134 -26 c11 -2 22 -9 24 -15 2 -7 8 -12 13 -12 13 0 52 -41 45 -47 -3 -4 -1 -12 5 -19 6 -8 9 -24 5 -37 -4 -18 -13 -24 -36 -25 -16 0 -30 4 -30 9 0 5 3 9 8 9 4 0 12 16 18 35 9 28 8 39 -2 53 -13 16 -14 16 -8 0 3 -10 1 -18 -5 -18 -6 0 -11 6 -11 14 0 8 -5 18 -12 22 -7 5 -9 2 -4 -7 4 -8 1 -6 -7 4 -9 10 -28 17 -49 17 -24 0 -35 5 -35 14 0 14 25 15 81 3z m-97 -11 c0 -8 -8 -11 -19 -8 -12 3 -18 0 -16 -9 2 -7 -4 -13 -12 -14 -9 0 -14 -8 -12 -18 2 -9 -1 -17 -6 -17 -7 0 -8 -10 -3 -52 1 -4 11 -10 23 -14 21 -6 21 -7 -6 -21 -23 -12 -27 -19 -22 -41 4 -15 7 -33 8 -39 1 -7 7 -13 15 -13 7 0 16 -7 20 -16 3 -8 12 -13 19 -10 7 3 16 0 20 -6 5 -7 2 -8 -6 -3 -8 5 -11 4 -7 -2 9 -15 73 1 99 24 21 18 21 18 9 -7 -11 -24 -11 -24 3 -6 9 11 16 23 16 28 0 4 9 8 20 8 20 0 20 0 0 -20 -12 -12 -18 -25 -15 -29 7 -12 -31 -21 -85 -21 -51 0 -135 34 -125 50 4 6 -2 23 -12 38 -10 15 -18 32 -18 37 0 6 -4 15 -8 22 -11 18 13 106 34 124 10 9 16 19 14 23 -3 3 -2 4 1 2 3 -2 17 2 32 10 34 17 39 17 39 0z m100 -58 c41 -38 31 -46 -67 -50 -50 -2 -90 -2 -90 0 0 16 36 65 53 72 31 13 77 3 104 -22z m-29 -85 c-10 -2 -28 -2 -40 0 -13 2 -5 4 17 4 22 1 32 -1 23 -4z m-168 -88 c7 -9 8 -15 2 -15 -5 0 -12 7 -16 15 -3 8 -4 15 -2 15 2 0 9 -7 16 -15z"/> <path d="M5287 1105 c-44 -31 -66 -70 -74 -133 -19 -167 139 -281 261 -189 l33 26 -5 -25 c-4 -23 -2 -24 47 -24 l51 0 0 185 0 185 -51 0 c-49 0 -51 -1 -47 -25 3 -14 3 -25 1 -25 -3 0 -18 11 -35 25 -42 36 -128 36 -181 0z m136 -9 c39 -9 26 -22 -22 -21 -23 0 -41 -3 -41 -7 0 -5 -7 -8 -15 -8 -8 0 -15 -5 -15 -11 0 -8 -4 -8 -14 0 -10 8 -16 8 -25 -3 -9 -11 -9 -16 0 -22 7 -4 9 -3 5 4 -3 6 -2 13 4 17 5 3 10 -3 10 -15 0 -11 -6 -23 -12 -25 -17 -7 -21 -80 -7 -108 12 -21 11 -21 -7 -7 -18 14 -18 14 -1 -6 9 -11 15 -24 12 -27 -3 -4 -2 -5 2 -2 8 6 34 -15 28 -24 -5 -9 0 -10 72 -15 46 -4 55 -1 88 27 33 29 36 37 37 82 0 90 -10 115 -57 136 -15 7 -12 8 13 5 25 -4 35 -1 44 14 7 11 21 20 30 20 16 0 18 -14 18 -159 0 -145 -2 -159 -17 -157 -10 0 -24 11 -30 23 -7 12 -20 20 -30 18 -10 -2 -22 -4 -26 -4 -5 -1 -6 -5 -3 -10 6 -8 -55 -31 -89 -33 -32 -2 -97 33 -91 49 3 8 1 11 -4 8 -6 -3 -10 3 -10 14 0 11 -4 23 -10 26 -6 3 -7 -1 -4 -12 5 -17 5 -17 -6 0 -15 23 -8 159 8 165 7 2 12 11 12 20 0 20 73 58 91 47 8 -6 10 -4 4 5 -5 8 -2 11 11 7 11 -3 32 -8 47 -11z m48 -75 c51 -52 36 -146 -28 -176 -70 -34 -133 16 -133 105 0 90 99 133 161 71z"/> <path d="M5652 1123 c2 -5 29 -47 61 -95 l59 -86 -61 -91 c-34 -49 -61 -92 -61 -93 0 -2 24 -2 53 0 52 4 53 4 82 58 16 30 32 54 35 54 3 0 20 -25 38 -55 l33 -55 53 0 54 0 -59 89 c-33 49 -59 92 -59 96 0 3 27 46 61 96 l60 90 -53 -3 c-52 -3 -53 -4 -83 -55 -16 -29 -32 -53 -35 -53 -3 0 -21 25 -40 55 l-35 55 -53 0 c-30 0 -52 -3 -50 -7z m108 -51 c14 -13 19 -21 13 -18 -7 4 -13 2 -13 -3 0 -6 8 -11 17 -11 9 0 14 -3 10 -6 -10 -10 24 -38 47 -38 27 0 48 13 41 25 -4 5 -3 15 2 22 4 6 8 14 8 17 2 17 24 35 45 36 20 1 21 0 10 -10 -8 -6 -16 -18 -18 -26 -2 -8 -8 -19 -14 -25 -8 -7 -8 -6 -3 4 5 10 4 12 -4 7 -6 -4 -9 -12 -6 -17 7 -11 -29 -61 -38 -53 -3 3 -4 -2 -3 -13 2 -10 -2 -24 -8 -32 -8 -11 -8 -13 1 -8 11 7 27 -8 28 -26 0 -4 13 -24 30 -44 16 -21 31 -45 32 -54 5 -32 -28 -14 -68 38 -44 56 -53 61 -81 39 -19 -14 -25 -32 -8 -21 5 3 7 0 4 -9 -3 -8 -12 -12 -20 -9 -8 3 -14 2 -12 -3 5 -22 -14 -50 -34 -51 l-23 -1 23 10 c12 6 22 18 22 27 -1 14 -2 13 -11 -1 -5 -10 -15 -18 -21 -18 -7 0 4 16 23 37 18 20 27 33 19 29 -8 -4 -6 0 4 8 11 9 16 16 10 16 -5 1 5 12 21 26 18 15 23 22 11 18 -12 -5 -17 -4 -13 3 6 10 -34 90 -68 139 -14 19 -14 21 2 21 10 0 29 -11 43 -25z"/> <path d="M5800 902 l-25 -24 28 17 c20 13 27 14 27 4 0 -7 3 -10 6 -6 3 3 2 12 -3 20 -6 12 -13 10 -33 -11z"/> <path d="M5855 899 c-4 -6 -5 -12 -2 -15 2 -3 7 2 10 11 7 17 1 20 -8 4z"/> <path d="M3327 1089 c7 -7 15 -10 18 -7 3 3 -2 9 -12 12 -14 6 -15 5 -6 -5z"/> <path d="M4006 748 c3 -5 10 -6 15 -3 13 9 11 12 -6 12 -8 0 -12 -4 -9 -9z"/> <path d="M3321 379 c-51 -11 -86 -51 -86 -100 0 -53 32 -82 115 -105 89 -25 115 -73 64 -113 -43 -34 -106 -23 -123 21 -8 21 -61 36 -61 17 0 -21 31 -69 51 -80 28 -15 131 -14 159 1 28 15 53 75 45 109 -10 41 -33 59 -104 82 -95 30 -122 68 -81 109 29 29 85 27 114 -5 25 -27 66 -34 66 -11 0 48 -89 90 -159 75z"/> <path d="M2050 360 c0 -17 7 -20 50 -20 l50 0 0 -164 0 -164 25 -4 25 -5 0 168 0 169 55 0 c48 0 55 2 55 20 0 19 -7 20 -130 20 -123 0 -130 -1 -130 -20z"/> <path d="M2361 237 c4 -154 12 -179 64 -213 33 -22 134 -22 168 1 47 30 57 70 57 219 l0 136 -25 0 -25 0 0 -139 c0 -124 -2 -141 -20 -164 -24 -31 -74 -43 -113 -28 -46 18 -59 64 -55 207 l3 124 -29 0 -28 0 3 -143z"/> <path d="M2730 193 l0 -188 25 0 26 0 -3 148 c-2 81 -1 147 2 147 3 -1 47 -66 99 -145 84 -132 96 -145 122 -145 l29 0 0 185 0 185 -27 0 -28 0 3 -152 3 -153 -100 153 c-86 130 -104 152 -126 152 l-25 0 0 -187z m59 133 c10 -11 9 -14 -4 -12 -8 1 -21 8 -27 14 -9 9 -8 12 4 12 8 0 21 -6 27 -14z m211 -277 c0 -11 -4 -17 -10 -14 -5 3 -10 13 -10 21 0 8 5 14 10 14 6 0 10 -9 10 -21z"/> <path d="M3110 191 l0 -188 25 5 25 4 0 184 0 184 -25 0 -25 0 0 -189z"/> <path d="M3560 193 l0 -188 25 0 25 0 0 188 0 187 -25 0 -25 0 0 -187z"/> <path d="M3690 195 l0 -185 95 0 c52 0 98 0 103 0 4 0 7 7 7 17 0 14 -11 16 -77 14 l-78 -2 0 68 0 68 70 -3 c68 -4 70 -3 70 20 0 23 -2 24 -70 20 l-70 -4 0 66 0 66 80 0 c73 0 80 2 80 20 0 19 -7 20 -105 20 l-105 0 0 -185z m40 5 c0 -5 -2 -10 -4 -10 -3 0 -8 5 -11 10 -3 6 -1 10 4 10 6 0 11 -4 11 -10z"/> <path d="M3366 92 c-3 -5 1 -9 9 -9 8 0 12 4 9 9 -3 4 -7 8 -9 8 -2 0 -6 -4 -9 -8z"/> </g> </svg>