<?xml version="1.0" standalone="no"?> <!DOCTYPE svg PUBLIC "-//W3C//DTD SVG 20010904//EN" "http://www.w3.org/TR/2001/REC-SVG-20010904/DTD/svg10.dtd"> <svg version="1.0" xmlns="http://www.w3.org/2000/svg" width="500.000000pt" height="317.000000pt" viewBox="0 0 500.000000 317.000000" preserveAspectRatio="xMidYMid meet"> <g transform="translate(0.000000,317.000000) scale(0.100000,-0.100000)" fill="currentColor" stroke="none"> <path d="M4968 3153 c6 -2 18 -2 25 0 6 3 1 5 -13 5 -14 0 -19 -2 -12 -5z"/> <path d="M3460 3140 c0 -5 7 -10 16 -10 8 0 12 5 9 10 -3 6 -10 10 -16 10 -5 0 -9 -4 -9 -10z"/> <path d="M4310 3130 c0 -12 8 -12 35 0 18 8 17 9 -7 9 -16 1 -28 -3 -28 -9z"/> <path d="M3511 3084 c0 -11 3 -14 6 -6 3 7 2 16 -1 19 -3 4 -6 -2 -5 -13z"/> <path d="M1078 3083 c7 -3 16 -2 19 1 4 3 -2 6 -13 5 -11 0 -14 -3 -6 -6z"/> <path d="M3237 3084 c-7 -6 -840 -14 -1407 -14 l-685 0 3 -85 c3 -79 5 -85 25 -86 62 -3 1368 3 1462 6 61 3 271 4 467 5 l357 0 0 88 0 87 -110 0 c-61 0 -111 -1 -112 -1z m193 -43 c0 -5 -6 -11 -12 -14 -10 -3 -10 -7 -1 -18 8 -10 10 -25 4 -45 l-7 -29 -800 -2 c-439 -2 -907 -3 -1039 -4 -132 -1 -253 2 -269 6 -17 5 -43 3 -63 -4 -53 -20 -73 -8 -69 41 2 22 10 44 17 49 10 6 11 9 2 9 -7 0 -13 5 -13 10 0 7 382 10 1125 10 675 0 1125 -4 1125 -9z"/> <path d="M1458 3033 c12 -2 32 -2 45 0 12 2 2 4 -23 4 -25 0 -35 -2 -22 -4z"/> <path d="M1268 2973 c7 -3 16 -2 19 1 4 3 -2 6 -13 5 -11 0 -14 -3 -6 -6z"/> <path d="M3580 3081 c0 -5 5 -13 10 -16 6 -3 10 -2 10 4 0 5 -4 13 -10 16 -5 3 -10 2 -10 -4z"/> <path d="M4543 3050 c0 -25 2 -35 4 -22 2 12 2 32 0 45 -2 12 -4 2 -4 -23z"/> <path d="M3638 3032 c-4 -12 -2 -25 4 -28 16 -10 22 4 11 28 l-10 22 -5 -22z"/> <path d="M3700 3020 c0 -5 5 -10 10 -10 6 0 10 5 10 10 0 6 -4 10 -10 10 -5 0 -10 -4 -10 -10z"/> <path d="M3750 3016 c0 -9 5 -16 10 -16 6 0 10 4 10 9 0 6 -4 13 -10 16 -5 3 -10 -1 -10 -9z"/> <path d="M3596 2995 c4 -8 8 -15 10 -15 2 0 4 7 4 15 0 8 -4 15 -10 15 -5 0 -7 -7 -4 -15z"/> <path d="M1048 2863 c6 -2 18 -2 25 0 6 3 1 5 -13 5 -14 0 -19 -2 -12 -5z"/> <path d="M3107 2853 c-2 -1 -1003 -15 -1037 -14 -98 2 -913 0 -918 -3 -4 -2 -5 -41 -2 -87 l5 -82 245 1 c135 0 254 3 265 6 11 2 47 5 80 6 51 1 56 3 31 10 -16 5 -155 9 -310 10 -276 0 -315 5 -288 32 16 16 15 45 0 51 -9 3 -10 8 -3 16 7 7 99 10 290 10 154 0 289 1 300 1 11 1 29 2 40 1 63 -1 221 -1 658 2 268 2 490 0 493 -5 7 -11 44 -10 44 2 0 15 67 12 73 -2 4 -10 8 -9 16 2 8 12 42 16 176 18 l166 3 -4 -36 c-3 -20 -7 -38 -11 -42 -3 -3 -1 -12 5 -19 17 -21 -5 -25 -147 -29 -218 -6 -992 -7 -1001 -2 -13 8 -39 -10 -29 -20 9 -10 1191 -12 1206 -3 7 4 10 39 8 89 l-3 83 -173 1 c-96 1 -174 1 -175 0z m-120 -39 c-3 -3 -12 -4 -19 -1 -8 3 -5 6 6 6 11 1 17 -2 13 -5z"/> <path d="M1020 2790 c0 -5 5 -10 10 -10 6 0 10 5 10 10 0 6 -4 10 -10 10 -5 0 -10 -4 -10 -10z"/> <path d="M1265 2790 c3 -5 8 -10 11 -10 2 0 4 5 4 10 0 6 -5 10 -11 10 -5 0 -7 -4 -4 -10z"/> <path d="M1708 2773 c7 -3 16 -2 19 1 4 3 -2 6 -13 5 -11 0 -14 -3 -6 -6z"/> <path d="M2791 2751 c-8 -5 5 -7 35 -4 27 3 51 7 53 9 9 8 -75 3 -88 -5z"/> <path d="M1031 2734 c0 -11 3 -14 6 -6 3 7 2 16 -1 19 -3 4 -6 -2 -5 -13z"/> <path d="M1830 2731 c0 -5 5 -13 10 -16 6 -3 10 -2 10 4 0 5 -4 13 -10 16 -5 3 -10 2 -10 -4z"/> <path d="M3555 2701 c-3 -5 -1 -12 5 -16 5 -3 10 1 10 9 0 18 -6 21 -15 7z"/> <path d="M1837 2664 c-5 -5 -36 -12 -70 -15 -34 -4 -89 -12 -122 -19 -37 -8 -145 -13 -280 -13 l-220 -1 0 -88 0 -88 302 0 c190 0 304 4 308 10 3 6 30 10 58 10 47 1 87 16 87 34 0 3 -11 6 -25 6 -14 0 -25 -4 -25 -10 0 -6 -26 -10 -59 -10 -33 0 -63 -4 -66 -10 -7 -11 -511 -15 -539 -4 -12 5 -14 16 -10 57 3 29 7 53 8 54 1 2 124 4 272 5 274 2 294 3 294 20 0 5 -16 6 -37 2 -38 -7 -43 3 -7 10 11 3 27 7 37 11 9 4 17 3 17 -3 0 -12 269 -3 290 10 9 6 -37 8 -125 5 -77 -2 -124 0 -105 4 45 10 339 13 348 4 4 -4 2 -6 -3 -5 -6 1 -23 1 -40 0 l-30 -2 30 -9 c17 -5 53 -9 80 -8 28 0 64 -3 80 -6 17 -4 40 -8 52 -10 13 -1 29 -8 37 -14 8 -7 19 -10 24 -7 10 6 97 -36 122 -59 9 -8 21 -15 27 -15 5 0 18 -9 28 -20 14 -15 15 -20 4 -20 -10 -1 -9 -4 4 -11 28 -16 20 -28 -23 -35 -23 -4 -40 -12 -40 -20 0 -7 -7 -17 -16 -22 -8 -5 -17 -17 -18 -28 -2 -15 -12 -19 -47 -21 -70 -3 -142 -14 -161 -24 -9 -5 -30 -9 -47 -9 -16 0 -33 -4 -36 -10 -3 -5 -19 -10 -35 -10 -16 0 -49 -7 -73 -15 -24 -8 -57 -16 -73 -18 -16 -2 -39 -9 -51 -15 -12 -7 -30 -12 -41 -12 -11 0 -33 -7 -48 -15 -17 -9 -30 -11 -32 -5 -2 6 -8 10 -13 10 -6 0 -7 -4 -4 -10 3 -5 -3 -10 -14 -10 -12 0 -21 -4 -21 -10 0 -5 -11 -10 -24 -10 -14 0 -28 -4 -31 -10 -3 -5 -15 -10 -26 -10 -11 0 -46 -13 -79 -30 -35 -18 -61 -26 -65 -20 -8 13 -35 13 -35 0 0 -5 7 -10 15 -10 8 0 15 -4 15 -10 0 -5 -7 -10 -15 -10 -17 0 -20 -16 -5 -25 6 -3 10 -13 10 -21 0 -11 -18 -14 -88 -14 -49 0 -111 -7 -139 -15 -64 -19 -120 -65 -79 -65 8 0 16 3 18 8 10 22 111 42 217 42 99 0 130 7 102 24 -14 9 -19 55 -7 65 6 5 22 12 35 16 13 4 40 14 60 23 20 9 41 17 46 18 21 5 137 47 180 65 11 4 36 10 55 12 19 3 53 10 75 17 62 18 115 30 175 41 30 5 69 14 85 19 34 11 87 19 178 27 54 5 72 15 45 27 -9 3 -8 8 5 16 9 6 17 17 17 24 0 8 16 16 38 20 21 3 48 15 61 28 23 20 23 22 5 28 -10 4 -19 16 -19 26 0 10 -10 23 -22 29 -13 5 -23 15 -23 21 0 5 -17 20 -37 31 -21 12 -55 31 -76 42 -39 22 -129 46 -208 57 -78 10 -404 16 -412 8z"/> <path d="M3495 2650 c-3 -5 1 -10 10 -10 9 0 13 5 10 10 -3 6 -8 10 -10 10 -2 0 -7 -4 -10 -10z"/> <path d="M2540 2610 c0 -5 14 -10 30 -10 17 0 38 -4 48 -9 9 -5 39 -17 66 -27 28 -9 86 -42 130 -71 l80 -55 225 6 c124 3 252 5 284 6 l57 0 0 85 0 85 -460 0 c-300 0 -460 -3 -460 -10z m315 -19 c299 8 568 3 559 -13 -3 -4 0 -8 5 -8 6 0 11 -7 11 -15 0 -8 -7 -15 -15 -15 -11 0 -10 -5 6 -21 12 -12 17 -25 12 -29 -14 -14 -556 -16 -561 -2 -2 7 -10 12 -18 12 -8 0 -14 4 -14 8 0 5 -25 21 -55 37 -30 15 -55 32 -55 37 0 5 -4 7 -8 4 -4 -2 -14 0 -22 5 -11 8 -3 8 25 4 22 -4 81 -6 130 -4z"/> <path d="M2968 2573 c7 -3 16 -2 19 1 4 3 -2 6 -13 5 -11 0 -14 -3 -6 -6z"/> <path d="M2820 2560 c0 -5 7 -10 16 -10 8 0 12 5 9 10 -3 6 -10 10 -16 10 -5 0 -9 -4 -9 -10z"/> <path d="M2891 2531 c-7 -5 -12 -14 -10 -20 3 -7 11 -3 21 9 18 21 13 26 -11 11z"/> <path d="M2968 2533 c6 -2 18 -2 25 0 6 3 1 5 -13 5 -14 0 -19 -2 -12 -5z"/> <path d="M3088 2533 c7 -3 16 -2 19 1 4 3 -2 6 -13 5 -11 0 -14 -3 -6 -6z"/> <path d="M3203 2533 c9 -2 23 -2 30 0 6 3 -1 5 -18 5 -16 0 -22 -2 -12 -5z"/> <path d="M1810 2569 c0 -5 5 -7 10 -4 6 3 10 8 10 11 0 2 -4 4 -10 4 -5 0 -10 -5 -10 -11z"/> <path d="M1848 2573 c6 -2 18 -2 25 0 6 3 1 5 -13 5 -14 0 -19 -2 -12 -5z"/> <path d="M1540 2550 c0 -5 7 -10 15 -10 8 0 15 5 15 10 0 6 -7 10 -15 10 -8 0 -15 -4 -15 -10z"/> <path d="M1573 2528 c-17 -19 -15 -19 40 -17 43 2 54 5 46 15 -17 21 -67 22 -86 2z"/> <path d="M1860 2540 c0 -5 7 -10 16 -10 8 0 12 5 9 10 -3 6 -10 10 -16 10 -5 0 -9 -4 -9 -10z"/> <path d="M1465 2525 c-16 -8 -42 -14 -57 -15 -16 0 -28 -4 -28 -8 0 -5 14 -8 30 -7 17 1 49 2 73 4 38 1 40 3 24 15 -18 14 -18 14 0 19 11 3 12 5 3 5 -8 0 -28 -6 -45 -13z"/> <path d="M2430 2530 c0 -5 7 -10 15 -10 8 0 15 5 15 10 0 6 -7 10 -15 10 -8 0 -15 -4 -15 -10z"/> <path d="M1532 2511 c2 -14 9 -26 16 -29 17 -5 15 10 -3 34 -15 18 -15 18 -13 -5z"/> <path d="M3490 2520 c0 -5 5 -10 10 -10 6 0 10 5 10 10 0 6 -4 10 -10 10 -5 0 -10 -4 -10 -10z"/> <path d="M1810 2510 c-12 -8 -11 -10 8 -10 12 0 22 5 22 10 0 13 -11 13 -30 0z"/> <path d="M2470 2500 c0 -5 7 -10 16 -10 8 0 12 5 9 10 -3 6 -10 10 -16 10 -5 0 -9 -4 -9 -10z"/> <path d="M2685 2480 c-3 -5 -1 -10 4 -10 6 0 11 5 11 10 0 6 -2 10 -4 10 -3 0 -8 -4 -11 -10z"/> <path d="M2425 2470 c-3 -5 -2 -10 4 -10 5 0 13 5 16 10 3 6 2 10 -4 10 -5 0 -13 -4 -16 -10z"/> <path d="M2518 2473 c7 -3 16 -2 19 1 4 3 -2 6 -13 5 -11 0 -14 -3 -6 -6z"/> <path d="M2037 2463 c-4 -3 -31 -6 -62 -7 -37 -1 -59 -6 -65 -16 -8 -12 -10 -12 -10 -1 0 9 -4 10 -12 3 -7 -5 -29 -13 -48 -17 -19 -3 -55 -16 -79 -27 -41 -18 -64 -20 -330 -18 l-286 1 3 -91 3 -90 67 6 c78 8 108 19 77 29 -11 4 -29 11 -40 17 -14 8 -20 8 -23 -1 -2 -6 -15 -11 -29 -11 -20 0 -23 4 -18 20 4 12 2 26 -3 33 -6 7 -8 23 -5 37 l4 25 241 1 c140 1 236 -2 231 -7 -5 -5 -33 -17 -62 -28 -55 -19 -99 -50 -51 -36 14 4 40 14 58 21 25 10 32 11 29 1 -2 -6 -10 -11 -16 -9 -6 1 -11 -2 -11 -7 0 -5 -10 -11 -22 -14 -12 -4 -19 -9 -16 -13 9 -8 79 15 100 33 9 8 21 12 27 9 17 -11 51 17 45 36 -4 12 0 18 11 18 9 0 14 -4 11 -9 -7 -10 27 -5 64 11 55 23 69 31 66 37 -2 3 10 6 27 7 39 1 147 34 147 45 0 11 -16 20 -23 12z m-192 -73 c3 -6 -1 -7 -9 -4 -10 4 -16 1 -16 -7 0 -7 -3 -9 -7 -6 -3 4 -12 2 -20 -5 -7 -6 -16 -8 -19 -5 -3 3 7 12 23 21 34 18 40 19 48 6z m-132 -57 c-7 -2 -19 -2 -25 0 -7 3 -2 5 12 5 14 0 19 -2 13 -5z m-43 -13 c0 -5 -7 -10 -15 -10 -8 0 -15 5 -15 10 0 6 7 10 15 10 8 0 15 -4 15 -10z"/> <path d="M2710 2449 c0 -5 5 -7 10 -4 6 3 10 8 10 11 0 2 -4 4 -10 4 -5 0 -10 -5 -10 -11z"/> <path d="M2490 2440 c0 -5 5 -10 11 -10 5 0 7 5 4 10 -3 6 -8 10 -11 10 -2 0 -4 -4 -4 -10z"/> <path d="M2416 2425 c-11 -8 -15 -15 -9 -15 19 0 43 12 43 21 0 13 -12 11 -34 -6z"/> <path d="M2691 2424 c0 -11 3 -14 6 -6 3 7 2 16 -1 19 -3 4 -6 -2 -5 -13z"/> <path d="M2796 2421 c-3 -4 6 -6 19 -3 14 2 25 6 25 8 0 8 -39 4 -44 -5z"/> <path d="M2445 2390 c-3 -5 1 -10 10 -10 9 0 13 5 10 10 -3 6 -8 10 -10 10 -2 0 -7 -4 -10 -10z"/> <path d="M4035 2390 c4 -6 11 -8 16 -5 14 9 11 15 -7 15 -8 0 -12 -5 -9 -10z"/> <path d="M2940 2375 c0 -8 4 -15 9 -15 5 0 16 -12 23 -27 8 -16 20 -39 28 -53 7 -14 16 -32 20 -40 6 -13 44 -15 230 -18 200 -2 222 -1 216 14 -3 8 -6 47 -6 85 l0 69 -260 0 c-224 0 -260 -2 -260 -15z m490 -73 l0 -58 -190 1 c-104 0 -191 3 -192 5 -2 3 -9 14 -16 25 -7 11 -15 28 -18 38 -4 9 -10 17 -15 17 -5 0 -9 6 -9 14 0 12 36 15 220 16 l220 1 0 -59z"/> <path d="M3046 2311 c-19 -21 -12 -28 13 -12 7 5 12 14 9 21 -2 7 -10 4 -22 -9z"/> <path d="M3098 2263 c7 -3 16 -2 19 1 4 3 -2 6 -13 5 -11 0 -14 -3 -6 -6z"/> <path d="M2238 2373 c7 -3 16 -2 19 1 4 3 -2 6 -13 5 -11 0 -14 -3 -6 -6z"/> <path d="M1025 2360 c3 -5 10 -10 16 -10 5 0 9 5 9 10 0 6 -7 10 -16 10 -8 0 -12 -4 -9 -10z"/> <path d="M3860 2361 c0 -5 8 -11 18 -15 9 -3 24 -9 32 -12 8 -3 4 4 -10 15 -27 22 -40 26 -40 12z"/> <path d="M3962 2325 c-12 -14 -22 -32 -22 -40 0 -8 -4 -15 -10 -15 -21 0 -9 -37 23 -66 40 -39 92 -74 106 -74 19 0 78 60 77 78 -1 23 -51 77 -103 113 -23 16 -43 29 -45 29 -3 0 -14 -11 -26 -25z m100 -67 c15 -15 32 -28 37 -28 6 0 11 -4 11 -10 0 -5 -5 -10 -12 -10 -6 0 -8 -3 -5 -7 9 -9 -23 -43 -40 -43 -7 0 -16 7 -19 15 -4 8 -15 15 -25 15 -12 0 -16 5 -13 14 4 10 0 13 -14 9 -24 -6 -38 33 -15 41 9 4 13 14 10 26 -3 12 1 20 12 23 19 4 35 -6 73 -45z"/> <path d="M4046 2205 c-3 -8 -1 -15 4 -15 13 0 22 18 11 24 -5 3 -11 -1 -15 -9z"/> <path d="M1885 2330 c3 -5 10 -10 16 -10 5 0 9 5 9 10 0 6 -7 10 -16 10 -8 0 -12 -4 -9 -10z"/> <path d="M2238 2333 c7 -3 16 -2 19 1 4 3 -2 6 -13 5 -11 0 -14 -3 -6 -6z"/> <path d="M1860 2300 c0 -5 5 -10 10 -10 6 0 10 5 10 10 0 6 -4 10 -10 10 -5 0 -10 -4 -10 -10z"/> <path d="M3766 2285 c-9 -13 -16 -28 -16 -33 0 -5 -7 -15 -15 -22 -8 -7 -15 -19 -15 -26 0 -14 127 -114 145 -114 21 0 75 56 75 78 0 27 -16 29 -30 3 -30 -57 -53 -58 -113 -7 -36 30 -38 34 -23 49 9 9 17 19 16 22 -1 19 2 23 15 29 9 3 29 -8 51 -29 20 -19 31 -35 25 -35 -6 0 -11 -7 -11 -15 0 -22 13 -18 29 7 10 16 10 23 2 26 -6 2 -11 8 -11 14 0 15 -73 78 -91 78 -9 0 -24 -11 -33 -25z"/> <path d="M1748 2283 c6 -2 18 -2 25 0 6 3 1 5 -13 5 -14 0 -19 -2 -12 -5z"/> <path d="M2618 2283 c7 -3 16 -2 19 1 4 3 -2 6 -13 5 -11 0 -14 -3 -6 -6z"/> <path d="M1289 2269 c-10 -6 -4 -9 19 -9 17 0 32 2 32 4 0 9 -39 13 -51 5z"/> <path d="M1955 2270 c-3 -5 -1 -10 4 -10 6 0 11 5 11 10 0 6 -2 10 -4 10 -3 0 -8 -4 -11 -10z"/> <path d="M1460 2260 c0 -5 10 -9 23 -7 13 1 21 -3 20 -10 -4 -16 23 -17 33 -2 3 6 0 15 -7 20 -19 12 -69 11 -69 -1z"/> <path d="M1840 2260 c0 -5 7 -7 15 -4 8 4 15 8 15 10 0 2 -7 4 -15 4 -8 0 -15 -4 -15 -10z"/> <path d="M1710 2250 c0 -5 5 -10 11 -10 5 0 7 5 4 10 -3 6 -8 10 -11 10 -2 0 -4 -4 -4 -10z"/> <path d="M1795 2250 c-3 -5 -1 -10 4 -10 6 0 11 5 11 10 0 6 -2 10 -4 10 -3 0 -8 -4 -11 -10z"/> <path d="M3645 2250 c3 -5 8 -10 11 -10 2 0 4 5 4 10 0 6 -5 10 -11 10 -5 0 -7 -4 -4 -10z"/> <path d="M1420 2239 c0 -5 5 -7 10 -4 6 3 10 8 10 11 0 2 -4 4 -10 4 -5 0 -10 -5 -10 -11z"/> <path d="M1444 2220 c-12 -5 -25 -13 -29 -19 -3 -6 -11 -9 -16 -6 -5 4 -9 1 -9 -4 0 -6 11 -11 25 -11 14 0 25 4 25 9 0 5 10 11 22 13 12 2 23 9 26 16 4 14 -13 15 -44 2z"/> <path d="M1300 2185 c-46 -24 -79 -34 -112 -34 -48 -1 -57 -8 -38 -27 6 -6 -13 -23 -58 -48 -37 -22 -123 -76 -192 -121 -69 -45 -178 -116 -242 -158 -65 -42 -118 -81 -118 -86 0 -5 12 -19 26 -30 15 -12 23 -21 19 -21 -11 0 24 -38 56 -61 l26 -18 66 47 c36 26 78 55 94 64 15 10 37 23 48 30 38 25 98 60 203 119 20 12 43 26 50 31 20 17 26 2 24 -62 -2 -57 0 -60 22 -60 40 0 86 12 86 22 0 6 -14 8 -34 4 -34 -6 -59 8 -40 23 17 12 14 32 -6 54 -19 20 -20 22 -3 29 16 6 16 7 1 7 -9 1 -18 5 -20 10 -3 11 -78 -10 -78 -21 0 -13 -78 -48 -94 -42 -19 7 -22 -12 -3 -20 6 -4 2 -4 -9 -2 -12 2 -28 0 -35 -5 -12 -7 -11 -9 1 -9 8 0 -4 -10 -27 -22 -22 -13 -52 -31 -64 -40 -124 -92 -219 -136 -212 -100 2 7 -5 12 -15 12 -12 0 -8 6 13 20 17 11 25 20 18 20 -6 0 -15 -4 -18 -10 -10 -15 -35 -12 -35 5 0 8 7 15 15 15 8 0 15 4 15 8 0 5 18 17 40 27 22 10 37 22 34 26 -3 5 0 9 6 9 6 0 8 5 5 10 -4 7 2 9 18 5 19 -5 29 -1 41 17 9 13 19 22 21 21 17 -9 26 -1 15 12 -7 9 -11 17 -9 18 4 3 47 32 88 59 14 10 33 21 41 25 8 3 17 9 20 13 13 16 72 51 77 46 4 -3 1 -6 -6 -6 -7 0 -9 -4 -6 -10 3 -5 0 -10 -8 -10 -8 0 -20 -7 -27 -15 -7 -8 -38 -29 -69 -47 -31 -17 -60 -38 -64 -45 -5 -7 -12 -11 -17 -8 -5 3 -11 1 -15 -5 -18 -29 58 1 103 42 15 13 32 25 37 27 26 9 94 65 88 74 -3 5 3 7 14 3 13 -4 29 2 49 19 16 14 36 25 44 25 9 0 23 9 33 20 9 11 23 20 30 20 7 0 29 11 49 25 20 14 44 25 52 25 9 0 16 5 16 10 0 14 -12 12 -37 -5 -17 -12 -23 -13 -29 -3 -4 7 -4 10 0 6 5 -4 26 7 49 23 22 16 43 27 46 24 3 -4 -1 -10 -9 -15 -8 -5 -11 -12 -8 -15 11 -11 29 6 26 23 -2 10 5 22 17 29 20 12 20 12 0 12 -11 -1 -49 -16 -85 -34z m-85 -82 c-22 -15 -41 -30 -43 -35 -2 -4 -10 -8 -17 -8 -8 0 -21 -7 -29 -16 -9 -8 -21 -12 -27 -8 -8 4 6 16 35 31 34 17 46 29 42 40 -5 12 -1 14 18 9 14 -3 28 -2 31 4 3 5 11 10 18 10 6 0 -6 -12 -28 -27z m-135 -83 c0 -5 -7 -10 -16 -10 -8 0 -12 5 -9 10 3 6 10 10 16 10 5 0 9 -4 9 -10z m-313 -200 c-14 -11 -29 -20 -34 -20 -11 1 37 40 49 40 6 0 -1 -9 -15 -20z m-77 -40 c-8 -5 -19 -10 -25 -10 -5 0 -3 5 5 10 8 5 20 10 25 10 6 0 3 -5 -5 -10z m-23 -26 c-3 -3 -12 -4 -19 -1 -8 3 -5 6 6 6 11 1 17 -2 13 -5z m-32 -24 c-3 -5 -10 -10 -16 -10 -5 0 -9 5 -9 10 0 6 7 10 16 10 8 0 12 -4 9 -10z"/> <path d="M1695 2210 c-3 -5 -1 -10 4 -10 6 0 11 5 11 10 0 6 -2 10 -4 10 -3 0 -8 -4 -11 -10z"/> <path d="M3640 2210 c0 -5 5 -10 10 -10 6 0 10 5 10 10 0 6 -4 10 -10 10 -5 0 -10 -4 -10 -10z"/> <path d="M3835 2209 c-4 -6 -14 -8 -22 -4 -13 4 -14 3 -3 -10 7 -9 13 -14 14 -13 1 2 8 11 15 21 7 9 11 17 8 17 -3 0 -9 -5 -12 -11z"/> <path d="M1755 2190 c3 -5 8 -10 11 -10 2 0 4 5 4 10 0 6 -5 10 -11 10 -5 0 -7 -4 -4 -10z"/> <path d="M3470 2190 c0 -5 7 -10 15 -10 8 0 15 5 15 10 0 6 -7 10 -15 10 -8 0 -15 -4 -15 -10z"/> <path d="M1118 2173 c7 -3 16 -2 19 1 4 3 -2 6 -13 5 -11 0 -14 -3 -6 -6z"/> <path d="M1903 2162 c-6 -4 -24 -25 -39 -47 l-26 -39 30 -26 c17 -14 51 -40 76 -59 44 -32 47 -33 71 -17 29 19 65 57 65 68 0 15 -83 99 -111 114 -31 16 -48 17 -66 6z m88 -55 c27 -24 36 -41 37 -65 1 -28 -2 -32 -19 -27 -14 5 -17 3 -13 -9 3 -9 1 -16 -5 -16 -6 0 -11 5 -11 10 0 6 -7 10 -15 10 -9 0 -12 6 -8 17 4 11 3 14 -5 9 -12 -7 -62 21 -62 35 0 5 10 19 21 30 17 17 19 23 8 30 -10 6 -7 9 11 9 14 0 41 -15 61 -33z"/> <path d="M1930 2081 c0 -5 5 -13 10 -16 6 -3 10 -2 10 4 0 5 -4 13 -10 16 -5 3 -10 2 -10 -4z"/> <path d="M1976 2061 c-4 -7 -5 -15 -2 -18 9 -9 19 4 14 18 -4 11 -6 11 -12 0z"/> <path d="M3047 2153 c-9 -19 6 -112 19 -117 11 -4 14 6 14 45 0 46 2 51 20 46 11 -3 18 -2 16 2 -3 4 67 7 155 7 l160 -1 -2 -30 c-1 -16 1 -38 5 -47 17 -48 17 -51 2 -39 -8 7 -20 10 -26 6 -6 -4 -77 -6 -158 -6 -144 1 -182 -5 -168 -28 4 -6 0 -11 -8 -11 -9 0 -16 -4 -16 -10 0 -18 29 -11 40 10 6 11 16 17 22 14 6 -4 236 -7 510 -7 286 0 501 -4 504 -9 3 -5 38 -9 77 -8 40 0 126 -4 192 -9 66 -5 149 -11 183 -13 35 -1 66 -6 68 -10 3 -4 46 -5 97 -2 167 10 158 21 -35 41 -291 30 -653 50 -1017 58 l-245 6 3 52 c1 28 5 55 7 59 3 5 -89 8 -205 8 -115 0 -212 -3 -214 -7z"/> <path d="M3622 2145 c-16 -19 -3 -19 22 0 14 11 16 15 5 15 -8 -1 -20 -7 -27 -15z"/> <path d="M3831 2157 c2 -1 11 -8 20 -15 13 -9 16 -9 16 3 0 8 -9 15 -20 15 -11 0 -18 -1 -16 -3z"/> <path d="M918 2123 c7 -3 16 -2 19 1 4 3 -2 6 -13 5 -11 0 -14 -3 -6 -6z"/> <path d="M955 2090 c-19 -8 -19 -9 3 -9 12 -1 22 4 22 9 0 6 -1 10 -2 9 -2 0 -12 -4 -23 -9z"/> <path d="M1738 2093 c7 -3 16 -2 19 1 4 3 -2 6 -13 5 -11 0 -14 -3 -6 -6z"/> <path d="M995 2070 c-3 -5 -1 -10 4 -10 6 0 11 5 11 10 0 6 -2 10 -4 10 -3 0 -8 -4 -11 -10z"/> <path d="M1756 2062 c-3 -6 -1 -14 5 -17 14 -9 20 -2 10 14 -6 8 -11 9 -15 3z"/> <path d="M1195 2021 c-3 -5 -1 -12 5 -16 5 -3 10 1 10 9 0 18 -6 21 -15 7z"/> <path d="M3049 2026 c-6 -6 -100 -17 -229 -26 -185 -13 -552 -54 -580 -64 -13 -5 -94 -17 -305 -47 -38 -5 -107 -18 -152 -29 -45 -11 -93 -20 -108 -20 -29 0 -55 20 -55 43 0 34 -26 39 -199 35 -119 -2 -174 -7 -183 -15 -10 -10 22 -13 160 -13 l172 0 44 -44 c43 -44 43 -44 20 -55 -15 -6 -25 -7 -29 -1 -4 6 4 10 16 10 15 0 20 3 13 10 -6 6 -22 6 -44 0 -19 -6 -49 -10 -67 -10 -17 0 -35 -4 -38 -10 -3 -5 -19 -10 -35 -10 -16 0 -32 -4 -35 -10 -3 -5 -18 -10 -32 -10 -18 0 -24 -4 -19 -15 6 -17 -9 -21 -19 -5 -6 10 -25 9 -55 -3 -8 -3 -44 -10 -79 -17 -35 -6 -71 -15 -80 -20 -23 -11 -160 -51 -198 -57 -18 -3 -33 -9 -33 -14 0 -5 -10 -9 -23 -9 -13 0 -27 -4 -33 -8 -5 -5 -29 -17 -54 -26 -49 -19 -89 -36 -165 -71 -27 -13 -81 -38 -120 -55 -84 -38 -167 -79 -216 -108 -85 -48 -94 -57 -61 -64 13 -3 8 -10 -20 -28 -46 -30 -51 -56 -10 -45 15 4 39 7 55 7 29 1 37 14 11 20 -13 2 -12 6 5 25 27 28 26 37 -1 30 -20 -6 -20 -5 -3 11 13 13 19 14 22 5 6 -18 38 -16 53 2 7 8 20 15 30 15 10 0 23 7 30 15 11 13 10 15 -6 9 -18 -5 -18 -5 0 10 13 10 22 12 26 6 7 -12 69 6 71 21 1 5 2 13 3 18 0 5 5 13 10 18 5 5 6 2 1 -6 -7 -11 -2 -13 25 -8 18 4 37 7 43 7 6 0 2 7 -9 15 -18 14 -18 15 6 6 22 -7 38 -3 70 17 2 2 -2 7 -10 12 -12 8 -11 10 6 10 11 0 26 -6 34 -12 12 -11 12 -10 3 2 -7 9 -8 21 -4 29 7 10 9 9 14 -3 4 -9 13 -13 22 -10 14 6 14 7 0 18 -13 9 -8 11 27 8 37 -4 41 -3 30 10 -10 13 -8 15 12 11 14 -3 39 1 55 8 31 14 41 29 19 29 -9 0 -8 3 1 13 11 10 14 10 18 0 3 -7 14 -12 26 -12 17 1 18 2 5 6 -29 7 -21 21 8 15 38 -7 204 47 197 65 -4 9 4 13 28 12 33 0 33 -1 9 -11 -14 -6 -20 -12 -13 -15 7 -2 42 7 77 21 35 14 73 26 83 26 10 0 25 5 33 10 13 8 12 10 -2 10 -10 0 -18 5 -18 10 0 13 23 13 37 -1 10 -10 132 8 143 22 3 3 28 9 55 13 97 12 125 18 125 28 0 5 6 8 13 7 25 -4 137 14 137 22 0 5 8 9 18 9 15 0 15 2 2 11 -11 8 -9 9 10 3 14 -4 30 -6 35 -5 6 1 37 4 69 7 33 2 66 9 73 15 7 6 32 12 55 14 24 2 59 6 78 9 83 12 147 20 180 21 19 1 44 6 55 12 11 6 26 8 33 6 20 -7 143 7 138 16 -3 4 8 5 25 3 38 -6 145 8 132 16 -10 7 142 13 265 12 60 -1 87 9 56 21 -18 7 -17 8 3 8 25 1 40 18 26 32 -5 5 -11 7 -14 5z m-526 -93 c-7 -2 -21 -2 -30 0 -10 3 -4 5 12 5 17 0 24 -2 18 -5z m-166 -19 c-3 -3 -12 -4 -19 -1 -8 3 -5 6 6 6 11 1 17 -2 13 -5z m-389 -61 c-10 -2 -26 -2 -35 0 -10 3 -2 5 17 5 19 0 27 -2 18 -5z m-168 -27 c0 -9 -40 -13 -46 -5 -3 5 6 9 20 9 14 0 26 -2 26 -4z m-225 -46 c-11 -5 -36 -8 -55 -8 l-35 1 35 7 c19 4 44 8 55 8 l20 1 -20 -9z m-151 -35 c-4 -8 -13 -15 -22 -15 -13 0 -12 3 4 15 24 18 25 18 18 0z m-184 -50 c0 -3 -12 -10 -27 -16 -19 -7 -29 -6 -37 2 -8 9 -8 10 1 5 7 -4 21 -2 30 3 20 12 33 14 33 6z m-287 -92 c-7 -2 -19 -2 -25 0 -7 3 -2 5 12 5 14 0 19 -2 13 -5z m-343 -141 c0 -4 -9 -8 -20 -9 -11 -1 -18 2 -15 8 7 11 35 12 35 1z m-130 -46 c0 -10 -32 -36 -43 -36 -7 0 -1 9 13 20 26 21 30 23 30 16z m-138 -78 c-6 -6 -20 -13 -29 -14 -16 -2 -16 -1 1 12 24 17 45 19 28 2z"/> <path d="M1120 1996 c0 -2 7 -6 15 -10 8 -3 15 -1 15 4 0 6 -7 10 -15 10 -8 0 -15 -2 -15 -4z"/> <path d="M1162 1980 c-8 -13 -8 -20 -2 -20 6 0 13 7 17 15 9 24 -1 27 -15 5z"/> <path d="M1800 1990 c0 -5 5 -10 10 -10 6 0 10 5 10 10 0 6 -4 10 -10 10 -5 0 -10 -4 -10 -10z"/> <path d="M680 1972 c0 -4 10 -13 23 -21 22 -14 22 -14 3 8 -20 22 -26 25 -26 13z"/> <path d="M1860 1960 c0 -5 5 -10 11 -10 5 0 7 5 4 10 -3 6 -8 10 -11 10 -2 0 -4 -4 -4 -10z"/> <path d="M1065 1950 c-3 -5 -1 -10 4 -10 6 0 11 5 11 10 0 6 -2 10 -4 10 -3 0 -8 -4 -11 -10z"/> <path d="M1111 1943 c-1 -12 4 -25 9 -28 12 -7 12 2 0 30 -8 19 -9 19 -9 -2z"/> <path d="M730 1940 c0 -5 5 -10 11 -10 5 0 7 5 4 10 -3 6 -8 10 -11 10 -2 0 -4 -4 -4 -10z"/> <path d="M1190 1920 c0 -5 4 -10 9 -10 6 0 13 5 16 10 3 6 -1 10 -9 10 -9 0 -16 -4 -16 -10z"/> <path d="M4740 1922 c0 -6 8 -13 18 -15 9 -3 -11 -5 -46 -6 -39 -1 -61 -5 -57 -11 4 -6 -9 -10 -32 -11 -21 0 -47 -4 -58 -8 l-20 -8 20 -5 c19 -5 77 -4 93 2 4 2 12 4 17 5 6 2 12 4 15 5 7 4 43 8 128 16 40 4 75 10 77 14 2 4 -24 10 -58 13 -34 3 -70 9 -80 12 -9 4 -17 3 -17 -3z"/> <path d="M2968 1913 c6 -2 18 -2 25 0 6 3 1 5 -13 5 -14 0 -19 -2 -12 -5z"/> <path d="M4960 1900 c0 -5 5 -10 11 -10 5 0 7 5 4 10 -3 6 -8 10 -11 10 -2 0 -4 -4 -4 -10z"/> <path d="M3488 1883 c7 -3 16 -2 19 1 4 3 -2 6 -13 5 -11 0 -14 -3 -6 -6z"/> <path d="M4488 1883 c6 -2 18 -2 25 0 6 3 1 5 -13 5 -14 0 -19 -2 -12 -5z"/> <path d="M2758 1873 c7 -3 16 -2 19 1 4 3 -2 6 -13 5 -11 0 -14 -3 -6 -6z"/> <path d="M924 1855 c-16 -12 -16 -14 -3 -15 9 0 22 7 29 15 16 19 0 19 -26 0z"/> <path d="M1000 1859 c0 -5 5 -7 10 -4 6 3 10 8 10 11 0 2 -4 4 -10 4 -5 0 -10 -5 -10 -11z"/> <path d="M1308 1863 c7 -3 16 -2 19 1 4 3 -2 6 -13 5 -11 0 -14 -3 -6 -6z"/> <path d="M1530 1850 c0 -5 7 -10 16 -10 8 0 12 5 9 10 -3 6 -10 10 -16 10 -5 0 -9 -4 -9 -10z"/> <path d="M3405 1850 c-3 -5 -1 -10 4 -10 6 0 11 5 11 10 0 6 -2 10 -4 10 -3 0 -8 -4 -11 -10z"/> <path d="M4260 1852 c0 -7 6 -13 13 -14 6 0 -19 -4 -58 -7 -38 -4 -99 -3 -135 1 -111 12 -620 7 -620 -6 0 -6 -11 -16 -25 -23 -14 -6 -25 -7 -25 -2 0 5 -5 9 -11 9 -5 0 -7 -4 -4 -10 4 -6 -36 -10 -112 -11 -65 -1 -173 -2 -240 -3 -67 0 -121 3 -120 8 1 5 -15 10 -36 11 -21 1 -41 5 -44 9 -3 3 -12 1 -19 -5 -12 -9 -120 -23 -289 -35 -38 -3 -79 -9 -90 -14 -11 -5 -47 -11 -80 -13 -63 -5 -200 -26 -225 -35 -8 -3 -28 -7 -45 -9 -16 -2 -46 -8 -65 -13 -19 -6 -47 -10 -62 -10 -16 0 -28 -4 -28 -10 0 -5 -13 -10 -29 -10 -17 0 -33 -5 -37 -11 -8 -13 48 -8 141 11 28 5 84 15 125 21 41 5 84 14 95 19 11 4 63 13 115 20 52 6 109 13 125 16 17 3 95 11 175 19 80 8 165 18 190 23 52 10 71 6 64 -13 -4 -10 46 -12 277 -9 155 1 284 5 287 8 2 3 -1 12 -8 21 -7 8 -9 16 -4 17 10 1 117 4 269 7 136 2 782 -17 821 -25 19 -3 34 -1 38 5 4 6 15 11 26 11 16 0 36 27 26 37 -2 2 -20 -5 -39 -16 -31 -17 -43 -19 -99 -11 -34 5 -92 10 -127 10 -52 0 -69 4 -88 22 -13 12 -23 16 -23 10z"/> <path d="M4300 1851 c0 -5 37 -11 83 -13 45 -3 90 -8 100 -12 9 -5 17 -4 17 1 0 6 -17 15 -39 21 -45 14 -161 16 -161 3z"/> <path d="M4516 1853 c-3 -4 -1 -12 5 -20 14 -16 52 -18 47 -1 -5 13 -44 29 -52 21z"/> <path d="M2363 1843 c9 -2 23 -2 30 0 6 3 -1 5 -18 5 -16 0 -22 -2 -12 -5z"/> <path d="M3300 1840 c0 -13 18 -22 24 -11 3 5 -1 11 -9 15 -8 3 -15 1 -15 -4z"/> <path d="M870 1819 c0 -5 5 -7 10 -4 6 3 10 8 10 11 0 2 -4 4 -10 4 -5 0 -10 -5 -10 -11z"/> <path d="M1330 1826 c0 -2 7 -7 16 -10 8 -3 12 -2 9 4 -6 10 -25 14 -25 6z"/> <path d="M2268 1823 c7 -3 16 -2 19 1 4 3 -2 6 -13 5 -11 0 -14 -3 -6 -6z"/> <path d="M558 1803 c-10 -2 -18 -9 -18 -14 0 -6 10 -5 23 2 37 20 36 23 -5 12z"/> <path d="M2385 1800 c3 -5 8 -10 11 -10 2 0 4 5 4 10 0 6 -5 10 -11 10 -5 0 -7 -4 -4 -10z"/> <path d="M830 1793 c0 -15 18 -35 23 -27 3 5 -1 15 -9 22 -8 7 -14 9 -14 5z"/> <path d="M1285 1790 c4 -6 11 -8 16 -5 14 9 11 15 -7 15 -8 0 -12 -5 -9 -10z"/> <path d="M2305 1780 c-13 -6 -15 -9 -5 -9 8 0 22 4 30 9 18 12 2 12 -25 0z"/> <path d="M510 1759 c7 -11 14 -19 16 -16 7 7 -7 37 -17 37 -6 0 -5 -9 1 -21z"/> <path d="M800 1750 c0 -5 5 -10 10 -10 6 0 10 5 10 10 0 6 -4 10 -10 10 -5 0 -10 -4 -10 -10z"/> <path d="M4630 1740 c0 -5 5 -10 11 -10 5 0 7 5 4 10 -3 6 -8 10 -11 10 -2 0 -4 -4 -4 -10z"/> <path d="M4458 1733 c6 -2 18 -2 25 0 6 3 1 5 -13 5 -14 0 -19 -2 -12 -5z"/> <path d="M720 1718 c0 -4 9 -8 20 -8 11 0 20 4 20 9 0 6 -9 9 -20 8 -11 -1 -20 -5 -20 -9z"/> <path d="M1788 1723 c6 -2 18 -2 25 0 6 3 1 5 -13 5 -14 0 -19 -2 -12 -5z"/> <path d="M4590 1714 c0 -8 5 -12 10 -9 6 3 10 10 10 16 0 5 -4 9 -10 9 -5 0 -10 -7 -10 -16z"/> <path d="M3348 1705 c-4 -4 -125 -8 -270 -9 -228 -2 -267 -5 -293 -20 -16 -9 -52 -30 -80 -46 -27 -15 -58 -29 -67 -29 -10 -1 -18 -5 -18 -10 0 -5 -26 -13 -57 -17 -32 -3 -66 -11 -77 -16 -21 -11 -241 -14 -328 -5 -75 8 -98 14 -190 45 -43 14 -80 23 -84 20 -12 -13 8 -28 47 -34 22 -4 42 -11 45 -15 3 -5 14 -9 25 -9 10 0 19 -4 19 -10 0 -15 -47 -12 -53 3 -4 10 -7 10 -18 0 -15 -15 -50 -17 -46 -4 1 5 -2 9 -8 9 -5 0 -9 -4 -7 -10 1 -6 -94 -8 -256 -7 -142 1 -263 -1 -269 -4 -6 -4 -18 -4 -27 -1 -9 4 -16 1 -16 -6 0 -9 -12 -11 -41 -7 -32 4 -39 2 -35 -9 3 -9 -1 -14 -14 -14 -11 0 -20 -4 -20 -10 0 -14 16 -13 84 5 48 13 166 16 664 20 918 6 1495 14 1501 20 4 5 3 157 -2 161 -8 6 -104 14 -109 9z m88 -96 l0 -60 -333 3 c-216 2 -334 -1 -336 -7 -3 -6 -9 -6 -18 1 -9 7 -35 9 -74 4 -33 -4 -67 -4 -75 1 -12 7 -10 8 7 9 12 0 25 5 29 11 3 6 17 9 30 6 13 -2 22 1 21 7 -1 6 8 12 21 14 12 2 22 8 22 13 0 5 9 9 20 9 11 0 20 5 20 10 0 18 45 10 60 -10 8 -11 21 -20 29 -20 8 0 1 12 -18 30 -17 17 -31 32 -31 35 0 3 141 5 313 5 l312 0 1 -61z"/> <path d="M2775 1610 c-8 -13 15 -24 27 -12 6 6 4 11 -6 15 -8 3 -18 2 -21 -3z"/> <path d="M2745 1580 c3 -5 11 -10 16 -10 6 0 7 5 4 10 -3 6 -11 10 -16 10 -6 0 -7 -4 -4 -10z"/> <path d="M2875 1580 c3 -5 8 -10 11 -10 2 0 4 5 4 10 0 6 -5 10 -11 10 -5 0 -7 -4 -4 -10z"/> <path d="M680 1670 c-13 -8 -12 -10 3 -10 9 0 17 5 17 10 0 12 -1 12 -20 0z"/> <path d="M1160 1612 c0 -5 11 -12 25 -15 16 -3 24 0 22 7 -4 14 -47 21 -47 8z"/> <path d="M567 1592 c12 -11 19 -23 15 -26 -3 -4 2 -4 12 0 19 7 14 13 -29 35 -17 9 -17 8 2 -9z"/> <path d="M1111 1594 c0 -11 3 -14 6 -6 3 7 2 16 -1 19 -3 4 -6 -2 -5 -13z"/> <path d="M1065 1580 c-3 -5 -1 -10 4 -10 6 0 11 5 11 10 0 6 -2 10 -4 10 -3 0 -8 -4 -11 -10z"/> <path d="M1020 1570 c-9 -6 -10 -10 -3 -10 6 0 15 5 18 10 8 12 4 12 -15 0z"/> <path d="M1135 1570 c-3 -5 -1 -10 4 -10 6 0 11 5 11 10 0 6 -2 10 -4 10 -3 0 -8 -4 -11 -10z"/> <path d="M1205 1559 c4 -5 16 -9 27 -9 26 0 19 9 -11 15 -12 2 -19 0 -16 -6z"/> <path d="M1058 1553 c-21 -5 -24 -23 -4 -23 8 0 16 7 20 15 3 8 4 14 3 14 -1 -1 -10 -3 -19 -6z"/> <path d="M1095 1520 c3 -5 8 -10 11 -10 2 0 4 5 4 10 0 6 -5 10 -11 10 -5 0 -7 -4 -4 -10z"/> <path d="M1012 1509 c2 -6 8 -10 13 -10 5 0 11 4 13 10 2 6 -4 11 -13 11 -9 0 -15 -5 -13 -11z"/> <path d="M1102 1464 c-24 -11 -38 -11 -52 -4 -15 8 -18 8 -14 -4 6 -15 -70 -46 -111 -46 -11 0 -25 -4 -30 -8 -17 -13 -84 -34 -94 -28 -5 3 -11 -1 -15 -9 -3 -8 -12 -15 -21 -15 -8 0 -23 -4 -33 -10 -39 -22 -157 -60 -187 -60 -30 0 -111 -20 -160 -40 -44 -18 -92 -32 -125 -37 -38 -6 -63 -21 -55 -33 9 -15 177 30 298 79 19 8 34 8 47 1 14 -8 32 -4 72 13 29 13 80 34 113 46 33 13 69 27 80 32 23 9 136 46 245 79 82 25 99 35 85 49 -6 5 -24 2 -43 -5z"/> <path d="M1170 1470 c0 -5 5 -10 11 -10 5 0 7 5 4 10 -3 6 -8 10 -11 10 -2 0 -4 -4 -4 -10z"/> <path d="M3097 1473 c-6 -5 -786 -13 -1207 -12 -272 0 -511 0 -530 0 -46 -2 -192 -21 -202 -27 -4 -3 -8 -39 -8 -79 l0 -74 47 3 c27 3 545 5 1153 6 608 1 1107 3 1110 5 3 2 4 43 2 92 l-3 88 -180 0 c-100 0 -181 -1 -182 -2z m217 -40 c3 -7 10 -13 15 -13 6 0 8 7 5 15 -4 8 -1 15 5 15 6 0 11 -6 12 -12 0 -10 2 -10 6 0 2 6 20 12 40 12 l35 0 -4 -45 c-2 -25 0 -45 4 -45 5 0 8 -7 8 -15 0 -11 -12 -15 -42 -16 -24 0 -178 -2 -343 -5 -637 -10 -1867 -6 -1878 5 -9 9 -8 17 2 33 10 16 10 22 1 28 -17 11 -3 30 21 30 10 0 19 3 19 8 0 5 1128 8 1535 3 151 -2 466 6 472 12 11 12 82 4 87 -10z"/> <path d="M1240 1410 c0 -6 7 -10 15 -10 8 0 15 2 15 4 0 2 -7 6 -15 10 -8 3 -15 1 -15 -4z"/> <path d="M1320 1410 c0 -6 7 -10 15 -10 8 0 15 2 15 4 0 2 -7 6 -15 10 -8 3 -15 1 -15 -4z"/> <path d="M2385 1410 c3 -5 8 -10 11 -10 2 0 4 5 4 10 0 6 -5 10 -11 10 -5 0 -7 -4 -4 -10z"/> <path d="M2880 1410 c0 -13 11 -13 30 0 12 8 11 10 -7 10 -13 0 -23 -4 -23 -10z"/> <path d="M1508 1403 c7 -3 16 -2 19 1 4 3 -2 6 -13 5 -11 0 -14 -3 -6 -6z"/> <path d="M1200 1380 c0 -6 7 -10 15 -10 8 0 15 2 15 4 0 2 -7 6 -15 10 -8 3 -15 1 -15 -4z"/> <path d="M2348 1383 c7 -3 16 -2 19 1 4 3 -2 6 -13 5 -11 0 -14 -3 -6 -6z"/> <path d="M750 1460 c0 -5 5 -10 10 -10 6 0 10 5 10 10 0 6 -4 10 -10 10 -5 0 -10 -4 -10 -10z"/> <path d="M785 1430 c3 -5 12 -7 20 -3 21 7 19 13 -6 13 -11 0 -18 -4 -14 -10z"/> <path d="M670 1406 c14 -8 27 -12 29 -10 6 6 -1 11 -29 18 l-25 7 25 -15z"/> <path d="M705 1360 c4 -6 11 -8 16 -5 14 9 11 15 -7 15 -8 0 -12 -5 -9 -10z"/> <path d="M1000 1340 c0 -5 5 -10 11 -10 5 0 7 5 4 10 -3 6 -8 10 -11 10 -2 0 -4 -4 -4 -10z"/> <path d="M155 1330 c-3 -5 -1 -10 4 -10 6 0 11 5 11 10 0 6 -2 10 -4 10 -3 0 -8 -4 -11 -10z"/> <path d="M463 1313 c-10 -10 -14 -15 -8 -11 7 4 14 5 17 2 3 -2 8 2 11 11 8 19 4 19 -20 -2z"/> <path d="M588 1323 c7 -3 16 -2 19 1 4 3 -2 6 -13 5 -11 0 -14 -3 -6 -6z"/> <path d="M876 1307 c3 -10 9 -15 12 -12 3 3 0 11 -7 18 -10 9 -11 8 -5 -6z"/> <path d="M375 1280 c3 -5 12 -7 20 -3 21 7 19 13 -6 13 -11 0 -18 -4 -14 -10z"/> <path d="M3566 1253 c-6 -14 -5 -15 5 -6 7 7 10 15 7 18 -3 3 -9 -2 -12 -12z"/> <path d="M3429 1246 c-11 -10 -1938 -22 -2219 -15 l-55 2 -5 -87 -5 -86 1159 2 1159 3 0 84 c0 64 -4 86 -15 92 -8 5 -17 7 -19 5z m-4 -45 c-3 -11 -1 -22 4 -26 7 -3 7 -14 1 -30 -6 -16 -5 -25 3 -28 7 -2 10 -7 7 -10 -10 -11 -491 -19 -1381 -24 l-877 -5 -4 54 c-2 29 -3 56 -2 59 2 3 317 7 701 7 384 1 766 2 850 3 83 1 156 -2 162 -5 6 -4 11 -2 11 3 0 7 86 12 253 14 138 1 258 3 265 5 9 1 11 -4 7 -17z"/> <path d="M3560 1167 c0 -7 9 -13 20 -13 11 0 20 1 20 3 0 1 -9 7 -20 13 -15 8 -20 8 -20 -3z"/> <path d="M1105 1030 c3 -5 10 -10 16 -10 5 0 9 5 9 10 0 6 -7 10 -16 10 -8 0 -12 -4 -9 -10z"/> <path d="M2408 903 c7 -3 16 -2 19 1 4 3 -2 6 -13 5 -11 0 -14 -3 -6 -6z"/> <path d="M2373 820 c-11 -19 -24 -28 -37 -27 -20 2 -21 -3 -22 -112 l-1 -113 43 6 c38 5 42 3 37 -12 -7 -16 -6 -16 19 0 15 10 29 13 34 8 13 -13 31 1 36 25 3 18 -3 20 -50 23 -48 3 -53 5 -50 25 2 18 9 22 43 22 34 0 41 4 43 22 3 20 -2 22 -45 25 -39 2 -47 6 -45 21 2 9 -2 17 -8 17 -6 0 -8 5 -5 10 4 7 11 8 18 1 23 -18 79 -17 91 2 13 21 -9 41 -34 30 -31 -13 -70 -15 -70 -4 0 6 9 11 19 11 11 0 23 5 26 10 3 6 15 10 26 10 34 0 15 25 -19 27 -25 1 -35 -5 -49 -27z m-5 -142 c-7 -4 -17 -8 -23 -8 -5 0 -3 5 5 10 10 6 11 10 3 10 -7 0 -13 7 -13 17 0 14 2 14 20 -2 16 -14 17 -20 8 -27z m-8 -71 c0 -5 -4 -5 -10 -2 -5 3 -10 14 -10 23 0 15 2 15 10 2 5 -8 10 -19 10 -23z"/> <path d="M2607 823 c-4 -3 -7 -11 -7 -17 0 -6 5 -5 12 2 6 6 9 14 7 17 -3 3 -9 2 -12 -2z"/> <path d="M3243 793 c-9 -23 4 -38 33 -38 l29 0 0 -80 c0 -86 6 -105 34 -105 30 0 36 17 31 95 -3 42 -3 81 0 86 3 4 19 7 35 6 24 -2 31 2 33 20 3 21 -1 22 -94 25 -69 2 -98 0 -101 -9z m111 -28 c-5 -12 -10 -13 -20 -4 -19 15 -18 19 6 19 13 0 18 -5 14 -15z"/> <path d="M3500 800 c-18 -4 -21 -8 -11 -14 10 -6 11 -22 6 -61 -4 -35 -2 -55 5 -60 8 -5 8 -11 1 -19 -11 -14 14 -43 55 -64 31 -16 90 -3 119 26 23 22 25 32 25 108 0 77 -2 84 -20 86 -11 0 -26 1 -32 2 -9 1 -13 -20 -14 -71 0 -40 -3 -75 -6 -79 -4 -3 -4 -12 -1 -20 3 -10 -2 -14 -18 -14 -45 1 -54 19 -53 102 1 83 -4 91 -56 78z"/> <path d="M3790 802 c-13 -2 -16 -23 -17 -113 l0 -110 31 3 31 3 -3 60 c-2 33 -7 64 -10 70 -13 20 -11 43 2 48 8 3 17 0 20 -8 3 -10 0 -12 -11 -8 -11 4 -14 2 -9 -5 4 -7 14 -12 22 -12 8 0 14 -6 13 -12 -3 -22 13 -78 22 -78 5 0 9 -6 9 -13 0 -23 35 -47 66 -47 l29 0 -2 112 -1 113 -27 -2 c-15 -1 -30 -5 -33 -8 -3 -3 2 -34 11 -69 19 -72 22 -120 7 -111 -5 3 -10 15 -10 26 0 11 -4 18 -9 15 -5 -3 -12 11 -16 31 -4 21 -15 49 -26 64 -10 15 -19 32 -19 37 0 10 -45 20 -70 14z"/> <path d="M4074 802 c-8 -4 -11 -43 -10 -112 l1 -105 34 -3 c30 -3 33 -1 28 17 -2 11 0 22 7 24 8 3 8 7 -1 18 -7 9 -10 40 -8 84 3 47 0 72 -8 77 -15 10 -29 10 -43 0z"/> <path d="M263 792 c-22 -3 -23 -8 -23 -88 0 -49 4 -84 10 -84 6 0 10 -6 10 -13 0 -33 97 -53 142 -28 33 17 47 55 49 135 2 69 2 70 -26 78 -16 4 -31 5 -33 3 -3 -3 -4 -39 -3 -81 2 -63 -1 -78 -16 -90 -44 -33 -67 1 -64 97 2 70 -3 78 -46 71z"/> <path d="M698 792 c-24 -3 -28 -8 -28 -35 0 -18 7 -41 15 -51 20 -26 19 -62 -1 -70 -22 -8 -25 -8 -23 7 3 15 -6 40 -34 97 -20 41 -25 45 -63 48 l-41 3 0 -110 0 -109 26 -5 c14 -3 29 -3 33 0 12 7 9 53 -7 113 -19 70 -19 70 5 70 11 0 20 -4 20 -10 0 -5 -4 -10 -10 -10 -5 0 -10 -4 -10 -10 0 -5 7 -10 15 -10 8 0 15 -7 15 -15 0 -8 4 -23 9 -33 5 -9 17 -33 27 -54 14 -29 24 -37 51 -40 19 -2 36 -2 38 1 6 11 4 221 -3 224 -4 1 -19 1 -34 -1z m12 -178 c0 -8 -5 -12 -10 -9 -6 4 -8 11 -5 16 9 14 15 11 15 -7z"/> <path d="M824 788 c-4 -7 -8 -59 -9 -115 0 -108 5 -121 46 -108 15 5 17 18 16 118 -2 106 -3 112 -24 115 -11 2 -25 -3 -29 -10z"/> <path d="M935 791 c-3 -5 4 -26 14 -48 10 -21 27 -65 37 -97 25 -76 32 -85 70 -79 24 4 34 12 42 36 26 78 55 153 63 161 5 6 9 15 9 22 0 14 -55 13 -69 -1 -13 -13 -44 -133 -37 -144 3 -4 -3 -16 -14 -26 -18 -16 -19 -15 -16 35 1 28 -2 54 -6 56 -4 3 -8 20 -8 39 0 19 -5 37 -11 41 -19 11 -68 14 -74 5z m182 -73 c-3 -8 -6 -5 -6 6 -1 11 2 17 5 13 3 -3 4 -12 1 -19z"/> <path d="M1232 790 c-13 -9 -11 -218 1 -222 7 -2 45 -2 85 0 69 3 72 5 72 28 0 22 -4 24 -46 24 -25 0 -55 -5 -67 -11 -18 -9 -20 -9 -9 2 6 7 12 21 12 30 0 14 10 19 48 21 41 3 47 6 50 26 4 23 1 24 -51 20 -51 -3 -54 -2 -47 17 6 16 17 20 54 21 54 1 65 8 50 32 -9 13 -26 17 -78 17 -37 0 -71 -2 -74 -5z"/> <path d="M1483 793 l-33 -4 0 -115 c0 -120 0 -120 49 -107 21 5 23 10 17 49 -5 42 -4 44 19 44 21 0 25 -5 25 -27 1 -38 24 -66 56 -68 29 -1 41 12 25 28 -6 6 -11 21 -11 34 0 12 -8 26 -17 32 -17 9 -16 11 5 33 12 14 22 31 22 39 0 23 -38 59 -63 59 -12 0 -31 2 -42 4 -11 2 -35 1 -52 -1z m82 -43 c26 -10 26 -12 12 -33 -8 -12 -20 -23 -26 -23 -6 -1 -19 -2 -29 -3 -10 0 -23 -13 -29 -28 -10 -27 -11 -27 -12 -5 -1 13 9 32 20 41 18 15 20 21 10 39 -10 19 -9 22 8 22 11 0 32 -5 46 -10z m-78 -32 c-3 -7 -5 -2 -5 12 0 14 2 19 5 13 2 -7 2 -19 0 -25z"/> <path d="M1752 787 c-19 -7 -41 -24 -50 -39 -15 -26 -15 -28 7 -52 13 -14 37 -28 54 -32 52 -11 91 -44 52 -44 -8 0 -15 -5 -15 -10 0 -11 -31 -10 -40 1 -3 4 -15 9 -27 13 -16 5 -25 2 -33 -13 -20 -39 51 -63 110 -38 70 31 82 82 26 116 -18 12 -40 21 -49 21 -13 0 -27 19 -27 37 0 2 17 4 38 2 55 -3 62 -1 62 20 0 13 -10 20 -31 25 -38 7 -36 8 -77 -7z m-2 -77 c0 -5 -2 -10 -4 -10 -3 0 -8 5 -11 10 -3 6 -1 10 4 10 6 0 11 -4 11 -10z"/> <path d="M1945 792 c-6 -4 -11 -55 -11 -114 l-1 -108 37 0 37 0 0 108 c0 107 -4 122 -37 122 -8 0 -20 -4 -25 -8z"/> <path d="M2142 793 c-79 -4 -83 -5 -80 -26 2 -18 8 -21 34 -19 l30 3 -3 -90 -3 -91 35 0 35 0 0 90 0 90 36 0 c31 0 35 3 32 22 -3 26 -2 25 -116 21z m23 -32 c3 -5 1 -12 -5 -16 -5 -3 -10 1 -10 9 0 18 6 21 15 7z"/> <path d="M2651 685 l0 -115 42 0 c94 1 167 34 174 80 17 106 -29 150 -159 150 l-57 0 0 -115z m108 69 c45 -9 65 -50 45 -90 -21 -41 -27 -45 -67 -49 l-35 -3 3 71 c2 40 4 73 4 75 2 4 16 2 50 -4z"/> <path d="M2935 777 c1 -13 5 -28 9 -35 4 -7 4 -12 -1 -12 -11 0 -9 -139 3 -149 5 -4 42 -6 82 -3 67 4 72 6 72 27 0 22 -3 23 -60 18 -63 -6 -67 -4 -50 28 8 15 22 19 61 19 47 0 50 2 47 23 -3 19 -9 22 -48 22 -34 0 -45 4 -48 17 -3 14 6 17 45 20 41 3 48 6 51 26 3 21 1 22 -80 22 -81 0 -84 -1 -83 -23z m59 -83 c4 -10 1 -14 -6 -12 -15 5 -23 28 -10 28 5 0 13 -7 16 -16z"/> <path d="M4222 784 c-15 -10 -22 -25 -22 -47 0 -34 20 -50 94 -77 l29 -11 -21 -15 c-17 -12 -30 -13 -58 -5 -45 12 -56 7 -45 -21 22 -60 172 -28 171 36 -1 38 -46 76 -89 76 -22 0 -25 8 -15 33 4 12 12 13 41 5 39 -11 38 -11 47 20 7 21 5 22 -51 22 -37 0 -67 -6 -81 -16z"/> <path d="M3138 773 c7 -3 16 -2 19 1 4 3 -2 6 -13 5 -11 0 -14 -3 -6 -6z"/> <path d="M3190 760 c0 -5 5 -10 11 -10 5 0 7 5 4 10 -3 6 -8 10 -11 10 -2 0 -4 -4 -4 -10z"/> <path d="M4400 760 c0 -5 5 -10 10 -10 6 0 10 5 10 10 0 6 -4 10 -10 10 -5 0 -10 -4 -10 -10z"/> <path d="M4460 720 c0 -5 5 -10 10 -10 6 0 10 5 10 10 0 6 -4 10 -10 10 -5 0 -10 -4 -10 -10z"/> <path d="M158 693 c7 -3 16 -2 19 1 4 3 -2 6 -13 5 -11 0 -14 -3 -6 -6z"/> <path d="M2570 680 c0 -5 7 -7 15 -4 8 4 15 8 15 10 0 2 -7 4 -15 4 -8 0 -15 -4 -15 -10z"/> <path d="M3220 632 c0 -4 9 -8 20 -9 11 -1 18 2 15 8 -7 11 -35 12 -35 1z"/> <path d="M930 609 c0 -5 5 -7 10 -4 6 3 10 8 10 11 0 2 -4 4 -10 4 -5 0 -10 -5 -10 -11z"/> <path d="M2055 610 c3 -5 10 -10 16 -10 5 0 9 5 9 10 0 6 -7 10 -16 10 -8 0 -12 -4 -9 -10z"/> <path d="M170 600 c0 -5 5 -10 10 -10 6 0 10 5 10 10 0 6 -4 10 -10 10 -5 0 -10 -4 -10 -10z"/> <path d="M2880 590 c0 -5 5 -10 11 -10 5 0 7 5 4 10 -3 6 -8 10 -11 10 -2 0 -4 -4 -4 -10z"/> <path d="M218 573 c7 -3 16 -2 19 1 4 3 -2 6 -13 5 -11 0 -14 -3 -6 -6z"/> <path d="M2055 570 c-3 -6 1 -7 9 -4 18 7 21 14 7 14 -6 0 -13 -4 -16 -10z"/> <path d="M4370 576 c0 -9 30 -14 35 -6 4 6 -3 10 -14 10 -12 0 -21 -2 -21 -4z"/> <path d="M445 560 c-3 -5 3 -10 14 -10 10 0 22 -6 24 -12 4 -10 6 -10 6 -1 1 17 -36 36 -44 23z"/> <path d="M1865 560 c-3 -5 -1 -10 4 -10 6 0 11 5 11 10 0 6 -2 10 -4 10 -3 0 -8 -4 -11 -10z"/> <path d="M3410 560 c0 -5 9 -10 21 -10 11 0 17 5 14 10 -3 6 -13 10 -21 10 -8 0 -14 -4 -14 -10z"/> <path d="M4440 560 c0 -5 5 -10 10 -10 6 0 10 5 10 10 0 6 -4 10 -10 10 -5 0 -10 -4 -10 -10z"/> <path d="M3991 551 c-8 -6 -9 -11 -3 -15 6 -3 14 -1 17 5 9 14 2 20 -14 10z"/> <path d="M4155 544 c9 -9 19 -13 23 -10 3 4 0 11 -8 16 -24 15 -33 11 -15 -6z"/> <path d="M745 540 c-3 -5 -2 -10 4 -10 5 0 13 5 16 10 3 6 2 10 -4 10 -5 0 -13 -4 -16 -10z"/> <path d="M2850 546 c0 -2 7 -7 16 -10 8 -3 12 -2 9 4 -6 10 -25 14 -25 6z"/> <path d="M4395 540 c-3 -5 -1 -10 4 -10 6 0 11 5 11 10 0 6 -2 10 -4 10 -3 0 -8 -4 -11 -10z"/> <path d="M1825 530 c3 -5 8 -10 11 -10 2 0 4 5 4 10 0 6 -5 10 -11 10 -5 0 -7 -4 -4 -10z"/> <path d="M2480 531 c0 -10 19 -25 25 -20 1 2 -3 10 -11 17 -8 7 -14 8 -14 3z"/> <path d="M3511 514 c0 -11 3 -14 6 -6 3 7 2 16 -1 19 -3 4 -6 -2 -5 -13z"/> <path d="M1786 495 c-16 -12 -17 -15 -4 -15 8 0 21 7 28 15 16 19 1 19 -24 0z"/> <path d="M2340 499 c0 -5 5 -7 10 -4 6 3 10 8 10 11 0 2 -4 4 -10 4 -5 0 -10 -5 -10 -11z"/> <path d="M1710 490 c0 -5 5 -10 10 -10 6 0 10 5 10 10 0 6 -4 10 -10 10 -5 0 -10 -4 -10 -10z"/> <path d="M1248 483 c7 -3 16 -2 19 1 4 3 -2 6 -13 5 -11 0 -14 -3 -6 -6z"/> <path d="M2498 471 c-13 -18 -19 -19 -49 -11 -28 8 -39 7 -59 -9 -42 -31 -36 -46 21 -58 46 -9 54 -8 70 8 11 11 30 19 44 19 15 0 25 6 25 14 0 15 24 28 34 19 3 -4 -3 -13 -15 -21 -11 -7 -19 -18 -17 -24 5 -15 -58 -78 -78 -78 -29 0 -142 -58 -140 -72 5 -33 18 -38 106 -38 52 0 92 4 95 11 4 6 20 -4 40 -24 23 -23 45 -36 72 -39 56 -8 182 -1 230 13 32 9 50 8 80 -2 53 -17 297 -16 318 1 13 11 26 11 63 2 26 -7 79 -13 117 -15 l70 -2 3 35 c3 36 -7 51 -59 95 -34 28 -85 22 -172 -20 -61 -30 -87 -36 -148 -38 -71 -3 -99 -10 -99 -25 0 -11 119 -6 172 7 44 10 111 42 133 62 5 5 25 9 45 9 42 0 100 -46 100 -79 0 -19 -5 -21 -68 -21 -37 0 -72 4 -77 9 -16 15 -103 18 -98 4 6 -16 -272 -19 -282 -3 -8 13 -112 13 -120 0 -4 -6 -53 -10 -115 -10 l-108 0 -36 36 c-33 33 -38 35 -68 25 -41 -13 -164 -10 -161 4 1 6 11 11 23 13 11 2 20 8 20 13 0 5 9 9 20 9 11 0 20 5 20 10 0 6 13 10 29 10 16 0 31 3 33 8 2 4 16 18 32 32 l29 25 -5 -27 c-4 -19 -1 -28 8 -28 8 0 14 -10 14 -24 0 -31 51 -86 82 -87 64 -3 111 1 122 10 7 6 15 9 18 6 3 -3 19 0 36 6 35 12 33 34 -2 25 -26 -6 -55 9 -41 23 10 10 63 13 168 12 50 -1 58 -4 55 -18 -2 -10 -13 -22 -26 -28 -29 -13 -28 -22 3 -28 14 -2 24 -2 21 0 -3 3 6 17 19 31 37 40 17 59 -71 67 -134 13 -223 -13 -196 -56 7 -10 12 -20 12 -22 0 -3 -101 -2 -137 2 -7 0 -13 8 -13 16 0 8 -4 15 -10 15 -5 0 -10 8 -10 17 0 26 -24 87 -38 96 -16 10 2 47 23 47 23 0 17 30 -7 39 -59 22 -86 23 -100 2z m37 -21 c3 -5 -3 -10 -15 -10 -12 0 -18 5 -15 10 3 6 10 10 15 10 5 0 12 -4 15 -10z m-65 -20 c0 -5 -5 -12 -11 -15 -13 -9 -61 3 -55 13 6 11 66 13 66 2z"/> <path d="M3562 458 l-42 -32 30 -19 c22 -14 29 -25 25 -37 -3 -10 -1 -21 5 -25 5 -3 10 -28 10 -54 0 -57 23 -107 53 -117 12 -4 79 -6 150 -5 70 1 127 -1 127 -4 0 -10 -28 -35 -39 -35 -17 0 -13 -18 7 -28 9 -6 35 -12 57 -16 32 -5 45 -2 65 15 24 20 24 21 5 35 -22 16 -65 19 -65 4 0 -5 12 -10 27 -10 26 0 26 -1 7 -14 -10 -8 -23 -11 -29 -6 -5 4 -19 9 -30 11 -18 4 -18 5 5 27 24 22 31 23 180 21 l155 -3 0 34 c0 32 -2 35 -35 37 -19 2 -53 12 -75 22 -63 31 -166 62 -220 68 -39 4 -61 0 -98 -17 -71 -33 -62 -50 26 -50 72 0 127 -15 127 -35 0 -5 18 -10 40 -10 49 -1 39 16 -22 35 -24 7 -47 17 -52 22 -6 4 -37 8 -70 9 -58 1 -59 1 -26 11 38 11 156 2 165 -13 4 -5 15 -9 25 -9 11 0 43 -11 73 -24 29 -14 66 -27 82 -29 16 -2 31 -9 33 -15 4 -12 -126 -16 -437 -12 -170 2 -180 7 -181 97 0 28 -4 55 -10 58 -5 3 -10 17 -10 31 0 13 -9 29 -20 36 -26 17 -25 22 5 36 22 10 25 9 25 -8 0 -10 5 -22 10 -25 6 -3 10 -34 11 -68 2 -132 19 -143 216 -145 101 0 133 2 124 11 -6 6 -69 13 -151 17 -77 3 -143 10 -147 14 -4 4 -9 39 -11 79 -2 40 -7 81 -11 92 -18 45 -35 75 -41 75 -3 0 -25 -14 -48 -32z"/> <path d="M2315 450 c-3 -5 1 -10 10 -10 9 0 13 5 10 10 -3 6 -8 10 -10 10 -2 0 -7 -4 -10 -10z"/> <path d="M2710 446 c0 -9 5 -16 10 -16 6 0 10 4 10 9 0 6 -4 13 -10 16 -5 3 -10 -1 -10 -9z"/> <path d="M1340 441 c0 -5 5 -13 10 -16 6 -3 10 -2 10 4 0 5 -4 13 -10 16 -5 3 -10 2 -10 -4z"/> <path d="M1893 421 c-24 -22 -43 -27 -43 -11 0 15 -38 12 -65 -6 -42 -27 -27 -54 30 -54 13 0 25 -5 27 -11 2 -6 15 -1 31 11 20 16 37 21 60 17 35 -5 87 19 87 40 0 7 -3 13 -7 14 -5 0 -15 2 -23 5 -55 16 -76 15 -97 -5z m71 -16 c18 -14 17 -15 -23 -15 -38 0 -42 2 -31 15 15 19 29 19 54 0z m-124 -15 c0 -5 10 -10 23 -10 15 0 18 -3 9 -8 -14 -10 -72 -3 -72 7 0 12 12 21 27 21 7 0 13 -4 13 -10z"/> <path d="M1737 423 c-4 -3 -7 -11 -7 -17 0 -6 5 -5 12 2 6 6 9 14 7 17 -3 3 -9 2 -12 -2z"/> <path d="M1213 401 c-41 -34 -24 -51 50 -51 41 1 77 18 77 37 0 8 -77 34 -98 33 -4 -1 -17 -9 -29 -19z m63 -16 c18 -13 16 -14 -20 -15 -33 0 -37 2 -26 15 15 19 21 19 46 0z"/> <path d="M3461 397 c2 -1 13 -9 24 -17 19 -14 19 -14 6 3 -7 9 -18 17 -24 17 -6 0 -8 -1 -6 -3z"/> <path d="M854 365 c-10 -8 -14 -15 -8 -15 6 0 17 7 24 15 16 19 9 19 -16 0z"/> <path d="M2258 373 c7 -3 16 -2 19 1 4 3 -2 6 -13 5 -11 0 -14 -3 -6 -6z"/> <path d="M2315 370 c3 -5 8 -10 11 -10 2 0 4 5 4 10 0 6 -5 10 -11 10 -5 0 -7 -4 -4 -10z"/> <path d="M3098 373 c7 -3 16 -2 19 1 4 3 -2 6 -13 5 -11 0 -14 -3 -6 -6z"/> <path d="M725 359 c-4 -6 -5 -12 -2 -15 2 -3 7 2 10 11 7 17 1 20 -8 4z"/> <path d="M1040 360 c-9 -6 -10 -10 -3 -10 6 0 15 5 18 10 8 12 4 12 -15 0z"/> <path d="M1615 349 c11 -13 21 -26 22 -28 2 -2 3 2 3 10 0 8 -10 20 -22 28 l-23 14 20 -24z"/> <path d="M350 340 c0 -5 5 -10 10 -10 6 0 10 5 10 10 0 6 -4 10 -10 10 -5 0 -10 -4 -10 -10z"/> <path d="M1000 340 c0 -5 5 -10 11 -10 5 0 7 5 4 10 -3 6 -8 10 -11 10 -2 0 -4 -4 -4 -10z"/> <path d="M2275 340 c-3 -5 -2 -10 4 -10 5 0 13 5 16 10 3 6 2 10 -4 10 -5 0 -13 -4 -16 -10z"/> <path d="M3055 340 c3 -5 8 -10 11 -10 2 0 4 5 4 10 0 6 -5 10 -11 10 -5 0 -7 -4 -4 -10z"/> <path d="M3290 340 c0 -5 5 -10 10 -10 6 0 10 5 10 10 0 6 -4 10 -10 10 -5 0 -10 -4 -10 -10z"/> <path d="M695 330 c3 -5 11 -10 16 -10 6 0 7 5 4 10 -3 6 -11 10 -16 10 -6 0 -7 -4 -4 -10z"/> <path d="M1944 315 c-28 -25 -28 -26 -10 -40 11 -8 25 -15 32 -15 6 0 14 -7 17 -15 5 -12 -7 -14 -71 -14 -95 1 -112 5 -112 29 0 29 -55 53 -102 46 -42 -7 -67 -26 -88 -65 -11 -22 -10 -27 14 -48 15 -13 38 -23 52 -23 13 0 24 -3 24 -7 0 -11 -50 -33 -71 -33 -10 0 -21 -5 -25 -11 -4 -7 -44 -10 -113 -9 -136 3 -136 3 -122 -14 15 -17 94 -29 201 -29 99 0 116 3 153 26 15 9 38 24 52 32 14 9 25 22 25 29 0 11 23 14 113 14 61 0 119 0 128 1 12 1 16 13 18 55 1 48 -2 57 -30 85 -37 38 -48 38 -85 6z m73 -36 c7 -13 13 -39 13 -57 l0 -33 -113 2 c-114 2 -139 -3 -149 -32 -4 -9 -27 -29 -53 -44 -40 -23 -61 -28 -134 -30 -76 -3 -80 -3 -31 5 81 12 129 26 149 44 10 9 22 16 28 16 6 0 14 7 17 16 4 12 1 14 -14 9 -11 -4 -20 -2 -20 4 0 6 -11 11 -24 11 -54 0 -57 68 -3 88 21 8 35 8 41 2 6 -6 19 -10 29 -10 12 0 17 -5 14 -14 -9 -24 60 -50 128 -49 92 1 104 3 110 14 4 5 2 16 -4 23 -6 7 -8 16 -4 20 4 4 -3 9 -15 13 -24 6 -29 19 -9 26 20 8 31 2 44 -24z"/> <path d="M1693 253 c-18 -7 -16 -33 2 -33 8 0 15 5 15 10 0 6 5 10 11 10 6 0 9 -8 6 -19 -3 -14 0 -17 14 -14 11 3 19 9 19 13 0 7 -45 41 -52 39 -2 0 -9 -3 -15 -6z"/> <path d="M2759 323 c-13 -16 -12 -17 4 -4 9 7 17 15 17 17 0 8 -8 3 -21 -13z"/> <path d="M1270 309 c-24 -20 -24 -21 -5 -35 10 -8 24 -14 31 -14 6 0 17 -7 24 -15 17 -21 24 -12 10 14 -6 12 -18 21 -26 21 -9 0 -14 6 -11 13 5 16 43 16 40 0 -2 -7 4 -10 12 -7 12 5 15 -4 15 -45 l0 -51 -168 0 c-115 0 -172 4 -180 12 -9 9 -18 9 -37 0 -14 -7 -52 -12 -84 -12 -51 0 -61 -3 -75 -25 -54 -83 -314 -113 -443 -52 -17 8 -23 19 -23 44 0 40 15 44 23 6 10 -48 59 -60 212 -52 121 6 173 17 201 44 18 18 25 47 13 61 -6 7 -8 17 -5 22 3 6 -2 9 -12 8 -11 0 -18 7 -20 22 -2 14 2 22 11 22 17 0 47 -32 47 -51 0 -28 33 -38 88 -27 73 15 67 32 -8 25 -51 -6 -60 -4 -60 9 0 24 -39 74 -57 74 -20 0 -64 -51 -55 -64 3 -6 16 -19 29 -29 13 -10 23 -26 23 -36 0 -19 -38 -41 -70 -41 -10 0 -22 -5 -25 -10 -11 -17 -227 -12 -263 6 -30 14 -46 54 -22 54 6 0 10 5 10 11 0 6 11 20 25 31 29 23 25 38 -11 38 -25 0 -73 -44 -74 -66 0 -7 -7 -14 -15 -18 -25 -9 -19 -78 8 -97 54 -40 246 -52 358 -23 67 17 104 37 131 69 21 26 49 28 403 22 l150 -2 -2 55 c-1 30 -2 58 -2 62 -2 16 -46 48 -65 48 -12 -1 -32 -10 -46 -21z m-880 -99 c0 -5 -4 -10 -10 -10 -5 0 -10 5 -10 10 0 6 5 10 10 10 6 0 10 -4 10 -10z"/> <path d="M2240 319 c0 -5 5 -7 10 -4 6 3 10 8 10 11 0 2 -4 4 -10 4 -5 0 -10 -5 -10 -11z"/> <path d="M2307 316 c-12 -9 -14 -16 -8 -21 6 -3 11 -1 11 4 0 6 7 11 15 11 8 0 15 5 15 10 0 14 -11 12 -33 -4z"/> <path d="M3091 314 c0 -11 3 -14 6 -6 3 7 2 16 -1 19 -3 4 -6 -2 -5 -13z"/> <path d="M1054 302 c-22 -19 -21 -42 3 -42 8 0 13 -6 10 -12 -5 -15 -39 -11 -49 5 -21 37 -36 50 -52 44 -9 -4 -16 -15 -16 -26 0 -23 22 -40 28 -22 3 8 9 6 18 -7 17 -25 70 -34 86 -15 8 10 8 17 0 25 -17 17 -15 38 3 32 8 -4 15 -15 15 -25 0 -10 5 -19 11 -19 5 0 8 -4 4 -9 -3 -5 -1 -12 4 -16 17 -10 170 -15 176 -6 3 5 15 7 28 4 18 -3 19 -2 6 6 -9 6 -49 11 -90 12 -96 2 -109 6 -109 31 0 17 -35 57 -50 57 -3 0 -14 -7 -26 -17z"/> <path d="M2535 300 c-3 -5 -18 -10 -33 -10 -28 0 -60 -15 -52 -24 9 -9 105 19 108 32 2 14 -14 16 -23 2z"/> <path d="M345 290 c-3 -6 1 -7 9 -4 18 7 21 14 7 14 -6 0 -13 -4 -16 -10z"/> <path d="M1213 278 c-2 -16 1 -18 10 -9 7 7 8 14 1 21 -6 6 -10 2 -11 -12z"/> <path d="M3118 283 c7 -3 16 -2 19 1 4 3 -2 6 -13 5 -11 0 -14 -3 -6 -6z"/> <path d="M2905 270 c-4 -6 -4 -10 -1 -10 2 0 11 -3 20 -6 9 -3 16 -2 16 4 0 14 -28 23 -35 12z"/> <path d="M3362 262 l-23 -18 26 -12 c14 -7 43 -12 63 -11 20 0 31 3 25 6 -7 2 -13 12 -13 21 0 12 -3 13 -12 4 -15 -15 -58 -16 -58 -2 0 6 12 10 26 10 14 0 23 4 19 10 -9 15 -27 12 -53 -8z"/> <path d="M4075 230 c3 -5 8 -10 11 -10 2 0 4 5 4 10 0 6 -5 10 -11 10 -5 0 -7 -4 -4 -10z"/> <path d="M1540 210 c0 -5 5 -10 11 -10 5 0 7 5 4 10 -3 6 -8 10 -11 10 -2 0 -4 -4 -4 -10z"/> <path d="M4118 213 c7 -3 16 -2 19 1 4 3 -2 6 -13 5 -11 0 -14 -3 -6 -6z"/> <path d="M2440 140 c0 -5 7 -10 15 -10 8 0 15 5 15 10 0 6 -7 10 -15 10 -8 0 -15 -4 -15 -10z"/> <path d="M1835 120 c4 -6 11 -8 16 -5 14 9 11 15 -7 15 -8 0 -12 -5 -9 -10z"/> <path d="M2631 114 c0 -11 3 -14 6 -6 3 7 2 16 -1 19 -3 4 -6 -2 -5 -13z"/> <path d="M930 100 c0 -5 5 -10 10 -10 6 0 10 5 10 10 0 6 -4 10 -10 10 -5 0 -10 -4 -10 -10z"/> <path d="M3830 91 c0 -5 5 -13 10 -16 6 -3 10 -2 10 4 0 5 -4 13 -10 16 -5 3 -10 2 -10 -4z"/> <path d="M4030 76 c0 -9 5 -16 10 -16 6 0 10 4 10 9 0 6 -4 13 -10 16 -5 3 -10 -1 -10 -9z"/> <path d="M760 50 c-8 -5 -10 -10 -5 -10 6 0 17 5 25 10 8 5 11 10 5 10 -5 0 -17 -5 -25 -10z"/> <path d="M825 50 c-3 -5 -2 -10 4 -10 5 0 13 5 16 10 3 6 2 10 -4 10 -5 0 -13 -4 -16 -10z"/> </g> </svg>