<?xml version="1.0" standalone="no"?> <!DOCTYPE svg PUBLIC "-//W3C//DTD SVG 20010904//EN" "http://www.w3.org/TR/2001/REC-SVG-20010904/DTD/svg10.dtd"> <svg version="1.0" xmlns="http://www.w3.org/2000/svg" width="600.000000pt" height="664.000000pt" viewBox="0 0 600.000000 664.000000" preserveAspectRatio="xMidYMid meet"> <g transform="translate(0.000000,664.000000) scale(0.100000,-0.100000)" fill="currentColor" stroke="none"> <path d="M2861 6444 c-91 -33 -145 -78 -252 -214 -39 -50 -41 -55 -24 -64 10 -6 33 -23 50 -38 18 -16 37 -28 41 -27 5 0 36 36 69 79 69 91 126 127 217 137 l54 5 78 -63 c91 -72 210 -191 237 -233 30 -49 13 -71 -155 -199 -190 -143 -238 -198 -312 -353 -34 -73 -68 -135 -74 -139 -34 -21 -72 -5 -169 72 -54 43 -115 92 -136 108 -55 43 -64 53 -71 81 -11 44 3 89 50 162 25 39 46 77 46 85 0 20 -73 77 -98 77 -40 0 -122 -110 -177 -238 -28 -64 -79 -169 -114 -232 -128 -232 -152 -280 -145 -292 4 -7 3 -8 -4 -4 -11 7 -28 -25 -140 -266 -28 -59 -73 -148 -101 -198 -29 -50 -49 -95 -45 -101 11 -19 87 -69 103 -69 15 1 101 108 101 126 0 4 6 15 14 23 19 21 136 257 171 345 36 89 98 204 152 283 43 61 105 123 123 123 6 0 43 -31 82 -68 60 -56 121 -107 203 -170 58 -44 114 -96 149 -139 l43 -51 18 31 c59 103 178 275 257 370 121 147 288 282 466 377 33 18 59 37 57 44 -2 6 -9 32 -15 58 -7 28 -17 45 -23 41 -6 -3 -7 -1 -3 5 10 16 -25 79 -97 174 -88 117 -101 130 -205 220 -121 104 -200 142 -302 145 -50 2 -90 -2 -119 -13z m179 -15 c-12 -8 -9 -9 13 -5 17 4 27 2 27 -5 0 -6 9 -9 20 -6 11 3 20 1 20 -4 0 -5 8 -13 18 -16 31 -12 71 -46 65 -56 -3 -6 -1 -7 6 -3 7 5 22 -2 35 -16 13 -12 35 -31 50 -41 15 -10 24 -23 20 -28 -3 -5 -1 -8 3 -7 13 4 97 -77 129 -123 15 -22 23 -43 18 -50 -5 -8 -3 -9 5 -4 8 4 19 -2 29 -16 30 -41 71 -117 65 -122 -2 -3 2 -16 10 -29 26 -39 26 -104 1 -94 -8 3 -13 2 -9 -3 7 -12 -84 -63 -98 -54 -6 3 -7 1 -3 -6 5 -8 -3 -16 -23 -24 -17 -6 -31 -14 -31 -18 0 -4 -25 -22 -55 -40 -30 -18 -55 -37 -55 -42 0 -4 -4 -5 -10 -2 -5 3 -10 1 -10 -4 0 -6 -7 -11 -15 -11 -8 0 -14 -4 -12 -9 1 -4 -32 -44 -74 -88 -62 -65 -80 -78 -94 -71 -14 9 -15 7 -6 -10 8 -15 7 -23 -3 -31 -7 -6 -17 -7 -21 -3 -5 4 -5 1 -1 -6 10 -16 -22 -54 -37 -45 -6 3 -7 1 -3 -5 8 -14 -19 -57 -36 -57 -6 0 -13 -7 -15 -15 -4 -13 -3 -13 6 0 6 8 11 10 11 4 0 -6 -7 -17 -15 -24 -8 -7 -25 -30 -37 -51 -12 -22 -25 -39 -29 -39 -4 0 -9 -8 -12 -17 -10 -29 -57 -109 -57 -96 0 7 -7 10 -15 7 -11 -5 -13 -2 -8 12 4 11 3 15 -4 11 -14 -9 -37 19 -27 34 5 8 2 10 -8 6 -10 -3 -30 8 -55 32 -21 20 -65 57 -98 81 -75 56 -128 100 -118 100 4 0 -2 7 -13 16 -10 8 -13 12 -5 8 9 -4 12 -3 7 4 -4 6 -13 9 -21 5 -15 -5 -21 12 -7 20 4 2 1 2 -7 0 -7 -2 -24 8 -37 22 -13 14 -29 25 -36 25 -10 0 -10 2 1 9 9 6 3 8 -20 6 -18 -1 -44 -12 -57 -24 -13 -11 -28 -19 -33 -16 -5 4 -6 -2 -2 -11 5 -13 3 -16 -10 -11 -12 4 -14 2 -10 -10 5 -12 3 -14 -8 -8 -8 4 -11 5 -7 1 6 -7 -61 -118 -94 -156 -13 -14 -14 -19 -17 -48 0 -7 -5 -11 -10 -8 -5 3 -12 -1 -15 -10 -4 -10 -2 -13 7 -8 8 6 8 3 -1 -9 -19 -23 -52 -88 -41 -81 5 3 6 -2 3 -10 -3 -9 -11 -13 -17 -9 -6 3 -7 1 -3 -6 4 -6 4 -21 0 -34 -7 -21 -7 -21 -15 -2 -6 16 -8 14 -8 -12 -1 -41 -47 -146 -61 -138 -6 3 -7 0 -4 -9 3 -9 1 -16 -6 -16 -6 0 -8 -5 -5 -11 4 -5 1 -18 -7 -27 -13 -17 -31 -47 -53 -89 -7 -13 -15 -20 -18 -16 -4 3 -7 -3 -7 -14 0 -11 -11 -30 -25 -43 -14 -13 -25 -29 -25 -36 0 -8 -6 -11 -17 -7 -11 4 -14 3 -9 -5 4 -7 2 -12 -3 -12 -6 0 -11 5 -11 11 0 5 -4 7 -10 4 -5 -3 -10 -1 -10 6 0 7 -3 9 -6 6 -4 -4 -15 3 -25 15 -20 23 -24 32 -10 24 5 -3 12 6 15 19 4 16 11 23 18 19 6 -4 8 -3 5 3 -8 12 26 86 35 78 3 -4 6 0 5 7 -1 37 4 47 20 41 11 -5 14 -3 8 6 -4 7 -3 23 3 34 6 12 13 29 16 37 3 8 10 22 15 30 26 46 41 80 41 93 0 9 7 22 15 31 9 8 15 19 14 23 -1 4 1 16 6 26 6 15 10 16 17 5 6 -9 7 -6 3 10 -4 14 -1 28 9 38 9 9 13 20 10 26 -4 7 -2 8 5 4 7 -5 17 6 27 31 35 87 69 145 79 135 4 -4 6 0 2 9 -3 9 2 25 12 35 9 11 19 24 22 29 2 6 7 9 10 8 4 -1 5 6 2 16 -3 11 4 27 17 39 12 11 19 25 16 30 -3 5 9 25 27 45 30 31 35 33 45 18 9 -12 9 -9 0 12 l-12 28 -13 -23 c-7 -13 -12 -20 -13 -15 0 4 20 46 45 93 25 47 41 83 36 79 -6 -3 -6 6 0 25 6 16 14 30 18 30 4 0 13 12 20 27 7 15 26 44 42 65 25 30 37 38 64 38 33 0 61 -20 47 -35 -4 -5 -2 -5 5 -1 6 3 14 2 18 -4 8 -14 -36 -91 -48 -83 -10 6 -27 -14 -27 -32 0 -5 5 -3 10 5 17 27 10 1 -10 -37 -11 -21 -20 -55 -20 -76 0 -58 20 -88 93 -137 20 -14 35 -30 33 -37 -3 -7 0 -10 7 -7 15 5 83 -52 79 -67 -1 -6 2 -7 8 -4 6 4 18 -1 26 -11 9 -11 12 -12 8 -4 -4 8 4 3 18 -12 14 -14 44 -32 66 -39 36 -10 43 -9 69 9 15 11 41 46 56 78 16 33 35 72 43 87 8 16 14 34 14 40 0 7 13 27 29 46 17 19 28 38 26 41 -5 9 32 40 39 33 3 -4 6 0 6 9 0 18 34 51 43 41 4 -3 7 1 7 9 0 9 10 22 23 31 12 8 33 24 46 36 28 24 50 28 31 6 -11 -13 -10 -14 4 -9 9 3 15 12 14 18 -2 7 14 27 35 45 20 18 37 31 37 28 0 -2 17 11 37 29 20 19 42 34 48 34 13 0 14 5 19 70 3 27 -2 55 -11 70 -8 14 -12 17 -8 6 5 -16 3 -17 -10 -6 -8 7 -15 16 -15 21 0 12 -105 114 -179 172 -34 27 -58 54 -54 60 3 5 2 7 -4 4 -6 -4 -28 3 -49 14 -47 24 -72 20 -170 -27 -50 -23 -78 -44 -97 -71 -15 -21 -40 -53 -56 -71 -26 -30 -31 -32 -50 -20 -11 7 -21 16 -21 21 0 4 -4 6 -9 3 -19 -12 -21 27 -1 44 11 9 20 23 20 29 0 7 4 9 10 6 6 -4 7 1 3 11 -5 13 -3 16 10 11 9 -3 19 -1 23 5 4 7 3 8 -4 4 -20 -12 -13 3 14 34 15 16 30 27 34 25 4 -3 10 3 12 13 3 9 22 26 44 37 21 11 45 26 53 33 8 8 22 12 31 9 10 -3 23 -1 30 3 7 4 45 8 84 9 53 0 67 -2 56 -10z"/> <path d="M2803 6303 c0 -8 6 -9 19 -2 10 5 18 11 18 12 0 2 -8 3 -18 3 -10 0 -19 -6 -19 -13z"/> <path d="M2700 6256 c0 -2 8 -10 18 -17 15 -13 16 -12 3 4 -13 16 -21 21 -21 13z"/> <path d="M3370 6181 c0 -6 4 -13 10 -16 6 -3 7 1 4 9 -7 18 -14 21 -14 7z"/> <path d="M2372 5864 c-7 -8 -8 -14 -3 -14 10 0 25 19 20 25 -2 1 -10 -3 -17 -11z"/> <path d="M3080 5690 c-9 -6 -10 -10 -3 -10 6 0 15 5 18 10 8 12 4 12 -15 0z"/> <path d="M2980 5606 c7 -7 13 -7 20 0 6 6 3 10 -10 10 -13 0 -16 -4 -10 -10z"/> <path d="M3144 5498 l-19 -23 23 19 c21 18 27 26 19 26 -2 0 -12 -10 -23 -22z"/> <path d="M2845 5100 c-3 -5 -1 -10 4 -10 6 0 11 5 11 10 0 6 -2 10 -4 10 -3 0 -8 -4 -11 -10z"/> <path d="M3533 5264 c-434 -433 -578 -594 -711 -799 -146 -223 -242 -453 -281 -674 -25 -136 -26 -242 -6 -370 39 -239 129 -406 337 -626 86 -91 301 -280 347 -304 23 -13 426 -13 456 -1 26 11 15 12 -100 14 -50 1 -96 6 -104 11 -11 6 -13 4 -8 -8 9 -25 -5 -21 -54 15 -169 121 -354 351 -426 529 -83 206 -116 502 -75 684 49 221 253 574 476 825 167 189 463 439 641 542 41 23 75 46 75 49 0 4 -51 94 -113 200 -62 107 -118 202 -124 213 -9 16 -48 -19 -330 -300z m331 249 c3 -8 4 -19 1 -24 -4 -5 2 -6 11 -2 13 5 16 3 11 -10 -4 -11 -1 -17 8 -17 8 0 17 -14 21 -35 3 -19 10 -33 14 -30 5 3 12 0 16 -6 4 -8 3 -9 -4 -5 -7 4 -12 4 -13 -1 0 -4 -2 -16 -4 -26 -2 -9 1 -15 6 -11 5 3 6 10 3 16 -4 5 5 2 20 -7 14 -10 26 -22 26 -29 0 -6 -5 -4 -10 4 -5 8 -10 11 -10 6 0 -7 12 -24 60 -82 5 -7 6 -14 3 -17 -9 -9 24 -37 33 -29 5 4 6 3 2 -2 -4 -4 -3 -19 2 -32 7 -19 6 -24 -5 -24 -8 0 -15 -4 -15 -9 0 -5 -11 -12 -25 -15 -13 -3 -34 -16 -45 -28 -11 -12 -20 -17 -20 -11 0 6 -7 14 -16 17 -14 5 -15 4 -4 -9 9 -11 9 -15 1 -15 -7 0 -10 -4 -7 -9 3 -5 -6 -12 -19 -15 -14 -4 -24 -10 -21 -15 3 -4 -5 -7 -18 -6 -13 2 -29 -2 -37 -7 -11 -8 -10 -9 3 -4 10 3 20 1 23 -4 4 -6 -1 -10 -9 -10 -9 0 -19 0 -23 -1 -5 0 -12 -10 -16 -22 -6 -16 -10 -18 -16 -9 -6 10 -12 6 -25 -12 -9 -14 -22 -26 -29 -26 -8 0 -7 4 3 10 8 5 10 10 4 10 -18 0 -24 -12 -13 -26 8 -9 5 -16 -12 -24 -17 -10 -23 -9 -30 1 -5 8 -9 9 -9 3 0 -5 5 -15 10 -22 6 -6 7 -10 4 -7 -4 2 -13 -3 -21 -11 -8 -8 -20 -11 -26 -7 -6 4 -8 0 -4 -10 4 -12 1 -15 -14 -12 -11 2 -17 0 -15 -4 9 -14 -41 -54 -56 -45 -10 6 -10 4 1 -9 7 -9 11 -18 7 -18 -3 -1 -9 -2 -13 -3 -11 -2 -64 -56 -55 -56 3 0 -22 -27 -56 -60 -62 -61 -72 -68 -72 -50 0 5 5 9 12 7 6 -1 13 7 15 18 3 18 2 18 -5 2 -4 -10 -12 -18 -17 -18 -6 1 -10 -7 -11 -17 -1 -20 -22 -62 -30 -62 -3 0 -2 4 1 10 3 6 -1 7 -10 4 -8 -4 -14 -14 -13 -23 2 -9 -3 -15 -9 -14 -7 2 -13 -2 -13 -8 0 -17 -41 -81 -48 -75 -3 3 3 16 14 28 10 13 12 17 4 11 -9 -9 -17 -9 -26 -2 -11 9 -11 4 -4 -23 13 -42 13 -41 -5 -34 -8 3 -14 0 -12 -7 1 -7 -3 -11 -9 -10 -7 1 -10 -5 -8 -15 2 -9 -8 -30 -22 -47 -14 -16 -23 -23 -18 -15 7 13 5 13 -9 1 -19 -15 -23 -26 -6 -15 7 4 10 1 7 -7 -3 -8 -11 -13 -17 -11 -7 1 -10 -2 -7 -7 8 -12 -4 -42 -14 -36 -4 3 -7 -3 -6 -13 0 -11 -6 -16 -17 -16 -13 2 -15 -1 -7 -11 8 -9 6 -14 -5 -19 -8 -3 -15 -12 -15 -21 0 -8 -4 -15 -10 -15 -5 0 -10 -6 -10 -14 0 -7 -10 -26 -22 -42 -13 -15 -16 -24 -8 -19 12 8 12 5 -1 -15 -26 -41 -73 -134 -71 -142 1 -5 -3 -8 -9 -8 -6 0 -8 -9 -4 -21 5 -15 4 -19 -4 -15 -7 5 -11 -2 -12 -16 0 -22 -1 -22 -8 -3 -6 13 -8 4 -7 -30 1 -27 -4 -64 -11 -81 -15 -39 -19 -310 -5 -379 6 -27 18 -76 26 -109 9 -32 13 -63 10 -67 -3 -5 -1 -9 4 -9 5 0 9 -13 10 -29 0 -15 10 -43 21 -62 12 -19 21 -44 21 -56 0 -13 5 -23 10 -23 6 0 10 -6 9 -12 -1 -7 -1 -24 1 -38 1 -21 2 -22 9 -6 6 15 10 11 26 -23 10 -23 29 -54 42 -69 13 -15 23 -31 23 -37 0 -5 -5 -3 -11 5 -9 13 -10 13 -6 0 2 -8 10 -14 17 -12 16 4 41 -29 35 -46 -3 -7 -1 -11 4 -8 5 3 15 -2 22 -11 12 -15 12 -16 -4 -10 -11 4 -16 3 -12 -3 3 -6 11 -10 17 -10 13 0 158 -146 152 -153 -3 -3 5 -8 17 -12 25 -8 49 -29 49 -42 0 -5 -33 -6 -74 -2 -70 7 -116 21 -116 37 0 4 -16 18 -36 31 -19 13 -33 30 -30 37 3 7 -1 15 -9 18 -10 3 -12 0 -8 -12 3 -9 -10 -2 -31 18 -20 19 -34 40 -32 47 3 7 0 15 -6 19 -7 4 -8 3 -4 -4 4 -7 2 -12 -3 -12 -6 0 -11 5 -11 10 0 6 -5 10 -11 10 -7 0 -27 15 -45 34 -18 19 -36 31 -39 27 -4 -3 -5 -1 -3 4 1 6 -17 31 -42 57 -73 76 -112 127 -105 138 4 6 -1 7 -11 3 -13 -5 -16 -3 -11 10 4 11 2 14 -9 10 -10 -4 -12 0 -8 11 3 9 2 16 -3 16 -6 0 -18 17 -29 38 -10 20 -24 44 -31 52 -22 28 -94 222 -100 269 -3 25 -6 88 -7 139 0 50 -4 92 -8 92 -13 0 -9 45 5 59 10 11 9 12 -2 6 -10 -6 -12 -4 -6 5 9 15 16 62 15 103 0 15 5 38 12 50 6 12 12 29 13 37 2 37 18 89 26 84 5 -3 6 2 3 11 -4 8 -2 21 4 28 6 6 13 29 17 50 4 20 11 37 16 37 5 0 9 8 9 19 0 10 15 49 33 87 19 38 39 80 45 94 l12 25 -6 -25 c-4 -19 -3 -22 5 -10 6 8 11 22 11 31 0 42 61 125 83 113 9 -5 9 -3 0 7 -18 18 -16 34 1 20 17 -14 24 -5 21 29 -1 15 10 37 29 58 17 19 31 38 31 42 0 4 15 26 33 49 22 28 38 39 50 35 13 -5 14 -4 3 4 -11 8 -4 19 32 55 25 25 42 49 39 53 -4 5 1 2 11 -6 18 -13 18 -15 1 -27 -10 -7 -13 -13 -8 -13 24 0 33 23 17 46 -8 13 -13 25 -9 25 3 1 11 2 16 3 6 0 14 7 19 14 4 7 20 15 35 18 20 3 25 1 20 -7 -4 -7 -3 -9 3 -6 10 7 11 36 1 52 -3 6 7 25 23 43 16 18 29 29 29 25 0 -5 10 7 22 25 11 19 26 31 34 28 9 -3 11 1 7 12 -3 9 -3 14 2 10 10 -10 47 31 39 44 -3 4 -2 8 3 7 14 -3 43 13 38 21 -2 4 5 16 18 26 l22 19 -20 -25 -20 -25 23 19 c12 11 22 23 22 28 0 5 10 19 21 31 12 12 18 16 14 8 -5 -9 -4 -12 3 -7 7 4 12 13 12 21 0 7 7 16 16 19 9 4 14 9 11 13 -12 11 14 32 30 26 12 -5 14 -3 8 7 -5 8 -4 11 3 6 9 -5 25 9 27 24 1 3 21 25 45 50 24 25 37 36 30 25 -9 -14 -5 -12 12 5 14 14 25 29 24 35 0 5 9 14 22 20 12 5 25 18 28 28 3 10 8 16 11 13 4 -3 11 2 18 11 9 13 14 13 20 3 6 -9 4 -11 -5 -5 -9 5 -11 4 -6 -4 10 -15 29 -3 22 15 -3 7 2 20 10 29 9 8 12 15 8 15 -3 0 -1 6 6 14 13 17 36 11 44 -11z m-684 -668 c-7 -9 -15 -13 -17 -11 -7 7 7 26 19 26 6 0 6 -6 -2 -15z m-322 -400 c-3 -3 -9 2 -12 12 -6 14 -5 15 5 6 7 -7 10 -15 7 -18z"/> <path d="M3816 5485 c-12 -9 -15 -15 -7 -15 8 0 11 -6 7 -16 -3 -9 -2 -12 5 -9 6 4 8 13 5 20 -2 7 1 18 7 24 16 16 6 13 -17 -4z"/> <path d="M3722 5377 c-8 -10 -6 -13 7 -13 11 0 17 6 14 13 -3 7 -6 13 -8 13 -1 0 -7 -6 -13 -13z"/> <path d="M3640 5306 c0 -2 7 -7 16 -10 8 -3 12 -2 9 4 -6 10 -25 14 -25 6z"/> <path d="M3967 5289 c7 -7 15 -10 18 -7 3 3 -2 9 -12 12 -14 6 -15 5 -6 -5z"/> <path d="M3400 5066 c0 -2 7 -7 16 -10 8 -3 12 -2 9 4 -6 10 -25 14 -25 6z"/> <path d="M3387 5049 c7 -7 15 -10 18 -7 3 3 -2 9 -12 12 -14 6 -15 5 -6 -5z"/> <path d="M3705 4920 c-3 -6 1 -7 9 -4 18 7 21 14 7 14 -6 0 -13 -4 -16 -10z"/> <path d="M3219 4903 c-13 -16 -12 -17 4 -4 9 7 17 15 17 17 0 8 -8 3 -21 -13z"/> <path d="M3444 4679 c0 -13 3 -15 13 -7 7 6 13 12 13 13 0 2 -6 5 -13 8 -7 3 -13 -3 -13 -14z"/> <path d="M2776 4307 c3 -10 9 -15 12 -12 3 3 0 11 -7 18 -10 9 -11 8 -5 -6z"/> <path d="M3056 4228 c3 -5 10 -6 15 -3 13 9 11 12 -6 12 -8 0 -12 -4 -9 -9z"/> <path d="M2591 3304 c0 -11 3 -14 6 -6 3 7 2 16 -1 19 -3 4 -6 -2 -5 -13z"/> <path d="M2631 3214 c0 -11 3 -14 6 -6 3 7 2 16 -1 19 -3 4 -6 -2 -5 -13z"/> <path d="M2846 2871 c-3 -5 2 -15 12 -22 15 -12 16 -12 5 2 -7 9 -10 19 -6 22 3 4 4 7 0 7 -3 0 -8 -4 -11 -9z"/> <path d="M3250 2530 c8 -5 20 -10 25 -10 6 0 3 5 -5 10 -8 5 -19 10 -25 10 -5 0 -3 -5 5 -10z"/> <path d="M3683 5481 c0 -11 5 -18 9 -15 4 3 5 11 1 19 -7 21 -12 19 -10 -4z"/> <path d="M3603 5423 c0 -9 4 -10 14 -2 7 6 13 12 13 14 0 1 -6 2 -13 2 -8 0 -14 -6 -14 -14z"/> <path d="M3120 4949 c0 -5 5 -7 10 -4 6 3 10 8 10 11 0 2 -4 4 -10 4 -5 0 -10 -5 -10 -11z"/> <path d="M4119 4933 c-19 -15 -43 -35 -54 -44 -11 -10 -49 -41 -84 -70 -35 -30 -78 -65 -96 -79 -68 -53 -388 -366 -477 -466 -204 -231 -388 -520 -446 -704 -30 -96 -49 -250 -31 -250 7 0 25 117 20 134 -1 4 5 27 13 50 8 22 24 74 36 113 13 43 27 70 33 66 5 -3 7 -1 4 4 -4 6 6 34 22 63 16 29 31 48 33 44 3 -5 3 -3 1 4 -5 22 8 36 19 21 7 -11 8 -9 4 4 -4 11 2 31 14 47 11 15 20 32 20 36 0 4 19 30 42 58 24 27 36 46 28 41 -8 -4 -6 1 5 12 11 11 23 19 27 16 4 -2 5 4 1 13 -5 13 -3 15 7 9 8 -5 11 -3 8 5 -6 18 30 53 44 44 7 -4 8 -3 4 4 -9 15 18 55 29 44 5 -4 6 -2 2 3 -3 6 1 19 9 30 8 10 14 15 14 9 0 -5 8 6 17 24 10 21 21 31 30 28 8 -3 12 -2 9 2 -7 11 72 98 85 94 6 -1 8 2 5 7 -3 5 7 19 23 32 16 13 27 27 24 32 -3 5 3 7 12 5 10 -2 20 4 22 12 4 13 3 13 -6 0 -8 -11 -11 -11 -11 -2 0 7 8 15 18 19 9 3 33 23 53 43 20 20 49 46 64 58 15 12 24 22 20 22 -4 0 9 16 29 35 42 40 48 42 40 18 -5 -15 -4 -15 4 -3 6 8 9 17 6 21 -2 4 12 18 30 33 19 14 41 32 49 40 8 8 18 12 22 8 4 -4 5 -2 3 5 -2 7 20 30 47 52 28 23 57 47 65 54 8 7 38 32 66 54 l51 42 17 -40 c10 -21 22 -36 28 -33 5 4 5 -4 -2 -16 -7 -12 -8 -20 -2 -16 12 7 21 -5 58 -74 16 -30 31 -57 34 -60 3 -3 19 -32 34 -65 15 -33 33 -63 40 -67 8 -6 7 -11 -4 -19 -13 -9 -13 -10 2 -6 10 4 18 -1 21 -12 6 -23 -69 -62 -104 -55 -20 4 -21 3 -5 -4 14 -6 16 -11 8 -16 -7 -4 -17 -4 -24 0 -7 4 -8 3 -4 -4 4 -7 2 -12 -4 -12 -7 0 -23 -9 -37 -19 -13 -11 -32 -17 -41 -14 -15 4 -15 3 -2 -7 13 -10 11 -11 -7 -7 -14 3 -21 0 -20 -7 1 -6 -8 -10 -23 -8 -19 2 -22 0 -10 -8 13 -8 13 -10 -2 -10 -9 0 -23 -6 -30 -13 -26 -26 -88 -58 -98 -52 -6 4 -9 1 -8 -7 2 -7 -5 -12 -15 -11 -10 0 -16 -1 -13 -4 9 -9 -19 -31 -33 -25 -10 4 -12 1 -6 -7 6 -10 2 -11 -16 -6 -16 4 -19 3 -11 -3 10 -7 10 -11 -3 -22 -12 -10 -15 -10 -16 1 0 8 -4 4 -9 -8 -5 -11 -33 -37 -63 -57 -30 -20 -58 -44 -61 -52 -4 -10 -13 -14 -22 -10 -8 3 -13 2 -10 -3 5 -7 -37 -48 -81 -80 -4 -3 -19 -20 -33 -36 -14 -17 -28 -32 -32 -33 -5 -1 -9 -5 -9 -9 -1 -5 -12 -20 -25 -35 -12 -16 -26 -37 -29 -48 -4 -11 -11 -18 -16 -15 -5 4 -9 1 -9 -4 0 -23 -44 -110 -52 -105 -5 4 -9 0 -7 -7 3 -29 -1 -50 -11 -44 -5 3 -10 -2 -10 -12 0 -10 -11 -44 -24 -75 -13 -32 -19 -55 -14 -52 6 4 5 -1 -1 -12 -16 -31 -24 -58 -22 -73 1 -7 -1 -11 -6 -8 -7 4 -9 -25 -4 -64 3 -24 19 4 25 43 18 115 128 382 187 454 38 46 179 186 233 229 142 115 410 285 584 372 39 20 72 41 72 47 0 6 -9 25 -19 43 -11 17 -66 116 -122 220 -55 103 -102 189 -104 191 -1 2 -18 -10 -36 -25z m-449 -417 c0 -2 -8 -10 -17 -17 -16 -13 -17 -12 -4 4 13 16 21 21 21 13z"/> <path d="M3131 4926 c-9 -11 -9 -16 1 -22 7 -4 10 -4 6 1 -4 4 -3 14 3 22 6 7 9 13 6 13 -2 0 -10 -6 -16 -14z"/> <path d="M1667 4408 c-37 -46 -42 -66 -22 -88 17 -19 31 -20 227 -20 119 0 208 -4 208 -9 0 -12 -60 -62 -170 -142 -187 -137 -281 -255 -331 -414 -39 -121 -52 -391 -25 -492 30 -111 136 -297 245 -428 53 -64 222 -227 228 -221 4 3 -9 22 -27 41 -19 19 -30 35 -26 35 5 0 3 6 -4 14 -6 8 -19 12 -27 9 -12 -5 -15 -2 -10 10 4 12 2 14 -10 10 -12 -5 -14 -3 -8 7 6 9 4 11 -5 5 -10 -6 -12 -4 -7 9 5 11 3 15 -5 10 -8 -5 -9 -2 -5 10 5 14 3 17 -8 13 -14 -6 -30 8 -30 28 0 6 -7 10 -15 10 -8 0 -14 8 -14 17 1 11 -4 14 -15 10 -14 -5 -14 -4 -1 13 14 17 13 18 -4 12 -13 -5 -17 -3 -13 7 4 10 1 13 -9 9 -7 -3 -14 0 -14 6 0 7 -11 24 -24 38 -14 15 -33 42 -43 62 -10 20 -21 38 -24 41 -10 8 -89 161 -87 168 3 17 -16 88 -26 94 -7 5 -11 44 -10 105 1 162 4 186 22 207 9 11 11 16 5 12 -15 -8 -18 24 -5 40 5 5 14 36 21 69 14 71 30 107 44 98 6 -3 7 -1 4 5 -9 14 3 43 14 36 5 -3 10 1 11 8 4 40 18 69 29 63 9 -6 54 50 54 68 1 7 7 11 14 9 7 -1 10 2 5 9 -5 9 -2 10 9 6 11 -4 14 -2 10 9 -4 10 0 12 11 8 11 -4 16 -2 14 7 -2 8 3 13 9 12 7 -2 12 1 10 6 -2 8 137 121 149 121 3 0 2 -5 -2 -12 -4 -7 -3 -8 5 -4 6 4 9 12 6 17 -4 5 -2 9 3 9 5 0 23 13 40 29 16 16 34 26 38 23 4 -4 4 -2 0 5 -3 6 -2 14 4 18 16 10 12 42 -6 49 -9 3 -102 6 -208 6 -147 0 -193 3 -193 13 0 6 -4 20 -8 29 -4 11 1 22 19 33 23 15 56 16 343 10 175 -3 322 -10 326 -14 4 -4 1 -14 -8 -21 -13 -11 -15 -10 -10 6 3 10 0 7 -7 -7 -7 -15 -34 -47 -60 -73 -27 -26 -48 -51 -48 -57 0 -6 -4 -7 -10 -4 -6 4 -7 -1 -3 -12 6 -15 4 -16 -8 -6 -13 11 -15 9 -15 -10 1 -13 -4 -21 -12 -19 -8 1 -12 -3 -10 -10 3 -7 0 -18 -6 -24 -25 -27 -46 -55 -60 -81 -9 -15 -25 -39 -37 -53 -20 -25 -21 -25 -16 -2 3 13 1 20 -5 16 -5 -3 -7 -15 -5 -26 6 -22 -16 -71 -28 -60 -5 4 -5 1 -1 -6 4 -7 -2 -25 -13 -41 -12 -16 -21 -35 -21 -43 -1 -17 -25 -49 -33 -42 -3 3 -3 -3 0 -15 3 -11 -2 -36 -10 -54 -9 -18 -18 -44 -20 -57 -3 -14 -10 -38 -16 -54 -7 -16 -9 -31 -7 -33 3 -3 0 -17 -6 -32 -13 -32 -18 -281 -6 -281 5 0 7 -4 3 -9 -3 -5 -1 -13 5 -16 6 -4 8 -15 5 -25 -3 -11 5 -44 20 -75 14 -31 22 -61 19 -67 -5 -7 -2 -8 6 -3 10 6 12 4 7 -9 -4 -10 1 -24 13 -36 11 -11 20 -22 20 -26 0 -5 47 -73 108 -157 13 -18 32 -37 43 -43 11 -5 17 -13 14 -16 -4 -3 3 -9 15 -13 12 -4 19 -12 17 -19 -3 -7 -1 -19 4 -27 7 -12 9 -12 9 0 0 8 3 11 8 7 4 -4 7 -12 7 -17 0 -5 4 -8 8 -6 5 1 13 -6 18 -16 6 -9 14 -15 19 -12 4 3 11 -2 14 -11 3 -8 2 -12 -4 -9 -6 3 -7 -1 -4 -9 3 -9 10 -13 15 -10 6 3 17 0 25 -7 12 -10 12 -14 2 -21 -9 -6 -6 -7 8 -3 16 4 23 0 27 -16 3 -11 10 -18 16 -14 11 6 111 -73 111 -89 0 -5 -7 -3 -15 4 -9 7 -18 10 -22 6 -3 -3 -1 -6 5 -6 7 0 12 -3 12 -8 0 -4 -265 -8 -590 -9 -324 0 -590 2 -590 7 0 4 -15 5 -32 1 -43 -9 -471 -6 -487 3 -6 4 -11 2 -11 -4 0 -12 -91 -12 -110 0 -15 9 0 42 16 36 8 -3 11 2 8 18 -2 14 6 38 21 60 14 20 25 41 25 47 0 6 4 7 10 4 6 -4 7 1 3 11 -4 11 -2 15 4 11 12 -7 23 14 23 43 0 9 7 23 15 30 8 7 15 22 15 34 0 17 2 18 11 6 8 -12 9 -10 4 9 -5 16 -4 21 4 17 6 -4 11 -2 11 4 0 15 41 101 61 128 12 16 19 19 23 10 3 -7 3 -3 0 10 -4 15 7 47 32 95 51 99 74 140 85 152 5 5 9 16 9 24 0 8 11 29 25 47 14 18 25 37 25 43 0 6 4 11 10 11 5 0 6 7 3 17 -4 11 -3 14 5 9 8 -5 12 0 12 14 0 12 4 18 10 15 6 -4 7 1 3 11 -4 12 -3 15 6 10 6 -4 11 -4 9 1 -4 18 26 92 35 86 6 -3 7 -1 3 5 -3 6 3 26 14 44 11 18 20 29 20 23 0 -18 20 19 30 58 7 23 15 35 22 31 6 -4 8 -3 4 4 -10 17 36 105 47 89 6 -8 7 -6 3 6 -7 21 13 69 26 61 5 -3 7 -2 6 3 -5 16 35 92 45 86 6 -4 8 0 4 10 -3 9 -2 19 3 22 6 4 10 13 10 21 0 18 25 46 33 38 3 -3 3 5 0 18 -4 19 -3 20 7 8 9 -12 10 -11 5 8 -4 12 -2 22 4 22 6 0 7 7 4 17 -4 11 -3 14 5 9 7 -4 12 -1 12 8 0 18 45 73 72 87 16 8 23 8 29 -2 8 -12 10 -12 18 0 6 9 11 10 15 2 4 -6 4 -11 -1 -11 -4 0 0 -5 10 -11 9 -5 17 -16 17 -24 0 -19 -35 -76 -46 -77 -5 0 -11 -2 -14 -5 -3 -4 1 -3 8 1 19 11 14 -8 -8 -32 -11 -12 -20 -30 -20 -42 0 -11 -7 -20 -15 -20 -8 0 -12 -6 -10 -12 7 -18 -74 -160 -85 -153 -6 3 -7 -1 -4 -9 4 -9 1 -16 -6 -16 -7 0 -10 -6 -7 -14 3 -8 -1 -17 -9 -20 -8 -3 -14 -11 -13 -18 4 -21 -23 -68 -34 -61 -6 3 -7 1 -3 -6 4 -6 2 -19 -5 -27 -10 -12 -14 -12 -21 -2 -5 8 -6 2 -2 -14 4 -18 2 -28 -6 -28 -6 0 -9 -4 -6 -9 3 -5 -2 -19 -12 -32 -10 -13 -23 -36 -30 -51 -6 -16 -16 -28 -22 -28 -5 0 -10 -8 -10 -18 0 -11 -13 -37 -28 -58 -30 -41 -31 -43 -39 -74 -3 -11 -9 -17 -14 -14 -5 3 -9 -2 -9 -11 0 -9 -20 -51 -45 -94 -25 -43 -45 -81 -45 -85 0 -15 -42 -66 -49 -61 -5 2 -6 -7 -3 -20 2 -14 0 -25 -6 -25 -5 0 -17 -17 -27 -37 -28 -63 -39 -83 -47 -83 -5 0 -8 -9 -8 -20 0 -11 -5 -20 -11 -20 -5 0 -7 -4 -4 -10 3 -5 2 -10 -4 -10 -6 0 -13 -11 -17 -25 -3 -14 -10 -22 -15 -19 -5 3 -9 -3 -9 -13 -1 -19 -24 -56 -31 -49 -2 3 -5 -7 -6 -21 0 -14 -5 -28 -10 -32 -17 -11 -54 -93 -41 -89 7 3 49 69 93 149 45 79 127 227 184 329 57 102 122 219 146 260 175 306 365 662 359 672 -4 6 -3 8 3 5 12 -8 83 123 83 152 0 10 -11 30 -25 45 -31 33 -68 32 -114 -4 -35 -27 -58 -65 -179 -300 -43 -85 -91 -175 -104 -200 -14 -25 -60 -112 -103 -195 -43 -82 -99 -190 -125 -240 -26 -49 -89 -171 -140 -270 -51 -99 -96 -184 -100 -190 -4 -5 -36 -64 -70 -130 -35 -66 -68 -127 -73 -136 -17 -28 -1 -46 45 -52 69 -8 1822 -3 1836 6 21 14 13 35 -25 64 -21 15 -40 30 -43 33 -3 3 -27 23 -55 45 -69 55 -217 205 -279 284 -70 88 -110 163 -148 274 -28 82 -31 105 -32 212 0 82 6 145 18 199 56 246 205 496 433 729 l86 87 -44 0 c-24 0 -190 3 -369 6 l-325 6 -18 -24z m-3 -63 c3 -8 1 -15 -4 -15 -6 0 -10 7 -10 15 0 8 2 15 4 15 2 0 6 -7 10 -15z m47 -408 c-10 -9 -11 -8 -5 6 3 10 9 15 12 12 3 -3 0 -11 -7 -18z m-528 -312 c-3 -9 -8 -14 -10 -11 -3 3 -2 9 2 15 9 16 15 13 8 -4z m782 -945 c3 -5 1 -10 -4 -10 -6 0 -11 5 -11 10 0 6 2 10 4 10 3 0 8 -4 11 -10z"/> <path d="M4340 4247 c-460 -229 -858 -573 -993 -857 -29 -60 -31 -73 -30 -167 2 -220 76 -403 243 -597 14 -15 57 -55 97 -87 l71 -59 101 0 c56 0 101 2 101 6 0 3 -19 32 -41 66 -172 252 -214 539 -114 773 32 74 115 191 177 252 98 93 238 175 388 226 88 30 265 67 321 67 21 0 39 2 39 5 0 13 -200 440 -207 442 -5 2 -73 -30 -153 -70z m139 26 c-12 -14 -12 -15 0 -9 17 11 33 -13 25 -38 -4 -13 -3 -16 7 -11 9 6 11 2 6 -14 -5 -19 -3 -20 10 -9 15 12 15 11 4 -11 -7 -13 -9 -21 -3 -17 16 10 44 -43 38 -72 -3 -15 -3 -21 0 -14 3 6 10 9 15 6 6 -3 5 -12 -3 -22 -11 -13 -10 -15 4 -9 13 5 19 0 24 -17 3 -13 16 -45 29 -71 13 -27 21 -54 19 -60 -4 -11 -56 -19 -119 -18 -16 0 -23 -2 -15 -5 8 -3 -14 -12 -50 -19 -36 -7 -78 -16 -95 -20 -16 -3 -38 -6 -47 -7 -9 0 -14 -4 -12 -8 3 -4 0 -8 -5 -8 -6 0 -34 -11 -61 -24 -28 -14 -50 -19 -50 -13 0 6 -12 -1 -27 -15 -16 -14 -39 -29 -52 -33 -13 -4 -37 -19 -53 -34 -17 -14 -33 -26 -36 -26 -14 -1 -41 -20 -41 -30 0 -5 -5 -11 -13 -13 -9 -2 -8 0 2 8 13 10 13 11 0 7 -8 -2 -25 -19 -38 -38 -44 -65 -64 -88 -76 -86 -6 1 -9 -7 -8 -18 2 -11 0 -17 -4 -12 -4 4 -19 -11 -34 -33 -15 -22 -29 -38 -31 -36 -3 3 -11 -5 -18 -17 -13 -20 -13 -21 3 -8 15 13 14 8 -4 -30 -12 -24 -26 -52 -31 -61 -5 -10 -9 -26 -9 -37 0 -11 -4 -21 -9 -23 -14 -5 -23 -90 -22 -203 2 -136 5 -174 14 -168 7 4 11 -19 8 -46 -2 -8 2 -10 10 -5 8 4 10 3 5 -4 -4 -6 3 -33 15 -59 12 -26 22 -57 23 -69 0 -12 5 -20 10 -16 5 3 7 -2 3 -11 -3 -9 -3 -16 1 -14 4 1 9 -2 11 -8 3 -5 11 -16 18 -23 7 -7 13 -19 13 -26 0 -7 14 -28 30 -47 19 -20 26 -35 19 -38 -6 -2 -15 3 -20 10 -5 9 -9 10 -9 2 0 -6 -22 -13 -55 -15 -44 -2 -55 0 -55 12 0 12 -2 12 -9 2 -7 -11 -11 -11 -24 2 -8 9 -20 16 -26 16 -6 0 -11 10 -11 23 0 15 -3 18 -8 9 -11 -16 -150 128 -144 148 3 8 0 10 -8 5 -9 -5 -10 -1 -5 16 4 17 3 20 -3 10 -11 -15 -27 2 -18 18 3 5 -1 14 -9 21 -13 11 -15 10 -10 -6 3 -10 0 -7 -7 7 -7 14 -18 32 -24 40 -19 23 -25 68 -14 92 11 21 10 21 -4 3 -12 -15 -16 -16 -20 -5 -3 8 -12 34 -21 59 -9 25 -18 53 -20 63 -2 10 -7 26 -10 36 -9 29 -13 241 -4 246 4 3 10 -1 13 -7 3 -7 4 -4 1 8 -3 12 3 32 16 48 12 15 19 30 15 33 -3 4 -6 0 -6 -7 0 -7 -3 -10 -7 -7 -3 4 4 19 18 34 13 14 17 23 9 19 -8 -4 -5 1 8 10 12 9 22 21 22 26 0 11 49 78 70 95 8 7 11 13 6 13 -5 0 1 9 14 20 13 12 31 18 39 15 9 -3 12 -3 9 1 -4 4 -3 16 3 27 9 15 8 18 -3 12 -7 -3 -4 1 6 9 11 9 27 16 35 16 14 0 14 1 1 10 -12 8 -11 10 7 10 12 0 27 8 32 18 15 28 64 77 84 85 10 4 15 12 12 17 -4 6 -3 9 2 8 14 -4 63 34 57 44 -4 6 3 5 15 -1 12 -7 21 -8 20 -4 -1 4 -1 13 0 20 2 17 114 90 130 85 8 -3 11 0 8 5 -3 5 3 17 14 26 10 9 19 14 19 10 0 -3 9 2 19 11 11 10 25 15 32 10 7 -4 10 -3 5 4 -9 15 22 42 41 35 12 -5 14 -3 8 7 -6 10 -3 12 12 8 11 -3 28 1 38 8 10 8 14 14 9 14 -6 0 -16 -6 -24 -12 -8 -7 -6 -3 4 9 10 12 28 26 40 29 11 4 38 18 59 31 20 13 37 19 37 14 0 -5 8 -12 18 -16 13 -5 14 -4 5 6 -10 10 -5 17 25 35 20 13 45 24 55 24 10 0 16 4 13 8 -3 5 8 8 24 7 26 -2 28 0 17 14 -8 10 -8 13 0 8 6 -4 14 -3 18 3 3 5 11 10 17 10 6 0 5 -7 -3 -17z"/> <path d="M4220 4090 c-9 -6 -10 -10 -3 -10 6 0 15 5 18 10 8 12 4 12 -15 0z"/> <path d="M4477 3899 c7 -7 15 -10 18 -7 3 3 -2 9 -12 12 -14 6 -15 5 -6 -5z"/> <path d="M3711 3797 c2 -1 13 -9 24 -17 19 -14 19 -14 6 3 -7 9 -18 17 -24 17 -6 0 -8 -1 -6 -3z"/> <path d="M3700 3776 c0 -2 7 -7 16 -10 8 -3 12 -2 9 4 -6 10 -25 14 -25 6z"/> <path d="M3955 3660 c-3 -6 1 -7 9 -4 18 7 21 14 7 14 -6 0 -13 -4 -16 -10z"/> <path d="M3580 3621 c0 -6 4 -13 10 -16 6 -3 7 1 4 9 -7 18 -14 21 -14 7z"/> <path d="M3890 3565 c-13 -14 -22 -27 -19 -29 2 -2 14 10 27 25 29 36 24 38 -8 4z"/> <path d="M3846 3557 c3 -10 9 -15 12 -12 3 3 0 11 -7 18 -10 9 -11 8 -5 -6z"/> <path d="M3476 3528 c3 -4 11 -5 19 -1 21 7 19 12 -4 10 -11 0 -18 -5 -15 -9z"/> <path d="M3691 2824 c0 -11 3 -14 6 -6 3 7 2 16 -1 19 -3 4 -6 -2 -5 -13z"/> <path d="M3580 2653 c0 -6 8 -17 18 -24 16 -13 16 -13 2 6 -8 11 -16 22 -17 24 -2 2 -3 0 -3 -6z"/> <path d="M3808 2583 c5 -21 7 -23 10 -9 2 10 0 22 -6 28 -6 6 -7 0 -4 -19z"/> <path d="M3605 3801 c-3 -5 -2 -12 3 -15 5 -3 9 1 9 9 0 17 -3 19 -12 6z"/> <path d="M1571 3544 c0 -11 3 -14 6 -6 3 7 2 16 -1 19 -3 4 -6 -2 -5 -13z"/> <path d="M2052 3523 c-7 -3 -19 -18 -28 -35 -21 -40 -3 -85 40 -103 57 -24 106 10 106 74 0 55 -60 87 -118 64z m48 -26 c0 17 37 4 42 -15 7 -26 -12 -88 -22 -73 -5 9 -10 10 -14 3 -14 -24 -52 -7 -47 21 0 4 -3 7 -9 7 -5 0 -9 10 -7 22 2 27 38 50 49 34 5 -8 8 -7 8 1z"/> <path d="M2067 3437 c-3 -8 3 -14 16 -15 12 0 17 2 12 6 -6 4 -13 11 -16 15 -4 4 -9 2 -12 -6z"/> <path d="M4380 3510 c-206 -38 -363 -172 -420 -359 -22 -70 -26 -196 -10 -269 19 -80 72 -174 135 -237 105 -105 230 -155 385 -155 142 1 265 54 371 162 69 70 113 154 135 258 50 242 -101 494 -349 579 -65 23 -185 33 -247 21z m190 -32 c36 -6 76 -19 90 -28 30 -20 62 -34 73 -32 4 1 7 -5 7 -13 0 -8 -5 -15 -12 -15 -6 0 -9 -3 -6 -6 4 -3 16 -1 27 6 17 9 22 8 27 -5 3 -8 12 -15 19 -15 9 0 12 -9 9 -27 -2 -16 -1 -23 3 -17 5 7 16 8 28 3 12 -4 14 -8 6 -8 -9 -1 -3 -10 15 -23 16 -13 30 -34 32 -48 1 -13 9 -28 17 -33 8 -4 15 -17 15 -28 0 -11 4 -17 10 -14 6 4 7 -1 3 -11 -5 -12 -3 -15 6 -9 10 6 11 3 2 -12 -7 -15 -7 -23 2 -32 13 -13 17 -175 5 -226 -13 -57 -20 -75 -29 -75 -5 0 -9 -7 -9 -16 0 -14 -2 -15 -17 -3 -15 13 -15 12 -3 -11 9 -17 10 -25 1 -28 -6 -2 -11 -10 -11 -18 0 -8 -7 -17 -15 -20 -8 -4 -12 -10 -9 -15 3 -5 0 -8 -7 -7 -7 2 -13 -1 -14 -7 0 -18 -45 -56 -58 -49 -7 4 -9 4 -5 -1 4 -4 1 -14 -7 -21 -15 -16 -29 -19 -20 -5 3 5 1 13 -5 16 -6 4 -10 3 -9 -2 3 -19 -1 -46 -7 -40 -3 3 -23 -4 -43 -17 -48 -30 -69 -37 -76 -26 -4 6 -11 10 -16 10 -6 0 -8 -4 -5 -9 8 -13 -28 -21 -111 -27 -47 -3 -73 -1 -73 6 0 5 -5 10 -11 10 -5 0 -7 -5 -3 -11 7 -12 -7 -9 -73 14 -23 8 -29 14 -20 20 7 5 3 6 -11 2 -15 -5 -30 -1 -42 10 -11 10 -24 14 -31 9 -7 -4 -10 -3 -6 3 6 10 -40 38 -56 34 -5 -1 -6 3 -2 9 3 5 0 10 -7 10 -7 0 -24 16 -37 35 -13 19 -27 33 -31 30 -7 -4 -23 21 -17 28 1 1 -8 17 -21 34 -13 18 -21 37 -18 42 4 5 3 11 -1 13 -5 1 -17 18 -27 37 -10 19 -13 31 -6 26 9 -6 9 -3 -1 16 -17 33 -14 172 6 244 9 33 17 65 17 72 1 7 6 9 11 6 7 -4 8 1 4 13 -7 18 -6 18 9 -1 15 -19 15 -19 9 8 -5 17 -3 27 4 27 6 0 11 8 11 17 0 17 56 73 73 73 5 0 6 4 2 9 -3 5 4 12 15 16 11 3 20 11 20 16 0 6 5 7 10 4 6 -3 10 -1 10 4 0 6 7 11 15 11 7 0 19 8 24 18 6 9 11 13 11 7 0 -5 4 -4 9 4 5 7 20 14 35 14 14 0 24 2 22 6 -3 4 3 7 12 8 9 1 35 6 57 10 62 13 134 14 205 1z"/> <path d="M4222 3384 c-7 -8 -8 -14 -3 -14 10 0 25 19 20 25 -2 1 -10 -3 -17 -11z"/> <path d="M4165 3370 c-3 -6 1 -7 9 -4 18 7 21 14 7 14 -6 0 -13 -4 -16 -10z"/> <path d="M4385 3331 c15 -6 9 -9 -25 -14 -49 -7 -100 -27 -100 -40 0 -5 -4 -5 -10 -2 -5 3 -10 1 -10 -4 0 -6 -5 -11 -11 -11 -5 0 -7 6 -3 13 5 8 3 8 -9 -2 -9 -7 -15 -16 -12 -20 2 -4 -4 -14 -13 -23 -9 -8 -23 -24 -31 -36 -14 -19 -16 -20 -28 -4 -12 15 -13 14 -3 -7 9 -17 9 -26 1 -34 -6 -6 -11 -22 -11 -35 0 -13 -4 -20 -10 -17 -5 3 -10 0 -11 -7 -3 -96 -3 -138 2 -138 4 0 10 -15 13 -34 4 -19 18 -50 31 -70 13 -20 21 -36 17 -36 -4 0 1 -5 11 -11 9 -6 14 -16 11 -22 -4 -7 -4 -9 1 -5 6 6 57 -22 75 -42 27 -29 109 -51 190 -50 73 0 162 11 155 18 -8 8 66 43 76 36 5 -3 12 2 15 10 3 9 11 13 17 9 6 -3 7 -1 3 5 -9 15 31 55 46 46 6 -4 8 -3 5 4 -9 14 3 43 14 36 5 -3 6 3 2 12 -4 12 -3 15 6 10 6 -4 10 -4 9 1 -1 4 4 25 11 47 16 46 10 188 -8 210 -7 8 -9 21 -5 27 4 7 3 9 -3 6 -13 -8 -26 20 -16 35 3 6 2 8 -4 5 -5 -4 -19 5 -31 18 -19 22 -20 26 -6 40 14 14 12 15 -21 10 -25 -3 -34 -1 -29 7 5 8 2 9 -9 5 -10 -3 -17 -2 -17 3 0 6 -7 10 -16 10 -8 0 -12 4 -9 10 3 6 -1 7 -9 4 -9 -3 -16 -2 -16 4 0 5 -33 13 -72 17 -122 12 -174 14 -153 6z m235 -52 c69 -32 121 -84 156 -155 24 -49 26 -63 22 -133 -4 -61 -10 -88 -31 -124 -91 -154 -301 -212 -471 -128 -257 126 -227 467 49 558 66 21 209 12 275 -18z m100 -29 c0 -5 -2 -10 -4 -10 -3 0 -8 5 -11 10 -3 6 -1 10 4 10 6 0 11 -4 11 -10z"/> <path d="M4201 2857 c-13 -21 -12 -21 5 -5 10 10 16 20 13 22 -3 3 -11 -5 -18 -17z"/> <path d="M4226 2845 c-9 -26 -7 -32 5 -12 6 10 9 21 6 23 -2 3 -7 -2 -11 -11z"/> <path d="M4358 2783 c7 -3 16 -2 19 1 4 3 -2 6 -13 5 -11 0 -14 -3 -6 -6z"/> <path d="M4836 3292 c-3 -5 1 -9 9 -9 8 0 12 4 9 9 -3 4 -7 8 -9 8 -2 0 -6 -4 -9 -8z"/> <path d="M4063 2732 c-1 -22 0 -24 9 -8 6 10 6 22 2 26 -5 5 -10 -3 -11 -18z"/> <path d="M4200 2606 c0 -2 7 -7 16 -10 8 -3 12 -2 9 4 -6 10 -25 14 -25 6z"/> <path d="M4318 2543 c6 -2 18 -2 25 0 6 3 1 5 -13 5 -14 0 -19 -2 -12 -5z"/> <path d="M4448 2523 c7 -3 16 -2 19 1 4 3 -2 6 -13 5 -11 0 -14 -3 -6 -6z"/> <path d="M971 3094 c0 -11 3 -14 6 -6 3 7 2 16 -1 19 -3 4 -6 -2 -5 -13z"/> <path d="M3011 3094 c0 -11 3 -14 6 -6 3 7 2 16 -1 19 -3 4 -6 -2 -5 -13z"/> <path d="M5262 2873 c-2 -66 -10 -99 -44 -169 -72 -149 -224 -257 -433 -308 -154 -37 -199 -38 -2269 -40 l-2021 -1 -105 -180 c-58 -100 -139 -239 -181 -310 -110 -186 -117 -231 -44 -255 29 -10 496 -11 2114 -6 1142 4 2419 6 2839 6 720 0 762 1 762 18 0 9 -45 112 -101 227 -55 116 -114 239 -131 275 -17 36 -107 222 -199 413 -93 192 -169 355 -169 363 0 8 -4 14 -9 14 -5 0 -9 -21 -9 -47z m38 -81 c0 -7 12 -34 27 -60 16 -26 28 -49 28 -52 0 -3 22 -50 49 -104 27 -55 49 -105 50 -111 1 -6 12 -24 24 -39 12 -16 22 -34 22 -41 0 -7 12 -34 26 -61 15 -27 33 -60 40 -74 8 -14 14 -31 14 -37 0 -7 5 -13 11 -13 5 0 8 -4 5 -9 -8 -13 4 -42 14 -36 5 3 7 -11 5 -30 -2 -19 1 -38 6 -41 5 -3 6 3 3 13 -3 11 0 9 8 -5 8 -12 17 -19 21 -16 7 7 11 -15 8 -51 -2 -17 0 -17 8 -5 10 13 11 13 11 0 0 -8 7 -28 15 -44 9 -16 13 -36 10 -43 -2 -8 -1 -12 3 -9 12 7 45 -53 38 -70 -3 -9 -1 -12 4 -9 6 3 10 0 10 -8 0 -8 7 -17 15 -21 8 -3 12 -12 9 -20 -3 -8 -1 -17 5 -21 6 -3 11 -13 11 -21 0 -8 9 -24 20 -36 10 -12 17 -25 14 -30 -3 -4 -1 -8 5 -8 5 0 8 -8 6 -17 -2 -10 -4 -20 -4 -23 -1 -3 -25 -6 -54 -7 -36 -2 -47 1 -37 7 12 8 9 10 -12 10 -16 0 -28 -4 -28 -10 0 -6 -40 -10 -101 -10 -64 0 -98 4 -94 10 4 6 -10 10 -35 10 -25 0 -39 -4 -35 -10 9 -14 -135 -13 -192 1 -35 9 -47 9 -53 0 -9 -15 -151 -11 -162 4 -5 6 -11 6 -16 -2 -6 -9 -172 -12 -717 -11 -403 0 -701 5 -690 9 13 6 8 7 -15 2 -19 -4 -298 -7 -620 -8 -322 -1 -589 -3 -595 -5 -5 -1 -37 -1 -70 0 -229 7 -906 4 -909 -5 -3 -6 -8 -5 -13 2 -11 16 -193 17 -193 1 0 -6 -9 -8 -23 -4 -34 10 -211 16 -217 7 -3 -4 -50 -5 -105 -1 -55 4 -102 4 -105 1 -10 -12 -430 -11 -430 0 0 8 -5 7 -15 -1 -19 -16 -125 -7 -136 12 -7 10 -9 10 -9 -2 -1 -13 -2 -13 -10 1 -5 8 -8 22 -6 30 8 49 45 131 56 124 6 -4 24 43 21 53 -1 1 8 12 19 24 11 12 20 28 20 35 0 7 4 13 8 13 4 0 21 26 37 58 36 70 71 123 78 116 2 -3 7 2 11 11 3 9 2 13 -4 10 -6 -3 -10 -2 -10 4 0 5 3 11 8 13 14 6 52 68 52 85 0 15 2 16 10 3 8 -13 10 -12 10 3 0 10 3 16 8 14 4 -3 8 6 8 20 1 13 13 36 25 50 13 15 18 23 10 18 -9 -5 -12 -4 -7 3 9 14 36 16 36 2 0 -5 6 -7 13 -4 21 8 408 10 389 2 -9 -5 -1 -5 18 -1 43 8 913 8 961 -1 25 -4 29 -3 14 3 -16 8 -11 10 25 10 32 1 41 -2 30 -9 -10 -6 -2 -7 25 -2 22 4 56 6 75 5 83 -3 247 -3 410 0 96 2 187 0 203 -4 16 -5 25 -4 22 2 -4 5 11 9 34 9 22 0 41 -5 44 -12 3 -10 8 -9 22 2 10 8 16 11 13 5 -6 -11 552 -12 837 -2 84 3 139 2 125 -3 l-25 -8 25 -1 c15 -1 31 4 37 10 8 8 40 8 116 1 62 -6 121 -7 143 -2 23 5 43 5 50 0 6 -6 14 -7 18 -2 11 11 310 11 317 0 4 -6 13 -6 25 0 11 6 73 15 139 22 118 11 208 33 292 71 24 10 50 19 58 19 9 0 13 5 10 10 -3 6 1 10 9 10 9 0 16 3 16 8 0 4 14 13 30 20 17 8 27 18 24 24 -4 7 -2 8 5 4 14 -9 70 47 108 106 17 28 28 37 36 30 14 -11 48 -12 41 -1 -2 5 -11 6 -18 3 -7 -3 -15 3 -18 13 -6 23 1 45 13 37 5 -3 9 10 9 29 0 19 6 40 14 46 8 7 12 22 9 34 -4 18 -3 19 6 7 6 -8 11 -21 11 -28z"/> <path d="M5246 2678 c3 -5 10 -6 15 -3 13 9 11 12 -6 12 -8 0 -12 -4 -9 -9z"/> <path d="M5015 2430 c-3 -6 1 -7 9 -4 18 7 21 14 7 14 -6 0 -13 -4 -16 -10z"/> <path d="M4668 2333 c7 -3 16 -2 19 1 4 3 -2 6 -13 5 -11 0 -14 -3 -6 -6z"/> <path d="M4549 2263 c-11 -18 -21 -43 -22 -55 -3 -31 -48 -90 -64 -84 -7 3 -12 2 -10 -2 3 -11 -29 -53 -36 -47 -4 3 -5 2 -2 -1 2 -4 -19 -29 -47 -57 -47 -46 -51 -48 -61 -31 -17 29 -19 57 -5 48 8 -4 10 -3 5 2 -5 5 -13 10 -18 10 -5 1 -13 2 -19 3 -5 0 -10 7 -10 14 0 8 -9 22 -20 32 -13 12 -18 26 -15 39 3 12 2 15 -1 9 -8 -18 -24 -16 -24 1 0 8 -11 23 -25 34 -14 11 -25 27 -25 35 0 9 -5 19 -10 22 -6 4 -8 11 -4 16 3 5 0 8 -8 7 -7 -2 -12 2 -11 7 2 17 -48 14 -76 -3 -14 -10 -27 -26 -29 -37 -1 -11 -4 -30 -6 -42 -2 -12 1 -20 5 -17 14 8 10 -30 -3 -45 -10 -11 -10 -13 0 -7 16 9 15 -4 -2 -27 -7 -9 -12 -31 -10 -47 2 -17 -1 -30 -6 -30 -6 0 -10 -12 -10 -27 0 -14 -8 -35 -17 -46 -10 -11 -13 -17 -6 -14 7 5 9 0 6 -14 -5 -19 -8 -20 -17 -7 -9 12 -11 4 -13 -36 -1 -28 -3 -72 -5 -97 -3 -36 -1 -46 9 -42 7 3 13 0 13 -7 0 -7 8 -9 20 -5 11 4 20 2 20 -4 0 -6 5 -11 11 -11 5 0 7 5 4 11 -4 6 0 16 8 22 13 11 23 39 31 89 1 9 7 23 14 30 13 17 52 135 52 161 0 9 5 17 11 17 5 0 7 4 4 10 -3 6 1 7 10 4 9 -4 14 -13 11 -20 -3 -7 0 -16 6 -20 7 -4 8 -3 4 4 -4 7 -5 12 -2 12 3 0 13 -15 22 -32 9 -18 30 -50 47 -71 16 -21 27 -41 24 -44 -13 -12 35 -63 59 -63 27 0 84 37 84 54 0 6 -5 4 -10 -4 -5 -8 -10 -10 -10 -4 0 6 25 29 55 49 30 21 53 40 51 42 -2 2 9 16 23 32 22 25 27 27 34 12 4 -9 5 -3 1 14 -3 16 -2 27 2 23 4 -4 12 0 19 9 11 14 13 11 19 -21 4 -20 4 -45 1 -56 -3 -10 -2 -21 3 -24 5 -3 7 -17 5 -30 -10 -51 16 -123 58 -161 44 -40 50 -41 84 -19 30 20 31 33 5 66 -10 14 -17 28 -14 31 3 2 -1 20 -9 38 -9 24 -12 53 -7 99 4 38 3 70 -3 77 -5 7 -7 19 -4 28 4 8 1 17 -5 21 -7 4 -6 9 2 14 8 5 9 13 2 26 -5 11 -8 29 -6 42 3 15 0 21 -7 16 -7 -4 -9 0 -5 14 5 14 -3 30 -27 56 -19 19 -33 37 -31 38 1 2 -9 3 -23 3 -17 0 -31 -10 -44 -32z m66 1 c20 -8 45 -55 47 -91 1 -15 6 -33 11 -40 5 -7 4 -20 -2 -31 -6 -11 -8 -22 -5 -25 3 -3 9 -62 14 -131 7 -105 12 -130 30 -156 18 -25 19 -34 10 -45 -17 -21 -31 -19 -63 9 -31 27 -70 131 -58 154 7 12 -5 163 -15 191 -3 9 -17 -3 -42 -36 -42 -57 -227 -243 -241 -243 -10 0 -41 61 -41 83 0 8 -6 17 -12 20 -7 3 -22 22 -33 43 -10 22 -34 56 -52 77 -18 20 -33 42 -33 47 0 19 -18 10 -23 -12 -12 -56 -47 -169 -71 -232 -14 -38 -23 -73 -20 -77 2 -4 -7 -16 -21 -25 -24 -16 -27 -16 -43 -1 -14 15 -14 23 -3 69 7 29 19 62 26 73 7 11 16 41 20 65 4 25 11 53 16 62 11 21 20 84 23 158 2 62 7 75 36 83 24 6 58 -25 66 -60 4 -13 12 -23 19 -23 7 0 18 -13 25 -29 6 -16 22 -39 36 -52 13 -12 24 -28 24 -36 0 -7 3 -13 8 -13 4 0 20 -25 36 -55 l28 -55 97 100 c143 150 153 161 147 176 -7 19 14 64 30 64 7 0 20 -3 29 -6z"/> <path d="M4591 2143 c7 -12 15 -20 18 -17 3 2 -3 12 -13 22 -17 16 -18 16 -5 -5z"/> <path d="M4093 2125 c-7 -8 -9 -16 -4 -19 5 -3 12 1 15 10 8 22 4 25 -11 9z"/> <path d="M4626 2131 c-4 -5 -3 -17 1 -27 5 -13 3 -15 -7 -9 -9 6 -11 4 -6 -4 11 -17 21 -5 21 25 1 26 -1 29 -9 15z"/> <path d="M4186 2072 c-3 -5 1 -9 9 -9 8 0 12 4 9 9 -3 4 -7 8 -9 8 -2 0 -6 -4 -9 -8z"/> <path d="M4439 2013 c-13 -16 -12 -17 4 -4 9 7 17 15 17 17 0 8 -8 3 -21 -13z"/> <path d="M4227 1985 c3 -8 9 -12 14 -9 12 7 11 11 -5 17 -10 4 -13 1 -9 -8z"/> <path d="M4660 1781 c0 -6 4 -13 10 -16 6 -3 7 1 4 9 -7 18 -14 21 -14 7z"/> <path d="M2808 2267 c-10 -9 -45 -12 -100 -10 -96 2 -145 -9 -143 -35 4 -60 46 -98 90 -82 11 4 35 3 55 -1 19 -4 47 -7 61 -5 l26 3 0 -81 c1 -45 -3 -85 -7 -91 -9 -12 -5 -189 5 -222 4 -13 14 -23 22 -23 8 0 12 -4 9 -9 -3 -5 1 -12 10 -15 24 -9 31 -7 14 5 -12 9 -11 10 8 6 12 -3 20 -2 17 3 -3 4 2 10 10 14 10 3 15 19 15 48 0 24 5 82 12 128 6 47 11 109 11 138 -1 33 3 52 11 52 7 0 6 4 -2 9 -22 13 -10 44 18 46 14 2 85 6 159 9 141 7 155 12 166 59 10 38 -13 45 -156 44 -70 0 -131 3 -137 7 -6 3 -13 2 -16 -3 -4 -5 -18 -6 -34 -2 -15 4 -32 6 -39 4 -6 -2 -14 1 -18 6 -8 15 -46 13 -67 -2z m72 -25 c3 -4 90 -7 193 -7 104 0 190 -2 192 -5 2 -3 -4 -15 -13 -28 -16 -20 -28 -22 -162 -27 -205 -8 -188 2 -188 -102 -1 -49 -7 -140 -15 -203 -8 -63 -12 -121 -9 -127 6 -17 -42 -17 -56 0 -12 14 -14 141 -7 314 l5 113 -22 -8 c-13 -5 -36 -7 -53 -6 -16 2 -53 3 -81 4 -60 1 -96 28 -77 58 9 15 25 17 122 13 100 -3 111 -1 111 14 0 14 6 16 27 10 15 -3 30 -10 33 -13z"/> <path d="M2841 2164 c0 -11 3 -14 6 -6 3 7 2 16 -1 19 -3 4 -6 -2 -5 -13z"/> <path d="M1199 2165 c-8 -165 -1 -408 12 -400 3 2 16 -9 28 -24 26 -32 59 -31 100 0 13 11 30 19 37 19 8 0 14 5 14 11 0 6 10 8 23 5 12 -3 16 -3 9 0 -14 6 49 57 86 68 13 4 19 12 16 18 -5 8 -1 9 10 5 11 -4 15 -3 11 4 -5 8 37 59 48 59 3 0 8 -41 10 -72 1 -9 6 -14 11 -11 5 4 7 -3 4 -15 -4 -12 -3 -20 2 -17 11 7 20 -22 14 -42 -5 -14 -4 -15 4 -5 7 11 11 8 16 -11 3 -15 18 -31 36 -39 16 -7 30 -18 30 -25 0 -7 6 -10 13 -7 8 3 25 0 40 -5 18 -7 28 -7 33 0 3 6 17 9 29 7 18 -4 22 -1 17 11 -3 9 -1 13 3 8 11 -9 45 21 45 40 0 8 5 11 13 7 6 -4 0 6 -14 20 -19 21 -38 28 -70 31 -69 4 -71 4 -64 15 3 6 -1 7 -10 4 -9 -4 -15 -3 -14 2 2 5 -5 33 -14 63 -20 64 -21 75 -6 65 8 -4 8 -1 1 13 -13 24 -9 127 5 145 20 25 22 72 5 92 -16 18 -16 18 8 11 14 -4 22 -4 18 0 -9 9 -50 17 -103 19 -36 1 -40 -1 -38 -22 2 -13 -1 -21 -5 -18 -4 2 -8 -4 -8 -14 0 -10 4 -16 9 -13 5 3 4 -3 -1 -13 -6 -11 -16 -34 -22 -51 -7 -18 -17 -30 -23 -26 -5 3 -7 1 -4 -4 4 -6 -3 -19 -15 -29 -21 -19 -21 -19 -8 6 9 18 9 22 1 14 -7 -6 -13 -18 -15 -27 -3 -23 -27 -48 -40 -40 -6 3 -8 3 -4 -2 8 -9 -15 -35 -31 -35 -6 0 -11 -4 -11 -8 0 -5 -14 -19 -32 -32 -27 -20 -34 -21 -52 -10 -19 12 -20 12 -7 -3 12 -16 8 -22 -12 -18 -5 1 -6 -3 -3 -8 8 -12 -11 -24 -24 -16 -7 4 -7 11 -2 18 5 7 7 30 5 52 -3 39 -2 82 2 155 3 62 5 71 13 67 4 -3 8 6 9 20 1 19 -1 22 -8 12 -7 -12 -9 -11 -9 2 0 29 -35 50 -77 47 l-40 -3 -4 -70z m98 36 c7 -9 10 -25 6 -36 -6 -20 -8 -45 -12 -205 -4 -115 -3 -130 10 -130 12 0 102 61 107 73 2 4 10 7 18 7 8 0 17 7 20 15 4 8 11 15 16 15 12 0 132 121 146 146 5 11 15 42 22 71 16 70 31 81 70 53 34 -25 36 -34 14 -75 -22 -41 -26 -184 -7 -250 21 -71 58 -118 86 -108 31 10 79 6 88 -8 12 -21 -1 -36 -44 -53 -56 -21 -71 -20 -117 7 -30 16 -46 36 -65 79 -27 60 -46 143 -38 165 9 24 -6 14 -44 -28 -56 -62 -257 -199 -293 -199 -22 0 -46 38 -58 90 -14 66 -7 367 10 387 13 16 47 7 65 -16z m343 25 c0 -3 -4 -8 -10 -11 -5 -3 -10 -1 -10 4 0 6 5 11 10 11 6 0 10 -2 10 -4z"/> <path d="M1256 2163 c-6 -14 -5 -15 5 -6 7 7 10 15 7 18 -3 3 -9 -2 -12 -12z"/> <path d="M1701 2164 c0 -11 3 -14 6 -6 3 7 2 16 -1 19 -3 4 -6 -2 -5 -13z"/> <path d="M1461 1877 c-13 -21 -12 -21 5 -5 10 10 16 20 13 22 -3 3 -11 -5 -18 -17z"/> <path d="M4707 2175 c-4 -8 -3 -16 1 -19 4 -3 9 4 9 15 2 23 -3 25 -10 4z"/> <path d="M440 2176 c0 -2 7 -7 16 -10 8 -3 12 -2 9 4 -6 10 -25 14 -25 6z"/> <path d="M1724 2027 c-1 -30 -1 -30 9 -9 6 14 7 26 1 32 -5 5 -9 -4 -10 -23z"/> <path d="M306 1963 c-6 -14 -5 -15 5 -6 7 7 10 15 7 18 -3 3 -9 -2 -12 -12z"/> <path d="M1810 1830 c0 -5 5 -10 11 -10 5 0 7 5 4 10 -3 6 -8 10 -11 10 -2 0 -4 -4 -4 -10z"/> <path d="M2921 1824 c0 -11 3 -14 6 -6 3 7 2 16 -1 19 -3 4 -6 -2 -5 -13z"/> <path d="M4059 1823 c-3 -18 -5 -63 -2 -63 1 0 7 10 14 21 8 17 8 20 -1 14 -9 -5 -10 -1 -5 14 3 11 4 21 1 21 -3 0 -7 -3 -7 -7z"/> <path d="M1890 1809 c0 -5 5 -7 10 -4 6 3 10 8 10 11 0 2 -4 4 -10 4 -5 0 -10 -5 -10 -11z"/> <path d="M4350 1800 c-9 -6 -10 -10 -3 -10 6 0 15 5 18 10 8 12 4 12 -15 0z"/> <path d="M4288 1793 c6 -2 18 -2 25 0 6 3 1 5 -13 5 -14 0 -19 -2 -12 -5z"/> <path d="M5776 1757 c3 -10 9 -15 12 -12 3 3 0 11 -7 18 -10 9 -11 8 -5 -6z"/> <path d="M4438 1663 c7 -3 16 -2 19 1 4 3 -2 6 -13 5 -11 0 -14 -3 -6 -6z"/> <path d="M4823 1643 c9 -2 25 -2 35 0 9 3 1 5 -18 5 -19 0 -27 -2 -17 -5z"/> <path d="M1166 2849 c-20 -16 -26 -29 -26 -58 0 -44 21 -68 68 -77 26 -5 36 -1 62 24 37 37 38 61 4 101 -31 37 -69 41 -108 10z m82 -27 c10 -9 14 -13 10 -8 -12 16 -10 32 3 19 12 -12 20 -65 9 -58 -4 3 -14 -3 -21 -12 -12 -14 -12 -16 0 -8 9 5 12 4 8 -2 -11 -18 -43 -21 -73 -6 -16 7 -21 11 -12 9 12 -4 15 -1 11 10 -3 9 -12 13 -21 9 -12 -4 -13 -3 -3 9 7 8 10 20 6 26 -3 5 2 10 12 10 15 0 16 2 3 10 -11 7 -7 10 18 10 20 0 41 -8 50 -18z"/> <path d="M1385 2845 c-49 -48 -15 -135 52 -135 32 1 55 15 71 47 18 33 14 57 -13 87 -32 34 -77 35 -110 1z m91 -7 c5 4 3 0 -4 -9 -12 -16 -7 -29 12 -29 6 0 4 5 -4 11 -13 9 -13 10 0 6 8 -2 13 -11 11 -18 -2 -8 -4 -21 -5 -29 -3 -33 -75 -46 -93 -17 -10 17 -11 67 -1 61 5 -3 6 -9 3 -14 -3 -5 -1 -11 4 -14 5 -4 8 2 6 11 -4 28 24 54 45 43 10 -5 21 -6 26 -2z"/> <path d="M1395 2760 c3 -5 11 -10 16 -10 6 0 7 5 4 10 -3 6 -11 10 -16 10 -6 0 -7 -4 -4 -10z"/> <path d="M3370 2811 c0 -6 4 -13 10 -16 6 -3 7 1 4 9 -7 18 -14 21 -14 7z"/> <path d="M3166 2778 c3 -5 10 -6 15 -3 13 9 11 12 -6 12 -8 0 -12 -4 -9 -9z"/> <path d="M3410 2771 c0 -6 4 -13 10 -16 6 -3 7 1 4 9 -7 18 -14 21 -14 7z"/> <path d="M3260 2711 c0 -6 4 -13 10 -16 6 -3 7 1 4 9 -7 18 -14 21 -14 7z"/> <path d="M5145 2679 c-4 -6 -5 -12 -2 -15 2 -3 7 2 10 11 7 17 1 20 -8 4z"/> <path d="M3320 2616 c0 -2 7 -7 16 -10 8 -3 12 -2 9 4 -6 10 -25 14 -25 6z"/> <path d="M3535 2599 c-4 -6 -5 -12 -2 -15 2 -3 7 2 10 11 7 17 1 20 -8 4z"/> <path d="M2323 2575 c0 -8 4 -12 9 -9 5 3 6 10 3 15 -9 13 -12 11 -12 -6z"/> <path d="M2355 2580 c3 -5 11 -10 16 -10 6 0 7 5 4 10 -3 6 -11 10 -16 10 -6 0 -7 -4 -4 -10z"/> <path d="M760 2570 c0 -13 1248 -12 1256 1 3 5 -266 9 -625 9 -424 0 -631 -3 -631 -10z"/> <path d="M3429 2543 c-13 -16 -12 -17 4 -4 16 13 21 21 13 21 -2 0 -10 -8 -17 -17z"/> <path d="M3605 2529 c-4 -6 -4 -13 -1 -16 3 -4 6 -1 6 6 0 8 6 11 16 7 8 -3 12 -2 9 4 -8 13 -22 13 -30 -1z"/> <path d="M620 1460 c0 -6 -22 -33 -49 -60 -46 -46 -49 -51 -30 -60 18 -10 19 -23 19 -265 l0 -255 245 0 c135 0 245 -4 245 -8 0 -5 16 -25 35 -45 31 -32 42 -37 81 -37 24 0 59 6 77 14 108 45 89 229 -26 253 l-39 8 1 235 1 234 -60 -59 c-33 -33 -60 -63 -60 -67 0 -3 9 -10 20 -13 19 -6 20 -15 20 -171 0 -152 -2 -167 -20 -187 -12 -12 -23 -32 -26 -44 -6 -21 -12 -23 -80 -23 l-74 0 0 105 c0 58 -2 105 -3 105 -2 0 -29 -25 -60 -57 -54 -53 -56 -57 -38 -69 13 -9 19 -26 19 -49 l0 -35 -91 0 -92 0 2 280 c1 163 -3 280 -8 280 -5 0 -9 -5 -9 -10z m-5 -70 c-3 -5 -6 -102 -7 -217 -1 -133 -5 -213 -12 -222 -9 -12 -8 -13 6 -9 13 6 16 1 13 -28 -1 -19 2 -37 8 -41 6 -3 7 -1 4 4 -9 15 66 13 76 -1 5 -8 10 -7 16 2 5 8 22 13 42 11 71 -5 94 20 77 86 -6 23 -4 33 9 43 21 15 10 16 -20 1 -21 -10 -21 -10 -3 5 11 9 24 16 29 16 4 0 5 5 1 12 -4 7 -3 8 5 4 6 -4 9 -12 6 -17 -4 -5 -1 -9 6 -9 10 0 10 -3 1 -12 -14 -14 -16 -32 -3 -24 9 6 7 -23 -5 -63 -5 -17 -4 -22 4 -17 7 4 12 1 12 -7 0 -8 6 -17 13 -19 23 -8 149 1 161 12 7 5 17 6 21 2 5 -4 5 1 2 11 -4 9 -2 17 3 17 5 0 7 7 4 15 -4 11 1 15 17 16 13 0 18 3 12 6 -10 3 -10 10 -2 24 13 26 18 329 4 321 -5 -3 -7 -2 -3 3 4 4 3 14 -2 20 -12 14 22 59 35 47 5 -4 5 2 1 13 -6 16 -5 18 5 8 8 -8 9 -16 3 -22 -5 -6 -7 -79 -4 -181 3 -94 1 -178 -3 -186 -4 -8 -3 -22 3 -31 9 -15 10 -14 4 6 -4 16 -3 21 5 17 6 -4 11 -14 11 -22 0 -8 5 -12 10 -9 6 3 10 2 10 -2 0 -5 -15 -14 -32 -21 -19 -7 -43 -28 -56 -48 -16 -25 -28 -34 -40 -30 -16 6 -16 5 0 -7 9 -7 16 -22 15 -33 -1 -13 3 -18 15 -16 21 3 34 -16 19 -31 -8 -8 -19 -2 -40 23 l-28 34 -204 -1 c-119 0 -185 2 -159 7 l45 7 -42 1 c-23 1 -45 -2 -48 -8 -10 -17 -21 -11 -35 18 -11 23 -15 260 -6 427 0 18 -6 35 -16 43 -10 7 -18 18 -18 24 0 6 6 6 16 -2 8 -8 14 -9 13 -4 -5 17 12 54 22 48 5 -3 7 -9 4 -14z m626 -434 c-11 -13 -5 -26 11 -26 5 0 6 5 2 11 -4 7 -1 10 7 7 8 -3 13 -15 13 -26 -1 -12 2 -22 5 -22 11 0 11 -50 1 -71 -7 -13 -7 -19 0 -19 5 0 1 -9 -10 -20 -11 -11 -26 -20 -34 -20 -8 0 -18 -5 -22 -11 -4 -8 -9 -7 -15 2 -5 9 -9 10 -9 3 0 -7 -7 -14 -15 -18 -8 -3 -14 0 -12 7 1 7 -8 11 -25 9 -16 -2 -28 1 -28 7 0 7 21 11 53 10 28 -1 63 3 77 9 14 6 19 11 12 11 -10 1 -9 5 3 17 9 9 14 23 11 31 -3 8 -1 11 4 8 6 -3 10 -1 10 4 0 6 -5 11 -11 11 -5 0 -8 4 -4 9 3 5 0 13 -6 17 -8 4 -7 9 2 15 11 7 10 9 -3 9 -9 0 -23 9 -31 20 -8 11 -17 17 -20 13 -4 -3 -7 -1 -7 5 0 11 30 21 43 14 4 -2 3 -9 -2 -16z m-23 -34 c21 -14 31 -67 18 -93 -21 -44 -96 -37 -116 10 -9 24 -9 34 4 60 13 25 23 31 49 31 17 0 38 -4 45 -8z m-126 -94 c-7 -7 -12 -8 -12 -2 0 14 12 26 19 19 2 -3 -1 -11 -7 -17z"/> <path d="M818 853 c12 -2 32 -2 45 0 12 2 2 4 -23 4 -25 0 -35 -2 -22 -4z"/> <path d="M1427 1093 l3 -378 37 0 38 0 2 305 c1 276 3 305 19 317 16 12 13 18 -37 72 -30 32 -56 59 -59 60 -3 0 -4 -169 -3 -376z m63 264 c0 -4 5 -5 11 -1 6 3 4 -4 -4 -17 -16 -25 -18 -69 -21 -426 -1 -112 -5 -173 -11 -173 -7 0 -11 107 -11 324 1 306 2 323 18 312 10 -6 18 -14 18 -19z"/> <path d="M1466 1347 c3 -10 9 -15 12 -12 3 3 0 11 -7 18 -10 9 -11 8 -5 -6z"/> <path d="M5215 1410 c-49 -49 -57 -62 -45 -70 8 -5 18 -10 23 -10 4 0 7 -115 7 -255 l0 -255 253 0 253 0 13 -35 c7 -19 28 -47 47 -61 37 -28 58 -27 29 2 -18 18 -35 57 -35 80 0 11 15 14 60 14 l60 0 0 46 0 46 -63 -4 -63 -3 -17 57 c-30 101 -102 157 -202 158 -63 0 -124 17 -132 36 -3 8 -8 14 -13 14 -10 0 0 -102 11 -116 5 -6 53 -13 109 -16 70 -4 106 -10 125 -22 27 -18 68 -93 59 -108 -3 -4 -97 -8 -209 -8 l-205 0 -2 285 -3 286 -60 -61z m39 -219 c-1 -120 -5 -224 -9 -231 -5 -9 -4 -11 4 -6 8 6 10 1 6 -16 -3 -12 0 -31 7 -41 12 -16 32 -18 213 -17 253 1 235 -1 235 26 0 13 4 26 10 29 5 3 7 0 5 -7 -3 -8 6 -24 20 -36 20 -17 30 -20 45 -12 24 13 71 9 62 -5 -4 -5 -7 -14 -7 -20 0 -5 -21 -11 -47 -13 -27 -2 -48 -7 -48 -13 0 -14 -30 -11 -35 4 -4 9 -39 11 -141 8 -83 -2 -134 1 -131 6 4 6 -18 6 -56 1 -90 -13 -149 -6 -158 18 -4 10 -8 114 -8 229 0 116 -3 223 -6 238 -7 26 15 77 33 77 4 0 7 -98 6 -219z m176 -80 c0 -5 26 -12 58 -16 31 -3 65 -10 74 -15 23 -13 37 -13 18 0 -25 16 12 12 47 -5 42 -21 68 -51 52 -61 -8 -5 -10 -3 -5 5 6 8 2 11 -10 9 -13 -2 -19 3 -17 16 1 13 -2 15 -10 7 -7 -7 -14 -7 -23 0 -7 5 -51 11 -98 12 -47 1 -86 6 -86 10 0 5 -4 6 -9 3 -5 -4 -7 4 -3 16 4 16 2 19 -8 13 -9 -5 -11 -4 -6 3 9 14 26 16 26 3z m287 -146 c0 -8 -4 -15 -9 -15 -10 0 -11 14 -1 23 9 10 10 9 10 -8z"/> <path d="M5298 853 c12 -2 32 -2 45 0 12 2 2 4 -23 4 -25 0 -35 -2 -22 -4z"/> <path d="M5538 853 c12 -2 32 -2 45 0 12 2 2 4 -23 4 -25 0 -35 -2 -22 -4z"/> <path d="M5778 853 c12 -2 32 -2 45 0 12 2 2 4 -23 4 -25 0 -35 -2 -22 -4z"/> <path d="M5725 840 c3 -5 8 -10 11 -10 2 0 4 5 4 10 0 6 -5 10 -11 10 -5 0 -7 -4 -4 -10z"/> <path d="M3908 1398 l-28 -29 28 -24 c34 -31 36 -30 56 0 16 24 16 27 -4 55 -12 17 -22 29 -23 29 -1 -1 -14 -15 -29 -31z m38 -25 c-2 -9 -8 -19 -14 -21 -16 -5 -15 25 1 31 6 3 13 6 14 6 1 1 0 -7 -1 -16z"/> <path d="M4024 1399 l-28 -29 27 -27 27 -28 28 30 28 30 -27 26 -28 26 -27 -28z m34 -42 c-11 -21 -11 -21 -18 -2 -4 11 -3 23 3 27 19 12 28 -2 15 -25z"/> <path d="M764 1384 l-31 -33 33 -32 34 -33 34 33 34 33 -33 34 c-19 19 -36 33 -37 33 -2 -1 -17 -16 -34 -35z m55 -13 c8 -14 6 -23 -11 -37 -19 -17 -21 -17 -15 -2 4 11 2 17 -5 15 -6 -1 -13 4 -16 12 -2 8 0 11 6 7 5 -3 12 1 16 9 7 20 13 19 25 -4z"/> <path d="M2695 1380 l-29 -30 32 -32 32 -32 35 34 35 34 -33 27 c-17 16 -35 28 -38 29 -3 0 -18 -14 -34 -30z m49 -11 c-3 -5 -10 -6 -16 -3 -7 4 -8 2 -4 -4 4 -6 14 -8 24 -5 15 6 14 4 -2 -16 -18 -19 -21 -20 -35 -7 -13 14 -13 18 4 35 17 20 41 20 29 0z"/> <path d="M3300 1367 l-26 -32 28 -30 28 -30 32 32 32 33 -29 30 c-16 16 -31 30 -34 29 -3 0 -17 -15 -31 -32z m46 -32 c-9 -7 -12 -16 -8 -21 4 -4 -1 -2 -10 5 -14 10 -15 17 -7 33 9 16 13 17 26 7 13 -12 13 -14 -1 -24z"/> <path d="M3327 1346 c-4 -10 -1 -13 8 -9 8 3 12 9 9 14 -7 12 -11 11 -17 -5z"/> <path d="M3435 1370 l-29 -30 31 -32 31 -31 26 29 c14 16 26 32 26 35 0 3 -13 17 -28 32 l-28 27 -29 -30z m44 -41 c-5 -10 -12 -19 -15 -19 -3 0 -3 4 0 9 4 5 1 11 -6 13 -6 2 -8 9 -4 16 3 6 13 9 21 6 11 -5 12 -11 4 -25z"/> <path d="M4068 1246 c-51 -35 -56 -41 -44 -55 8 -9 16 -32 18 -51 l3 -34 -53 3 c-45 2 -60 -2 -94 -25 -56 -39 -71 -74 -76 -176 l-4 -88 295 0 296 0 19 25 19 24 23 -24 23 -25 284 0 283 0 0 165 0 165 -22 -13 c-13 -8 -53 -22 -90 -32 -99 -25 -148 -76 -148 -152 l0 -43 -157 0 c-86 0 -154 2 -152 4 101 93 155 117 179 79 9 -15 10 -13 8 12 -2 20 -11 33 -26 40 -12 5 -20 15 -18 22 8 20 -47 67 -103 87 -35 12 -59 28 -70 46 l-17 28 -16 -28 c-11 -20 -34 -35 -77 -51 -62 -22 -104 -59 -95 -83 3 -8 -5 -16 -20 -20 -13 -3 -28 -15 -31 -27 -8 -25 1 -37 17 -21 21 21 61 13 93 -17 l30 -30 30 25 c29 23 29 24 10 38 -63 45 -62 44 -36 66 13 11 31 20 41 20 10 0 25 7 33 15 14 13 19 13 44 0 15 -8 33 -15 39 -15 6 0 19 -9 30 -21 19 -21 18 -21 -11 -46 -17 -14 -54 -47 -83 -74 l-53 -49 -129 0 -130 0 -2 188 -3 187 -57 -39z m35 -176 l-5 -160 35 -15 c25 -10 66 -14 146 -12 107 3 112 4 141 32 16 16 30 23 30 17 0 -7 -4 -12 -10 -12 -5 0 -10 -5 -10 -11 0 -8 5 -8 15 1 8 7 15 19 15 27 0 7 7 16 15 19 8 4 12 11 8 18 -3 6 0 5 8 -2 12 -11 12 -15 -2 -25 -20 -15 -16 -44 8 -63 20 -15 37 -19 29 -6 -2 4 57 7 132 7 145 0 161 5 162 50 1 33 28 100 39 97 6 -1 11 5 11 13 0 9 6 12 17 8 11 -4 14 -3 9 5 -4 7 -4 12 1 13 4 0 19 2 33 4 14 3 37 5 53 6 15 1 27 7 27 13 0 6 4 6 11 -1 15 -15 18 -183 4 -184 -6 0 -5 -3 1 -5 6 -3 9 -15 7 -28 -4 -20 -13 -24 -56 -30 -29 -3 -81 -5 -117 -4 -65 2 -65 2 20 8 l85 6 -74 2 c-41 1 -90 -3 -108 -10 -27 -10 -38 -10 -53 0 -11 7 -54 12 -99 12 -44 0 -82 5 -84 10 -3 6 -4 5 -3 -2 2 -9 31 -15 92 -19 l89 -6 -95 2 c-105 3 -150 9 -159 23 -14 21 -40 20 -63 -3 l-24 -24 -262 0 c-260 0 -261 0 -268 22 -5 12 -7 27 -5 32 9 29 9 45 1 45 -5 0 -7 7 -4 15 4 8 9 13 14 10 4 -2 6 8 4 23 -3 32 25 70 38 50 6 -10 8 -8 8 5 0 9 7 17 16 17 12 0 14 3 6 13 -8 9 0 12 33 13 26 0 42 -3 38 -9 -9 -15 41 3 54 20 6 8 10 25 8 38 -1 14 1 22 5 20 4 -3 7 8 6 24 0 16 -4 27 -9 24 -4 -2 -5 -9 -2 -14 4 -5 1 -9 -4 -9 -32 0 7 46 41 49 3 1 4 -71 1 -159z m393 63 c-3 -3 -16 1 -28 9 -20 14 -26 13 -63 -7 -22 -13 -42 -22 -45 -22 -3 0 -14 -4 -25 -11 -11 -6 -16 -12 -11 -12 6 0 1 -6 -10 -14 -18 -14 -18 -16 14 -44 36 -32 38 -38 18 -45 -11 -4 -13 -1 -9 10 5 12 3 14 -7 8 -10 -6 -12 -4 -7 10 6 14 3 17 -17 13 -25 -5 -44 16 -25 27 5 4 8 13 7 22 -3 18 30 39 81 49 7 1 23 12 35 23 13 12 26 18 29 14 4 -3 7 -1 7 6 0 8 11 4 31 -9 16 -12 28 -25 25 -27z m64 -25 c0 -6 3 -8 7 -5 3 4 12 -1 20 -11 9 -11 12 -11 7 -2 -5 12 -4 12 5 4 10 -9 10 -17 2 -32 -8 -15 -8 -21 2 -25 6 -2 -5 -13 -26 -24 -22 -10 -38 -22 -38 -26 1 -4 -1 -7 -4 -7 -38 0 -39 1 -12 18 15 9 27 20 27 24 0 5 7 8 16 8 8 0 12 5 8 11 -3 6 0 15 7 20 11 7 11 9 1 9 -7 0 -10 5 -7 11 4 6 0 9 -10 7 -11 -2 -19 4 -20 15 -2 9 1 17 6 17 5 0 9 -5 9 -12z"/> <path d="M3966 1059 c-30 -8 -66 -40 -66 -59 0 -5 -4 -10 -9 -10 -5 0 -11 -11 -13 -25 -3 -14 -1 -25 5 -25 6 0 6 -5 -1 -12 -19 -23 27 -44 93 -42 95 2 95 2 88 21 -5 13 -2 15 13 10 17 -6 17 -5 3 5 -10 9 -13 21 -9 38 4 14 2 31 -4 39 -8 11 -8 13 2 7 17 -10 15 -3 -6 22 -25 29 -61 41 -96 31z m60 -27 c7 -4 14 -33 15 -65 l4 -57 -74 0 c-63 0 -72 2 -67 16 3 9 6 26 6 38 0 49 77 94 116 68z"/> <path d="M4957 1057 c4 -6 0 -8 -10 -4 -22 8 -72 -21 -92 -55 -9 -15 -13 -28 -9 -28 3 0 2 -6 -4 -13 -8 -9 -5 -21 13 -44 19 -24 31 -30 54 -27 17 2 33 -1 36 -6 4 -7 13 -6 26 0 11 6 23 9 27 6 9 -5 10 7 13 94 1 39 -3 64 -12 73 -16 16 -51 19 -42 4z m33 -82 l0 -65 -60 0 c-58 0 -60 1 -60 26 0 46 26 80 75 96 43 13 45 10 45 -57z"/> <path d="M4410 889 c0 -5 5 -7 10 -4 6 3 10 8 10 11 0 2 -4 4 -10 4 -5 0 -10 -5 -10 -11z"/> <path d="M3963 853 c9 -2 23 -2 30 0 6 3 -1 5 -18 5 -16 0 -22 -2 -12 -5z"/> <path d="M4198 853 c23 -2 61 -2 85 0 23 2 4 4 -43 4 -47 0 -66 -2 -42 -4z"/> <path d="M1905 1194 c-9 -9 -15 -28 -13 -43 2 -20 -1 -25 -15 -23 -31 5 -47 -17 -47 -64 0 -24 5 -44 10 -44 6 0 10 9 10 19 0 25 14 34 39 26 35 -11 33 -36 -9 -124 -23 -47 -43 -104 -47 -127 -18 -131 106 -235 244 -204 86 19 136 73 151 163 l8 42 327 3 327 2 0 182 0 182 -60 -59 c-62 -62 -70 -75 -45 -75 12 0 15 -14 15 -70 l0 -70 -92 0 -93 0 2 140 c1 77 0 140 -2 140 -2 0 -28 -26 -58 -57 -52 -54 -54 -58 -36 -71 16 -11 19 -26 19 -83 l0 -69 -51 0 -50 0 2 115 c1 64 0 117 -2 118 -2 1 -29 -24 -60 -55 -47 -49 -53 -59 -37 -64 14 -4 18 -16 18 -60 l0 -54 -57 0 -58 0 3 105 4 106 -63 -61 c-60 -57 -62 -60 -44 -74 17 -12 20 -27 20 -103 0 -141 -42 -195 -150 -197 -60 0 -96 19 -125 67 -30 49 -25 91 26 200 46 97 46 99 35 154 -7 36 -7 61 -1 73 6 10 10 21 10 24 0 13 -40 5 -55 -10z m25 -107 c0 -22 -3 -28 -9 -18 -5 7 -19 14 -32 15 -12 0 -25 8 -27 16 -4 12 -2 13 9 3 12 -10 17 -8 27 8 17 27 32 15 32 -24z m658 -42 c-3 -47 -2 -88 3 -91 5 -3 5 -13 -1 -24 -7 -14 -6 -20 8 -25 16 -7 16 -8 -1 -14 -10 -4 32 -6 93 -5 107 1 113 2 136 27 22 24 23 30 4 29 -3 0 -3 20 -1 44 2 33 -2 51 -15 66 -11 12 -14 18 -8 15 7 -4 14 2 17 14 5 17 9 19 26 9 12 -6 21 -15 21 -21 0 -6 -5 -7 -12 -3 -7 5 -8 3 -3 -7 12 -19 14 -49 4 -81 -4 -16 -4 -28 2 -28 5 0 9 -7 9 -15 0 -8 -6 -15 -12 -15 -8 0 -9 -3 -3 -8 6 -4 10 -17 11 -29 0 -20 -5 -23 -35 -24 l-36 -2 35 -8 c34 -8 34 -8 -5 -3 -103 12 -185 14 -185 5 0 -13 -148 -13 -155 0 -4 5 -30 8 -58 7 l-52 -1 55 -7 c52 -6 50 -7 -30 -8 -58 -1 -80 1 -70 8 9 6 10 10 3 10 -6 0 -15 -5 -18 -10 -3 -6 -17 -7 -31 -4 -33 8 -74 -20 -74 -51 0 -13 -5 -27 -11 -31 -6 -3 -9 -15 -6 -25 3 -11 2 -17 -2 -14 -5 2 -14 -8 -22 -23 -16 -30 -40 -52 -51 -46 -4 2 -10 0 -13 -6 -4 -6 -16 -8 -27 -4 -12 4 -18 2 -14 -4 3 -6 -11 -10 -36 -10 -24 -1 -46 5 -50 11 -6 9 -8 9 -8 0 0 -8 -9 -7 -30 5 -16 9 -30 23 -30 31 0 7 -6 11 -13 8 -8 -3 -14 1 -14 8 0 10 5 11 19 4 10 -5 18 -14 18 -20 0 -6 5 -7 10 -4 6 3 10 2 10 -4 0 -5 8 -10 18 -10 9 0 32 -2 51 -6 25 -5 31 -4 25 6 -5 9 -2 10 10 6 9 -4 28 0 41 9 13 9 29 13 35 9 7 -4 14 2 17 14 3 11 10 18 16 14 6 -4 8 0 4 10 -3 9 0 18 9 21 8 3 13 9 12 13 -4 19 15 82 23 77 5 -3 4 7 -1 21 -13 34 -13 38 3 29 9 -6 9 -4 -1 8 -8 10 -10 26 -6 44 5 21 4 25 -6 19 -10 -6 -12 -1 -8 18 3 14 2 26 -1 25 -21 -2 -21 4 -1 22 12 11 26 17 30 15 5 -3 8 -32 7 -65 -2 -53 1 -61 21 -72 31 -16 104 -16 135 1 22 11 24 16 14 32 -9 14 -9 21 0 30 8 8 9 18 2 31 -5 10 -7 23 -4 28 3 5 0 12 -6 16 -8 5 -9 3 -4 -6 5 -8 4 -11 -3 -6 -6 4 -9 13 -6 21 4 8 10 13 14 10 5 -3 16 5 25 17 16 22 17 18 13 -74 -3 -76 -1 -98 9 -98 7 0 13 -4 13 -10 0 -5 -8 -7 -17 -4 -15 5 -16 4 -3 -5 18 -13 60 -15 60 -2 0 5 6 9 13 8 53 -2 78 22 71 68 -8 60 -11 154 -4 150 4 -3 10 2 14 10 13 35 18 9 14 -70z m282 65 c0 -5 -2 -10 -4 -10 -3 0 -8 5 -11 10 -3 6 -1 10 4 10 6 0 11 -4 11 -10z"/> <path d="M2191 784 c0 -11 3 -14 6 -6 3 7 2 16 -1 19 -3 4 -6 -2 -5 -13z"/> <path d="M2803 1185 c0 -8 4 -12 9 -9 5 3 6 10 3 15 -9 13 -12 11 -12 -6z"/> <path d="M3459 1119 c-50 -54 -53 -61 -37 -70 15 -8 18 -22 18 -74 l0 -65 -100 0 -100 0 0 132 c0 129 0 131 -19 114 -12 -11 -43 -20 -80 -23 -69 -6 -88 -21 -93 -73 -2 -29 -7 -35 -27 -35 -37 0 -61 -55 -61 -137 l0 -68 100 0 100 0 0 -25 c0 -43 -27 -94 -62 -115 -43 -26 -94 -35 -123 -22 -14 6 -27 7 -30 3 -7 -12 79 -41 119 -41 43 0 113 37 143 76 15 20 28 52 31 79 l5 45 138 0 139 0 0 180 c0 99 -1 180 -2 180 -2 0 -28 -28 -59 -61z m-249 -19 c5 15 8 -15 8 -72 -1 -54 -5 -98 -10 -98 -15 0 18 -29 44 -39 33 -12 184 -7 201 8 11 9 14 32 12 92 -2 44 -7 84 -11 87 -4 4 -4 -1 -1 -10 4 -10 2 -18 -4 -18 -6 0 -9 8 -7 18 2 10 11 16 21 14 10 -2 16 2 15 9 -2 6 3 13 10 15 7 1 8 0 2 -3 -8 -3 -7 -9 1 -19 9 -11 9 -14 0 -14 -7 0 -9 -5 -5 -11 8 -14 13 -99 5 -99 -9 0 -5 -85 4 -101 6 -9 4 -11 -8 -6 -10 4 -17 1 -18 -6 0 -9 -2 -9 -6 1 -3 8 -31 12 -88 12 -82 0 -122 -10 -157 -39 -13 -11 -14 -18 -6 -28 7 -9 7 -13 -1 -13 -7 0 -9 -4 -6 -10 8 -13 -25 -81 -36 -74 -5 3 -18 -5 -29 -18 -11 -13 -19 -17 -20 -10 0 6 3 12 8 12 4 0 17 15 29 33 25 38 41 107 24 107 -6 0 -11 6 -11 13 0 10 -19 12 -80 9 -58 -3 -83 0 -92 10 -14 14 -19 119 -5 111 4 -2 7 1 7 7 0 6 7 19 16 28 15 15 16 14 9 -8 -4 -14 -8 -29 -9 -35 0 -5 -4 -12 -7 -15 -4 -3 -3 -15 2 -27 6 -16 17 -23 34 -23 18 0 24 -4 19 -12 -5 -9 -2 -9 9 1 13 10 17 10 17 1 0 -9 4 -9 17 1 15 12 16 12 8 -1 -8 -13 -7 -13 8 -1 14 11 17 11 17 0 0 -7 10 -3 25 11 21 20 24 30 22 89 -2 67 -13 91 -41 91 -9 0 -16 6 -17 13 0 6 -5 2 -11 -10 -13 -26 -35 -37 -44 -21 -4 7 -3 8 4 4 16 -10 15 7 0 23 -10 11 -10 13 0 7 7 -4 12 -1 12 7 0 10 10 13 37 11 20 -1 44 1 53 6 11 7 16 3 19 -13 4 -21 4 -21 11 3z m-50 -120 l0 -70 -65 0 c-51 0 -65 3 -65 15 0 20 38 57 50 50 6 -4 10 7 10 24 0 26 5 32 33 40 17 5 33 10 35 10 1 1 2 -30 2 -69z m-94 18 c4 -7 4 -10 -1 -6 -4 4 -14 0 -21 -10 -12 -15 -12 -15 -7 6 6 24 18 29 29 10z m347 -155 c-23 -2 -64 -2 -90 0 -26 2 -7 3 42 3 50 0 71 -1 48 -3z"/> <path d="M2998 873 c7 -3 16 -2 19 1 4 3 -2 6 -13 5 -11 0 -14 -3 -6 -6z"/> <path d="M3058 853 c12 -2 32 -2 45 0 12 2 2 4 -23 4 -25 0 -35 -2 -22 -4z"/> <path d="M3198 833 c7 -3 16 -2 19 1 4 3 -2 6 -13 5 -11 0 -14 -3 -6 -6z"/> <path d="M299 1054 c2 -36 -2 -53 -18 -75 l-22 -30 30 -10 c44 -16 75 -84 69 -155 -8 -100 -91 -169 -201 -168 -46 1 -55 -1 -40 -10 10 -6 57 -11 104 -11 77 0 90 3 127 27 22 15 54 49 69 75 24 41 28 59 28 123 0 61 -6 85 -28 130 -23 48 -104 150 -117 150 -3 0 -3 -21 -1 -46z m51 -45 c0 -5 5 -7 12 -3 7 4 8 3 4 -4 -9 -14 18 -55 28 -44 5 4 7 -2 5 -13 -2 -11 3 -37 10 -57 7 -21 10 -47 6 -58 -3 -11 -2 -20 3 -20 6 0 5 -18 -1 -45 -6 -25 -14 -45 -19 -45 -5 0 -6 -4 -3 -10 3 -5 -9 -25 -27 -44 -25 -26 -38 -32 -48 -26 -13 8 -12 10 3 10 9 0 17 6 17 14 0 8 5 18 12 22 7 5 8 3 3 -6 -5 -8 -4 -11 3 -6 6 4 9 13 5 21 -3 8 -1 15 4 15 12 0 14 15 14 100 0 37 -4 66 -10 68 -6 2 -11 9 -11 15 -1 7 -14 28 -30 46 -22 26 -26 37 -17 43 6 4 8 8 3 8 -11 0 14 30 25 30 5 0 9 -5 9 -11z"/> <path d="M356 955 c-9 -26 -7 -32 5 -12 6 10 9 21 6 23 -2 3 -7 -2 -11 -11z"/> <path d="M5449 703 c-13 -16 -12 -17 4 -4 16 13 21 21 13 21 -2 0 -10 -8 -17 -17z"/> <path d="M5506 669 l-29 -31 32 -31 31 -32 32 32 32 33 -29 30 c-16 16 -31 30 -34 30 -3 -1 -19 -15 -35 -31z m61 -24 c5 -4 2 -5 -5 -1 -9 5 -12 3 -10 -5 1 -8 0 -15 -5 -16 -18 -7 -26 -2 -24 15 1 19 30 23 44 7z"/> <path d="M2082 500 c-19 -31 -15 -32 28 -10 47 24 50 30 12 30 -16 0 -32 -8 -40 -20z"/> <path d="M1546 452 c-4 -7 -19 -9 -37 -5 -44 9 -69 -18 -69 -76 0 -37 10 -63 49 -130 27 -47 47 -90 44 -98 -10 -25 -33 -13 -53 27 -27 53 -42 52 -34 -2 9 -64 13 -73 26 -60 8 8 17 8 30 1 22 -12 53 2 68 31 21 39 11 90 -35 179 -25 48 -45 93 -45 99 0 26 32 10 46 -24 17 -41 41 -41 36 1 -6 43 -18 70 -26 57z m-55 -96 c5 3 5 -4 0 -19 -7 -17 -6 -24 4 -24 7 0 11 7 8 16 -4 14 -3 14 6 1 6 -9 7 -18 1 -24 -6 -6 -10 -15 -10 -20 0 -6 5 -4 10 4 9 13 11 13 19 1 5 -8 7 -20 4 -28 -3 -7 1 -15 8 -18 8 -3 15 -18 15 -33 1 -15 -1 -21 -3 -14 -3 6 -9 10 -14 7 -5 -4 -6 2 -2 11 5 13 3 15 -7 9 -8 -5 -11 -4 -7 2 4 6 0 17 -9 24 -18 15 -36 54 -40 84 -1 11 -5 31 -8 45 -5 22 -5 21 5 -3 6 -15 15 -25 20 -21z"/> <path d="M130 437 c0 -8 3 -17 6 -20 4 -4 8 -66 10 -139 4 -149 13 -168 74 -170 60 -2 70 23 70 178 0 78 4 135 10 139 19 12 10 25 -17 25 l-28 0 0 -152 c0 -129 -2 -153 -15 -153 -12 0 -15 23 -18 133 -1 80 2 140 8 152 10 19 7 20 -45 20 -39 0 -55 -4 -55 -13z m64 -143 c-3 -88 -1 -130 7 -140 7 -8 9 -17 5 -21 -3 -3 -6 -1 -6 5 0 6 -8 9 -17 6 -15 -5 -16 -4 -3 5 9 7 10 11 3 11 -8 0 -13 36 -15 124 -2 68 0 122 5 119 4 -2 7 1 7 6 0 6 4 11 9 11 6 0 8 -51 5 -126z"/> <path d="M350 437 c0 -8 3 -16 6 -20 8 -7 5 -272 -3 -292 -4 -12 3 -15 31 -15 37 0 44 8 25 27 -10 10 -19 163 -9 163 3 0 22 -43 44 -95 56 -139 66 -130 66 60 0 97 4 155 10 155 6 0 10 7 10 15 0 10 -11 15 -35 15 -37 0 -44 -10 -20 -30 10 -9 15 -32 15 -77 0 -35 -3 -62 -8 -59 -4 2 -21 41 -37 85 -29 78 -31 81 -62 81 -21 0 -33 -5 -33 -13z m54 -33 c8 -36 45 -114 56 -114 5 0 10 -7 10 -16 0 -8 5 -12 10 -9 6 4 10 -14 9 -47 l0 -53 -23 47 c-13 25 -26 58 -30 72 -3 14 -10 25 -14 25 -28 -5 -32 4 -32 63 0 58 6 72 14 32z"/> <path d="M570 441 c0 -6 5 -13 10 -16 6 -4 10 -63 10 -145 0 -82 -4 -141 -10 -145 -25 -15 -5 -25 50 -25 55 0 75 10 50 25 -6 4 -10 63 -10 145 0 82 4 141 10 145 25 15 5 25 -50 25 -33 0 -60 -4 -60 -9z m73 -145 c0 -69 -4 -129 -7 -135 -3 -5 -1 -12 4 -14 6 -3 5 -4 -2 -3 -16 3 -29 221 -16 249 6 11 5 17 -2 17 -6 0 -9 4 -5 10 3 5 11 7 18 4 9 -3 12 -39 10 -128z"/> <path d="M734 428 c4 -13 20 -88 37 -167 16 -79 32 -147 34 -151 8 -13 44 1 49 19 9 29 46 223 46 240 0 9 7 29 15 45 20 37 20 36 -20 36 -38 0 -40 -2 -24 -28 8 -12 6 -38 -6 -97 -9 -44 -18 -95 -20 -114 -4 -38 -22 -63 -29 -40 -2 8 -7 28 -9 44 -3 17 -12 56 -20 88 -8 32 -12 67 -10 78 3 12 0 19 -8 19 -11 0 -11 2 1 10 8 5 18 10 21 10 8 0 5 -33 -5 -48 -4 -7 -1 -12 8 -12 9 0 16 -7 16 -16 0 -8 -4 -12 -10 -9 -15 10 -12 -5 6 -22 9 -10 13 -25 10 -38 -4 -15 -1 -25 9 -29 18 -7 18 5 1 102 -7 39 -9 72 -5 72 5 0 9 7 9 15 0 11 -12 15 -51 15 -49 0 -51 -1 -45 -22z"/> <path d="M960 435 c0 -8 5 -15 10 -15 13 0 13 -277 0 -285 -27 -16 -3 -25 69 -25 l79 0 7 36 c3 20 3 39 0 43 -8 7 -35 -28 -35 -46 0 -7 -8 -13 -17 -13 -16 0 -18 9 -16 72 1 55 5 74 16 76 8 2 17 -7 20 -19 9 -35 26 -12 24 33 -2 42 -27 69 -27 29 0 -13 -6 -21 -17 -21 -15 0 -18 9 -17 62 2 70 15 84 39 39 28 -56 41 -32 19 37 -2 8 -27 12 -79 12 -60 0 -75 -3 -75 -15z m64 -30 c-15 -12 -15 -14 -2 -9 15 5 17 -5 17 -113 -1 -132 -3 -150 -23 -150 -11 0 -14 29 -14 135 -1 75 1 139 4 144 3 4 13 8 22 8 13 0 13 -2 -4 -15z"/> <path d="M1170 435 c0 -8 5 -15 10 -15 13 0 13 -277 0 -285 -24 -15 -6 -25 43 -25 l54 0 -5 76 c-4 70 -3 76 14 72 16 -3 20 -15 24 -73 l5 -70 36 -3 37 -3 -5 48 c-7 76 -12 91 -32 98 -11 3 -22 12 -25 20 -3 8 0 12 8 9 22 -8 50 34 49 74 -1 27 -9 43 -32 64 -28 25 -38 28 -106 28 -60 0 -75 -3 -75 -15z m128 -17 c14 -14 16 -106 3 -127 -20 -31 -33 -5 -33 62 1 37 1 69 1 72 1 9 17 5 29 -7z m-58 -8 c-10 -6 -11 -10 -2 -10 15 0 17 -76 2 -85 -7 -5 -8 -11 -1 -19 13 -16 11 -76 -3 -76 -6 0 -5 -4 3 -9 10 -6 12 -19 7 -46 -14 -73 -26 -27 -30 113 -5 140 -4 142 17 142 18 0 19 -2 7 -10z m118 -48 c2 -23 -2 -34 -13 -38 -14 -6 -14 -9 -3 -16 11 -8 11 -9 0 -6 -8 2 -13 7 -13 11 1 4 1 25 1 48 0 49 23 50 28 1z m-2 -191 c2 -26 -1 -39 -6 -32 -4 8 -12 11 -16 8 -5 -3 -7 20 -5 51 2 47 5 53 14 36 6 -10 12 -39 13 -63z"/> <path d="M1620 440 c0 -6 6 -13 14 -16 21 -8 21 -280 1 -288 -34 -13 -11 -26 45 -26 47 0 60 3 60 15 0 8 -4 15 -10 15 -6 0 -10 53 -10 140 0 87 4 140 10 140 6 0 10 7 10 15 0 12 -13 15 -60 15 -35 0 -60 -4 -60 -10z m77 -150 c1 -71 -2 -128 -6 -126 -4 3 -8 -1 -8 -9 0 -8 4 -12 8 -9 4 2 10 0 14 -6 3 -5 -3 -10 -14 -10 -19 0 -20 7 -23 145 -3 133 1 161 23 149 3 -1 6 -62 6 -134z"/> <path d="M1787 443 c-4 -3 -7 -21 -7 -40 0 -41 27 -46 32 -6 2 14 9 28 16 31 15 5 18 -283 2 -293 -24 -15 -6 -25 45 -25 41 0 55 4 55 14 0 8 -4 18 -10 21 -16 10 -13 288 3 283 6 -3 13 -17 15 -31 2 -16 9 -27 19 -27 12 0 14 7 9 31 -3 17 -6 35 -6 40 0 10 -163 12 -173 2z m106 -41 c-2 -6 -3 -53 -4 -104 -1 -101 -5 -128 -20 -128 -5 0 -9 55 -9 126 0 114 2 125 18 122 9 -2 16 -9 15 -16z m-3 -252 c0 -5 -7 -10 -15 -10 -8 0 -15 5 -15 10 0 6 7 10 15 10 8 0 15 -4 15 -10z"/> <path d="M2010 435 c0 -8 5 -15 10 -15 13 0 13 -277 0 -285 -26 -16 -3 -25 65 -25 72 0 76 1 85 26 14 35 12 54 -3 54 -7 0 -18 -13 -24 -30 -6 -16 -18 -30 -27 -30 -13 0 -16 13 -14 75 1 58 4 75 15 75 8 0 17 -9 20 -20 10 -37 23 -20 23 30 0 50 -13 67 -23 30 -3 -11 -12 -20 -21 -20 -13 0 -16 11 -13 62 2 66 20 88 36 45 20 -52 44 -43 29 11 l-9 32 -74 0 c-60 0 -75 -3 -75 -15z m73 -60 c0 -25 -4 -52 -7 -61 -3 -8 -2 -12 4 -9 11 7 8 -30 -3 -41 -9 -10 -9 -26 1 -21 4 3 7 -8 7 -24 0 -16 -3 -29 -6 -29 -3 0 -4 -13 -3 -29 1 -19 -2 -28 -10 -25 -16 6 -19 264 -3 264 7 0 6 4 -3 10 -12 8 -12 10 5 10 17 0 20 -6 18 -45z"/> <path d="M2354 438 c-4 -6 -2 -14 4 -16 15 -5 17 -278 2 -287 -26 -16 -3 -25 65 -25 67 0 79 3 100 24 64 64 55 269 -14 306 -27 14 -148 13 -157 -2z m61 -146 c-1 -70 1 -118 6 -107 7 19 8 19 8 -2 1 -13 -3 -23 -9 -23 -5 0 -7 -7 -4 -15 4 -8 1 -15 -5 -15 -6 0 -11 3 -12 8 -5 64 -2 189 5 185 4 -3 5 4 1 16 -13 42 -13 90 0 85 9 -4 12 -40 10 -132z m65 -6 c3 -75 4 -141 2 -146 -2 -6 -11 -10 -20 -10 -15 0 -17 16 -15 147 2 82 3 150 3 151 0 2 6 2 13 0 8 -3 13 -45 17 -142z m65 55 c5 -15 3 -21 -3 -17 -6 4 -7 -6 -3 -27 12 -56 -14 -155 -35 -134 -5 5 -2 12 5 16 9 6 10 11 2 15 -7 5 -8 14 -3 24 9 18 7 105 -3 157 -5 30 -5 30 14 10 10 -11 22 -31 26 -44z"/> <path d="M2615 440 c-3 -6 1 -13 9 -16 23 -9 24 -282 1 -290 -36 -14 -9 -24 64 -24 84 0 91 4 91 56 0 34 -19 30 -31 -6 -6 -16 -17 -30 -25 -30 -11 0 -14 17 -14 75 0 57 3 75 14 75 7 0 16 -9 19 -21 9 -35 27 -11 27 37 0 45 -17 61 -27 24 -3 -11 -12 -20 -19 -20 -11 0 -14 16 -14 66 0 71 13 82 38 31 18 -38 36 -35 28 4 -3 17 -6 35 -6 40 0 13 -147 11 -155 -1z m77 -110 c2 -45 -1 -63 -12 -70 -8 -5 -10 -10 -5 -10 6 0 11 -20 13 -45 2 -26 -2 -45 -7 -45 -6 0 -8 -7 -5 -15 4 -10 0 -15 -11 -15 -9 0 -13 5 -10 11 8 12 8 256 0 269 -3 4 1 10 7 13 18 6 26 -21 30 -93z"/> <path d="M2967 443 c-4 -3 -7 -21 -7 -40 0 -41 27 -46 32 -6 2 14 9 28 16 31 15 5 18 -283 2 -293 -24 -15 -6 -25 45 -25 42 0 55 3 55 15 0 8 -4 15 -10 15 -6 0 -10 55 -10 145 0 92 4 145 10 145 6 0 13 -13 17 -30 3 -17 12 -30 20 -30 11 0 14 7 9 23 -3 12 -6 30 -6 40 0 15 -11 17 -83 17 -46 0 -87 -3 -90 -7z m100 -167 c2 -143 2 -144 -20 -138 -12 3 -17 7 -12 9 6 2 10 56 9 138 -2 99 1 135 10 135 8 0 12 -40 13 -144z"/> <path d="M3190 435 c0 -8 5 -15 10 -15 6 0 10 -53 10 -139 0 -114 3 -143 16 -155 26 -27 81 -24 107 6 14 17 17 41 17 154 0 78 4 135 10 139 19 12 10 25 -17 25 l-28 0 0 -152 c0 -129 -2 -153 -15 -153 -12 0 -15 23 -18 133 -1 80 2 140 8 152 10 19 7 20 -45 20 -42 0 -55 -3 -55 -15z m66 -142 c-4 -110 -3 -130 12 -147 17 -19 17 -19 -10 0 -25 19 -26 22 -27 130 0 61 -3 119 -7 128 -4 12 0 16 15 16 21 0 21 -3 17 -127z"/> <path d="M3410 436 c0 -8 5 -18 10 -21 6 -4 10 -62 10 -140 0 -78 -4 -136 -10 -140 -21 -13 -9 -25 25 -25 24 0 35 5 35 14 0 8 -4 16 -9 18 -10 4 -21 158 -11 158 4 0 24 -43 44 -95 29 -74 42 -95 57 -95 18 0 19 9 19 148 0 81 3 157 6 170 6 19 3 22 -25 22 -30 0 -45 -24 -20 -32 6 -2 9 -31 7 -73 l-3 -70 -35 87 c-34 85 -36 88 -67 88 -22 0 -33 -5 -33 -14z m45 -16 c3 -5 1 -10 -4 -10 -6 0 -11 5 -11 10 0 6 2 10 4 10 3 0 8 -4 11 -10z m16 -32 c1 -7 1 -18 0 -24 -1 -6 6 -17 14 -24 25 -20 19 -40 -7 -27 -18 8 -23 19 -24 49 -1 21 2 38 7 38 5 0 10 -6 10 -12z m78 -124 c4 3 7 -20 7 -51 0 -48 -1 -53 -13 -37 -7 10 -13 25 -13 35 0 9 -9 27 -20 41 -14 19 -16 28 -8 36 9 9 15 6 25 -8 8 -11 18 -18 22 -16z"/> <path d="M3520 265 c0 -5 5 -17 10 -25 5 -8 10 -10 10 -5 0 6 -5 17 -10 25 -5 8 -10 11 -10 5z"/> <path d="M3635 440 c-3 -6 0 -13 9 -16 21 -8 21 -268 0 -285 -26 -21 -14 -29 46 -29 47 0 60 3 60 15 0 8 -4 15 -10 15 -6 0 -10 53 -10 140 0 87 4 140 10 140 6 0 10 7 10 15 0 11 -13 15 -54 15 -30 0 -58 -5 -61 -10z m74 -159 c-1 -104 -4 -141 -14 -145 -10 -4 -13 23 -14 126 -1 72 -2 133 -3 137 -1 15 3 21 17 21 14 0 16 -20 14 -139z"/> <path d="M3803 415 c-21 -44 -9 -91 49 -187 24 -40 38 -74 34 -84 -9 -24 -29 -12 -49 29 -31 62 -44 46 -31 -36 5 -29 9 -35 20 -26 9 7 19 7 30 1 25 -14 60 4 74 39 16 38 6 79 -46 178 -31 60 -41 88 -33 95 12 12 49 -26 49 -50 0 -8 7 -14 16 -14 13 0 15 7 10 31 -3 17 -6 37 -6 44 0 8 -17 13 -50 14 -48 1 -51 -1 -67 -34z m49 -66 c6 -3 10 -10 10 -15 1 -10 13 -41 40 -101 15 -33 17 -46 8 -60 -10 -16 -10 -15 -5 5 4 13 2 22 -4 22 -6 0 -10 3 -8 8 1 4 -8 18 -20 32 -13 13 -23 30 -23 38 0 8 -9 25 -20 40 -13 16 -17 28 -10 32 6 4 8 15 5 26 -6 18 -6 18 6 -1 7 -11 16 -23 21 -26z"/> <path d="M4110 440 c0 -6 6 -13 13 -15 15 -6 12 -295 -4 -295 -5 0 -9 -4 -9 -10 0 -6 33 -10 79 -10 l79 0 6 31 c8 43 8 49 -5 49 -5 0 -15 -13 -20 -30 -6 -16 -17 -30 -25 -30 -11 0 -14 17 -14 75 0 57 3 75 14 75 7 0 16 -9 19 -21 9 -35 27 -11 27 37 0 32 -4 44 -15 44 -8 0 -15 -9 -15 -20 0 -12 -7 -20 -17 -20 -15 0 -18 9 -17 62 2 71 15 84 39 37 20 -38 38 -27 27 16 -8 30 -9 30 -85 33 -50 2 -77 -1 -77 -8z m75 -147 c-3 -69 -7 -128 -10 -131 -3 -3 1 -12 8 -20 10 -13 9 -14 -3 -10 -12 4 -15 24 -17 86 -1 60 2 80 10 76 8 -5 7 -2 0 7 -7 7 -13 29 -13 49 0 20 6 42 13 49 10 10 9 11 -5 6 -11 -4 -18 -2 -18 4 0 6 9 11 20 11 18 0 19 -6 15 -127z"/> <path d="M4320 435 c0 -8 5 -15 10 -15 6 0 10 -53 10 -139 0 -83 -4 -142 -10 -146 -5 -3 -10 -10 -10 -16 0 -11 147 -13 153 -1 3 4 8 22 12 41 9 41 -13 40 -33 -2 -7 -15 -18 -27 -25 -27 -15 0 -11 283 4 288 5 2 9 10 9 18 0 10 -15 14 -60 14 -47 0 -60 -3 -60 -15z m73 -21 c-8 -4 -9 -13 -3 -28 8 -23 5 -244 -4 -253 -3 -3 -9 -2 -15 1 -6 4 -6 18 0 39 12 41 11 56 -1 37 -7 -10 -10 19 -9 98 2 106 3 112 23 111 12 0 16 -3 9 -5z"/> <path d="M4660 435 c0 -8 5 -15 10 -15 6 0 10 -53 10 -139 0 -83 -4 -142 -10 -146 -19 -12 -10 -25 18 -25 34 0 45 9 33 24 -15 18 -16 169 -1 196 12 23 12 24 -3 11 -15 -12 -17 -10 -17 24 0 29 3 36 16 31 8 -3 12 -2 9 4 -3 6 -14 10 -23 10 -14 0 -15 2 -2 9 18 12 43 -20 43 -55 0 -13 3 -24 8 -24 5 0 9 -6 9 -14 0 -8 6 -17 13 -20 10 -5 10 -7 0 -12 -7 -3 -13 -13 -14 -22 0 -9 -5 -2 -10 16 -13 42 -34 43 -25 0 13 -65 27 -108 35 -108 5 0 18 35 29 78 l20 77 1 -97 c1 -55 -3 -99 -9 -103 -24 -15 -6 -25 46 -25 50 0 55 2 48 18 -11 23 -13 281 -2 288 4 3 8 12 8 20 0 10 -12 14 -43 14 l-43 0 -13 -66 c-8 -36 -17 -62 -21 -57 -4 4 -13 34 -20 66 l-13 57 -44 0 c-32 0 -43 -4 -43 -15z m197 -104 c-1 -49 0 -88 3 -86 3 2 3 -21 2 -51 -4 -54 -16 -70 -26 -36 -8 25 -2 132 6 119 5 -8 8 -6 8 6 0 9 -4 17 -9 17 -5 0 -14 14 -20 30 -6 18 -6 28 -1 25 6 -4 10 5 10 19 0 14 6 26 13 26 8 0 7 4 -3 10 -13 8 -13 10 2 10 15 0 16 -11 15 -89z"/> <path d="M4980 436 c0 -8 4 -16 9 -18 9 -3 -30 -254 -44 -290 -6 -15 -2 -18 25 -18 27 0 31 3 25 18 -15 36 -11 47 23 50 26 3 32 0 32 -17 0 -11 -4 -23 -10 -26 -24 -15 -6 -25 46 -25 50 0 55 2 49 18 -10 21 -40 185 -50 265 l-6 57 -50 0 c-36 0 -49 -4 -49 -14z m80 -33 c1 -12 2 -36 3 -53 1 -16 5 -30 8 -30 4 0 7 -10 7 -22 -1 -21 3 -46 16 -140 3 -17 0 -28 -8 -28 -6 0 -12 8 -13 18 -2 16 -3 30 -17 147 -8 65 -15 87 -26 80 -5 -3 -7 -11 -5 -18 2 -7 6 -45 9 -84 l6 -73 -25 0 c-24 0 -25 3 -20 33 19 114 25 170 18 180 -4 7 0 6 10 -2 15 -12 17 -12 12 1 -4 9 0 15 8 15 8 0 15 -11 17 -24z"/> <path d="M5180 436 c0 -8 5 -18 10 -21 6 -4 10 -62 10 -140 0 -78 -4 -136 -10 -140 -21 -13 -9 -25 25 -25 35 0 43 8 26 25 -11 13 -21 165 -10 165 4 0 11 -10 14 -22 4 -13 20 -56 38 -95 22 -53 36 -73 49 -73 18 0 19 10 18 148 -1 81 2 155 5 165 10 24 3 29 -36 25 -31 -3 -32 -4 -16 -20 13 -12 17 -33 16 -85 l0 -68 -30 64 c-16 35 -32 74 -35 87 -5 19 -13 24 -40 24 -23 0 -34 -5 -34 -14z m57 -31 c0 -8 -4 -15 -9 -15 -4 0 -8 7 -8 15 0 8 4 15 8 15 5 0 9 -7 9 -15z m19 -70 c1 -40 0 -41 -18 -26 -17 14 -24 51 -13 63 17 16 30 0 31 -37z m24 -34 c0 -10 11 -23 24 -30 21 -12 23 -17 15 -44 -6 -22 -5 -33 3 -38 7 -5 9 -11 5 -15 -9 -9 -36 25 -37 46 0 9 -4 20 -9 25 -12 14 -22 87 -10 80 5 -4 9 -14 9 -24z"/> <path d="M5440 442 c0 -4 4 -12 10 -18 9 -9 -28 -258 -45 -296 -6 -15 -2 -18 30 -18 35 0 37 1 23 18 -22 26 -12 52 23 52 24 0 29 -4 29 -23 0 -13 -5 -28 -12 -35 -9 -9 1 -12 46 -12 52 0 57 2 51 18 -4 9 -16 71 -27 137 -10 66 -21 135 -24 153 -5 31 -6 32 -54 32 -28 0 -50 -4 -50 -8z m78 -29 c0 -5 1 -15 5 -23 3 -8 10 -60 16 -115 6 -55 13 -110 15 -123 3 -12 1 -20 -3 -17 -12 7 -29 85 -34 155 -1 19 -6 41 -10 48 -5 7 -5 22 -2 35 4 15 3 18 -3 8 -12 -17 -27 3 -18 24 5 15 37 22 34 8z m-25 -116 c3 -35 7 -70 9 -78 2 -8 -7 -15 -19 -17 -26 -4 -27 0 -17 97 4 33 10 61 14 61 4 0 10 -29 13 -63z"/> <path d="M5640 435 c0 -8 5 -15 10 -15 6 0 10 -53 10 -139 0 -83 -4 -142 -10 -146 -24 -15 -6 -25 45 -25 51 0 69 10 45 25 -5 3 -10 33 -10 66 0 52 2 59 20 59 20 0 24 -9 20 -44 -1 -11 1 -39 5 -63 6 -43 7 -43 47 -43 37 0 40 2 34 23 -3 12 -6 37 -6 56 0 26 -9 41 -37 68 -21 19 -30 31 -20 27 38 -14 72 44 57 98 -14 49 -53 68 -139 68 -56 0 -71 -3 -71 -15z m130 -24 c22 -43 6 -131 -24 -131 -10 0 -14 20 -15 75 -1 60 1 75 13 75 9 0 20 -9 26 -19z m-62 -46 c-2 -32 1 -55 7 -56 6 0 4 -3 -2 -6 -7 -2 -13 -9 -13 -14 0 -6 4 -8 9 -5 8 6 5 -94 -4 -122 -3 -7 0 -10 5 -7 6 3 10 2 10 -4 0 -16 -18 -22 -26 -9 -4 6 -8 71 -10 145 -1 112 1 133 13 133 12 0 14 -12 11 -55z m117 6 c6 -29 -11 -71 -29 -71 -4 0 -3 7 4 15 7 8 10 31 8 50 -5 42 8 47 17 6z m0 -198 c0 -18 -4 -34 -10 -36 -6 -3 -10 17 -11 50 -1 43 1 51 9 37 6 -10 11 -33 12 -51z"/> <path d="M801 284 c0 -11 3 -14 6 -6 3 7 2 16 -1 19 -3 4 -6 -2 -5 -13z"/> </g> </svg>