<?xml version="1.0" standalone="no"?> <!DOCTYPE svg PUBLIC "-//W3C//DTD SVG 20010904//EN" "http://www.w3.org/TR/2001/REC-SVG-20010904/DTD/svg10.dtd"> <svg version="1.0" xmlns="http://www.w3.org/2000/svg" width="600.000000pt" height="724.000000pt" viewBox="0 0 600.000000 724.000000" preserveAspectRatio="xMidYMid meet"> <g transform="translate(0.000000,724.000000) scale(0.100000,-0.100000)" fill="currentColor" stroke="none"> <path d="M5063 7068 c94 -95 247 -248 339 -339 l168 -167 0 337 0 336 -321 -5 c-176 -3 -323 -2 -326 3 -2 4 -11 7 -18 7 -8 0 63 -78 158 -172z m477 143 c0 -5 -6 -12 -12 -14 -8 -3 -6 -6 5 -6 16 -1 17 -22 17 -286 0 -157 -3 -285 -7 -285 -16 0 -203 201 -197 212 4 7 3 8 -5 4 -7 -5 -39 20 -82 63 -43 43 -68 75 -63 82 4 8 3 9 -4 5 -15 -9 -95 71 -86 86 4 7 3 8 -5 4 -7 -5 -38 19 -81 62 -39 39 -70 72 -70 75 0 3 133 6 295 7 179 0 295 -3 295 -9z"/> <path d="M3746 6932 c88 -87 232 -231 321 -320 l161 -161 1 319 2 320 -322 0 -321 0 158 -158z m450 135 c1 -1 4 -130 8 -287 l6 -284 -85 84 c-46 46 -81 88 -78 94 3 6 2 8 -2 3 -11 -10 -86 63 -78 76 3 6 2 7 -4 4 -11 -7 -56 36 -48 46 3 4 2 5 -2 2 -10 -8 -33 16 -26 29 3 6 2 8 -2 3 -11 -10 -86 63 -78 76 3 6 2 7 -4 4 -13 -8 -86 67 -76 78 5 4 3 5 -3 2 -14 -8 -57 36 -47 48 5 4 3 5 -3 2 -6 -4 -18 1 -27 11 -15 16 0 17 266 14 155 -2 282 -4 283 -5z"/> <path d="M3744 6989 c-3 -6 -2 -15 3 -20 5 -5 9 -1 9 11 0 23 -2 24 -12 9z"/> <path d="M3825 6909 c-4 -6 -5 -12 -2 -15 2 -3 7 2 10 11 7 17 1 20 -8 4z"/> <path d="M3984 6749 c-3 -6 -2 -15 3 -20 5 -5 9 -1 9 11 0 23 -2 24 -12 9z"/> <path d="M4065 6669 c-4 -6 -5 -12 -2 -15 2 -3 7 2 10 11 7 17 1 20 -8 4z"/> <path d="M4146 6592 c-2 -4 -1 -14 4 -22 7 -11 9 -9 7 8 -1 24 -3 26 -11 14z"/> <path d="M4742 6333 c222 -222 403 -403 403 -403 0 0 0 180 0 400 l0 400 -402 2 -403 3 402 -402z m377 22 c0 -189 -3 -347 -8 -349 -5 -3 -15 2 -22 11 -10 12 -10 14 -1 9 28 -17 9 3 -28 29 -21 15 -38 31 -37 35 1 4 -2 8 -6 8 -5 1 -21 17 -36 36 -16 20 -32 32 -37 28 -5 -4 -3 1 4 10 11 14 10 16 -5 14 -11 -2 -30 13 -49 37 -17 21 -35 40 -39 41 -4 0 -22 15 -40 31 -24 22 -30 33 -22 43 5 7 7 15 3 19 -3 3 -6 1 -6 -5 0 -18 -19 -10 -51 21 -16 16 -28 36 -27 45 2 11 -3 16 -12 15 -23 -4 -161 132 -148 145 8 8 5 10 -7 8 -21 -3 -77 55 -73 76 2 7 -3 12 -10 10 -7 -1 -23 4 -35 13 -19 14 13 15 335 15 l357 0 0 -345z"/> <path d="M610 6245 l0 -315 38 0 c181 -1 399 -145 484 -320 43 -90 61 -162 62 -252 l1 -68 376 0 377 0 4 98 c3 74 8 106 23 131 48 81 147 125 232 103 56 -15 110 -55 138 -103 15 -25 20 -57 23 -131 l4 -98 209 0 208 0 3 253 3 252 27 40 c42 61 90 89 163 93 70 5 109 -10 163 -61 54 -51 62 -100 62 -354 l0 -223 210 0 210 0 0 90 c0 99 12 138 54 182 43 45 85 62 151 62 140 1 216 -99 212 -276 l-2 -58 393 0 392 0 0 111 0 112 -32 -7 c-156 -33 -350 -6 -499 69 -354 178 -518 569 -403 963 l6 22 -1646 0 -1646 0 0 -315z m3253 259 c-3 -7 -8 -12 -12 -10 -3 2 -7 -10 -8 -27 -1 -18 -4 -77 -8 -132 -8 -116 15 -295 37 -295 6 0 5 -6 -2 -15 -9 -11 -10 -15 -1 -15 8 0 10 -8 6 -21 -5 -15 -4 -19 4 -15 12 8 66 -98 63 -120 -1 -6 5 -17 13 -24 13 -11 15 -10 9 6 -5 18 -5 18 6 1 6 -9 8 -22 4 -29 -4 -6 -3 -8 3 -5 5 3 16 -4 24 -16 8 -12 33 -41 57 -65 37 -38 41 -46 30 -60 -12 -15 -11 -16 4 -4 19 15 35 9 56 -20 7 -10 17 -16 22 -13 10 6 8 -15 -4 -33 -4 -7 -5 -16 -2 -19 3 -4 6 -1 6 5 0 6 10 17 23 23 20 11 21 11 8 -5 -13 -16 -12 -17 12 -11 18 5 27 3 27 -5 0 -6 -5 -8 -12 -4 -7 4 -8 3 -4 -5 6 -9 11 -9 22 0 8 6 14 7 14 2 0 -13 49 -35 61 -28 5 3 6 -1 3 -9 -5 -12 4 -17 38 -23 23 -4 46 -6 51 -5 4 1 7 -2 7 -7 0 -5 10 -9 23 -9 12 0 42 -5 67 -12 50 -13 207 -17 258 -6 l32 8 0 -81 0 -81 -366 0 -366 0 4 59 c2 33 1 58 -2 56 -3 -2 -5 14 -4 35 1 27 -3 40 -13 44 -9 4 -13 14 -10 26 3 11 1 18 -3 15 -5 -3 -18 7 -29 21 -12 15 -21 23 -22 18 0 -5 -7 5 -14 21 -8 17 -14 24 -15 18 0 -18 -25 -16 -41 3 -10 12 -27 14 -88 10 -99 -7 -111 -9 -105 -18 3 -4 -1 -8 -8 -8 -8 0 -29 -16 -48 -35 -19 -19 -30 -35 -25 -35 5 0 -2 -11 -15 -25 -20 -22 -25 -38 -28 -108 -2 -45 -7 -85 -10 -89 -8 -8 -341 -13 -348 -5 -2 2 -5 103 -7 224 -1 122 -5 219 -9 216 -5 -2 -8 6 -8 19 -1 13 -9 37 -18 55 -20 38 -121 116 -140 108 -7 -2 -11 -1 -8 4 3 5 -21 8 -54 8 -33 0 -60 -5 -60 -10 0 -5 -13 -7 -30 -5 -16 3 -28 2 -25 0 5 -5 -54 -62 -64 -62 -4 0 -20 -26 -34 -58 -27 -57 -27 -60 -27 -280 l0 -222 -185 0 -185 0 2 73 c1 70 -15 147 -31 147 -4 0 -13 11 -19 25 -7 15 -27 33 -45 41 -19 9 -23 13 -9 10 13 -2 20 0 16 6 -4 5 -17 8 -30 5 -13 -2 -21 0 -18 4 7 12 -44 24 -103 23 -39 0 -61 -6 -85 -24 -24 -17 -29 -19 -18 -5 14 17 14 18 -7 7 -28 -15 -86 -88 -101 -127 -11 -30 -20 -93 -21 -153 l-1 -33 -347 3 -348 3 -6 65 c-3 36 -9 76 -14 90 -5 14 -9 30 -9 35 -1 15 -39 109 -47 115 -3 3 -10 15 -13 28 -4 12 -18 33 -31 46 -13 13 -21 27 -18 30 4 3 -1 6 -10 6 -9 0 -21 10 -28 21 -9 17 -8 20 2 14 8 -5 10 -4 5 3 -4 7 -11 12 -16 12 -10 0 -40 23 -69 51 -14 15 -98 57 -179 91 -15 6 -54 14 -87 17 l-60 6 -8 275 c-4 151 -5 281 -2 287 3 10 338 13 1607 15 882 2 1608 -1 1615 -5 6 -5 9 -15 6 -23z"/> <path d="M848 5923 c7 -3 16 -2 19 1 4 3 -2 6 -13 5 -11 0 -14 -3 -6 -6z"/> <path d="M1064 5792 c4 -3 14 -7 22 -8 9 -1 13 0 10 4 -4 3 -14 7 -22 8 -9 1 -13 0 -10 -4z"/> <path d="M4003 5741 c0 -11 5 -18 9 -15 4 3 5 11 1 19 -7 21 -12 19 -10 -4z"/> <path d="M4106 5652 c-3 -5 1 -9 9 -9 8 0 12 4 9 9 -3 4 -7 8 -9 8 -2 0 -6 -4 -9 -8z"/> <path d="M1925 5539 c-4 -6 -5 -12 -2 -15 2 -3 7 2 10 11 7 17 1 20 -8 4z"/> <path d="M3603 5533 c0 -9 4 -10 14 -2 7 6 13 12 13 14 0 1 -6 2 -13 2 -8 0 -14 -6 -14 -14z"/> <path d="M5627 6018 c186 -186 339 -338 340 -338 2 0 3 152 3 338 l0 337 -340 0 -340 0 337 -337z m320 17 c1 -162 -1 -295 -4 -295 -2 0 -119 115 -260 255 -170 170 -253 260 -250 270 4 8 1 17 -5 21 -6 4 -8 3 -4 -4 15 -25 -12 -16 -43 14 l-35 33 301 0 300 0 0 -294z"/> <path d="M5166 5515 c184 -184 335 -335 337 -335 1 0 2 151 2 335 l0 335 -337 0 -337 0 335 -335z m314 13 l1 -302 -23 24 c-12 14 -29 31 -38 38 -8 8 -10 11 -4 8 6 -3 11 1 11 8 0 8 -7 12 -14 9 -14 -6 -60 35 -55 49 1 5 -2 7 -7 6 -5 -2 -9 2 -9 7 0 6 5 9 11 7 7 -2 8 0 4 4 -4 4 -15 9 -23 10 -32 5 -45 14 -54 39 -7 17 -14 24 -22 19 -10 -6 -10 -4 0 8 11 14 11 16 -5 12 -22 -6 -53 25 -56 54 -1 17 -4 19 -16 9 -12 -9 -13 -9 -7 1 4 6 3 12 -2 12 -4 0 -25 15 -45 33 -29 25 -35 35 -25 45 9 9 7 11 -10 7 -23 -4 -65 42 -60 67 2 8 -4 12 -16 10 -19 -4 -47 21 -59 51 -4 9 -15 20 -24 24 -68 24 -38 28 233 33 153 3 287 6 296 8 16 2 17 -22 18 -300z"/> <path d="M1380 4909 l0 -152 78 5 77 4 -2 -1715 -3 -1716 28 50 c78 140 248 371 374 509 17 19 18 101 18 1593 l0 1573 -285 0 -285 0 0 -151z m545 -1436 c0 -859 -2 -1560 -4 -1558 -2 2 -14 -9 -28 -26 -14 -16 -30 -26 -35 -22 -7 3 -8 1 -4 -5 7 -11 -8 -33 -51 -79 -13 -13 -23 -28 -23 -33 0 -5 -9 -16 -21 -24 -12 -8 -18 -19 -15 -25 5 -7 1 -8 -10 -4 -14 5 -16 3 -11 -11 4 -10 3 -15 -3 -11 -6 3 -10 -3 -10 -15 0 -12 -4 -19 -9 -15 -5 3 -12 -4 -16 -15 -4 -11 -11 -17 -17 -14 -7 4 -8 2 -4 -5 9 -15 -32 -73 -46 -65 -7 5 -9 0 -6 -14 4 -12 3 -20 -1 -18 -3 2 -15 -14 -26 -37 l-20 -41 -2 1665 c-3 1550 -4 1665 -20 1677 -9 6 -38 12 -65 12 -32 0 -48 4 -48 13 0 9 -2 9 -9 -1 -7 -11 -9 -11 -14 2 -4 9 -3 16 1 16 4 0 6 48 6 108 l-2 107 257 0 256 0 0 -1562z"/> <path d="M1445 4815 c23 -8 83 -10 79 -3 -3 4 -24 8 -47 7 -23 0 -37 -2 -32 -4z"/> <path d="M1780 1786 c7 -7 13 -7 20 0 6 6 3 10 -10 10 -13 0 -16 -4 -10 -10z"/> <path d="M2370 3680 l0 -1380 58 43 c74 56 217 149 298 194 l64 35 0 1244 0 1244 -210 0 -210 0 0 -1380z m386 1347 c2 -2 4 -551 4 -1221 0 -1271 1 -1251 -40 -1238 -8 3 -12 1 -8 -3 9 -10 -41 -37 -53 -29 -5 3 -9 1 -9 -4 0 -5 -11 -15 -25 -22 -13 -7 -21 -18 -18 -24 4 -6 -6 -3 -21 8 -17 11 -25 13 -20 5 10 -16 15 -44 7 -35 -8 8 -60 -21 -86 -50 -13 -14 -31 -26 -40 -28 -9 -1 -25 -10 -37 -21 l-20 -18 0 1344 0 1344 181 -2 c100 -1 183 -4 185 -6z"/> <path d="M2454 2404 c-18 -14 -18 -15 4 -4 12 6 22 13 22 15 0 8 -5 6 -26 -11z"/> <path d="M2405 2389 c-4 -6 -5 -12 -2 -15 2 -3 7 2 10 11 7 17 1 20 -8 4z"/> <path d="M3210 3915 c0 -630 3 -1145 6 -1145 4 0 39 12 78 26 39 14 130 41 201 59 l130 33 3 1086 2 1086 -210 0 -210 0 0 -1145z m53 1111 c3 5 79 8 169 6 l163 -3 0 -1060 0 -1060 -25 -6 c-14 -4 -41 -7 -61 -7 -22 0 -35 -5 -33 -11 3 -6 -4 -11 -14 -12 -10 -1 -48 -11 -85 -23 -37 -12 -73 -23 -80 -24 -6 -1 -23 -8 -35 -15 -13 -7 -26 -10 -30 -7 -3 3 1 6 9 6 8 0 10 3 4 8 -7 5 -8 377 -5 1099 3 600 2 1089 -2 1086 -10 -5 -10 21 -1 30 4 4 10 2 14 -4 3 -6 9 -7 12 -3z"/> <path d="M4048 4008 c2 -829 5 -1052 15 -1049 6 2 100 6 207 9 l195 4 0 896 0 895 73 -2 72 -2 0 150 0 151 -282 0 -283 0 3 -1052z m535 909 c2 -89 -1 -107 -13 -108 -10 0 -8 -3 5 -9 14 -6 0 -9 -46 -9 -49 -1 -70 -5 -80 -18 -12 -13 -15 -170 -19 -896 l-5 -879 -155 -3 c-85 -1 -163 -5 -172 -10 -11 -4 -18 -3 -18 5 0 6 -3 9 -7 7 -9 -5 -6 1999 2 2021 3 10 60 12 256 10 l251 -3 1 -108z"/> <path d="M4503 4813 c9 -2 25 -2 35 0 9 3 1 5 -18 5 -19 0 -27 -2 -17 -5z"/> <path d="M1190 1080 c0 -28 2 -30 40 -30 38 0 40 2 40 30 0 28 -2 30 -40 30 -38 0 -40 -2 -40 -30z"/> <path d="M2200 1080 c0 -28 2 -30 40 -30 38 0 40 2 40 30 0 28 -2 30 -40 30 -38 0 -40 -2 -40 -30z"/> <path d="M2583 1077 c-30 -43 -29 -44 10 -39 29 4 86 46 87 65 0 4 -17 7 -37 7 -32 0 -42 -6 -60 -33z"/> <path d="M2990 1048 c0 -59 12 -101 22 -82 3 5 6 32 7 59 1 28 6 53 9 57 4 4 5 -13 4 -37 -3 -29 0 -45 7 -45 8 0 9 -6 3 -17 -8 -17 -9 -207 -1 -228 5 -13 -6 -16 -27 -8 -11 4 -12 8 -4 13 7 4 12 39 13 88 1 44 -1 78 -5 76 -7 -5 -23 16 -23 31 0 5 -12 16 -27 24 -36 21 -76 6 -101 -37 -25 -43 -27 -144 -4 -189 28 -53 82 -69 119 -36 17 15 18 15 18 0 0 -13 9 -17 35 -17 l35 0 0 205 0 205 -40 0 -40 0 0 -62z m-71 -104 c-13 -7 -22 -15 -20 -18 2 -4 1 -20 -3 -36 -6 -31 -26 -42 -26 -14 0 8 5 12 10 9 7 -4 9 2 6 17 -4 25 16 63 27 51 4 -3 7 -1 7 6 0 7 5 9 11 5 8 -4 3 -11 -12 -20z m66 -25 c9 -14 9 -134 1 -148 -11 -17 -53 -13 -60 5 -10 25 -7 114 4 135 11 20 45 26 55 8z m-91 -91 c-5 -29 5 -80 15 -73 5 2 16 -3 24 -13 15 -16 15 -18 -3 -18 -10 0 -16 4 -14 8 3 4 -1 8 -9 8 -21 0 -43 90 -25 101 18 12 17 12 12 -13z"/> <path d="M4350 905 l0 -205 40 0 39 0 3 113 3 112 26 3 c34 4 39 -14 39 -135 l0 -93 35 0 35 0 0 104 c0 109 -9 150 -38 172 -31 24 -66 16 -102 -23 -19 -20 -28 -33 -20 -29 12 7 13 6 3 -5 -8 -8 -13 -43 -13 -96 0 -49 -4 -83 -10 -83 -6 0 -10 63 -10 169 0 103 4 172 10 176 8 5 15 -59 13 -122 -1 -22 14 -14 21 10 3 12 6 48 6 80 l0 57 -40 0 -40 0 0 -205z m171 38 c18 -15 35 -155 23 -186 -14 -39 -23 -12 -20 64 2 57 -1 85 -11 94 -10 11 -10 14 0 18 6 3 0 9 -15 16 -16 6 -28 13 -28 15 0 8 33 -6 51 -21z"/> <path d="M3560 1082 c-29 -13 -57 -37 -68 -59 -15 -27 -16 -221 -2 -257 30 -81 193 -89 228 -11 22 47 16 65 -21 65 -27 0 -35 -5 -44 -30 -10 -26 -16 -30 -47 -30 -48 0 -56 19 -56 138 0 85 3 101 19 116 31 28 74 18 85 -20 8 -27 14 -31 44 -31 33 0 34 1 29 35 -4 18 -12 41 -19 49 -28 34 -108 53 -148 35z m27 -29 c-14 -14 -19 -15 -29 -4 -7 8 -8 11 -3 8 6 -3 17 -2 25 4 23 14 26 11 7 -8z m81 1 c-4 -3 3 -15 14 -26 28 -28 13 -36 -17 -8 -24 22 -25 40 -3 40 6 0 9 -3 6 -6z m-130 -36 c-6 -13 -13 -66 -14 -117 -2 -80 0 -99 17 -122 23 -33 25 -51 4 -42 -9 3 -13 8 -11 11 3 3 -1 10 -10 16 -13 10 -16 34 -16 126 0 74 4 116 11 118 6 2 11 8 11 13 0 6 -5 7 -12 3 -7 -4 -8 -3 -4 4 4 7 14 12 22 12 12 0 13 -4 2 -22z m162 -238 c0 -5 -5 -12 -10 -15 -6 -4 -8 -11 -5 -16 3 -5 -1 -6 -9 -3 -12 4 -13 11 -6 24 5 9 6 20 2 24 -3 4 1 4 11 0 9 -3 17 -10 17 -14z m-45 -50 c-11 -5 -27 -9 -35 -9 -9 0 -8 4 5 9 11 5 27 9 35 9 9 0 8 -4 -5 -9z"/> <path d="M612 925 l3 -155 32 -31 c42 -43 120 -51 171 -19 52 32 62 70 62 225 l0 135 -40 0 -40 0 0 -143 c0 -157 -7 -179 -54 -179 -55 0 -61 18 -61 177 l0 145 -38 0 -39 0 4 -155z m39 -8 c2 -75 7 -137 11 -137 4 0 8 -7 8 -16 0 -9 5 -12 12 -8 7 5 8 3 3 -6 -6 -10 -12 -7 -24 9 -14 18 -18 50 -20 164 -1 78 0 139 3 137 2 -3 6 -67 7 -143z m200 -83 c7 -8 6 -14 -1 -19 -6 -4 -9 -14 -6 -22 4 -9 2 -11 -6 -7 -8 5 -9 2 -5 -10 4 -9 3 -15 -2 -12 -5 3 -12 -1 -15 -10 -3 -8 -10 -12 -16 -9 -6 4 -2 15 10 28 11 12 18 27 15 35 -2 7 -1 11 3 8 4 -2 7 48 6 112 -1 111 -1 112 3 18 2 -55 8 -105 14 -112z m-136 -94 c3 -5 -1 -10 -10 -10 -9 0 -13 5 -10 10 3 6 8 10 10 10 2 0 7 -4 10 -10z"/> <path d="M2340 1019 c0 -32 -3 -39 -16 -37 -12 2 -17 -5 -18 -25 -1 -22 2 -27 15 -24 15 4 18 -7 21 -100 3 -90 6 -107 22 -119 19 -14 77 -19 88 -9 11 12 -5 53 -23 58 -17 5 -19 15 -19 86 0 74 2 81 20 81 15 0 20 7 20 29 0 24 -3 28 -20 24 -18 -5 -20 0 -20 34 0 38 -1 40 -35 41 -34 1 -35 1 -35 -39z m45 -9 c-3 -5 0 -12 6 -15 5 -4 8 -14 5 -22 -3 -8 -1 -11 4 -8 13 8 13 -8 0 -21 -5 -5 -10 -47 -11 -92 -1 -65 2 -87 15 -101 19 -21 9 -35 -14 -20 -8 5 -11 9 -6 9 6 0 2 6 -8 13 -14 10 -15 17 -7 40 13 35 14 58 2 39 -5 -9 -10 16 -13 65 -3 43 -2 79 2 81 5 2 6 14 4 27 -3 19 -1 23 11 19 8 -3 13 -10 10 -14z"/> <path d="M4200 1018 c0 -32 -3 -39 -15 -34 -11 4 -15 -2 -15 -24 0 -22 5 -30 18 -30 15 0 17 -11 17 -94 0 -78 3 -97 19 -115 23 -25 96 -30 96 -7 0 25 -12 46 -25 46 -10 0 -14 23 -17 85 -3 82 -2 85 19 85 18 0 21 5 19 27 -2 20 -9 28 -22 28 -16 0 -18 6 -16 37 l3 37 -40 -1 -41 0 0 -40z m45 2 c3 -5 1 -10 -4 -10 -6 0 -11 5 -11 10 0 6 2 10 4 10 3 0 8 -4 11 -10z m26 -49 c20 -20 21 -23 4 -17 -11 4 -16 4 -13 0 4 -4 3 -14 -2 -24 -5 -9 -10 -38 -11 -63 -2 -26 -6 -47 -10 -47 -4 0 -5 16 -2 34 8 49 -3 83 -29 92 -21 6 -21 7 -2 21 10 8 18 18 17 23 -4 15 23 5 48 -19z m-16 -179 c-3 -11 3 -30 16 -45 16 -22 17 -27 5 -27 -8 0 -18 5 -21 10 -4 6 -10 8 -14 6 -4 -3 -8 13 -9 35 -2 30 1 39 13 39 11 0 15 -6 10 -18z"/> <path d="M5129 983 c-13 -16 -12 -17 4 -4 9 7 17 15 17 17 0 8 -8 3 -21 -13z"/> <path d="M928 985 c-2 -2 -2 -67 0 -144 l3 -141 34 0 34 0 3 113 c3 110 4 112 27 115 13 2 28 -2 32 -10 5 -7 9 -59 9 -115 l0 -103 36 0 36 0 -4 126 c-3 118 -4 127 -27 145 -30 25 -66 24 -91 -1 -25 -25 -32 -25 -28 -2 2 13 -5 17 -29 19 -17 0 -33 0 -35 -2z m149 -30 c-4 -8 -1 -17 5 -21 6 -4 8 -3 4 4 -3 6 -2 13 3 16 5 3 11 -1 15 -9 3 -8 0 -15 -7 -15 -9 0 -9 -2 0 -8 7 -5 11 -24 10 -45 -2 -20 1 -37 5 -37 5 0 8 -24 7 -54 -2 -39 -6 -53 -15 -49 -9 3 -12 28 -11 86 2 71 -1 84 -21 108 -16 20 -19 29 -10 32 20 8 20 8 15 -8z m-93 -12 c3 -7 1 -13 -5 -13 -6 0 -7 -5 -3 -12 4 -6 3 -8 -2 -5 -6 3 -8 -29 -6 -84 3 -54 0 -89 -6 -89 -5 0 -10 45 -10 108 -1 87 2 109 13 109 8 0 16 -6 19 -14z"/> <path d="M1190 844 l0 -144 40 0 40 0 0 144 0 144 -40 0 -40 1 0 -145z m50 6 c0 -67 -4 -110 -10 -110 -6 0 -10 36 -10 88 0 80 7 132 16 132 2 0 4 -49 4 -110z"/> <path d="M1300 981 c1 -3 18 -67 39 -141 l39 -135 35 -3 c27 -2 37 1 41 15 2 10 19 68 36 128 17 61 33 117 36 126 4 14 -3 17 -35 16 -37 -1 -39 -3 -45 -36 -3 -20 -12 -69 -20 -109 -12 -63 -12 -71 0 -61 8 7 18 9 21 5 4 -4 2 -11 -6 -15 -7 -5 -12 -12 -11 -17 0 -5 -7 -11 -16 -12 -16 -4 -34 13 -34 33 0 6 4 4 9 -3 19 -30 21 23 4 117 l-17 98 -38 0 c-21 0 -38 -2 -38 -6z m57 -33 c0 -7 4 -25 8 -40 4 -16 4 -28 1 -28 -10 0 -27 52 -22 67 7 16 13 17 13 1z m128 -30 c-8 -51 -25 -74 -25 -35 0 25 18 77 27 77 3 0 2 -19 -2 -42z m-34 -95 c-12 -20 -14 -14 -5 12 4 9 9 14 11 11 3 -2 0 -13 -6 -23z m-62 -23 c0 -10 -3 -8 -9 5 -12 27 -12 43 0 25 5 -8 9 -22 9 -30z"/> <path d="M1598 970 c-38 -29 -51 -71 -46 -146 4 -60 7 -70 36 -95 24 -22 42 -29 73 -29 56 0 99 23 92 50 -5 18 -10 20 -37 14 -46 -11 -69 -7 -83 12 -29 40 -18 49 57 46 l70 -4 0 46 c0 25 -5 57 -12 71 -24 53 -104 71 -150 35z m42 -10 c0 -5 -5 -10 -11 -10 -5 0 -7 5 -4 10 3 6 8 10 11 10 2 0 4 -4 4 -10z m46 -3 c4 -4 -2 -7 -14 -7 -12 0 -22 4 -22 9 0 10 26 9 36 -2z m24 -18 c0 -11 -4 -18 -10 -14 -5 3 -7 12 -3 20 7 21 13 19 13 -6z m-109 -35 c-11 -18 -17 -33 -13 -33 19 3 23 -2 12 -16 -11 -13 -10 -15 6 -9 17 5 17 4 3 -8 -23 -19 -20 -49 9 -80 14 -16 21 -28 14 -28 -6 0 -14 5 -17 10 -4 6 -11 8 -16 4 -5 -3 -8 -2 -7 3 1 4 -3 17 -9 28 -14 25 -11 103 6 133 6 12 9 22 6 22 -4 0 -3 5 0 10 4 6 11 8 16 4 6 -3 2 -20 -10 -40z m83 10 c13 -34 7 -44 -29 -44 -27 0 -35 4 -35 18 0 37 52 58 64 26z m41 -24 c-3 -5 0 -10 7 -11 10 0 10 -2 -1 -6 -11 -5 -11 -7 0 -14 11 -7 11 -9 -2 -9 -10 0 -19 10 -21 25 -4 17 -1 25 9 25 8 0 11 -4 8 -10z m-45 -160 c-8 -5 -19 -10 -25 -10 -5 0 -3 5 5 10 8 5 20 10 25 10 6 0 3 -5 -5 -10z"/> <path d="M1800 844 l0 -144 35 0 34 0 3 108 3 107 28 3 c18 2 27 9 27 22 0 10 3 25 6 34 9 24 -33 20 -48 -4 -16 -25 -28 -26 -22 -2 4 14 -2 17 -30 19 l-36 2 0 -145z m64 84 c-3 -5 -9 -6 -13 -4 -4 3 -6 -32 -4 -78 3 -65 1 -83 -10 -83 -10 0 -13 19 -11 86 1 47 3 88 4 91 1 3 2 8 1 13 -1 4 8 2 18 -5 11 -7 17 -16 15 -20z m-19 -178 c3 -5 -1 -10 -10 -10 -9 0 -13 5 -10 10 3 6 8 10 10 10 2 0 7 -4 10 -10z"/> <path d="M2005 978 c-31 -17 -45 -39 -45 -74 0 -35 12 -47 79 -84 55 -30 64 -63 18 -68 -22 -3 -30 1 -34 17 -4 16 -13 21 -39 21 -43 0 -45 -21 -5 -61 23 -23 38 -29 71 -29 54 0 98 24 106 57 12 46 -7 75 -69 105 -41 21 -57 34 -57 49 0 30 30 36 51 11 11 -14 28 -22 48 -22 40 0 41 22 2 61 -32 31 -87 39 -126 17z m25 -18 c0 -5 -5 -10 -11 -10 -5 0 -7 5 -4 10 3 6 8 10 11 10 2 0 4 -4 4 -10z m88 -21 c3 -11 2 -12 -6 -1 -5 8 -12 13 -16 12 -4 -1 -12 1 -19 4 -6 2 -1 3 12 2 14 -2 27 -9 29 -17z m-108 -14 c0 -8 -4 -15 -10 -15 -5 0 -1 -9 11 -21 11 -11 18 -24 14 -27 -11 -11 -43 40 -38 59 6 23 23 25 23 4z m85 -103 c-3 -3 -11 0 -18 7 -9 10 -8 11 6 5 10 -3 15 -9 12 -12z m35 -20 c-5 -2 -6 -10 -3 -18 3 -8 0 -14 -7 -14 -6 0 -9 4 -5 9 3 5 1 12 -4 16 -6 3 -8 12 -5 20 5 11 9 12 19 2 7 -7 9 -13 5 -15z m-10 -52 c0 -5 -2 -10 -4 -10 -3 0 -8 5 -11 10 -3 6 -1 10 4 10 6 0 11 -4 11 -10z"/> <path d="M2200 844 l0 -144 38 0 37 0 -1 142 -2 142 -36 3 -36 2 0 -145z m49 12 c2 -133 -16 -153 -21 -22 -3 101 -1 126 12 126 4 0 8 -47 9 -104z"/> <path d="M2530 963 c-88 -79 -43 -263 64 -263 20 0 52 7 71 14 33 14 34 17 23 40 -8 18 -15 23 -23 16 -18 -15 -71 -15 -89 -1 -9 7 -16 23 -16 35 0 20 4 21 70 18 l70 -4 0 37 c0 113 -96 174 -170 108z m126 -24 c1 -8 4 -32 7 -54 l6 -40 -11 43 c-6 23 -15 42 -19 42 -5 0 -13 9 -19 20 -9 17 -8 19 11 11 12 -4 23 -14 25 -22z m-86 11 c0 -5 -6 -13 -13 -17 -8 -4 -17 -25 -20 -46 -3 -22 -2 -35 4 -32 10 7 13 -18 2 -29 -17 -17 -12 -51 9 -68 l23 -17 -22 2 c-12 0 -20 3 -18 6 3 2 0 10 -7 18 -15 18 -20 135 -5 126 6 -4 8 0 4 9 -3 9 1 25 9 37 16 22 34 28 34 11z m54 -36 c13 -34 7 -44 -29 -44 -24 0 -35 5 -35 14 0 29 13 46 35 46 13 0 26 -7 29 -16z m23 -66 c-3 -8 -6 -5 -6 6 -1 11 2 17 5 13 3 -3 4 -12 1 -19z"/> <path d="M3161 974 c-69 -49 -68 -210 1 -258 34 -24 112 -18 156 10 2 1 1 12 -3 23 -5 18 -12 19 -57 14 -42 -5 -53 -3 -64 12 -30 41 -19 50 56 47 l70 -4 0 47 c0 52 -20 99 -49 115 -29 15 -84 12 -110 -6z m64 -15 c4 -6 1 -10 -6 -8 -28 3 -40 -1 -33 -13 4 -6 3 -8 -4 -4 -12 7 -46 -35 -34 -44 15 -11 46 -53 35 -46 -8 4 -13 1 -13 -8 0 -9 -8 -16 -17 -16 -14 0 -15 -2 -5 -9 11 -7 11 -9 -1 -14 -12 -4 -15 2 -14 29 1 19 5 34 10 34 5 0 4 6 -2 14 -16 19 5 63 38 81 32 17 38 18 46 4z m52 -15 c-3 -4 -3 -14 2 -23 5 -9 11 -27 14 -41 5 -21 2 -26 -13 -27 -23 -2 -24 1 -10 28 7 13 7 25 1 38 -9 17 -6 31 7 31 3 0 2 -3 -1 -6z m-29 -46 c3 -26 1 -28 -32 -28 -38 0 -43 8 -25 41 16 30 53 21 57 -13z m-49 -156 c14 -12 14 -13 -4 -10 -24 4 -45 20 -38 31 2 4 -1 7 -7 7 -6 0 -8 5 -5 10 4 6 13 3 22 -7 9 -10 24 -24 32 -31z m54 -19 c-7 -2 -19 -2 -25 0 -7 3 -2 5 12 5 14 0 19 -2 13 -5z"/> <path d="M3799 961 c-39 -39 -38 -61 2 -61 20 0 37 8 49 22 15 19 20 20 34 9 9 -7 16 -24 16 -36 0 -19 -7 -23 -47 -28 -82 -9 -119 -81 -72 -141 30 -38 76 -36 110 5 l26 32 -5 -31 c-4 -31 -4 -32 36 -32 l41 0 -10 32 c-5 18 -9 71 -9 118 0 91 -2 97 -40 123 -40 27 -96 22 -131 -12z m136 -13 c5 4 5 2 1 -5 -3 -6 -2 -14 4 -18 13 -8 13 -182 0 -190 -5 -3 -10 2 -10 12 0 11 -6 25 -12 32 -10 11 -10 13 0 7 8 -5 12 1 12 18 0 14 -8 30 -17 35 -13 8 -14 10 -4 11 8 0 11 3 8 7 -4 3 -2 12 4 19 7 9 7 19 -2 36 -7 13 -12 29 -11 35 2 8 -4 11 -15 7 -15 -5 -16 -4 -3 5 11 8 18 7 26 -4 6 -8 15 -11 19 -7z m-96 -5 c-6 -7 -15 -10 -20 -7 -13 8 -3 21 15 21 12 0 13 -4 5 -14z m-20 -125 c-19 -32 -17 -55 6 -72 15 -12 16 -15 5 -16 -18 0 -45 39 -41 60 3 15 30 50 39 50 2 0 -2 -10 -9 -22z m81 -18 c0 -38 -34 -60 -58 -36 -23 23 -1 66 33 66 21 0 25 -5 25 -30z"/> <path d="M3910 936 c0 -2 8 -10 18 -17 15 -13 16 -12 3 4 -13 16 -21 21 -21 13z"/> <path d="M4020 844 l0 -145 36 3 35 3 1 111 0 110 29 -4 c24 -4 29 -1 29 16 0 11 3 27 6 36 12 30 -34 17 -58 -16 -19 -28 -24 -48 -26 -130 -3 -79 -6 -96 -18 -91 -10 3 -11 9 -5 17 11 13 19 176 9 169 -5 -2 -9 -41 -10 -86 l-2 -82 -3 76 c-4 70 13 151 24 121 7 -17 23 -5 23 19 0 15 -7 19 -35 19 l-35 0 0 -146z"/> <path d="M4665 978 c-27 -14 -45 -38 -45 -60 0 -14 8 -18 35 -18 25 0 35 4 35 15 0 24 31 31 46 10 24 -32 18 -55 -15 -55 -41 0 -90 -19 -101 -40 -30 -56 3 -130 58 -130 32 0 45 8 59 34 9 17 11 16 17 -8 5 -21 12 -26 39 -26 l33 0 -3 93 c-5 131 -10 153 -40 177 -28 22 -85 26 -118 8z m105 -28 c11 -6 17 -18 15 -30 -2 -11 -1 -20 3 -20 4 0 6 -33 6 -73 -2 -98 -2 -99 -16 -94 -15 4 -18 25 -6 50 5 10 4 25 -2 36 -8 16 -6 22 7 30 10 6 13 11 8 11 -6 0 -16 -5 -23 -12 -17 -17 -15 2 3 22 13 14 12 20 -5 53 -21 39 -20 43 10 27z m-115 -147 c-9 -14 -11 -23 -5 -23 6 0 8 -4 5 -10 -3 -5 0 -10 7 -10 9 0 9 -3 -2 -10 -19 -12 -32 9 -26 42 3 13 5 26 5 29 1 3 8 6 16 6 13 0 13 -3 0 -24z m95 -3 c0 -19 -7 -33 -21 -40 -30 -16 -49 -5 -49 29 0 31 10 39 48 40 18 1 22 -4 22 -29z m-60 -70 c0 -5 -7 -7 -15 -4 -8 4 -15 8 -15 10 0 2 7 4 15 4 8 0 15 -4 15 -10z"/> <path d="M4901 969 c-30 -29 -41 -61 -41 -125 0 -64 20 -118 48 -133 27 -14 65 -14 80 1 18 18 27 1 16 -30 -7 -21 -17 -28 -41 -30 -18 -2 -41 1 -51 7 -17 9 -21 7 -25 -17 -8 -38 6 -47 74 -47 56 0 63 3 90 33 l29 32 0 163 0 164 -29 0 c-22 0 -31 -6 -35 -21 -5 -21 -6 -21 -21 2 -21 28 -64 29 -94 1z m42 -22 c-27 -12 -55 -95 -40 -115 5 -7 7 -15 3 -19 -3 -3 1 -17 9 -30 9 -13 12 -23 8 -23 -5 0 -1 -4 7 -10 8 -5 12 -12 8 -15 -3 -3 -18 6 -32 20 -26 26 -34 41 -16 30 6 -3 10 -2 10 4 0 5 -5 13 -11 16 -19 12 2 135 23 135 5 0 7 3 5 8 -3 4 7 8 21 8 26 2 26 1 5 -9z m103 4 c-4 -5 0 -12 6 -15 11 -5 11 -7 0 -12 -6 -3 -9 -10 -6 -15 3 -6 7 -32 9 -58 2 -35 -1 -48 -11 -48 -8 0 -12 9 -10 20 1 10 0 38 -4 62 -6 39 2 75 16 75 3 0 3 -4 0 -9z m-52 -27 c13 -5 16 -22 16 -80 0 -68 -2 -75 -22 -84 -33 -12 -58 20 -58 75 0 79 20 106 64 89z m56 -141 c1 -5 3 -25 6 -46 3 -21 2 -46 -2 -55 -4 -9 -8 -21 -8 -27 -1 -5 -9 -9 -19 -7 -12 2 -15 -2 -10 -15 5 -15 3 -16 -7 -6 -12 11 -9 18 13 41 15 16 24 32 20 35 -4 4 -8 13 -9 20 -1 7 -5 20 -9 30 -4 10 -3 17 5 17 6 0 8 5 5 10 -3 6 -1 10 4 10 6 0 11 -3 11 -7z m-27 -47 c4 -10 1 -13 -8 -9 -8 3 -12 9 -9 14 7 12 11 11 17 -5z m-73 -116 c-18 -12 -30 -13 -30 -2 0 4 10 9 22 9 18 2 20 0 8 -7z m45 0 c3 -6 -1 -7 -9 -4 -18 7 -21 14 -7 14 6 0 13 -4 16 -10z"/> <path d="M5182 977 c-33 -15 -62 -78 -62 -131 0 -116 73 -172 179 -135 32 11 37 23 22 47 -6 10 -17 11 -42 5 -49 -13 -67 -6 -81 33 -6 19 -16 34 -21 34 -4 0 -5 5 -1 12 4 7 3 8 -4 4 -14 -9 -6 -67 10 -77 12 -7 21 -39 11 -39 -10 0 -37 33 -40 49 -8 43 -1 137 12 148 4 5 5 2 1 -4 -4 -7 -3 -13 2 -13 6 0 13 11 16 25 4 14 11 25 16 25 15 0 12 -12 -10 -40 -25 -32 -25 -45 2 -64 12 -9 17 -16 10 -16 -7 0 -10 -4 -7 -10 3 -5 38 -10 76 -10 l70 0 -5 38 c-12 76 -18 92 -43 112 -28 22 -75 25 -111 7z m88 -23 c0 5 7 3 15 -4 8 -7 13 -16 10 -20 -3 -5 -1 -11 5 -15 5 -3 10 -20 10 -36 0 -22 -4 -30 -16 -27 -8 2 -14 8 -12 13 2 6 6 9 9 8 3 -1 4 9 1 22 -2 14 -9 25 -16 25 -6 0 -4 5 4 10 8 5 12 10 8 11 -5 1 -12 3 -18 4 -5 1 -15 3 -21 4 -5 0 -7 6 -3 12 4 8 9 7 15 -2 5 -8 9 -10 9 -5z m-11 -46 c12 -31 6 -38 -35 -38 -38 0 -38 -1 -24 34 12 33 47 35 59 4z"/> <path d="M2640 530 c0 -13 7 -20 20 -20 13 0 20 7 20 20 0 13 -7 20 -20 20 -13 0 -20 -7 -20 -20z"/> <path d="M2710 530 c0 -13 7 -20 20 -20 13 0 20 7 20 20 0 13 -7 20 -20 20 -13 0 -20 -7 -20 -20z"/> <path d="M1742 363 c7 -249 15 -257 262 -251 180 3 210 13 253 78 62 91 -13 206 -121 186 -42 -8 -116 -61 -116 -83 0 -13 6 -11 28 10 16 15 31 25 34 22 3 -3 11 1 17 9 7 8 20 12 28 9 10 -4 14 -2 10 4 -4 6 3 11 18 11 14 0 25 -4 25 -9 0 -5 7 -5 17 -2 12 5 14 3 8 -7 -5 -8 -3 -11 6 -8 18 6 38 -13 31 -31 -4 -10 -1 -12 9 -6 11 7 11 5 -1 -10 -9 -11 -10 -16 -2 -11 29 17 4 -63 -30 -100 -18 -18 -26 -20 -43 -12 -17 10 -18 9 -7 -4 11 -14 -1 -16 -115 -19 -170 -4 -194 -3 -220 2 -27 6 -54 29 -48 39 3 5 1 10 -3 12 -5 1 -12 18 -15 36 -5 23 -3 31 4 26 7 -4 9 0 6 12 -3 11 -7 64 -9 118 -2 82 0 99 12 101 13 2 15 -16 14 -116 -1 -65 -5 -126 -8 -135 -6 -15 -4 -15 10 -3 16 13 17 11 11 -12 -5 -19 -3 -29 9 -33 8 -3 12 -2 9 4 -3 6 -2 10 4 10 5 0 13 -4 16 -10 11 -17 90 -12 107 8 18 21 30 52 20 52 -7 0 -4 232 4 239 2 3 10 -1 17 -8 9 -9 9 -14 -3 -21 -10 -7 -11 -10 -2 -10 8 0 12 -21 12 -70 0 -40 4 -70 10 -70 6 0 10 42 10 105 l0 105 -35 0 -34 0 -3 -157 -3 -158 -40 -1 c-22 0 -48 1 -57 4 -28 7 -39 64 -37 189 l2 118 -38 3 -37 3 4 -158z"/> <path d="M3130 500 c0 -13 7 -20 20 -20 13 0 20 7 20 20 0 13 -7 20 -20 20 -13 0 -20 -7 -20 -20z"/> <path d="M3200 500 c0 -13 7 -20 20 -20 13 0 20 7 20 20 0 13 -7 20 -20 20 -13 0 -20 -7 -20 -20z"/> <path d="M4060 383 c0 -151 9 -199 44 -240 20 -23 33 -27 87 -31 87 -5 124 7 264 85 113 64 120 70 121 101 2 37 -1 38 -42 13 -31 -19 -32 -19 -73 5 -56 31 -134 54 -188 54 l-43 0 0 -40 0 -40 48 0 c43 0 116 -13 152 -26 9 -3 -8 -15 -45 -31 -47 -20 -78 -26 -143 -27 -113 -1 -113 -1 -111 174 l1 135 -36 3 -36 3 0 -138z m49 89 c-1 -10 1 -25 6 -34 4 -10 5 -60 3 -111 -3 -78 -1 -96 14 -111 10 -11 16 -22 14 -25 -2 -3 38 -6 90 -6 52 0 94 3 94 7 0 5 8 8 18 8 10 0 28 7 40 16 12 8 22 12 22 9 0 -3 9 3 20 13 22 21 18 54 -6 45 -8 -3 -14 0 -14 6 0 6 -3 10 -7 10 -5 -1 -10 -1 -13 1 -3 1 -32 4 -65 7 -57 4 -80 17 -69 35 12 20 173 -22 213 -55 19 -16 43 -15 64 2 19 16 22 4 4 -20 -7 -9 -17 -14 -23 -12 -6 2 -17 -3 -24 -12 -7 -8 -19 -15 -28 -15 -8 0 -12 -3 -9 -7 4 -4 -30 -24 -75 -46 -66 -32 -96 -41 -155 -44 -49 -3 -73 -1 -73 6 0 6 -5 10 -11 8 -6 -1 -16 7 -22 18 -7 11 -16 23 -22 27 -10 8 -19 267 -9 292 8 20 26 10 23 -12z"/> <path d="M4389 203 c-12 -16 -12 -17 2 -6 9 7 20 9 24 5 5 -4 5 -1 1 6 -9 16 -11 15 -27 -5z"/> <path d="M2674 439 c-47 -23 -67 -97 -41 -149 15 -29 70 -50 110 -43 40 8 33 24 -8 20 -19 -3 -35 0 -35 5 0 6 -7 8 -15 4 -22 -8 -43 32 -40 74 4 48 4 47 16 30 8 -12 9 -9 4 9 -6 19 -4 23 9 18 9 -4 15 -2 13 5 -4 17 54 15 77 -3 18 -15 19 -18 5 -24 -8 -3 -27 -1 -41 4 -27 10 -48 -1 -48 -26 0 -7 -4 -13 -10 -13 -5 0 -10 -5 -10 -11 0 -5 5 -7 10 -4 6 4 10 3 9 -2 -4 -21 2 -33 16 -33 8 0 15 -4 15 -8 0 -5 7 -9 15 -9 8 0 15 5 15 10 0 5 7 4 15 -3 12 -10 15 -7 20 13 4 14 2 34 -4 45 -15 28 5 40 27 18 21 -21 25 -153 5 -149 -7 2 -10 -4 -7 -12 4 -9 -2 -18 -16 -23 -12 -4 -21 -12 -21 -17 1 -6 -5 -10 -12 -10 -6 -1 -25 -7 -42 -14 -18 -7 -61 -11 -105 -10 -73 3 -125 -6 -116 -19 2 -4 -2 -16 -10 -27 -14 -18 -14 -18 -28 0 -10 14 -10 22 -2 31 6 6 14 10 19 7 8 -5 10 3 11 75 1 28 -2 52 -6 52 -5 0 -8 5 -8 10 0 6 6 10 13 10 15 0 40 -47 33 -59 -3 -4 0 -8 7 -9 7 0 30 -5 52 -11 72 -18 215 9 215 41 0 12 -8 10 -34 -7 -26 -18 -149 -31 -188 -22 -17 5 -30 19 -41 47 -14 37 -18 40 -56 40 l-40 0 15 -27 c21 -42 27 -88 14 -113 -13 -24 -66 -50 -105 -50 -23 0 -25 -3 -25 -49 l0 -49 55 13 c57 13 120 53 129 82 5 16 20 18 113 18 97 0 112 3 147 24 53 33 76 75 76 139 0 114 -87 199 -166 161z m76 -89 c29 -29 25 -40 -15 -40 -37 0 -52 17 -41 45 8 21 32 19 56 -5z m-306 -277 c4 -10 2 -13 -8 -10 -8 3 -17 -1 -20 -9 -3 -9 -12 -14 -18 -12 -7 3 -19 -1 -26 -9 -21 -21 -34 -15 -30 15 2 15 8 26 16 25 6 -2 12 1 12 7 0 5 6 7 14 4 8 -3 17 -1 20 5 9 13 33 4 40 -16z"/> <path d="M2390 70 c-9 -6 -10 -10 -3 -10 6 0 15 5 18 10 8 12 4 12 -15 0z"/> <path d="M1385 412 c-3 -3 -5 -23 -5 -44 l0 -38 63 0 c34 0 77 -4 95 -9 20 -6 30 -6 27 0 -4 5 -13 9 -21 9 -8 0 -12 5 -9 10 6 9 -9 11 -93 12 -23 0 -32 5 -28 14 3 7 0 15 -7 18 -7 4 13 4 43 0 30 -3 60 -6 67 -6 7 -1 10 -5 7 -10 -4 -5 0 -9 7 -7 29 3 48 -2 63 -17 9 -8 16 -13 16 -9 0 3 6 0 14 -7 10 -9 11 -15 2 -20 -7 -5 -4 -8 8 -8 28 0 10 -13 -22 -16 -81 -8 -100 -13 -132 -32 -19 -12 -37 -22 -40 -22 -3 0 -13 -14 -23 -32 -13 -23 -15 -33 -6 -39 6 -3 9 -11 5 -17 -7 -11 20 -44 50 -60 21 -11 112 -10 156 3 18 5 20 4 8 -4 -10 -7 -11 -11 -2 -11 6 0 12 -7 12 -16 0 -8 -4 -13 -9 -10 -5 4 -11 1 -13 -6 -4 -12 -95 -20 -136 -10 -18 3 -21 7 -10 14 9 6 6 7 -9 3 -24 -7 -32 9 -10 19 6 2 1 4 -12 3 -20 -2 -27 4 -34 31 -6 17 -14 32 -18 32 -7 0 -6 24 5 75 2 11 9 19 15 17 6 -1 11 4 11 11 0 11 34 35 60 42 25 7 72 34 60 34 -28 2 -93 -21 -121 -42 -32 -23 -59 -73 -59 -108 0 -35 38 -105 68 -125 32 -21 164 -30 206 -14 23 8 26 15 26 56 0 40 -2 45 -17 39 -37 -14 -109 -23 -138 -18 -33 6 -75 39 -75 59 0 58 58 94 163 101 l77 6 0 31 c0 27 -7 35 -48 57 -26 15 -64 32 -85 39 -45 14 -145 29 -152 22z"/> <path d="M3190 406 c-94 -20 -138 -70 -124 -142 12 -67 91 -102 155 -70 39 20 39 20 39 1 0 -8 13 -29 29 -47 24 -27 36 -32 89 -36 73 -5 126 3 146 24 13 13 19 12 48 -6 41 -25 158 -28 201 -5 26 13 31 13 50 0 31 -21 89 -19 120 5 14 11 31 36 37 55 33 99 -69 203 -161 165 -34 -14 -47 -35 -64 -99 l-11 -45 -69 -2 -68 -3 37 38 c66 67 29 122 -87 129 -75 4 -127 -18 -141 -61 -9 -25 -6 -32 27 -64 41 -41 60 -42 22 -1 -13 14 -21 29 -18 32 4 3 2 6 -4 6 -6 0 -9 9 -6 21 8 31 78 60 113 48 15 -6 31 -9 36 -8 26 5 45 -4 60 -26 16 -25 16 -27 -15 -57 -49 -48 -39 -62 44 -66 61 -3 72 0 87 18 9 11 18 17 21 13 4 -9 0 8 -9 35 -5 14 -4 15 5 2 9 -12 11 -10 11 13 0 15 5 27 11 27 5 0 8 4 4 9 -5 9 20 21 53 27 7 1 28 -4 45 -11 18 -8 28 -14 23 -15 -6 0 -1 -7 10 -16 10 -8 13 -13 7 -9 -9 4 -11 1 -7 -9 3 -9 2 -16 -4 -16 -5 0 -12 7 -16 15 -3 8 -13 15 -21 15 -9 0 -13 5 -10 10 3 6 -1 10 -9 10 -8 0 -18 -5 -21 -11 -4 -6 -13 -8 -21 -5 -8 3 -13 0 -11 -7 1 -7 -3 -11 -9 -10 -15 3 -10 -57 6 -67 7 -4 9 -13 5 -20 -5 -9 -4 -11 3 -6 6 4 21 2 32 -4 29 -16 55 2 75 52 15 37 18 40 25 23 4 -11 4 -21 0 -23 -3 -1 -4 -17 -2 -35 3 -17 1 -29 -3 -25 -5 5 -13 -2 -19 -15 -8 -15 -22 -23 -45 -25 -35 -4 -84 15 -76 29 3 4 -19 -2 -48 -13 -60 -23 -160 -20 -200 6 -21 14 -25 14 -46 -1 -17 -11 -44 -16 -97 -15 -41 0 -77 1 -81 3 -5 1 -11 1 -15 0 -4 0 -19 16 -32 36 -19 27 -23 40 -14 50 6 7 15 13 21 13 6 0 8 -3 5 -6 -3 -3 4 -15 16 -27 17 -18 32 -22 83 -22 62 1 103 14 47 16 -130 3 -134 7 -134 131 l0 88 -37 -1 c-21 0 -63 -6 -93 -13z m96 -15 c7 0 12 -28 13 -67 1 -49 -1 -64 -10 -58 -8 4 -9 3 -5 -5 8 -13 -12 -44 -23 -36 -4 2 -25 -2 -47 -10 -48 -17 -78 -19 -68 -4 4 7 0 9 -13 5 -29 -9 -55 46 -43 94 4 19 8 32 9 28 1 -5 10 1 21 12 11 11 34 23 50 27 16 3 28 8 26 12 -3 5 55 7 90 2z m598 -117 c26 -10 40 -43 25 -60 -26 -31 -79 -10 -79 32 0 28 23 40 54 28z"/> <path d="M3185 352 c-3 -4 -18 -6 -33 -7 -19 0 -27 -5 -26 -18 1 -9 -2 -17 -6 -17 -13 0 0 -37 18 -53 27 -23 75 -25 97 -5 15 14 21 15 28 6 6 -9 7 -8 4 4 -3 9 -3 19 1 22 11 12 10 36 -1 36 -9 0 -9 2 -1 8 9 5 9 10 0 17 -12 11 -72 16 -81 7z m-35 -16 c0 -3 -4 -8 -10 -11 -5 -3 -10 -1 -10 4 0 6 5 11 10 11 6 0 10 -2 10 -4z m100 -26 c0 -33 -26 -50 -76 -50 -48 0 -42 58 7 71 54 16 69 11 69 -21z"/> <path d="M3510 340 c-9 -6 -10 -10 -3 -10 6 0 15 5 18 10 8 12 4 12 -15 0z"/> <path d="M2160 320 c-8 -5 -23 -7 -34 -4 -11 4 -16 2 -12 -4 3 -5 -1 -12 -9 -16 -8 -3 -15 0 -15 7 -1 7 -6 2 -13 -11 -7 -12 -16 -19 -20 -16 -4 4 -7 1 -7 -6 0 -7 -3 -11 -6 -7 -9 9 -29 -14 -36 -39 -4 -16 0 -25 16 -33 25 -13 146 -10 138 3 -3 5 2 6 12 3 11 -5 15 -3 10 5 -5 7 -2 9 8 6 20 -8 45 23 38 47 -6 23 -30 58 -45 67 -6 4 -17 3 -25 -2z m34 -33 c24 -18 17 -49 -14 -64 -28 -13 -160 -29 -160 -19 0 13 74 71 104 83 41 15 49 15 70 0z"/> <path d="M3497 314 c-15 -8 -31 -12 -36 -9 -12 7 -3 -26 12 -45 15 -19 63 -50 77 -50 20 0 80 57 80 76 0 12 -69 44 -93 44 -6 -1 -24 -8 -40 -16z m108 -26 c10 -9 -7 -27 -46 -48 -19 -11 -82 25 -76 43 8 24 99 29 122 5z"/> <path d="M3617 319 c7 -7 15 -10 18 -7 3 3 -2 9 -12 12 -14 6 -15 5 -6 -5z"/> <path d="M3538 193 c7 -3 16 -2 19 1 4 3 -2 6 -13 5 -11 0 -14 -3 -6 -6z"/> <path d="M1500 170 c0 -13 7 -20 20 -20 13 0 20 7 20 20 0 13 -7 20 -20 20 -13 0 -20 -7 -20 -20z"/> <path d="M4490 110 c0 -13 7 -20 20 -20 13 0 20 7 20 20 0 13 -7 20 -20 20 -13 0 -20 -7 -20 -20z"/> <path d="M3868 53 c6 -2 18 -2 25 0 6 3 1 5 -13 5 -14 0 -19 -2 -12 -5z"/> </g> </svg>